<?xml version="1.0" standalone="no"?>
<!DOCTYPE svg PUBLIC "-//W3C//DTD SVG 1.1//EN" "http://www.w3.org/Graphics/SVG/1.1/DTD/svg11.dtd" >
<svg xmlns="http://www.w3.org/2000/svg" xmlns:xlink="http://www.w3.org/1999/xlink" version="1.1">
<metadata>
Created by FontForge 20161003 at Thu Sep 26 12:42:47 2019
 By www-data
Copyright (c) 2014 by Rene' Bieder. All rights reserved.
</metadata>
<defs>
<font id="GalanoGrotesque-Italic" horiz-adv-x="610" >
  <font-face 
    font-family="Galano Grotesque"
    font-weight="400"
    font-style="italic"
    font-stretch="normal"
    units-per-em="1000"
    panose-1="0 0 5 0 0 0 0 0 0 0"
    ascent="800"
    descent="-200"
    x-height="493"
    cap-height="670"
    bbox="-253 -201 1227 935"
    underline-thickness="50"
    underline-position="-100"
    slope="-13"
    stemh="66"
    stemv="77"
    unicode-range="U+0020-FB02"
  />
<missing-glyph horiz-adv-x="792" 
d="M396 684c190 0 348 -147 348 -351c0 -202 -158 -348 -348 -348s-348 146 -348 348c0 204 158 351 348 351zM396 647c-168 0 -308 -131 -308 -313c0 -180 140 -312 308 -312s308 132 308 312c0 182 -140 313 -308 313zM527 400c0 -61 -48 -104 -114 -110v-43h-44v81h26
c49 0 86 29 86 72c0 46 -33 76 -83 76c-53 0 -88 -36 -89 -88l-46 8c1 69 56 122 135 122c77 0 129 -48 129 -118zM390 202c18 0 31 -14 31 -29c0 -18 -13 -32 -31 -32c-17 0 -31 14 -31 32c0 15 14 29 31 29z" />
    <glyph glyph-name="fi" unicode="fi" horiz-adv-x="620" 
d="M581 493l-113 -493h-77l99 429h-266l-99 -429h-76l99 429h-86l15 64h85l17 73c25 104 106 171 208 171c37 0 64 -8 88 -24l-33 -61c-18 11 -38 16 -64 16c-61 0 -107 -39 -122 -102l-17 -73h342zM578 693c30 0 52 -24 52 -51c0 -29 -22 -51 -52 -51c-31 0 -53 22 -53 51
c0 27 22 51 53 51z" />
    <glyph glyph-name="fl" unicode="fl" horiz-adv-x="608" 
d="M225 429l-99 -429h-77l99 429h-85l14 64h86l17 73c25 108 101 171 203 171c28 0 58 -7 77 -18l-17 -61c-25 8 -46 11 -64 11c-63 0 -109 -42 -123 -103l-17 -73h179l-14 -64h-179zM630 720l-167 -720h-76l166 720h77z" />
    <glyph glyph-name=".notdef" horiz-adv-x="792" 
d="M396 684c190 0 348 -147 348 -351c0 -202 -158 -348 -348 -348s-348 146 -348 348c0 204 158 351 348 351zM396 647c-168 0 -308 -131 -308 -313c0 -180 140 -312 308 -312s308 132 308 312c0 182 -140 313 -308 313zM527 400c0 -61 -48 -104 -114 -110v-43h-44v81h26
c49 0 86 29 86 72c0 46 -33 76 -83 76c-53 0 -88 -36 -89 -88l-46 8c1 69 56 122 135 122c77 0 129 -48 129 -118zM390 202c18 0 31 -14 31 -29c0 -18 -13 -32 -31 -32c-17 0 -31 14 -31 32c0 15 14 29 31 29z" />
    <glyph glyph-name="A" unicode="A" horiz-adv-x="698" 
d="M631 0h-80l-35 170h-354l-114 -170h-90l455 670h73zM501 241l-69 331l-222 -331h291z" />
    <glyph glyph-name="Aacute" unicode="&#xc1;" horiz-adv-x="698" 
d="M509 745h-72l112 140h97zM486 670l145 -670h-80l-35 170h-354l-114 -170h-90l455 670h73zM501 241l-69 331l-222 -331h291z" />
    <glyph glyph-name="Abreve" unicode="&#x102;" horiz-adv-x="698" 
d="M468 732c-86 0 -135 53 -118 135h61c-10 -49 20 -80 65 -80s86 31 96 80h68c-17 -82 -85 -135 -172 -135zM486 670l145 -670h-80l-35 170h-354l-114 -170h-90l455 670h73zM501 241l-69 331l-222 -331h291z" />
    <glyph glyph-name="Acircumflex" unicode="&#xc2;" horiz-adv-x="698" 
d="M409 737h-82l150 142h72l84 -142h-73l-54 93zM486 670l145 -670h-80l-35 170h-354l-114 -170h-90l455 670h73zM501 241l-69 331l-222 -331h291z" />
    <glyph glyph-name="Adieresis" unicode="&#xc4;" horiz-adv-x="698" 
d="M382 755c-30 0 -52 22 -52 51c0 27 22 51 52 51s53 -24 53 -51c0 -29 -23 -51 -53 -51zM580 755c-30 0 -52 22 -52 51c0 27 22 51 52 51s53 -24 53 -51c0 -29 -23 -51 -53 -51zM486 670l145 -670h-80l-35 170h-354l-114 -170h-90l455 670h73zM501 241l-69 331l-222 -331
h291z" />
    <glyph glyph-name="Agrave" unicode="&#xc0;" horiz-adv-x="698" 
d="M432 745l-137 140h96l112 -140h-71zM631 0h-80l-35 170h-354l-114 -170h-90l455 670h73zM501 241l-69 331l-222 -331h291z" />
    <glyph glyph-name="Amacron" unicode="&#x100;" horiz-adv-x="698" 
d="M613 762h-284l14 62h284zM631 0h-80l-35 170h-354l-114 -170h-90l455 670h73zM501 241l-69 331l-222 -331h291z" />
    <glyph glyph-name="Aogonek" unicode="&#x104;" horiz-adv-x="698" 
d="M535 -111c0 -21 14 -34 40 -34c15 0 27 4 48 10l-8 -50c-25 -11 -44 -16 -63 -16c-47 0 -79 29 -79 73c0 39 24 72 98 128h-20l-35 170h-354l-114 -170h-90l455 670h73l145 -670c-63 -54 -96 -76 -96 -111zM501 241l-69 331l-222 -331h291z" />
    <glyph glyph-name="Aring" unicode="&#xc5;" horiz-adv-x="698" 
d="M476 727c-55 0 -95 42 -95 94c0 59 51 107 112 107c55 0 95 -41 95 -93c0 -59 -51 -108 -112 -108zM489 882c-33 0 -59 -27 -59 -58c0 -27 20 -50 50 -50c33 0 61 27 61 58c0 27 -22 50 -52 50zM631 0h-80l-35 170h-354l-114 -170h-90l455 670h73zM501 241l-69 331
l-222 -331h291z" />
    <glyph glyph-name="Atilde" unicode="&#xc3;" horiz-adv-x="698" 
d="M427 816c-24 0 -42 -19 -48 -45h-54c17 75 68 102 111 102c60 0 65 -48 111 -48c23 0 41 19 47 47h54c-17 -76 -67 -104 -110 -104c-61 0 -66 48 -111 48zM486 670l145 -670h-80l-35 170h-354l-114 -170h-90l455 670h73zM501 241l-69 331l-222 -331h291z" />
    <glyph glyph-name="AE" unicode="&#xc6;" horiz-adv-x="1142" 
d="M753 599l-52 -227h379l-16 -71h-380l-52 -229h410l-17 -72h-489l36 155h-343l-165 -155h-106l723 670h498l-17 -71h-409zM587 226l79 340l-362 -340h283z" />
    <glyph glyph-name="AEacute" unicode="&#x1fc;" horiz-adv-x="1142" 
d="M925 745h-72l112 140h97zM753 599l-52 -227h379l-16 -71h-380l-52 -229h410l-17 -72h-489l36 155h-343l-165 -155h-106l723 670h498l-17 -71h-409zM587 226l79 340l-362 -340h283z" />
    <glyph glyph-name="B" unicode="B" horiz-adv-x="671" 
d="M514 344l-1 -3c59 -9 101 -54 101 -126c0 -119 -103 -215 -259 -215h-318l139 602l16 68h293c106 0 174 -57 174 -146c0 -96 -78 -167 -145 -180zM256 602l-54 -232h221c88 0 156 64 156 139c0 59 -45 93 -110 93h-213zM132 68h234c101 0 168 65 168 144
c0 59 -41 94 -109 94h-238z" />
    <glyph glyph-name="C" unicode="C" horiz-adv-x="786" 
d="M478 683c153 0 265 -84 287 -212l-80 -17c-20 91 -93 156 -209 156c-170 0 -321 -140 -321 -314c0 -133 89 -235 231 -235c116 0 214 66 259 154l72 -24c-55 -118 -176 -204 -334 -204c-188 0 -309 129 -309 304c0 214 181 392 404 392z" />
    <glyph glyph-name="Cacute" unicode="&#x106;" horiz-adv-x="786" 
d="M540 745h-72l112 140h97zM478 683c153 0 265 -84 287 -212l-80 -17c-20 91 -93 156 -209 156c-170 0 -321 -140 -321 -314c0 -133 89 -235 231 -235c116 0 214 66 259 154l72 -24c-55 -118 -176 -204 -334 -204c-188 0 -309 129 -309 304c0 214 181 392 404 392z" />
    <glyph glyph-name="Ccaron" unicode="&#x10c;" horiz-adv-x="786" 
d="M461 738l-84 142h74l53 -92l97 92h83l-150 -142h-73zM386 61c116 0 214 66 259 154l72 -24c-55 -118 -176 -204 -334 -204c-188 0 -309 129 -309 304c0 214 181 392 404 392c153 0 265 -84 287 -212l-80 -17c-20 91 -93 156 -209 156c-170 0 -321 -140 -321 -314
c0 -133 89 -235 231 -235z" />
    <glyph glyph-name="Ccedilla" unicode="&#xc7;" horiz-adv-x="786" 
d="M386 61c116 0 214 66 259 154l72 -24c-54 -116 -173 -202 -328 -204l-106 -157h-92l138 161c-157 22 -255 142 -255 300c0 214 181 392 404 392c153 0 265 -84 287 -212l-80 -17c-20 91 -93 156 -209 156c-170 0 -321 -140 -321 -314c0 -133 89 -235 231 -235z" />
    <glyph glyph-name="Cdotaccent" unicode="&#x10a;" horiz-adv-x="786" 
d="M512 862c29 0 51 -23 51 -49c0 -29 -22 -50 -51 -50c-30 0 -51 21 -51 50c0 26 21 49 51 49zM478 683c153 0 265 -84 287 -212l-80 -17c-20 91 -93 156 -209 156c-170 0 -321 -140 -321 -314c0 -133 89 -235 231 -235c116 0 214 66 259 154l72 -24
c-55 -118 -176 -204 -334 -204c-188 0 -309 129 -309 304c0 214 181 392 404 392z" />
    <glyph glyph-name="D" unicode="D" horiz-adv-x="741" 
d="M186 670h221c201 0 305 -116 305 -275c0 -211 -183 -395 -452 -395h-229zM127 72h125c221 0 378 148 378 321c0 121 -76 206 -231 206h-150z" />
    <glyph glyph-name="Eth" unicode="&#xd0;" horiz-adv-x="782" 
d="M221 670h221c200 0 305 -116 305 -275c0 -211 -183 -395 -452 -395h-229l70 302h-89l16 71h89zM162 72h125c220 0 378 148 378 321c0 121 -77 206 -231 206h-150l-52 -226h159l-16 -71h-160z" />
    <glyph glyph-name="Dcaron" unicode="&#x10e;" horiz-adv-x="741" 
d="M428 738l-84 142h74l53 -92l97 92h83l-150 -142h-73zM186 670h221c201 0 305 -116 305 -275c0 -211 -183 -395 -452 -395h-229zM127 72h125c221 0 378 148 378 321c0 121 -76 206 -231 206h-150z" />
    <glyph glyph-name="Dcroat" unicode="&#x110;" horiz-adv-x="782" 
d="M221 670h221c200 0 305 -116 305 -275c0 -211 -183 -395 -452 -395h-229l70 302h-89l16 71h89zM162 72h125c220 0 378 148 378 321c0 121 -77 206 -231 206h-150l-52 -226h159l-16 -71h-160z" />
    <glyph glyph-name="E" unicode="E" horiz-adv-x="638" 
d="M249 599l-53 -227h380l-16 -71h-380l-53 -229h410l-16 -72h-490l155 670h488l-16 -71h-409z" />
    <glyph glyph-name="Eacute" unicode="&#xc9;" horiz-adv-x="638" 
d="M492 745h-72l112 140h97zM249 599l-53 -227h380l-16 -71h-380l-53 -229h410l-16 -72h-490l155 670h488l-16 -71h-409z" />
    <glyph glyph-name="Ecaron" unicode="&#x11a;" horiz-adv-x="638" 
d="M413 738l-84 142h74l53 -92l97 92h83l-150 -142h-73zM249 599l-53 -227h380l-16 -71h-380l-53 -229h410l-16 -72h-490l155 670h488l-16 -71h-409z" />
    <glyph glyph-name="Ecircumflex" unicode="&#xca;" horiz-adv-x="638" 
d="M392 737h-82l150 142h72l84 -142h-73l-54 93zM249 599l-53 -227h380l-16 -71h-380l-53 -229h410l-16 -72h-490l155 670h488l-16 -71h-409z" />
    <glyph glyph-name="Edieresis" unicode="&#xcb;" horiz-adv-x="638" 
d="M365 755c-30 0 -52 22 -52 51c0 27 22 51 52 51s53 -24 53 -51c0 -29 -23 -51 -53 -51zM563 755c-30 0 -52 22 -52 51c0 27 22 51 52 51s53 -24 53 -51c0 -29 -23 -51 -53 -51zM249 599l-53 -227h380l-16 -71h-380l-53 -229h410l-16 -72h-490l155 670h488l-16 -71h-409z
" />
    <glyph glyph-name="Edotaccent" unicode="&#x116;" horiz-adv-x="638" 
d="M464 763c-30 0 -51 21 -51 50c0 26 21 49 51 49c29 0 51 -23 51 -49c0 -29 -22 -50 -51 -50zM249 599l-53 -227h380l-16 -71h-380l-53 -229h410l-16 -72h-490l155 670h488l-16 -71h-409z" />
    <glyph glyph-name="Egrave" unicode="&#xc8;" horiz-adv-x="638" 
d="M415 745l-137 140h96l112 -140h-71zM249 599l-53 -227h380l-16 -71h-380l-53 -229h410l-16 -72h-490l155 670h488l-16 -71h-409z" />
    <glyph glyph-name="Emacron" unicode="&#x112;" horiz-adv-x="638" 
d="M596 762h-284l14 62h284zM249 599l-53 -227h380l-16 -71h-380l-53 -229h410l-16 -72h-490l155 670h488l-16 -71h-409z" />
    <glyph glyph-name="Eogonek" unicode="&#x118;" horiz-adv-x="638" 
d="M249 599l-53 -227h380l-16 -71h-380l-53 -229h410l-16 -72h-41c-63 -54 -96 -76 -96 -111c0 -21 14 -34 40 -34c15 0 27 4 48 10l-8 -50c-25 -11 -44 -16 -63 -16c-47 0 -79 29 -79 73c0 39 24 72 98 128h-389l155 670h488l-16 -71h-409z" />
    <glyph glyph-name="F" unicode="F" horiz-adv-x="590" 
d="M249 599l-55 -234h367l-16 -71h-367l-68 -294h-79l155 670h480l-17 -71h-400z" />
    <glyph glyph-name="G" unicode="G" horiz-adv-x="797" 
d="M401 368h366c-1 -12 -2 -23 -4 -34c-35 -203 -187 -347 -388 -347c-180 0 -301 126 -301 303c0 215 187 393 407 393c142 0 257 -72 284 -194l-78 -18c-28 91 -109 138 -210 138c-172 0 -322 -140 -322 -312c0 -136 92 -236 228 -236c143 0 257 103 289 235h-287z" />
    <glyph glyph-name="Gbreve" unicode="&#x11e;" horiz-adv-x="797" 
d="M500 732c-86 0 -135 53 -118 135h61c-10 -49 20 -80 65 -80s86 31 96 80h68c-17 -82 -85 -135 -172 -135zM401 368h366c-1 -12 -2 -23 -4 -34c-35 -203 -187 -347 -388 -347c-180 0 -301 126 -301 303c0 215 187 393 407 393c142 0 257 -72 284 -194l-78 -18
c-28 91 -109 138 -210 138c-172 0 -322 -140 -322 -312c0 -136 92 -236 228 -236c143 0 257 103 289 235h-287z" />
    <glyph glyph-name="Gcommaaccent" unicode="&#x122;" horiz-adv-x="797" 
d="M401 368h366c-1 -12 -2 -23 -4 -34c-35 -203 -187 -347 -388 -347c-180 0 -301 126 -301 303c0 215 187 393 407 393c142 0 257 -72 284 -194l-78 -18c-28 91 -109 138 -210 138c-172 0 -322 -140 -322 -312c0 -136 92 -236 228 -236c143 0 257 103 289 235h-287z
M232 -188l78 143h86l-104 -143h-60z" />
    <glyph glyph-name="Gdotaccent" unicode="&#x120;" horiz-adv-x="797" 
d="M513 862c29 0 51 -23 51 -49c0 -29 -22 -50 -51 -50c-30 0 -51 21 -51 50c0 26 21 49 51 49zM401 368h366c-1 -12 -2 -23 -4 -34c-35 -203 -187 -347 -388 -347c-180 0 -301 126 -301 303c0 215 187 393 407 393c142 0 257 -72 284 -194l-78 -18
c-28 91 -109 138 -210 138c-172 0 -322 -140 -322 -312c0 -136 92 -236 228 -236c143 0 257 103 289 235h-287z" />
    <glyph glyph-name="H" unicode="H" horiz-adv-x="736" 
d="M746 670l-154 -670h-79l69 302h-402l-70 -302h-79l155 670h79l-69 -297h403l68 297h79z" />
    <glyph glyph-name="Hbar" unicode="&#x126;" horiz-adv-x="783" 
d="M790 466h-69l-107 -466h-79l65 282h-399l-65 -282h-79l108 466h-70l15 66h70l32 138h79l-32 -138h398l32 138h79l-32 -138h70zM642 466h-398l-26 -113h398z" />
    <glyph glyph-name="I" unicode="I" horiz-adv-x="255" 
d="M110 0h-79l155 670h79z" />
    <glyph glyph-name="IJ" unicode="&#x132;" horiz-adv-x="849" 
d="M110 0h-79l155 670h79zM877 670l-99 -426c-37 -159 -148 -257 -290 -257c-133 0 -220 86 -219 216l75 17c-3 -95 50 -161 145 -161c103 0 184 76 210 185l99 426h79z" />
    <glyph glyph-name="Iacute" unicode="&#xcd;" horiz-adv-x="255" 
d="M284 745h-72l112 140h97zM110 0h-79l155 670h79z" />
    <glyph glyph-name="Icircumflex" unicode="&#xce;" horiz-adv-x="255" 
d="M335 737l-54 93l-97 -93h-82l150 142h72l84 -142h-73zM186 670h79l-155 -670h-79z" />
    <glyph glyph-name="Idieresis" unicode="&#xcf;" horiz-adv-x="255" 
d="M157 857c30 0 53 -24 53 -51c0 -29 -23 -51 -53 -51s-52 22 -52 51c0 27 22 51 52 51zM355 857c30 0 53 -24 53 -51c0 -29 -23 -51 -53 -51s-52 22 -52 51c0 27 22 51 52 51zM110 0h-79l155 670h79z" />
    <glyph glyph-name="Idotaccent" unicode="&#x130;" horiz-adv-x="255" 
d="M256 862c29 0 51 -23 51 -49c0 -29 -22 -50 -51 -50c-30 0 -51 21 -51 50c0 26 21 49 51 49zM110 0h-79l155 670h79z" />
    <glyph glyph-name="Igrave" unicode="&#xcc;" horiz-adv-x="255" 
d="M166 885l112 -140h-71l-137 140h96zM110 0h-79l155 670h79z" />
    <glyph glyph-name="Imacron" unicode="&#x12a;" horiz-adv-x="255" 
d="M388 762h-284l14 62h284zM110 0h-79l155 670h79z" />
    <glyph glyph-name="Iogonek" unicode="&#x12e;" horiz-adv-x="255" 
d="M265 670l-155 -670c-63 -54 -96 -76 -96 -111c0 -21 14 -34 40 -34c15 0 27 4 48 10l-8 -50c-25 -11 -44 -16 -63 -16c-48 0 -80 29 -80 73c0 39 24 72 99 128h-19l155 670h79z" />
    <glyph glyph-name="J" unicode="J" horiz-adv-x="594" 
d="M622 670l-99 -426c-37 -159 -148 -257 -290 -257c-133 0 -220 86 -219 216l75 17c-3 -95 50 -161 145 -161c103 0 184 76 210 185l99 426h79z" />
    <glyph glyph-name="K" unicode="K" horiz-adv-x="674" 
d="M282 332l320 -332h-99l-283 297h-46l-69 -297h-79l155 670h79l-70 -302h29l407 302h108z" />
    <glyph glyph-name="Kcommaaccent" unicode="&#x136;" horiz-adv-x="674" 
d="M282 332l320 -332h-99l-283 297h-46l-69 -297h-79l155 670h79l-70 -302h29l407 302h108zM243 -45h86l-104 -143h-60z" />
    <glyph glyph-name="L" unicode="L" horiz-adv-x="579" 
d="M511 72l-16 -72h-464l155 670h79l-138 -598h384z" />
    <glyph glyph-name="Lacute" unicode="&#x139;" horiz-adv-x="579" 
d="M283 745h-72l112 140h97zM511 72l-16 -72h-464l155 670h79l-138 -598h384z" />
    <glyph glyph-name="Lcaron" unicode="&#x13d;" horiz-adv-x="579" 
d="M511 72l-16 -72h-464l155 670h79l-138 -598h384zM427 498h-61l40 172h77z" />
    <glyph glyph-name="Lcommaaccent" unicode="&#x13b;" horiz-adv-x="579" 
d="M511 72l-16 -72h-464l155 670h79l-138 -598h384zM211 -45h86l-104 -143h-60z" />
    <glyph glyph-name="Ldot" unicode="&#x13f;" horiz-adv-x="581" 
d="M511 72l-16 -72h-464l155 670h79l-138 -598h384zM374 294c-30 0 -51 21 -51 50c0 26 21 49 51 49c29 0 51 -23 51 -49c0 -29 -22 -50 -51 -50z" />
    <glyph glyph-name="Lslash" unicode="&#x141;" horiz-adv-x="619" 
d="M549 72l-17 -72h-463l58 253l-91 -40l17 75l91 40l79 342h79l-70 -304l166 72l-17 -75l-166 -72l-50 -219h384z" />
    <glyph glyph-name="M" unicode="M" horiz-adv-x="898" 
d="M908 670l-154 -670h-77l113 491l-367 -491h-61l-140 492l-114 -492h-77l155 670h63l161 -567l423 567h75z" />
    <glyph glyph-name="N" unicode="N" horiz-adv-x="761" 
d="M770 670l-155 -670h-67l-311 541l-126 -541h-79l155 670h68l310 -546l126 546h79z" />
    <glyph glyph-name="Nacute" unicode="&#x143;" horiz-adv-x="761" 
d="M535 745h-72l112 140h97zM770 670l-155 -670h-67l-311 541l-126 -541h-79l155 670h68l310 -546l126 546h79z" />
    <glyph glyph-name="Ncaron" unicode="&#x147;" horiz-adv-x="761" 
d="M456 738l-84 142h74l53 -92l97 92h83l-150 -142h-73zM770 670l-155 -670h-67l-311 541l-126 -541h-79l155 670h68l310 -546l126 546h79z" />
    <glyph glyph-name="Ncommaaccent" unicode="&#x145;" horiz-adv-x="761" 
d="M770 670l-155 -670h-67l-311 541l-126 -541h-79l155 670h68l310 -546l126 546h79zM288 -45h86l-104 -143h-60z" />
    <glyph glyph-name="Eng" unicode="&#x14a;" horiz-adv-x="759" 
d="M769 670l-167 -727c-17 -73 -79 -128 -154 -128c-38 0 -66 10 -87 22l26 61c17 -9 37 -15 55 -15c39 0 70 24 79 61l17 72l-302 525l-126 -541h-79l155 670h68l309 -545l127 545h79z" />
    <glyph glyph-name="Ntilde" unicode="&#xd1;" horiz-adv-x="761" 
d="M453 816c-24 0 -42 -19 -48 -45h-54c17 75 68 102 111 102c60 0 65 -48 111 -48c23 0 41 19 47 47h54c-17 -76 -67 -104 -110 -104c-61 0 -66 48 -111 48zM770 670l-155 -670h-67l-311 541l-126 -541h-79l155 670h68l310 -546l126 546h79z" />
    <glyph glyph-name="O" unicode="O" horiz-adv-x="804" 
d="M470 684c199 0 327 -157 298 -349c-29 -204 -196 -348 -392 -348c-198 -1 -327 153 -299 348c30 195 203 349 393 349zM379 61c154 0 286 118 310 274c23 154 -76 274 -221 274c-155 0 -289 -120 -312 -274c-23 -156 79 -274 223 -274z" />
    <glyph glyph-name="Oacute" unicode="&#xd3;" horiz-adv-x="804" 
d="M552 745h-72l112 140h97zM470 684c199 0 327 -157 298 -349c-29 -204 -196 -348 -392 -348c-198 -1 -327 153 -299 348c30 195 203 349 393 349zM379 61c154 0 286 118 310 274c23 154 -76 274 -221 274c-155 0 -289 -120 -312 -274c-23 -156 79 -274 223 -274z" />
    <glyph glyph-name="Ocircumflex" unicode="&#xd4;" horiz-adv-x="804" 
d="M452 737h-82l150 142h72l84 -142h-73l-54 93zM470 684c199 0 327 -157 298 -349c-29 -204 -196 -348 -392 -348c-198 -1 -327 153 -299 348c30 195 203 349 393 349zM689 335c23 154 -76 274 -221 274c-155 0 -289 -120 -312 -274c-23 -156 79 -274 223 -274
c154 0 286 118 310 274z" />
    <glyph glyph-name="Odieresis" unicode="&#xd6;" horiz-adv-x="804" 
d="M425 857c30 0 53 -24 53 -51c0 -29 -23 -51 -53 -51s-52 22 -52 51c0 27 22 51 52 51zM623 857c30 0 53 -24 53 -51c0 -29 -23 -51 -53 -51s-52 22 -52 51c0 27 22 51 52 51zM470 684c199 0 327 -157 298 -349c-29 -204 -196 -348 -392 -348c-198 -1 -327 153 -299 348
c30 195 203 349 393 349zM379 61c154 0 286 118 310 274c23 154 -76 274 -221 274c-155 0 -289 -120 -312 -274c-23 -156 79 -274 223 -274z" />
    <glyph glyph-name="Ograve" unicode="&#xd2;" horiz-adv-x="804" 
d="M434 885l112 -140h-71l-137 140h96zM470 684c199 0 327 -157 298 -349c-29 -204 -196 -348 -392 -348c-198 -1 -327 153 -299 348c30 195 203 349 393 349zM379 61c154 0 286 118 310 274c23 154 -76 274 -221 274c-155 0 -289 -120 -312 -274c-23 -156 79 -274 223 -274
z" />
    <glyph glyph-name="Ohungarumlaut" unicode="&#x150;" horiz-adv-x="804" 
d="M464 745h-69l112 140h95zM618 745h-69l111 140h95zM470 684c199 0 327 -157 298 -349c-29 -204 -196 -348 -392 -348c-198 -1 -327 153 -299 348c30 195 203 349 393 349zM379 61c154 0 286 118 310 274c23 154 -76 274 -221 274c-155 0 -289 -120 -312 -274
c-23 -156 79 -274 223 -274z" />
    <glyph glyph-name="Omacron" unicode="&#x14c;" horiz-adv-x="804" 
d="M656 762h-284l14 62h284zM470 684c199 0 327 -157 298 -349c-29 -204 -196 -348 -392 -348c-198 -1 -327 153 -299 348c30 195 203 349 393 349zM379 61c154 0 286 118 310 274c23 154 -76 274 -221 274c-155 0 -289 -120 -312 -274c-23 -156 79 -274 223 -274z" />
    <glyph glyph-name="Oslash" unicode="&#xd8;" horiz-adv-x="804" 
d="M811 618l-84 -68c38 -59 53 -134 41 -215c-29 -204 -196 -348 -392 -348c-95 0 -174 35 -228 93l-96 -78l-42 53l99 80c-30 57 -43 125 -32 200c30 195 203 349 393 349c88 0 162 -31 215 -81l84 68zM156 335c-8 -55 -1 -105 18 -147l447 363c-39 37 -92 58 -153 58
c-155 0 -289 -120 -312 -274zM689 335c9 62 -1 118 -26 163l-451 -366c41 -45 99 -71 167 -71c154 0 286 118 310 274z" />
    <glyph glyph-name="Otilde" unicode="&#xd5;" horiz-adv-x="804" 
d="M422 771h-54c17 75 68 102 111 102c60 0 65 -48 111 -48c23 0 41 19 47 47h54c-17 -76 -67 -104 -110 -104c-61 0 -66 48 -111 48c-24 0 -42 -19 -48 -45zM470 684c199 0 327 -157 298 -349c-29 -204 -196 -348 -392 -348c-198 -1 -327 153 -299 348
c30 195 203 349 393 349zM379 61c154 0 286 118 310 274c23 154 -76 274 -221 274c-155 0 -289 -120 -312 -274c-23 -156 79 -274 223 -274z" />
    <glyph glyph-name="OE" unicode="&#x152;" horiz-adv-x="1033" 
d="M644 599l-52 -227h379l-16 -71h-380l-52 -229h410l-17 -72h-553c-195 0 -318 134 -287 325c31 203 222 345 460 345h534l-17 -71h-409zM444 72l121 527h-40c-197 0 -345 -114 -369 -274c-25 -149 60 -253 209 -253h79z" />
    <glyph glyph-name="P" unicode="P" horiz-adv-x="655" 
d="M185 670h279c126 0 204 -71 204 -178c0 -136 -116 -238 -283 -238h-217l-58 -254h-79zM185 325h204c117 0 199 73 199 164c0 67 -43 110 -129 110h-211z" />
    <glyph glyph-name="Thorn" unicode="&#xde;" horiz-adv-x="632" 
d="M237 549h177c127 0 206 -71 206 -176c0 -142 -121 -251 -272 -251h-210l-28 -122h-79l155 670h79zM155 193h188c110 0 197 76 197 171c0 68 -45 113 -129 113h-190z" />
    <glyph glyph-name="Q" unicode="Q" horiz-adv-x="804" 
d="M768 335c-17 -117 -78 -214 -165 -275l138 -164l-61 -55l-151 177c-47 -20 -99 -31 -153 -31c-198 -1 -327 153 -299 348c30 195 203 349 393 349c199 0 327 -157 298 -349zM156 335c-23 -156 79 -274 223 -274c154 0 286 118 310 274c23 154 -76 274 -221 274
c-155 0 -289 -120 -312 -274z" />
    <glyph glyph-name="R" unicode="R" horiz-adv-x="676" 
d="M679 509c0 -125 -99 -214 -250 -222l169 -287h-90l-164 287h-163l-66 -287h-79l154 670h300c114 0 189 -61 189 -161zM198 359h216c112 0 185 58 185 143c0 61 -46 97 -113 97h-233z" />
    <glyph glyph-name="Racute" unicode="&#x154;" horiz-adv-x="676" 
d="M469 745h-72l112 140h97zM679 509c0 -125 -99 -214 -250 -222l169 -287h-90l-164 287h-163l-66 -287h-79l154 670h300c114 0 189 -61 189 -161zM198 359h216c112 0 185 58 185 143c0 61 -46 97 -113 97h-233z" />
    <glyph glyph-name="Rcaron" unicode="&#x158;" horiz-adv-x="676" 
d="M390 738l-84 142h74l53 -92l97 92h83l-150 -142h-73zM679 509c0 -125 -99 -214 -250 -222l169 -287h-90l-164 287h-163l-66 -287h-79l154 670h300c114 0 189 -61 189 -161zM198 359h216c112 0 185 58 185 143c0 61 -46 97 -113 97h-233z" />
    <glyph glyph-name="Rcommaaccent" unicode="&#x156;" horiz-adv-x="676" 
d="M679 509c0 -125 -99 -214 -250 -222l169 -287h-90l-164 287h-163l-66 -287h-79l154 670h300c114 0 189 -61 189 -161zM198 359h216c112 0 185 58 185 143c0 61 -46 97 -113 97h-233zM242 -45h86l-104 -143h-60z" />
    <glyph glyph-name="S" unicode="S" horiz-adv-x="624" 
d="M386 683c139 0 228 -73 237 -189l-79 -18c-4 83 -68 139 -165 139c-95 0 -167 -53 -167 -127c0 -44 27 -68 84 -89l116 -42c93 -33 142 -81 142 -161c0 -125 -106 -209 -262 -209c-143 0 -257 73 -262 205l83 17c3 -96 75 -153 186 -153c110 0 177 54 177 131
c0 45 -25 74 -90 97l-118 42c-77 29 -138 64 -138 152c0 121 108 205 256 205z" />
    <glyph glyph-name="Sacute" unicode="&#x15a;" horiz-adv-x="624" 
d="M450 745h-72l112 140h97zM386 683c139 0 228 -73 237 -189l-79 -18c-4 83 -68 139 -165 139c-95 0 -167 -53 -167 -127c0 -44 27 -68 84 -89l116 -42c93 -33 142 -81 142 -161c0 -125 -106 -209 -262 -209c-143 0 -257 73 -262 205l83 17c3 -96 75 -153 186 -153
c110 0 177 54 177 131c0 45 -25 74 -90 97l-118 42c-77 29 -138 64 -138 152c0 121 108 205 256 205z" />
    <glyph glyph-name="Scaron" unicode="&#x160;" horiz-adv-x="624" 
d="M371 738l-84 142h74l53 -92l97 92h83l-150 -142h-73zM296 399l116 -42c93 -33 142 -81 142 -161c0 -125 -106 -209 -262 -209c-143 0 -257 73 -262 205l83 17c3 -96 75 -153 186 -153c110 0 177 54 177 131c0 45 -25 74 -90 97l-118 42c-77 29 -138 64 -138 152
c0 121 108 205 256 205c139 0 228 -73 237 -189l-79 -18c-4 83 -68 139 -165 139c-95 0 -167 -53 -167 -127c0 -44 27 -68 84 -89z" />
    <glyph glyph-name="Scedilla" unicode="&#x15e;" horiz-adv-x="624" 
d="M296 399l116 -42c93 -33 142 -81 142 -161c0 -122 -100 -205 -250 -209l-106 -157h-92l137 160c-119 15 -209 85 -213 202l83 17c3 -96 75 -153 186 -153c110 0 177 54 177 131c0 45 -25 74 -90 97l-118 42c-77 29 -138 64 -138 152c0 121 108 205 256 205
c139 0 228 -73 237 -189l-79 -18c-4 83 -68 139 -165 139c-95 0 -167 -53 -167 -127c0 -44 27 -68 84 -89z" />
    <glyph glyph-name="Scommaaccent" unicode="&#x218;" horiz-adv-x="624" 
d="M386 683c139 0 228 -73 237 -189l-79 -18c-4 83 -68 139 -165 139c-95 0 -167 -53 -167 -127c0 -44 27 -68 84 -89l116 -42c93 -33 142 -81 142 -161c0 -125 -106 -209 -262 -209c-143 0 -257 73 -262 205l83 17c3 -96 75 -153 186 -153c110 0 177 54 177 131
c0 45 -25 74 -90 97l-118 42c-77 29 -138 64 -138 152c0 121 108 205 256 205zM139 -188l78 143h86l-104 -143h-60z" />
    <glyph glyph-name="T" unicode="T" horiz-adv-x="627" 
d="M684 599h-248l-139 -599h-80l139 599h-249l16 71h577z" />
    <glyph glyph-name="Tbar" unicode="&#x166;" horiz-adv-x="627" 
d="M436 599l-54 -230h134l-15 -66h-134l-70 -303h-80l70 303h-130l15 66h130l54 230h-249l16 71h577l-16 -71h-248z" />
    <glyph glyph-name="Tcaron" unicode="&#x164;" horiz-adv-x="627" 
d="M392 738l-84 142h74l53 -92l97 92h83l-150 -142h-73zM684 599h-248l-139 -599h-80l139 599h-249l16 71h577z" />
    <glyph glyph-name="uni021A" unicode="&#x21a;" horiz-adv-x="627" 
d="M684 599h-248l-139 -599h-80l139 599h-249l16 71h577zM205 -45h86l-104 -143h-60z" />
    <glyph glyph-name="U" unicode="U" horiz-adv-x="721" 
d="M739 670l-87 -377c-42 -183 -160 -306 -339 -306c-159 0 -264 123 -222 306l87 377h79l-87 -377c-32 -139 30 -230 152 -230c123 0 219 92 251 230l87 377h79z" />
    <glyph glyph-name="Uacute" unicode="&#xda;" horiz-adv-x="721" 
d="M515 745h-72l112 140h97zM739 670l-87 -377c-42 -183 -160 -306 -339 -306c-159 0 -264 123 -222 306l87 377h79l-87 -377c-32 -139 30 -230 152 -230c123 0 219 92 251 230l87 377h79z" />
    <glyph glyph-name="Ucircumflex" unicode="&#xdb;" horiz-adv-x="721" 
d="M415 737h-82l150 142h72l84 -142h-73l-54 93zM739 670l-87 -377c-42 -183 -160 -306 -339 -306c-159 0 -264 123 -222 306l87 377h79l-87 -377c-32 -139 30 -230 152 -230c123 0 219 92 251 230l87 377h79z" />
    <glyph glyph-name="Udieresis" unicode="&#xdc;" horiz-adv-x="721" 
d="M388 755c-30 0 -52 22 -52 51c0 27 22 51 52 51s53 -24 53 -51c0 -29 -23 -51 -53 -51zM586 755c-30 0 -52 22 -52 51c0 27 22 51 52 51s53 -24 53 -51c0 -29 -23 -51 -53 -51zM739 670l-87 -377c-42 -183 -160 -306 -339 -306c-159 0 -264 123 -222 306l87 377h79
l-87 -377c-32 -139 30 -230 152 -230c123 0 219 92 251 230l87 377h79z" />
    <glyph glyph-name="Ugrave" unicode="&#xd9;" horiz-adv-x="721" 
d="M438 745l-137 140h96l112 -140h-71zM739 670l-87 -377c-42 -183 -160 -306 -339 -306c-159 0 -264 123 -222 306l87 377h79l-87 -377c-32 -139 30 -230 152 -230c123 0 219 92 251 230l87 377h79z" />
    <glyph glyph-name="Uhungarumlaut" unicode="&#x170;" horiz-adv-x="721" 
d="M427 745h-69l112 140h95zM512 745l111 140h95l-137 -140h-69zM739 670l-87 -377c-42 -183 -160 -306 -339 -306c-159 0 -264 123 -222 306l87 377h79l-87 -377c-32 -139 30 -230 152 -230c123 0 219 92 251 230l87 377h79z" />
    <glyph glyph-name="Umacron" unicode="&#x16a;" horiz-adv-x="721" 
d="M619 762h-284l14 62h284zM739 670l-87 -377c-42 -183 -160 -306 -339 -306c-159 0 -264 123 -222 306l87 377h79l-87 -377c-32 -139 30 -230 152 -230c123 0 219 92 251 230l87 377h79z" />
    <glyph glyph-name="Uogonek" unicode="&#x172;" horiz-adv-x="721" 
d="M739 670l-87 -377c-24 -103 -72 -187 -141 -240c-119 -109 -148 -131 -148 -163c0 -22 14 -35 40 -35c15 0 27 4 48 10l-8 -50c-25 -11 -44 -16 -63 -16c-47 0 -79 28 -79 72c0 38 22 73 97 127c-27 -7 -55 -11 -85 -11c-159 0 -264 123 -222 306l87 377h79l-87 -377
c-32 -139 30 -230 152 -230c123 0 219 92 251 230l87 377h79z" />
    <glyph glyph-name="Uring" unicode="&#x16e;" horiz-adv-x="721" 
d="M482 727c-55 0 -95 42 -95 94c0 59 51 107 112 107c55 0 95 -41 95 -93c0 -59 -51 -108 -112 -108zM495 882c-33 0 -59 -27 -59 -58c0 -27 20 -50 50 -50c33 0 61 27 61 58c0 27 -22 50 -52 50zM739 670l-87 -377c-42 -183 -160 -306 -339 -306c-159 0 -264 123 -222 306
l87 377h79l-87 -377c-32 -139 30 -230 152 -230c123 0 219 92 251 230l87 377h79z" />
    <glyph glyph-name="V" unicode="V" horiz-adv-x="696" 
d="M771 670l-445 -670h-75l-135 670h80l111 -562l372 562h92z" />
    <glyph glyph-name="W" unicode="W" horiz-adv-x="958" 
d="M1034 670l-361 -670h-84l-44 544l-295 -544h-83l-51 670h78l40 -549l298 549h78l45 -549l294 549h85z" />
    <glyph glyph-name="Wacute" unicode="&#x1e82;" horiz-adv-x="958" 
d="M634 745h-72l112 140h97zM1034 670l-361 -670h-84l-44 544l-295 -544h-83l-51 670h78l40 -549l298 549h78l45 -549l294 549h85z" />
    <glyph glyph-name="Wcircumflex" unicode="&#x174;" horiz-adv-x="958" 
d="M534 737h-82l150 142h72l84 -142h-73l-54 93zM1034 670l-361 -670h-84l-44 544l-295 -544h-83l-51 670h78l40 -549l298 549h78l45 -549l294 549h85z" />
    <glyph glyph-name="Wdieresis" unicode="&#x1e84;" horiz-adv-x="958" 
d="M507 755c-30 0 -52 22 -52 51c0 27 22 51 52 51s53 -24 53 -51c0 -29 -23 -51 -53 -51zM705 755c-30 0 -52 22 -52 51c0 27 22 51 52 51s53 -24 53 -51c0 -29 -23 -51 -53 -51zM1034 670l-361 -670h-84l-44 544l-295 -544h-83l-51 670h78l40 -549l298 549h78l45 -549
l294 549h85z" />
    <glyph glyph-name="Wgrave" unicode="&#x1e80;" horiz-adv-x="958" 
d="M557 745l-137 140h96l112 -140h-71zM1034 670l-361 -670h-84l-44 544l-295 -544h-83l-51 670h78l40 -549l298 549h78l45 -549l294 549h85z" />
    <glyph glyph-name="X" unicode="X" horiz-adv-x="633" 
d="M379 335l170 -335h-91l-137 276l-264 -276h-104l323 337l-164 333h90l135 -274l261 274h103l-319 -333z" />
    <glyph glyph-name="Y" unicode="Y" horiz-adv-x="673" 
d="M370 234l-53 -234h-79l53 234l-175 436h82l146 -357l311 357h96z" />
    <glyph glyph-name="Yacute" unicode="&#xdd;" horiz-adv-x="673" 
d="M478 745h-72l112 140h97zM370 234l-53 -234h-79l53 234l-175 436h82l146 -357l311 357h96z" />
    <glyph glyph-name="Ycircumflex" unicode="&#x176;" horiz-adv-x="673" 
d="M378 737h-82l150 142h72l84 -142h-73l-54 93zM370 234l-53 -234h-79l53 234l-175 436h82l146 -357l311 357h96z" />
    <glyph glyph-name="Ydieresis" unicode="&#x178;" horiz-adv-x="673" 
d="M351 755c-30 0 -52 22 -52 51c0 27 22 51 52 51s53 -24 53 -51c0 -29 -23 -51 -53 -51zM549 755c-30 0 -52 22 -52 51c0 27 22 51 52 51s53 -24 53 -51c0 -29 -23 -51 -53 -51zM370 234l-53 -234h-79l53 234l-175 436h82l146 -357l311 357h96z" />
    <glyph glyph-name="Ygrave" unicode="&#x1ef2;" horiz-adv-x="673" 
d="M401 745l-137 140h96l112 -140h-71zM370 234l-53 -234h-79l53 234l-175 436h82l146 -357l311 357h96z" />
    <glyph glyph-name="Z" unicode="Z" horiz-adv-x="626" 
d="M656 613l-525 -545h402l-15 -68h-516l12 50l535 552h-396l15 68h501z" />
    <glyph glyph-name="Zacute" unicode="&#x179;" horiz-adv-x="626" 
d="M477 745h-72l112 140h97zM656 613l-525 -545h402l-15 -68h-516l12 50l535 552h-396l15 68h501z" />
    <glyph glyph-name="Zcaron" unicode="&#x17d;" horiz-adv-x="626" 
d="M398 738l-84 142h74l53 -92l97 92h83l-150 -142h-73zM656 613l-525 -545h402l-15 -68h-516l12 50l535 552h-396l15 68h501z" />
    <glyph glyph-name="Zdotaccent" unicode="&#x17b;" horiz-adv-x="626" 
d="M449 763c-30 0 -51 21 -51 50c0 26 21 49 51 49c29 0 51 -23 51 -49c0 -29 -22 -50 -51 -50zM656 613l-525 -545h402l-15 -68h-516l12 50l535 552h-396l15 68h501z" />
    <glyph glyph-name="K.ss03" horiz-adv-x="692" 
d="M409 383l209 -383h-91l-179 329l-206 -181l-34 -148h-79l155 670h79l-93 -402l465 402h100z" />
    <glyph glyph-name="Kcommaaccent.ss03" horiz-adv-x="692" 
d="M409 383l209 -383h-91l-179 329l-206 -181l-34 -148h-79l155 670h79l-93 -402l465 402h100zM250 -45h86l-104 -143h-60z" />
    <glyph glyph-name="Q.ss04" horiz-adv-x="803" 
d="M665 -170l-149 183c-44 -17 -91 -26 -140 -26c-198 -1 -327 153 -299 348c30 195 203 349 393 349c199 0 327 -157 298 -349c-17 -122 -84 -222 -177 -284l182 -221h-108zM156 335c-23 -156 79 -274 223 -274c154 0 286 118 310 274c23 154 -76 274 -221 274
c-155 0 -289 -120 -312 -274z" />
    <glyph glyph-name="I.ss05" horiz-adv-x="440" 
d="M341 599l-121 -527h154l-16 -72h-389l16 72h156l121 527h-155l16 71h389l-16 -71h-155z" />
    <glyph glyph-name="IJ.ss05" horiz-adv-x="1034" 
d="M220 72h154l-16 -72h-389l16 72h156l121 527h-155l16 71h389l-16 -71h-155zM1062 670l-99 -426c-37 -159 -148 -257 -295 -257c-128 0 -215 86 -214 216l75 17c-3 -95 50 -161 145 -161c103 0 184 76 210 185l83 355h-290l16 71h369z" />
    <glyph glyph-name="Iacute.ss05" horiz-adv-x="440" 
d="M376 745h-72l112 140h97zM512 670l-16 -71h-155l-121 -527h154l-16 -72h-389l16 72h156l121 527h-155l16 71h389z" />
    <glyph glyph-name="Icircumflex.ss05" horiz-adv-x="440" 
d="M276 737h-82l150 142h72l84 -142h-73l-54 93zM341 599l-121 -527h154l-16 -72h-389l16 72h156l121 527h-155l16 71h389l-16 -71h-155z" />
    <glyph glyph-name="Idieresis.ss05" horiz-adv-x="440" 
d="M249 755c-30 0 -52 22 -52 51c0 27 22 51 52 51s53 -24 53 -51c0 -29 -23 -51 -53 -51zM447 755c-30 0 -52 22 -52 51c0 27 22 51 52 51s53 -24 53 -51c0 -29 -23 -51 -53 -51zM341 599l-121 -527h154l-16 -72h-389l16 72h156l121 527h-155l16 71h389l-16 -71h-155z" />
    <glyph glyph-name="Idotaccent.ss05" horiz-adv-x="440" 
d="M348 763c-30 0 -51 21 -51 50c0 26 21 49 51 49c29 0 51 -23 51 -49c0 -29 -22 -50 -51 -50zM341 599l-121 -527h154l-16 -72h-389l16 72h156l121 527h-155l16 71h389l-16 -71h-155z" />
    <glyph glyph-name="Igrave.ss05" horiz-adv-x="440" 
d="M299 745l-137 140h96l112 -140h-71zM341 599l-121 -527h154l-16 -72h-389l16 72h156l121 527h-155l16 71h389l-16 -71h-155z" />
    <glyph glyph-name="Imacron.ss05" horiz-adv-x="440" 
d="M480 762h-284l14 62h284zM341 599l-121 -527h154l-16 -72h-389l16 72h156l121 527h-155l16 71h389l-16 -71h-155z" />
    <glyph glyph-name="Iogonek.ss05" horiz-adv-x="440" 
d="M341 599l-121 -527h154l-16 -72h-155c-63 -54 -96 -76 -96 -111c0 -21 14 -34 40 -34c15 0 27 4 48 10l-8 -50c-25 -11 -44 -16 -63 -16c-47 0 -79 29 -79 73c0 39 24 72 98 128h-174l16 72h156l121 527h-155l16 71h389l-16 -71h-155z" />
    <glyph glyph-name="J.ss05" horiz-adv-x="594" 
d="M622 670l-99 -426c-37 -159 -148 -257 -295 -257c-128 0 -215 86 -214 216l75 17c-3 -95 50 -161 145 -161c103 0 184 76 210 185l83 355h-290l16 71h369z" />
    <glyph glyph-name="a" unicode="a" horiz-adv-x="651" 
d="M620 493l-114 -493h-77l17 72c-51 -54 -119 -85 -198 -85c-131 0 -230 105 -205 261s148 257 287 257c95 0 161 -44 189 -118l24 106h77zM270 55c93 0 196 75 215 193c19 117 -60 190 -153 190c-104 0 -196 -74 -214 -190c-19 -118 50 -193 152 -193z" />
    <glyph glyph-name="aacute" unicode="&#xe1;" horiz-adv-x="651" 
d="M430 567h-72l112 140h97zM620 493l-114 -493h-77l17 72c-51 -54 -119 -85 -198 -85c-131 0 -230 105 -205 261s148 257 287 257c95 0 161 -44 189 -118l24 106h77zM270 55c93 0 196 75 215 193c19 117 -60 190 -153 190c-104 0 -196 -74 -214 -190
c-19 -118 50 -193 152 -193z" />
    <glyph glyph-name="abreve" unicode="&#x103;" horiz-adv-x="651" 
d="M389 554c-86 0 -135 53 -118 135h61c-10 -49 20 -80 65 -80s86 31 96 80h68c-17 -82 -85 -135 -172 -135zM620 493l-114 -493h-77l17 72c-51 -54 -119 -85 -198 -85c-131 0 -230 105 -205 261s148 257 287 257c95 0 161 -44 189 -118l24 106h77zM270 55
c93 0 196 75 215 193c19 117 -60 190 -153 190c-104 0 -196 -74 -214 -190c-19 -118 50 -193 152 -193z" />
    <glyph glyph-name="acircumflex" unicode="&#xe2;" horiz-adv-x="651" 
d="M330 559h-82l150 142h72l84 -142h-73l-54 93zM620 493l-114 -493h-77l17 72c-51 -54 -119 -85 -198 -85c-131 0 -230 105 -205 261s148 257 287 257c95 0 161 -44 189 -118l24 106h77zM270 55c93 0 196 75 215 193c19 117 -60 190 -153 190c-104 0 -196 -74 -214 -190
c-19 -118 50 -193 152 -193z" />
    <glyph glyph-name="adieresis" unicode="&#xe4;" horiz-adv-x="651" 
d="M303 577c-30 0 -52 22 -52 51c0 27 22 51 52 51s53 -24 53 -51c0 -29 -23 -51 -53 -51zM501 577c-30 0 -52 22 -52 51c0 27 22 51 52 51s53 -24 53 -51c0 -29 -23 -51 -53 -51zM620 493l-114 -493h-77l17 72c-51 -54 -119 -85 -198 -85c-131 0 -230 105 -205 261
s148 257 287 257c95 0 161 -44 189 -118l24 106h77zM270 55c93 0 196 75 215 193c19 117 -60 190 -153 190c-104 0 -196 -74 -214 -190c-19 -118 50 -193 152 -193z" />
    <glyph glyph-name="agrave" unicode="&#xe0;" horiz-adv-x="651" 
d="M353 567l-137 140h96l112 -140h-71zM620 493l-114 -493h-77l17 72c-51 -54 -119 -85 -198 -85c-131 0 -230 105 -205 261s148 257 287 257c95 0 161 -44 189 -118l24 106h77zM270 55c93 0 196 75 215 193c19 117 -60 190 -153 190c-104 0 -196 -74 -214 -190
c-19 -118 50 -193 152 -193z" />
    <glyph glyph-name="amacron" unicode="&#x101;" horiz-adv-x="651" 
d="M534 584h-284l14 62h284zM620 493l-114 -493h-77l17 72c-51 -54 -119 -85 -198 -85c-131 0 -230 105 -205 261s148 257 287 257c95 0 161 -44 189 -118l24 106h77zM270 55c93 0 196 75 215 193c19 117 -60 190 -153 190c-104 0 -196 -74 -214 -190
c-19 -118 50 -193 152 -193z" />
    <glyph glyph-name="aogonek" unicode="&#x105;" horiz-adv-x="651" 
d="M620 493l-114 -493c-63 -54 -96 -76 -96 -111c0 -21 14 -34 40 -34c15 0 27 4 48 10l-8 -50c-25 -11 -44 -16 -63 -16c-47 0 -79 29 -79 73c0 39 24 72 98 128h-17l17 72c-51 -54 -119 -85 -198 -85c-131 0 -230 105 -205 261s148 257 287 257c95 0 161 -44 189 -118
l24 106h77zM270 55c93 0 196 75 215 193c19 117 -60 190 -153 190c-104 0 -196 -74 -214 -190c-19 -118 50 -193 152 -193z" />
    <glyph glyph-name="aring" unicode="&#xe5;" horiz-adv-x="651" 
d="M397 549c-55 0 -95 42 -95 94c0 59 51 107 112 107c55 0 95 -41 95 -93c0 -59 -51 -108 -112 -108zM410 704c-33 0 -59 -27 -59 -58c0 -27 20 -50 50 -50c33 0 61 27 61 58c0 27 -22 50 -52 50zM620 493l-114 -493h-77l17 72c-51 -54 -119 -85 -198 -85
c-131 0 -230 105 -205 261s148 257 287 257c95 0 161 -44 189 -118l24 106h77zM270 55c93 0 196 75 215 193c19 117 -60 190 -153 190c-104 0 -196 -74 -214 -190c-19 -118 50 -193 152 -193z" />
    <glyph glyph-name="atilde" unicode="&#xe3;" horiz-adv-x="651" 
d="M348 638c-24 0 -42 -19 -48 -45h-54c17 75 68 102 111 102c60 0 65 -48 111 -48c23 0 41 19 47 47h54c-17 -76 -67 -104 -110 -104c-61 0 -66 48 -111 48zM620 493l-114 -493h-77l17 72c-51 -54 -119 -85 -198 -85c-131 0 -230 105 -205 261s148 257 287 257
c95 0 161 -44 189 -118l24 106h77zM270 55c93 0 196 75 215 193c19 117 -60 190 -153 190c-104 0 -196 -74 -214 -190c-19 -118 50 -193 152 -193z" />
    <glyph glyph-name="ae" unicode="&#xe6;" horiz-adv-x="926" 
d="M687 505c134 0 217 -106 195 -256l-4 -27h-405c-7 -105 50 -168 145 -168c54 0 131 32 171 106l66 -16c-40 -93 -146 -157 -247 -157c-96 0 -155 45 -183 120c-48 -71 -138 -120 -235 -120c-111 0 -170 55 -170 132c0 96 82 160 207 160h184l6 41c12 72 -31 120 -110 120
c-74 0 -136 -39 -155 -101l-68 15c25 89 117 151 233 151c82 0 142 -35 162 -96c54 61 127 96 208 96zM481 279h328c5 100 -46 161 -129 161c-89 0 -172 -59 -199 -161zM402 222h-178c-81 0 -132 -36 -132 -94c0 -47 38 -78 108 -78c92 0 185 67 201 162z" />
    <glyph glyph-name="aeacute" unicode="&#x1fd;" horiz-adv-x="926" 
d="M580 567h-72l112 140h97zM687 505c134 0 217 -106 195 -256l-4 -27h-405c-7 -105 50 -168 145 -168c54 0 131 32 171 106l66 -16c-40 -93 -146 -157 -247 -157c-96 0 -155 45 -183 120c-48 -71 -138 -120 -235 -120c-111 0 -170 55 -170 132c0 96 82 160 207 160h184
l6 41c12 72 -31 120 -110 120c-74 0 -136 -39 -155 -101l-68 15c25 89 117 151 233 151c82 0 142 -35 162 -96c54 61 127 96 208 96zM481 279h328c5 100 -46 161 -129 161c-89 0 -172 -59 -199 -161zM402 222h-178c-81 0 -132 -36 -132 -94c0 -47 38 -78 108 -78
c92 0 185 67 201 162z" />
    <glyph glyph-name="b" unicode="b" horiz-adv-x="647" 
d="M403 505c131 0 230 -104 205 -260s-148 -258 -287 -258c-95 0 -162 45 -189 120l-25 -107h-76l166 720h77l-70 -300c51 54 120 85 199 85zM319 55c104 0 196 74 214 190c19 118 -50 193 -152 193c-93 0 -196 -75 -215 -193c-19 -117 60 -190 153 -190z" />
    <glyph glyph-name="c" unicode="c" horiz-adv-x="574" 
d="M267 58c75 0 143 42 176 111l72 -14c-43 -101 -144 -168 -253 -168c-144 0 -247 105 -223 259c25 155 159 259 297 259c109 0 195 -63 209 -164l-78 -16c-8 70 -68 110 -140 110c-102 0 -195 -76 -213 -189s53 -188 153 -188z" />
    <glyph glyph-name="cacute" unicode="&#x107;" horiz-adv-x="574" 
d="M396 567h-72l112 140h97zM267 58c75 0 143 42 176 111l72 -14c-43 -101 -144 -168 -253 -168c-144 0 -247 105 -223 259c25 155 159 259 297 259c109 0 195 -63 209 -164l-78 -16c-8 70 -68 110 -140 110c-102 0 -195 -76 -213 -189s53 -188 153 -188z" />
    <glyph glyph-name="ccaron" unicode="&#x10d;" horiz-adv-x="574" 
d="M317 560l-84 142h74l53 -92l97 92h83l-150 -142h-73zM267 58c75 0 143 42 176 111l72 -14c-43 -101 -144 -168 -253 -168c-144 0 -247 105 -223 259c25 155 159 259 297 259c109 0 195 -63 209 -164l-78 -16c-8 70 -68 110 -140 110c-102 0 -195 -76 -213 -189
s53 -188 153 -188z" />
    <glyph glyph-name="ccedilla" unicode="&#xe7;" horiz-adv-x="574" 
d="M267 58c75 0 143 42 176 111l72 -14c-41 -95 -132 -160 -234 -167l-106 -158h-92l137 160c-122 18 -203 117 -181 256c25 155 159 259 297 259c109 0 195 -63 209 -164l-78 -16c-8 70 -68 110 -140 110c-102 0 -195 -76 -213 -189s53 -188 153 -188z" />
    <glyph glyph-name="cdotaccent" unicode="&#x10b;" horiz-adv-x="574" 
d="M368 585c-30 0 -51 21 -51 50c0 26 21 49 51 49c29 0 51 -23 51 -49c0 -29 -22 -50 -51 -50zM267 58c75 0 143 42 176 111l72 -14c-43 -101 -144 -168 -253 -168c-144 0 -247 105 -223 259c25 155 159 259 297 259c109 0 195 -63 209 -164l-78 -16
c-8 70 -68 110 -140 110c-102 0 -195 -76 -213 -189s53 -188 153 -188z" />
    <glyph glyph-name="d" unicode="d" horiz-adv-x="647" 
d="M668 720l-166 -720h-76l17 73c-50 -54 -119 -86 -199 -86c-131 0 -230 105 -205 261s148 257 287 257c95 0 162 -44 189 -119l77 334h76zM266 55c93 0 196 75 215 193c19 117 -60 190 -153 190c-104 0 -196 -74 -214 -190c-19 -118 50 -193 152 -193z" />
    <glyph glyph-name="eth" unicode="&#xf0;" horiz-adv-x="611" 
d="M522 656l-86 -36c80 -87 136 -205 136 -325c0 -197 -151 -308 -297 -308c-135 0 -233 90 -233 228c0 171 151 290 290 290c48 0 90 -13 120 -39c-22 46 -50 87 -88 124l-143 -59l-15 54l110 46c-37 28 -82 53 -136 74l2 15h125c29 -15 58 -34 85 -57l115 48zM280 58
c135 0 214 122 214 220c0 91 -67 159 -159 159c-109 0 -218 -90 -218 -216c0 -101 69 -163 163 -163z" />
    <glyph glyph-name="dcaron" unicode="&#x10f;" horiz-adv-x="649" 
d="M592 720h76l-166 -720h-76l17 73c-50 -54 -119 -86 -199 -86c-131 0 -230 105 -205 261s148 257 287 257c95 0 162 -44 189 -119zM810 720l-56 -172h-61l40 172h77zM266 55c93 0 196 75 215 193c19 117 -60 190 -153 190c-104 0 -196 -74 -214 -190
c-19 -118 50 -193 152 -193z" />
    <glyph glyph-name="dcroat" unicode="&#x111;" horiz-adv-x="685" 
d="M717 574h-79l-132 -574h-77l17 72c-51 -54 -119 -85 -198 -85c-132 0 -230 105 -205 261c24 156 148 257 286 257c95 0 162 -44 189 -118l43 187h-168l15 61h167l20 85h77l-20 -85h80zM269 55c94 0 197 75 216 193c18 117 -60 190 -154 190c-103 0 -195 -74 -214 -190
c-19 -118 51 -193 152 -193z" />
    <glyph glyph-name="e" unicode="e" horiz-adv-x="585" 
d="M113 231l-1 -17c0 -96 57 -160 160 -160c65 0 132 31 176 109l68 -19c-49 -102 -146 -157 -250 -157c-131 0 -224 86 -224 225c0 172 144 293 291 293c143 0 233 -110 207 -274h-427zM328 441c-106 0 -177 -71 -204 -153h351c0 95 -54 153 -147 153z" />
    <glyph glyph-name="eacute" unicode="&#xe9;" horiz-adv-x="585" 
d="M398 567h-72l112 140h97zM113 231l-1 -17c0 -96 57 -160 160 -160c65 0 132 31 176 109l68 -19c-49 -102 -146 -157 -250 -157c-131 0 -224 86 -224 225c0 172 144 293 291 293c143 0 233 -110 207 -274h-427zM328 441c-106 0 -177 -71 -204 -153h351
c0 95 -54 153 -147 153z" />
    <glyph glyph-name="ecaron" unicode="&#x11b;" horiz-adv-x="585" 
d="M319 560l-84 142h74l53 -92l97 92h83l-150 -142h-73zM113 231l-1 -17c0 -96 57 -160 160 -160c65 0 132 31 176 109l68 -19c-49 -102 -146 -157 -250 -157c-131 0 -224 86 -224 225c0 172 144 293 291 293c143 0 233 -110 207 -274h-427zM328 441
c-106 0 -177 -71 -204 -153h351c0 95 -54 153 -147 153z" />
    <glyph glyph-name="ecircumflex" unicode="&#xea;" horiz-adv-x="585" 
d="M298 559h-82l150 142h72l84 -142h-73l-54 93zM113 231l-1 -17c0 -96 57 -160 160 -160c65 0 132 31 176 109l68 -19c-49 -102 -146 -157 -250 -157c-131 0 -224 86 -224 225c0 172 144 293 291 293c143 0 233 -110 207 -274h-427zM328 441c-106 0 -177 -71 -204 -153h351
c0 95 -54 153 -147 153z" />
    <glyph glyph-name="edieresis" unicode="&#xeb;" horiz-adv-x="585" 
d="M271 577c-30 0 -52 22 -52 51c0 27 22 51 52 51s53 -24 53 -51c0 -29 -23 -51 -53 -51zM469 577c-30 0 -52 22 -52 51c0 27 22 51 52 51s53 -24 53 -51c0 -29 -23 -51 -53 -51zM113 231l-1 -17c0 -96 57 -160 160 -160c65 0 132 31 176 109l68 -19
c-49 -102 -146 -157 -250 -157c-131 0 -224 86 -224 225c0 172 144 293 291 293c143 0 233 -110 207 -274h-427zM328 441c-106 0 -177 -71 -204 -153h351c0 95 -54 153 -147 153z" />
    <glyph glyph-name="edotaccent" unicode="&#x117;" horiz-adv-x="585" 
d="M370 585c-30 0 -51 21 -51 50c0 26 21 49 51 49c29 0 51 -23 51 -49c0 -29 -22 -50 -51 -50zM113 231l-1 -17c0 -96 57 -160 160 -160c65 0 132 31 176 109l68 -19c-49 -102 -146 -157 -250 -157c-131 0 -224 86 -224 225c0 172 144 293 291 293c143 0 233 -110 207 -274
h-427zM328 441c-106 0 -177 -71 -204 -153h351c0 95 -54 153 -147 153z" />
    <glyph glyph-name="egrave" unicode="&#xe8;" horiz-adv-x="585" 
d="M321 567l-137 140h96l112 -140h-71zM113 231l-1 -17c0 -96 57 -160 160 -160c65 0 132 31 176 109l68 -19c-49 -102 -146 -157 -250 -157c-131 0 -224 86 -224 225c0 172 144 293 291 293c143 0 233 -110 207 -274h-427zM328 441c-106 0 -177 -71 -204 -153h351
c0 95 -54 153 -147 153z" />
    <glyph glyph-name="emacron" unicode="&#x113;" horiz-adv-x="585" 
d="M502 584h-284l14 62h284zM113 231l-1 -17c0 -96 57 -160 160 -160c65 0 132 31 176 109l68 -19c-49 -102 -146 -157 -250 -157c-131 0 -224 86 -224 225c0 172 144 293 291 293c143 0 233 -110 207 -274h-427zM328 441c-106 0 -177 -71 -204 -153h351
c0 95 -54 153 -147 153z" />
    <glyph glyph-name="eogonek" unicode="&#x119;" horiz-adv-x="584" 
d="M113 231l-1 -17c0 -96 57 -160 160 -160c65 0 132 30 176 108l68 -18c-19 -38 -43 -68 -73 -94c-114 -102 -140 -128 -140 -161c0 -21 14 -34 40 -34c15 0 27 4 48 10l-8 -50c-25 -11 -44 -16 -63 -16c-47 0 -79 29 -79 73c0 34 15 66 91 123c-22 -5 -44 -8 -66 -8
c-131 0 -224 86 -224 225c0 172 144 293 291 293s239 -116 207 -274h-427zM328 441c-106 0 -177 -71 -204 -153h352c1 96 -56 153 -148 153z" />
    <glyph glyph-name="f" unicode="f" horiz-adv-x="357" 
d="M379 669c-63 0 -109 -42 -123 -103l-17 -73h179l-14 -64h-179l-99 -429h-77l99 429h-85l14 64h86l17 73c25 108 101 171 203 171c28 0 58 -7 77 -18l-17 -61c-25 8 -46 11 -64 11z" />
    <glyph glyph-name="g" unicode="g" horiz-adv-x="642" 
d="M611 493l-105 -453c-32 -143 -149 -230 -291 -230c-125 0 -197 56 -232 147l73 27c25 -65 74 -105 163 -105c100 0 191 67 215 171l14 60c-50 -52 -119 -82 -199 -82c-130 0 -227 96 -202 245c24 138 150 232 282 232c93 0 158 -40 186 -107l22 95h74zM270 93
c92 0 193 64 212 172c18 109 -59 175 -151 175c-103 0 -192 -66 -210 -170c-19 -108 49 -177 149 -177z" />
    <glyph glyph-name="gbreve" unicode="&#x11f;" horiz-adv-x="642" 
d="M385 554c-86 0 -135 53 -118 135h61c-10 -49 20 -80 65 -80s86 31 96 80h68c-17 -82 -85 -135 -172 -135zM611 493l-105 -453c-32 -143 -149 -230 -291 -230c-125 0 -197 56 -232 147l73 27c25 -65 74 -105 163 -105c100 0 191 67 215 171l14 60
c-50 -52 -119 -82 -199 -82c-130 0 -227 96 -202 245c24 138 150 232 282 232c93 0 158 -40 186 -107l22 95h74zM270 93c92 0 193 64 212 172c18 109 -59 175 -151 175c-103 0 -192 -66 -210 -170c-19 -108 49 -177 149 -177z" />
    <glyph glyph-name="gcommaaccent" unicode="&#x123;" horiz-adv-x="642" 
d="M422 569h-86l104 143h60zM611 493l-105 -453c-32 -143 -149 -230 -291 -230c-125 0 -197 56 -232 147l73 27c25 -65 74 -105 163 -105c100 0 191 67 215 171l14 60c-50 -52 -119 -82 -199 -82c-130 0 -227 96 -202 245c24 138 150 232 282 232c93 0 158 -40 186 -107
l22 95h74zM270 93c92 0 193 64 212 172c18 109 -59 175 -151 175c-103 0 -192 -66 -210 -170c-19 -108 49 -177 149 -177z" />
    <glyph glyph-name="gdotaccent" unicode="&#x121;" horiz-adv-x="642" 
d="M398 585c-30 0 -51 21 -51 50c0 26 21 49 51 49c29 0 51 -23 51 -49c0 -29 -22 -50 -51 -50zM611 493l-105 -453c-32 -143 -149 -230 -291 -230c-125 0 -197 56 -232 147l73 27c25 -65 74 -105 163 -105c100 0 191 67 215 171l14 60c-50 -52 -119 -82 -199 -82
c-130 0 -227 96 -202 245c24 138 150 232 282 232c93 0 158 -40 186 -107l22 95h74zM270 93c92 0 193 64 212 172c18 109 -59 175 -151 175c-103 0 -192 -66 -210 -170c-19 -108 49 -177 149 -177z" />
    <glyph glyph-name="h" unicode="h" horiz-adv-x="626" 
d="M392 505c133 0 193 -98 164 -224l-65 -281h-76l65 284c21 93 -24 154 -111 154c-104 0 -177 -75 -206 -201l-55 -237h-77l167 720h76l-72 -311c46 61 109 96 190 96z" />
    <glyph glyph-name="hbar" unicode="&#x127;" horiz-adv-x="665" 
d="M432 505c132 0 192 -98 164 -224l-65 -281h-77l66 284c21 93 -24 154 -111 154c-104 0 -178 -75 -207 -201l-55 -237h-76l133 579h-83l13 56h83l20 85h77l-20 -85h164l-13 -56h-164l-39 -170c46 61 109 96 190 96z" />
    <glyph glyph-name="i" unicode="i" horiz-adv-x="271" 
d="M227 693c30 0 52 -24 52 -51c0 -29 -22 -51 -52 -51c-31 0 -53 22 -53 51c0 27 22 51 53 51zM117 0h-77l114 493h76z" />
    <glyph glyph-name="dotlessi" unicode="&#x131;" horiz-adv-x="279" 
d="M121 0h-77l114 493h77z" />
    <glyph glyph-name="iacute" unicode="&#xed;" horiz-adv-x="279" 
d="M255 567h-72l112 140h97zM121 0h-77l114 493h77z" />
    <glyph glyph-name="icircumflex" unicode="&#xee;" horiz-adv-x="279" 
d="M306 559l-54 93l-97 -93h-82l150 142h72l84 -142h-73zM158 493h77l-114 -493h-77z" />
    <glyph glyph-name="idieresis" unicode="&#xef;" horiz-adv-x="279" 
d="M128 679c30 0 53 -24 53 -51c0 -29 -23 -51 -53 -51s-52 22 -52 51c0 27 22 51 52 51zM326 679c30 0 53 -24 53 -51c0 -29 -23 -51 -53 -51s-52 22 -52 51c0 27 22 51 52 51zM121 0h-77l114 493h77z" />
    <glyph glyph-name="i.loclTRK" horiz-adv-x="279" 
d="M227 684c29 0 51 -23 51 -49c0 -29 -22 -50 -51 -50c-30 0 -51 21 -51 50c0 26 21 49 51 49zM121 0h-77l114 493h77z" />
    <glyph glyph-name="igrave" unicode="&#xec;" horiz-adv-x="279" 
d="M137 707l112 -140h-71l-137 140h96zM121 0h-77l114 493h77z" />
    <glyph glyph-name="ij" unicode="&#x133;" horiz-adv-x="555" 
d="M227 693c30 0 52 -24 52 -51c0 -29 -22 -51 -52 -51c-31 0 -53 22 -53 51c0 27 22 51 53 51zM512 693c30 0 52 -24 52 -51c0 -29 -22 -51 -52 -51c-31 0 -53 22 -53 51c0 27 22 51 53 51zM117 0h-77l114 493h76zM518 493l-129 -559c-18 -75 -79 -124 -153 -124
c-33 0 -57 7 -77 17l31 66c15 -7 30 -11 45 -11c39 0 71 24 79 61l128 550h76z" />
    <glyph glyph-name="imacron" unicode="&#x12b;" horiz-adv-x="279" 
d="M359 584h-284l14 62h284zM121 0h-77l114 493h77z" />
    <glyph glyph-name="iogonek" unicode="&#x12f;" horiz-adv-x="279" 
d="M227 684c29 0 51 -23 51 -49c0 -29 -22 -50 -51 -50c-30 0 -51 21 -51 50c0 26 21 49 51 49zM158 493h77l-114 -493h-1c-63 -54 -96 -76 -96 -111c0 -21 14 -34 40 -34c15 0 27 4 48 10l-8 -50c-25 -11 -44 -16 -63 -16c-48 0 -80 29 -80 73c0 39 24 72 99 128h-16z" />
    <glyph glyph-name="j" unicode="j" horiz-adv-x="285" 
d="M241 693c30 0 52 -24 52 -51c0 -29 -22 -51 -52 -51c-31 0 -53 22 -53 51c0 27 22 51 53 51zM247 493l-129 -559c-18 -75 -79 -124 -154 -124c-32 0 -57 7 -76 17l31 66c14 -7 29 -11 44 -11c40 0 72 24 80 61l128 550h76z" />
    <glyph glyph-name="k" unicode="k" horiz-adv-x="593" 
d="M270 254l261 -254h-95l-221 218h-52l-51 -218h-76l166 720h77l-99 -427h34l282 200h106z" />
    <glyph glyph-name="kcommaaccent" unicode="&#x137;" horiz-adv-x="593" 
d="M270 254l261 -254h-95l-221 218h-52l-51 -218h-76l166 720h77l-99 -427h34l282 200h106zM196 -45h86l-104 -143h-60z" />
    <glyph glyph-name="l" unicode="l" horiz-adv-x="252" 
d="M107 0h-76l166 720h77z" />
    <glyph glyph-name="lacute" unicode="&#x13a;" horiz-adv-x="252" 
d="M294 795h-72l112 140h97zM107 0h-76l166 720h77z" />
    <glyph glyph-name="lcaron" unicode="&#x13e;" horiz-adv-x="252" 
d="M107 0h-76l166 720h77zM370 548h-61l40 172h77z" />
    <glyph glyph-name="lcommaaccent" unicode="&#x13c;" horiz-adv-x="252" 
d="M107 0h-76l166 720h77zM-64 -188l78 143h86l-105 -143h-59z" />
    <glyph glyph-name="ldot" unicode="&#x140;" horiz-adv-x="333" 
d="M107 0h-76l166 720h77zM329 388c29 0 51 -23 51 -49c0 -29 -22 -50 -51 -50c-30 0 -51 21 -51 50c0 26 21 49 51 49z" />
    <glyph glyph-name="lslash" unicode="&#x142;" horiz-adv-x="328" 
d="M317 387l-96 -52l-77 -335h-77l67 287l-92 -50l18 76l91 50l83 357h76l-71 -310l96 53z" />
    <glyph glyph-name="m" unicode="m" horiz-adv-x="945" 
d="M738 505c105 0 177 -74 151 -186l-74 -319h-76l71 306c18 77 -29 129 -97 129c-91 0 -157 -61 -187 -167l-61 -268h-77l71 306c18 77 -29 129 -97 129c-90 0 -153 -59 -184 -163l-62 -272h-77l114 493h76l-17 -74c40 53 96 86 175 86s139 -40 154 -107
c44 66 108 107 197 107z" />
    <glyph glyph-name="n" unicode="n" horiz-adv-x="629" 
d="M396 505c132 0 193 -98 164 -224l-65 -281h-76l65 284c21 93 -24 154 -111 154c-104 0 -178 -75 -207 -201l-55 -237h-76l114 493h76l-20 -86c46 62 109 98 191 98z" />
    <glyph glyph-name="nacute" unicode="&#x144;" horiz-adv-x="629" 
d="M442 567h-72l112 140h97zM396 505c132 0 193 -98 164 -224l-65 -281h-76l65 284c21 93 -24 154 -111 154c-104 0 -178 -75 -207 -201l-55 -237h-76l114 493h76l-20 -86c46 62 109 98 191 98z" />
    <glyph glyph-name="ncaron" unicode="&#x148;" horiz-adv-x="629" 
d="M363 560l-84 142h74l53 -92l97 92h83l-150 -142h-73zM396 505c132 0 193 -98 164 -224l-65 -281h-76l65 284c21 93 -24 154 -111 154c-104 0 -178 -75 -207 -201l-55 -237h-76l114 493h76l-20 -86c46 62 109 98 191 98z" />
    <glyph glyph-name="ncommaaccent" unicode="&#x146;" horiz-adv-x="629" 
d="M396 505c132 0 193 -98 164 -224l-65 -281h-76l65 284c21 93 -24 154 -111 154c-104 0 -178 -75 -207 -201l-55 -237h-76l114 493h76l-20 -86c46 62 109 98 191 98zM214 -45h86l-104 -143h-60z" />
    <glyph glyph-name="eng" unicode="&#x14b;" horiz-adv-x="629" 
d="M396 505c132 0 193 -98 164 -224l-65 -281l-14 -57c-20 -73 -79 -128 -154 -128c-38 0 -66 10 -87 22l28 59c18 -9 37 -14 56 -14c39 0 71 25 80 61l15 57l65 284c21 93 -24 154 -111 154c-104 0 -178 -75 -207 -201l-55 -237h-76l114 493h76l-20 -86
c46 62 109 98 191 98z" />
    <glyph glyph-name="ntilde" unicode="&#xf1;" horiz-adv-x="629" 
d="M360 638c-24 0 -42 -19 -48 -45h-54c17 75 68 102 111 102c60 0 65 -48 111 -48c23 0 41 19 47 47h54c-17 -76 -67 -104 -110 -104c-61 0 -66 48 -111 48zM396 505c132 0 193 -98 164 -224l-65 -281h-76l65 284c21 93 -24 154 -111 154c-104 0 -178 -75 -207 -201
l-55 -237h-76l114 493h76l-20 -86c46 62 109 98 191 98z" />
    <glyph glyph-name="o" unicode="o" horiz-adv-x="608" 
d="M338 504c146 0 250 -108 228 -259c-23 -151 -150 -257 -294 -257c-148 0 -252 106 -229 257c22 151 149 259 295 259zM275 55c102 0 199 77 216 190c17 114 -57 192 -157 192c-103 0 -200 -78 -217 -192c-17 -113 57 -190 158 -190z" />
    <glyph glyph-name="oacute" unicode="&#xf3;" horiz-adv-x="608" 
d="M407 567h-72l112 140h97zM338 504c146 0 250 -108 228 -259c-23 -151 -150 -257 -294 -257c-148 0 -252 106 -229 257c22 151 149 259 295 259zM275 55c102 0 199 77 216 190c17 114 -57 192 -157 192c-103 0 -200 -78 -217 -192c-17 -113 57 -190 158 -190z" />
    <glyph glyph-name="ocircumflex" unicode="&#xf4;" horiz-adv-x="608" 
d="M307 559h-82l150 142h72l84 -142h-73l-54 93zM338 504c146 0 250 -108 228 -259c-23 -151 -150 -257 -294 -257c-148 0 -252 106 -229 257c22 151 149 259 295 259zM275 55c102 0 199 77 216 190c17 114 -57 192 -157 192c-103 0 -200 -78 -217 -192
c-17 -113 57 -190 158 -190z" />
    <glyph glyph-name="odieresis" unicode="&#xf6;" horiz-adv-x="608" 
d="M280 577c-30 0 -52 22 -52 51c0 27 22 51 52 51s53 -24 53 -51c0 -29 -23 -51 -53 -51zM478 577c-30 0 -52 22 -52 51c0 27 22 51 52 51s53 -24 53 -51c0 -29 -23 -51 -53 -51zM338 504c146 0 250 -108 228 -259c-23 -151 -150 -257 -294 -257c-148 0 -252 106 -229 257
c22 151 149 259 295 259zM275 55c102 0 199 77 216 190c17 114 -57 192 -157 192c-103 0 -200 -78 -217 -192c-17 -113 57 -190 158 -190z" />
    <glyph glyph-name="ograve" unicode="&#xf2;" horiz-adv-x="608" 
d="M330 567l-137 140h96l112 -140h-71zM338 504c146 0 250 -108 228 -259c-23 -151 -150 -257 -294 -257c-148 0 -252 106 -229 257c22 151 149 259 295 259zM275 55c102 0 199 77 216 190c17 114 -57 192 -157 192c-103 0 -200 -78 -217 -192c-17 -113 57 -190 158 -190z
" />
    <glyph glyph-name="ohungarumlaut" unicode="&#x151;" horiz-adv-x="608" 
d="M319 567h-69l112 140h95zM404 567l111 140h95l-137 -140h-69zM338 504c146 0 250 -108 228 -259c-23 -151 -150 -257 -294 -257c-148 0 -252 106 -229 257c22 151 149 259 295 259zM275 55c102 0 199 77 216 190c17 114 -57 192 -157 192c-103 0 -200 -78 -217 -192
c-17 -113 57 -190 158 -190z" />
    <glyph glyph-name="omacron" unicode="&#x14d;" horiz-adv-x="608" 
d="M511 584h-284l14 62h284zM338 504c146 0 250 -108 228 -259c-23 -151 -150 -257 -294 -257c-148 0 -252 106 -229 257c22 151 149 259 295 259zM275 55c102 0 199 77 216 190c17 114 -57 192 -157 192c-103 0 -200 -78 -217 -192c-17 -113 57 -190 158 -190z" />
    <glyph glyph-name="oslash" unicode="&#xf8;" horiz-adv-x="606" 
d="M615 465l-77 -62c27 -43 38 -97 29 -158c-22 -151 -149 -257 -294 -257c-68 0 -127 23 -168 62l-78 -63l-31 40l77 62c-26 42 -38 96 -29 156c23 151 150 259 295 259c68 0 126 -23 167 -62l78 63zM119 245c-6 -41 0 -77 14 -106l315 256c-28 27 -67 42 -112 42
c-103 0 -200 -78 -217 -192zM493 245c6 42 0 79 -15 109l-315 -256c29 -28 69 -43 114 -43c102 0 199 77 216 190z" />
    <glyph glyph-name="otilde" unicode="&#xf5;" horiz-adv-x="608" 
d="M325 638c-24 0 -42 -19 -48 -45h-54c17 75 68 102 111 102c60 0 65 -48 111 -48c23 0 41 19 47 47h54c-17 -76 -67 -104 -110 -104c-61 0 -66 48 -111 48zM338 504c146 0 250 -108 228 -259c-23 -151 -150 -257 -294 -257c-148 0 -252 106 -229 257
c22 151 149 259 295 259zM275 55c102 0 199 77 216 190c17 114 -57 192 -157 192c-103 0 -200 -78 -217 -192c-17 -113 57 -190 158 -190z" />
    <glyph glyph-name="oe" unicode="&#x153;" horiz-adv-x="1035" 
d="M564 231l-3 -11v-6c0 -96 57 -160 160 -160c65 0 133 31 177 109l67 -19c-48 -102 -145 -157 -249 -157c-96 0 -171 45 -205 123c-55 -75 -143 -122 -239 -122c-148 0 -252 106 -229 257c22 151 149 259 295 259c95 0 173 -46 209 -120c56 75 145 121 235 121
c143 0 234 -110 208 -274h-426zM777 441c-106 0 -177 -71 -204 -153h351c1 95 -54 153 -147 153zM275 55c102 0 199 77 216 190c17 114 -57 192 -157 192c-103 0 -200 -78 -217 -192c-17 -113 57 -190 158 -190z" />
    <glyph glyph-name="p" unicode="p" horiz-adv-x="651" 
d="M403 505c132 0 230 -104 205 -260c-24 -156 -148 -258 -286 -258c-96 0 -163 45 -190 120l-64 -277h-77l154 663h77l-17 -73c50 54 119 85 198 85zM320 55c103 0 195 74 214 190c19 118 -51 193 -152 193c-94 0 -197 -75 -216 -193c-18 -117 60 -190 154 -190z" />
    <glyph glyph-name="thorn" unicode="&#xfe;" horiz-adv-x="651" 
d="M403 505c132 0 230 -104 205 -260c-24 -156 -148 -258 -286 -258c-96 0 -163 45 -190 120l-64 -277h-77l207 890h76l-70 -300c51 54 120 85 199 85zM320 55c103 0 195 74 214 190c19 118 -51 193 -152 193c-94 0 -197 -75 -216 -193c-18 -117 60 -190 154 -190z" />
    <glyph glyph-name="q" unicode="q" horiz-adv-x="650" 
d="M619 493l-153 -663h-76l56 242c-51 -54 -119 -85 -198 -85c-132 0 -230 105 -205 261c24 156 148 257 286 257c95 0 162 -44 189 -118l25 106h76zM269 55c94 0 197 75 216 193c18 117 -60 190 -154 190c-103 0 -195 -74 -214 -190c-19 -118 51 -193 152 -193z" />
    <glyph glyph-name="r" unicode="r" horiz-adv-x="402" 
d="M412 498c11 0 21 0 32 -4l-20 -73c-8 1 -19 1 -28 1c-119 0 -205 -90 -240 -213l-48 -209h-77l114 493h76l-24 -106c56 65 130 111 215 111z" />
    <glyph glyph-name="racute" unicode="&#x155;" horiz-adv-x="402" 
d="M330 567h-72l112 140h97zM221 493l-24 -106c56 65 130 111 215 111c11 0 21 0 32 -4l-20 -73c-8 1 -19 1 -28 1c-119 0 -205 -90 -240 -213l-48 -209h-77l114 493h76z" />
    <glyph glyph-name="rcaron" unicode="&#x159;" horiz-adv-x="402" 
d="M251 560l-84 142h74l53 -92l97 92h83l-150 -142h-73zM221 493l-24 -106c56 65 130 111 215 111c11 0 21 0 32 -4l-20 -73c-8 1 -19 1 -28 1c-119 0 -205 -90 -240 -213l-48 -209h-77l114 493h76z" />
    <glyph glyph-name="rcommaaccent" unicode="&#x157;" horiz-adv-x="402" 
d="M412 498c11 0 21 0 32 -4l-20 -73c-8 1 -19 1 -28 1c-119 0 -205 -90 -240 -213l-48 -209h-77l114 493h76l-24 -106c56 65 130 111 215 111zM14 -45h86l-105 -143h-59z" />
    <glyph glyph-name="s" unicode="s" horiz-adv-x="506" 
d="M16 128l76 22c10 -64 70 -101 144 -101c72 0 126 35 126 87c0 37 -27 53 -75 69l-86 29c-65 22 -108 54 -108 119c0 90 80 152 195 152c107 0 184 -54 199 -132l-66 -21c-8 53 -57 92 -133 92c-74 0 -119 -36 -119 -84c0 -38 29 -52 74 -67l64 -22
c74 -25 129 -55 129 -131c0 -95 -90 -153 -205 -153c-105 0 -195 49 -215 141z" />
    <glyph glyph-name="sacute" unicode="&#x15b;" horiz-adv-x="506" 
d="M374 567h-72l112 140h97zM16 128l76 22c10 -64 70 -101 144 -101c72 0 126 35 126 87c0 37 -27 53 -75 69l-86 29c-65 22 -108 54 -108 119c0 90 80 152 195 152c107 0 184 -54 199 -132l-66 -21c-8 53 -57 92 -133 92c-74 0 -119 -36 -119 -84c0 -38 29 -52 74 -67
l64 -22c74 -25 129 -55 129 -131c0 -95 -90 -153 -205 -153c-105 0 -195 49 -215 141z" />
    <glyph glyph-name="scaron" unicode="&#x161;" horiz-adv-x="506" 
d="M295 560l-84 142h74l53 -92l97 92h83l-150 -142h-73zM288 444c-74 0 -119 -36 -119 -84c0 -38 29 -52 74 -67l64 -22c74 -25 129 -55 129 -131c0 -95 -90 -153 -205 -153c-105 0 -195 49 -215 141l76 22c10 -64 70 -101 144 -101c72 0 126 35 126 87c0 37 -27 53 -75 69
l-86 29c-65 22 -108 54 -108 119c0 90 80 152 195 152c107 0 184 -54 199 -132l-66 -21c-8 53 -57 92 -133 92z" />
    <glyph glyph-name="scedilla" unicode="&#x15f;" horiz-adv-x="506" 
d="M243 293l64 -22c74 -25 129 -55 129 -131c0 -93 -86 -150 -197 -153l-106 -157h-92l138 161c-81 14 -146 61 -163 137l76 22c10 -64 70 -101 144 -101c72 0 126 35 126 87c0 37 -27 53 -75 69l-86 29c-65 22 -108 54 -108 119c0 90 80 152 195 152
c107 0 184 -54 199 -132l-66 -21c-8 53 -57 92 -133 92c-74 0 -119 -36 -119 -84c0 -38 29 -52 74 -67z" />
    <glyph glyph-name="scommaaccent" unicode="&#x219;" horiz-adv-x="506" 
d="M16 128l76 22c10 -64 70 -101 144 -101c72 0 126 35 126 87c0 37 -27 53 -75 69l-86 29c-65 22 -108 54 -108 119c0 90 80 152 195 152c107 0 184 -54 199 -132l-66 -21c-8 53 -57 92 -133 92c-74 0 -119 -36 -119 -84c0 -38 29 -52 74 -67l64 -22
c74 -25 129 -55 129 -131c0 -95 -90 -153 -205 -153c-105 0 -195 49 -215 141zM74 -188l78 143h86l-104 -143h-60z" />
    <glyph glyph-name="germandbls" unicode="&#xdf;" horiz-adv-x="657" 
d="M494 380c74 -20 119 -70 119 -155c0 -126 -96 -233 -265 -233c-50 0 -108 11 -153 31l22 64c39 -17 89 -30 134 -30c114 0 193 75 193 166c0 80 -63 124 -157 124h-53l15 64h32c93 0 187 57 187 140c0 71 -53 119 -134 119c-106 0 -182 -72 -208 -187l-112 -483h-76
l110 483c34 149 135 254 295 254c122 0 199 -73 199 -173c0 -80 -59 -155 -148 -184z" />
    <glyph glyph-name="t" unicode="t" horiz-adv-x="386" 
d="M218 429l-62 -272c-15 -64 7 -98 58 -98c31 0 66 13 96 32l8 -67c-38 -25 -77 -37 -119 -37c-94 0 -146 57 -121 167l64 275h-99l14 64h100l36 157h76l-36 -157h177l-15 -64h-177z" />
    <glyph glyph-name="tbar" unicode="&#x167;" horiz-adv-x="396" 
d="M228 429l-22 -96h141l-14 -63h-142l-26 -113c-15 -64 7 -98 58 -98c31 0 67 13 97 32l8 -67c-39 -25 -78 -37 -120 -37c-94 0 -145 57 -120 167l27 116h-96l14 63h96l22 96h-108l14 64h109l36 157h77l-36 -157h179l-14 -64h-180z" />
    <glyph glyph-name="tcaron" unicode="&#x165;" horiz-adv-x="386" 
d="M369 546h-61l40 172h77zM233 493h177l-15 -64h-177l-62 -272c-15 -64 7 -98 58 -98c31 0 66 13 96 32l8 -67c-38 -25 -77 -37 -119 -37c-94 0 -146 57 -121 167l64 275h-99l14 64h100l36 157h76z" />
    <glyph glyph-name="tcedilla" unicode="&#x163;" horiz-adv-x="386" 
d="M218 429l-62 -272c-15 -64 7 -98 58 -98c31 0 66 13 96 32l8 -67c-38 -25 -76 -37 -118 -37l-106 -157h-92l142 165c-58 19 -86 73 -66 159l64 275h-99l14 64h100l36 157h76l-36 -157h177l-15 -64h-177z" />
    <glyph glyph-name="uni021B" unicode="&#x21b;" horiz-adv-x="386" 
d="M218 429l-62 -272c-15 -64 7 -98 58 -98c31 0 66 13 96 32l8 -67c-38 -25 -77 -37 -119 -37c-94 0 -146 57 -121 167l64 275h-99l14 64h100l36 157h76l-36 -157h177l-15 -64h-177zM113 -45h86l-104 -143h-60z" />
    <glyph glyph-name="u" unicode="u" horiz-adv-x="629" 
d="M595 493l-114 -492h-77l19 83c-46 -61 -108 -96 -189 -96c-133 0 -193 98 -165 224l65 281h77l-66 -284c-21 -93 24 -153 112 -153c104 0 177 74 206 200l55 237h77z" />
    <glyph glyph-name="uacute" unicode="&#xfa;" horiz-adv-x="629" 
d="M411 567h-72l112 140h97zM595 493l-114 -492h-77l19 83c-46 -61 -108 -96 -189 -96c-133 0 -193 98 -165 224l65 281h77l-66 -284c-21 -93 24 -153 112 -153c104 0 177 74 206 200l55 237h77z" />
    <glyph glyph-name="ucircumflex" unicode="&#xfb;" horiz-adv-x="629" 
d="M311 559h-82l150 142h72l84 -142h-73l-54 93zM595 493l-114 -492h-77l19 83c-46 -61 -108 -96 -189 -96c-133 0 -193 98 -165 224l65 281h77l-66 -284c-21 -93 24 -153 112 -153c104 0 177 74 206 200l55 237h77z" />
    <glyph glyph-name="udieresis" unicode="&#xfc;" horiz-adv-x="629" 
d="M284 577c-30 0 -52 22 -52 51c0 27 22 51 52 51s53 -24 53 -51c0 -29 -23 -51 -53 -51zM482 577c-30 0 -52 22 -52 51c0 27 22 51 52 51s53 -24 53 -51c0 -29 -23 -51 -53 -51zM595 493l-114 -492h-77l19 83c-46 -61 -108 -96 -189 -96c-133 0 -193 98 -165 224l65 281
h77l-66 -284c-21 -93 24 -153 112 -153c104 0 177 74 206 200l55 237h77z" />
    <glyph glyph-name="ugrave" unicode="&#xf9;" horiz-adv-x="629" 
d="M334 567l-137 140h96l112 -140h-71zM595 493l-114 -492h-77l19 83c-46 -61 -108 -96 -189 -96c-133 0 -193 98 -165 224l65 281h77l-66 -284c-21 -93 24 -153 112 -153c104 0 177 74 206 200l55 237h77z" />
    <glyph glyph-name="uhungarumlaut" unicode="&#x171;" horiz-adv-x="629" 
d="M323 567h-69l112 140h95zM408 567l111 140h95l-137 -140h-69zM518 493h77l-114 -492h-77l19 83c-46 -61 -108 -96 -189 -96c-133 0 -193 98 -165 224l65 281h77l-66 -284c-21 -93 24 -153 112 -153c104 0 177 74 206 200z" />
    <glyph glyph-name="umacron" unicode="&#x16b;" horiz-adv-x="629" 
d="M515 584h-284l14 62h284zM595 493l-114 -492h-77l19 83c-46 -61 -108 -96 -189 -96c-133 0 -193 98 -165 224l65 281h77l-66 -284c-21 -93 24 -153 112 -153c104 0 177 74 206 200l55 237h77z" />
    <glyph glyph-name="uogonek" unicode="&#x173;" horiz-adv-x="629" 
d="M481 1h-7l7 -1c-63 -54 -96 -76 -96 -111c0 -21 14 -34 40 -34c15 0 27 4 48 10l-8 -50c-25 -11 -44 -16 -63 -16c-47 0 -79 29 -79 73c0 40 24 73 99 129h-18l19 83c-46 -61 -108 -96 -189 -96c-133 0 -193 98 -165 224l65 281h77l-66 -284c-21 -93 24 -153 112 -153
c104 0 177 74 206 200l55 237h77z" />
    <glyph glyph-name="uring" unicode="&#x16f;" horiz-adv-x="629" 
d="M378 549c-55 0 -95 42 -95 94c0 59 51 107 112 107c55 0 95 -41 95 -93c0 -59 -51 -108 -112 -108zM391 704c-33 0 -59 -27 -59 -58c0 -27 20 -50 50 -50c33 0 61 27 61 58c0 27 -22 50 -52 50zM595 493l-114 -492h-77l19 83c-46 -61 -108 -96 -189 -96
c-133 0 -193 98 -165 224l65 281h77l-66 -284c-21 -93 24 -153 112 -153c104 0 177 74 206 200l55 237h77z" />
    <glyph glyph-name="v" unicode="v" horiz-adv-x="560" 
d="M595 493l-334 -493h-82l-104 493h79l83 -403l272 403h86z" />
    <glyph glyph-name="w" unicode="w" horiz-adv-x="779" 
d="M814 493l-282 -495h-73l-43 374l-217 -374h-71l-53 495h74l40 -382l222 382h61l44 -383l218 383h80z" />
    <glyph glyph-name="wacute" unicode="&#x1e83;" horiz-adv-x="779" 
d="M504 567h-72l112 140h97zM814 493l-282 -495h-73l-43 374l-217 -374h-71l-53 495h74l40 -382l222 382h61l44 -383l218 383h80z" />
    <glyph glyph-name="wcircumflex" unicode="&#x175;" horiz-adv-x="779" 
d="M404 559h-82l150 142h72l84 -142h-73l-54 93zM814 493l-282 -495h-73l-43 374l-217 -374h-71l-53 495h74l40 -382l222 382h61l44 -383l218 383h80z" />
    <glyph glyph-name="wdieresis" unicode="&#x1e85;" horiz-adv-x="779" 
d="M377 577c-30 0 -52 22 -52 51c0 27 22 51 52 51s53 -24 53 -51c0 -29 -23 -51 -53 -51zM575 577c-30 0 -52 22 -52 51c0 27 22 51 52 51s53 -24 53 -51c0 -29 -23 -51 -53 -51zM814 493l-282 -495h-73l-43 374l-217 -374h-71l-53 495h74l40 -382l222 382h61l44 -383
l218 383h80z" />
    <glyph glyph-name="wgrave" unicode="&#x1e81;" horiz-adv-x="779" 
d="M427 567l-137 140h96l112 -140h-71zM814 493l-282 -495h-73l-43 374l-217 -374h-71l-53 495h74l40 -382l222 382h61l44 -383l218 383h80z" />
    <glyph glyph-name="x" unicode="x" horiz-adv-x="586" 
d="M341 242l141 -242h-88l-107 192l-197 -192h-104l256 244l-135 249h87l102 -197l197 197h105l-256 -250z" />
    <glyph glyph-name="y" unicode="y" horiz-adv-x="563" 
d="M598 493l-450 -663h-89l123 179l-107 484h81l86 -396l271 396h85z" />
    <glyph glyph-name="yacute" unicode="&#xfd;" horiz-adv-x="563" 
d="M390 568h-72l112 140h97zM598 493l-450 -663h-89l123 179l-107 484h81l86 -396l271 396h85z" />
    <glyph glyph-name="ycircumflex" unicode="&#x177;" horiz-adv-x="563" 
d="M290 560h-82l150 142h72l84 -142h-73l-54 93zM598 493l-450 -663h-89l123 179l-107 484h81l86 -396l271 396h85z" />
    <glyph glyph-name="ydieresis" unicode="&#xff;" horiz-adv-x="563" 
d="M263 578c-30 0 -52 22 -52 51c0 27 22 51 52 51s53 -24 53 -51c0 -29 -23 -51 -53 -51zM461 578c-30 0 -52 22 -52 51c0 27 22 51 52 51s53 -24 53 -51c0 -29 -23 -51 -53 -51zM598 493l-450 -663h-89l123 179l-107 484h81l86 -396l271 396h85z" />
    <glyph glyph-name="ygrave" unicode="&#x1ef3;" horiz-adv-x="563" 
d="M313 568l-137 140h96l112 -140h-71zM598 493l-450 -663h-89l123 179l-107 484h81l86 -396l271 396h85z" />
    <glyph glyph-name="z" unicode="z" horiz-adv-x="507" 
d="M501 440l-397 -376h321l-15 -64h-427l12 52l397 377h-300l15 64h406z" />
    <glyph glyph-name="zacute" unicode="&#x17a;" horiz-adv-x="507" 
d="M367 567h-72l112 140h97zM501 440l-397 -376h321l-15 -64h-427l12 52l397 377h-300l15 64h406z" />
    <glyph glyph-name="zcaron" unicode="&#x17e;" horiz-adv-x="507" 
d="M288 560l-84 142h74l53 -92l97 92h83l-150 -142h-73zM501 440l-397 -376h321l-15 -64h-427l12 52l397 377h-300l15 64h406z" />
    <glyph glyph-name="zdotaccent" unicode="&#x17c;" horiz-adv-x="507" 
d="M339 585c-30 0 -51 21 -51 50c0 26 21 49 51 49c29 0 51 -23 51 -49c0 -29 -22 -50 -51 -50zM501 440l-397 -376h321l-15 -64h-427l12 52l397 377h-300l15 64h406z" />
    <glyph glyph-name="germandbls.case" horiz-adv-x="1228" 
d="M386 683c139 0 228 -73 237 -189l-79 -18c-4 83 -68 139 -165 139c-95 0 -167 -53 -167 -127c0 -44 27 -68 84 -89l116 -42c93 -33 142 -81 142 -161c0 -125 -106 -209 -262 -209c-143 0 -257 73 -262 205l83 17c3 -96 75 -153 186 -153c110 0 177 54 177 131
c0 45 -25 74 -90 97l-118 42c-77 29 -138 64 -138 152c0 121 108 205 256 205zM990 683c139 0 228 -73 237 -189l-79 -18c-4 83 -68 139 -165 139c-95 0 -167 -53 -167 -127c0 -44 27 -68 84 -89l116 -42c93 -33 142 -81 142 -161c0 -125 -106 -209 -262 -209
c-143 0 -257 73 -262 205l83 17c3 -96 75 -153 186 -153c110 0 177 54 177 131c0 45 -25 74 -90 97l-118 42c-77 29 -138 64 -138 152c0 121 108 205 256 205z" />
    <glyph glyph-name="a.ss01" horiz-adv-x="553" 
d="M324 505c128 0 207 -72 177 -199l-70 -306h-74l16 68c-47 -47 -112 -81 -195 -81c-98 0 -161 50 -161 130c0 94 86 174 233 174h174l6 24c18 77 -30 125 -112 125c-73 0 -139 -39 -165 -101l-69 19c36 88 133 147 240 147zM404 201l7 30h-177c-88 0 -141 -48 -141 -102
c0 -50 44 -79 109 -79c98 0 182 67 202 151z" />
    <glyph glyph-name="aacute.ss01" horiz-adv-x="553" 
d="M404 567h-72l112 140h97zM324 505c128 0 207 -72 177 -199l-70 -306h-74l16 68c-47 -47 -112 -81 -195 -81c-98 0 -161 50 -161 130c0 94 86 174 233 174h174l6 24c18 77 -30 125 -112 125c-73 0 -139 -39 -165 -101l-69 19c36 88 133 147 240 147zM404 201l7 30h-177
c-88 0 -141 -48 -141 -102c0 -50 44 -79 109 -79c98 0 182 67 202 151z" />
    <glyph glyph-name="abreve.ss01" horiz-adv-x="553" 
d="M363 554c-86 0 -135 53 -118 135h61c-10 -49 20 -80 65 -80s86 31 96 80h68c-17 -82 -85 -135 -172 -135zM324 505c128 0 207 -72 177 -199l-70 -306h-74l16 68c-47 -47 -112 -81 -195 -81c-98 0 -161 50 -161 130c0 94 86 174 233 174h174l6 24c18 77 -30 125 -112 125
c-73 0 -139 -39 -165 -101l-69 19c36 88 133 147 240 147zM404 201l7 30h-177c-88 0 -141 -48 -141 -102c0 -50 44 -79 109 -79c98 0 182 67 202 151z" />
    <glyph glyph-name="acircumflex.ss01" horiz-adv-x="553" 
d="M304 559h-82l150 142h72l84 -142h-73l-54 93zM324 505c128 0 207 -72 177 -199l-70 -306h-74l16 68c-47 -47 -112 -81 -195 -81c-98 0 -161 50 -161 130c0 94 86 174 233 174h174l6 24c18 77 -30 125 -112 125c-73 0 -139 -39 -165 -101l-69 19c36 88 133 147 240 147z
M404 201l7 30h-177c-88 0 -141 -48 -141 -102c0 -50 44 -79 109 -79c98 0 182 67 202 151z" />
    <glyph glyph-name="adieresis.ss01" horiz-adv-x="553" 
d="M277 577c-30 0 -52 22 -52 51c0 27 22 51 52 51s53 -24 53 -51c0 -29 -23 -51 -53 -51zM475 679c30 0 53 -24 53 -51c0 -29 -23 -51 -53 -51s-52 22 -52 51c0 27 22 51 52 51zM324 505c128 0 207 -72 177 -199l-70 -306h-74l16 68c-47 -47 -112 -81 -195 -81
c-98 0 -161 50 -161 130c0 94 86 174 233 174h174l6 24c18 77 -30 125 -112 125c-73 0 -139 -39 -165 -101l-69 19c36 88 133 147 240 147zM404 201l7 30h-177c-88 0 -141 -48 -141 -102c0 -50 44 -79 109 -79c98 0 182 67 202 151z" />
    <glyph glyph-name="agrave.ss01" horiz-adv-x="553" 
d="M327 567l-137 140h96l112 -140h-71zM324 505c128 0 207 -72 177 -199l-70 -306h-74l16 68c-47 -47 -112 -81 -195 -81c-98 0 -161 50 -161 130c0 94 86 174 233 174h174l6 24c18 77 -30 125 -112 125c-73 0 -139 -39 -165 -101l-69 19c36 88 133 147 240 147zM404 201
l7 30h-177c-88 0 -141 -48 -141 -102c0 -50 44 -79 109 -79c98 0 182 67 202 151z" />
    <glyph glyph-name="amacron.ss01" horiz-adv-x="553" 
d="M522 646l-14 -62h-284l14 62h284zM324 505c128 0 207 -72 177 -199l-70 -306h-74l16 68c-47 -47 -112 -81 -195 -81c-98 0 -161 50 -161 130c0 94 86 174 233 174h174l6 24c18 77 -30 125 -112 125c-73 0 -139 -39 -165 -101l-69 19c36 88 133 147 240 147zM404 201l7 30
h-177c-88 0 -141 -48 -141 -102c0 -50 44 -79 109 -79c98 0 182 67 202 151z" />
    <glyph glyph-name="aogonek.ss01" horiz-adv-x="553" 
d="M324 505c128 0 207 -72 177 -199l-70 -306c-63 -54 -96 -76 -96 -111c0 -21 14 -34 40 -34c15 0 27 4 48 10l-8 -50c-25 -11 -44 -16 -63 -16c-47 0 -79 29 -79 73c0 39 24 72 98 128h-14l16 68c-47 -47 -112 -81 -195 -81c-98 0 -161 50 -161 130c0 94 86 174 233 174
h174l6 24c18 77 -30 125 -112 125c-73 0 -139 -39 -165 -101l-69 19c36 88 133 147 240 147zM404 201l7 30h-177c-88 0 -141 -48 -141 -102c0 -50 44 -79 109 -79c98 0 182 67 202 151z" />
    <glyph glyph-name="aring.ss01" horiz-adv-x="553" 
d="M371 549c-55 0 -95 42 -95 94c0 59 51 107 112 107c55 0 95 -41 95 -93c0 -59 -51 -108 -112 -108zM384 704c-33 0 -59 -27 -59 -58c0 -27 20 -50 50 -50c33 0 61 27 61 58c0 27 -22 50 -52 50zM324 505c128 0 207 -72 177 -199l-70 -306h-74l16 68
c-47 -47 -112 -81 -195 -81c-98 0 -161 50 -161 130c0 94 86 174 233 174h174l6 24c18 77 -30 125 -112 125c-73 0 -139 -39 -165 -101l-69 19c36 88 133 147 240 147zM404 201l7 30h-177c-88 0 -141 -48 -141 -102c0 -50 44 -79 109 -79c98 0 182 67 202 151z" />
    <glyph glyph-name="atilde.ss01" horiz-adv-x="553" 
d="M322 638c-24 0 -42 -19 -48 -45h-54c17 75 68 102 111 102c60 0 65 -48 111 -48c23 0 41 19 47 47h54c-17 -76 -67 -104 -110 -104c-61 0 -66 48 -111 48zM324 505c128 0 207 -72 177 -199l-70 -306h-74l16 68c-47 -47 -112 -81 -195 -81c-98 0 -161 50 -161 130
c0 94 86 174 233 174h174l6 24c18 77 -30 125 -112 125c-73 0 -139 -39 -165 -101l-69 19c36 88 133 147 240 147zM404 201l7 30h-177c-88 0 -141 -48 -141 -102c0 -50 44 -79 109 -79c98 0 182 67 202 151z" />
    <glyph glyph-name="l.ss02" horiz-adv-x="312" 
d="M258 720l-137 -594c-10 -40 4 -66 47 -66c19 0 43 7 65 17l11 -67c-31 -16 -55 -23 -91 -23c-78 0 -129 54 -108 144l137 589h76z" />
    <glyph glyph-name="lacute.ss02" horiz-adv-x="312" 
d="M277 795h-72l112 140h97zM258 720l-137 -594c-10 -40 4 -66 47 -66c19 0 43 7 65 17l11 -67c-31 -16 -55 -23 -91 -23c-78 0 -129 54 -108 144l137 589h76z" />
    <glyph glyph-name="lcaron.ss02" horiz-adv-x="312" 
d="M258 720l-137 -594c-10 -40 4 -66 47 -66c19 0 43 7 65 17l11 -67c-31 -16 -55 -23 -91 -23c-78 0 -129 54 -108 144l137 589h76zM350 548h-61l40 172h77z" />
    <glyph glyph-name="lcommaaccent.ss02" horiz-adv-x="312" 
d="M258 720l-137 -594c-10 -40 4 -66 47 -66c19 0 43 7 65 17l11 -67c-31 -16 -55 -23 -91 -23c-78 0 -129 54 -108 144l137 589h76zM-9 -188l78 143h86l-104 -143h-60z" />
    <glyph glyph-name="ldot.ss02" horiz-adv-x="352" 
d="M263 720l-138 -594c-10 -40 5 -66 47 -66c20 0 44 7 65 17l12 -67c-32 -16 -55 -23 -91 -23c-78 0 -129 54 -108 144l136 589h77zM328 388c30 0 52 -23 52 -49c0 -29 -22 -50 -52 -50c-29 0 -51 21 -51 50c0 26 22 49 51 49z" />
    <glyph glyph-name="lslash.ss02" horiz-adv-x="344" 
d="M201 331l-48 -205c-10 -40 5 -66 47 -66c20 0 44 7 65 17l12 -67c-32 -16 -55 -23 -91 -23c-78 0 -129 54 -108 144l35 152l-84 -46l17 76l85 46l83 361h77l-73 -313l103 56l-17 -76z" />
    <glyph glyph-name="k.ss03" horiz-adv-x="595" 
d="M357 297l176 -297h-88l-147 247l-165 -140l-25 -107h-77l167 720h76l-115 -500l328 273h101z" />
    <glyph glyph-name="kcommaaccent.ss03" horiz-adv-x="595" 
d="M357 297l176 -297h-88l-147 247l-165 -140l-25 -107h-77l167 720h76l-115 -500l328 273h101zM210 -45h86l-104 -143h-60z" />
    <glyph glyph-name="f_j" horiz-adv-x="647" 
d="M609 493l-129 -559c-18 -75 -79 -124 -153 -124c-33 0 -57 7 -77 17l31 66c15 -7 30 -11 45 -11c39 0 71 24 79 61l113 486h-293l-99 -429h-77l99 429h-85l15 64h85l17 73c24 104 106 171 208 171c37 0 64 -8 88 -24l-33 -61c-19 11 -38 16 -64 16
c-61 0 -108 -39 -123 -102l-17 -73h370zM603 693c30 0 52 -24 52 -51c0 -29 -22 -51 -52 -51c-31 0 -53 22 -53 51c0 27 22 51 53 51z" />
    <glyph glyph-name="f_t" horiz-adv-x="750" 
d="M574 429l-62 -272c-15 -64 7 -98 58 -98c31 0 66 13 96 32l8 -67c-38 -25 -77 -37 -119 -37c-94 0 -146 57 -121 167l64 275h-274l-99 -429h-76l99 429h-86l15 64h85l17 73c25 104 106 171 208 171c37 0 64 -8 88 -24l-33 -61c-18 11 -38 16 -64 16
c-61 0 -107 -39 -122 -102l-17 -73h274l36 157h76l-36 -157h177l-15 -64h-177z" />
    <glyph glyph-name="fl.ss02" horiz-adv-x="668" 
d="M225 429l-99 -429h-77l99 429h-85l14 64h86l17 73c25 108 101 171 203 171c28 0 58 -7 77 -18l-17 -61c-25 8 -46 11 -64 11c-63 0 -109 -42 -123 -103l-17 -73h179l-14 -64h-179zM524 60c20 0 44 7 65 17l12 -67c-32 -16 -55 -23 -91 -23c-78 0 -129 54 -108 144
l136 589h77l-138 -594c-10 -40 5 -66 47 -66z" />
    <glyph glyph-name="ordfeminine" unicode="&#xaa;" horiz-adv-x="388" 
d="M293 673c77 0 134 -41 112 -130l-49 -200h-58l8 32c-27 -24 -64 -40 -113 -40c-64 0 -104 33 -104 84c0 67 63 114 161 114h95l3 13c13 53 -13 81 -62 81c-43 0 -79 -22 -97 -68l-50 12c27 67 83 102 154 102zM330 473l5 21h-88c-61 0 -98 -27 -98 -68
c0 -29 22 -47 59 -47c61 0 109 42 122 94z" />
    <glyph glyph-name="ordmasculine" unicode="&#xba;" horiz-adv-x="441" 
d="M292 673c90 0 161 -63 161 -156c0 -109 -88 -182 -187 -182c-87 0 -159 63 -159 158c0 107 90 180 185 180zM269 388c66 0 126 51 126 126c0 62 -47 106 -106 106c-62 0 -123 -51 -123 -124c0 -64 48 -108 103 -108z" />
    <glyph glyph-name="zero" unicode="0" horiz-adv-x="665" 
d="M407 683c166 0 263 -140 224 -348c-40 -208 -166 -348 -332 -348s-263 140 -223 348c39 207 165 348 331 348zM302 61c120 0 216 111 249 274c32 164 -28 275 -147 275c-120 0 -216 -111 -248 -275c-33 -163 27 -274 146 -274z" />
    <glyph glyph-name="one" unicode="1" horiz-adv-x="356" 
d="M366 670l-155 -670h-77l131 570l-199 -101l20 84l231 117h49z" />
    <glyph glyph-name="two" unicode="2" horiz-adv-x="515" 
d="M134 72h322l-18 -72h-460l16 51l293 223c92 68 164 122 164 213c0 76 -50 127 -134 127c-87 0 -149 -58 -161 -160l-74 15c15 130 112 214 241 214c123 0 203 -75 203 -190c0 -106 -65 -173 -194 -271z" />
    <glyph glyph-name="three" unicode="3" horiz-adv-x="586" 
d="M574 513c0 -88 -57 -151 -142 -174c51 -24 86 -71 86 -137c0 -118 -103 -215 -251 -215c-141 0 -232 88 -225 218l72 16c-4 -96 51 -165 154 -165c100 0 173 66 173 148c0 69 -51 108 -132 108h-92l18 64h89c88 0 179 41 179 129c0 68 -53 111 -133 111
c-87 0 -150 -52 -167 -151l-72 13c23 126 115 205 244 205c120 0 199 -68 199 -170z" />
    <glyph glyph-name="four" unicode="4" horiz-adv-x="622" 
d="M571 161h-105l-37 -161h-77l37 161h-374l17 76l450 433h101l-102 -444h104zM404 226l83 362l-373 -362h290z" />
    <glyph glyph-name="five" unicode="5" horiz-adv-x="562" 
d="M234 599l-60 -196h131c121 0 205 -62 205 -178c0 -127 -100 -238 -258 -238c-145 0 -239 93 -236 232l74 14c-1 -107 60 -178 166 -178c109 0 176 76 176 160c0 77 -58 120 -141 120h-211l101 335h403l-17 -71h-333z" />
    <glyph glyph-name="six" unicode="6" horiz-adv-x="612" 
d="M351 433c122 0 202 -81 202 -194c0 -140 -107 -252 -258 -252c-145 0 -231 101 -231 259c0 249 152 437 349 437c102 0 188 -52 201 -147l-74 -15c-8 61 -63 92 -131 92c-146 0 -249 -139 -264 -286c42 65 119 106 206 106zM298 59c101 0 176 79 176 175
c0 77 -58 133 -141 133c-98 0 -178 -87 -178 -170c0 -84 63 -138 143 -138z" />
    <glyph glyph-name="seven" unicode="7" horiz-adv-x="505" 
d="M584 670l-12 -54l-405 -616h-97l401 599h-368l17 71h464z" />
    <glyph glyph-name="eight" unicode="8" horiz-adv-x="585" 
d="M579 513c0 -84 -54 -158 -170 -177c80 -29 114 -89 114 -152c0 -114 -105 -197 -256 -197c-147 0 -237 77 -237 181c0 87 68 164 196 181c-72 29 -102 86 -102 150c0 109 96 184 238 184c137 0 217 -70 217 -170zM344 382c94 0 157 52 157 125c0 69 -59 111 -142 111
c-87 0 -157 -45 -157 -122c0 -67 53 -114 142 -114zM269 55c95 0 168 50 168 133c0 70 -55 118 -149 118c-96 0 -171 -50 -171 -132c0 -72 61 -119 152 -119z" />
    <glyph glyph-name="nine" unicode="9" horiz-adv-x="616" 
d="M357 683c145 0 231 -100 231 -259c0 -248 -153 -437 -350 -437c-102 0 -188 52 -200 148l74 14c8 -60 63 -92 131 -92c144 0 247 139 262 285c-41 -64 -118 -105 -205 -105c-121 0 -202 81 -202 195c0 139 108 251 259 251zM318 303c99 0 179 88 179 171
s-63 138 -143 138c-102 0 -176 -79 -176 -175c0 -78 58 -134 140 -134z" />
    <glyph glyph-name="zero.tf" 
d="M385 683c163 0 251 -140 213 -348s-170 -348 -333 -348c-164 0 -252 140 -213 348c37 207 170 348 333 348zM274 61c117 0 213 111 244 274c30 164 -26 275 -142 275c-117 0 -214 -111 -244 -275c-31 -163 25 -274 142 -274z" />
    <glyph glyph-name="one.tf" 
d="M506 72l-16 -72h-469l16 72h204l115 498l-201 -101l20 84l231 117h49l-137 -598h188z" />
    <glyph glyph-name="two.tf" 
d="M182 72h321l-17 -72h-460l16 51l292 223c92 68 165 122 165 213c0 76 -51 127 -134 127c-87 0 -149 -58 -161 -160l-74 15c15 130 111 214 240 214c124 0 203 -75 203 -190c0 -106 -65 -173 -194 -271z" />
    <glyph glyph-name="three.tf" 
d="M579 513c0 -88 -57 -151 -142 -174c51 -24 86 -71 86 -137c0 -118 -103 -215 -251 -215c-141 0 -232 88 -225 218l72 16c-4 -96 51 -165 154 -165c100 0 173 66 173 148c0 69 -51 108 -132 108h-92l18 64h89c88 0 179 41 179 129c0 68 -53 111 -133 111
c-87 0 -150 -52 -167 -151l-72 13c23 126 115 205 244 205c120 0 199 -68 199 -170z" />
    <glyph glyph-name="four.tf" 
d="M467 226h99l-15 -65h-99l-37 -161h-77l37 161h-358l18 76l434 433h100zM390 226l82 357l-358 -357h276z" />
    <glyph glyph-name="five.tf" 
d="M247 599l-60 -196h131c121 0 205 -62 205 -178c0 -127 -100 -238 -258 -238c-145 0 -239 93 -236 232l74 14c-1 -107 60 -178 166 -178c109 0 176 76 176 160c0 77 -58 120 -141 120h-211l101 335h403l-17 -71h-333z" />
    <glyph glyph-name="six.tf" 
d="M350 433c121 0 202 -81 202 -194c0 -140 -108 -252 -259 -252c-145 0 -231 101 -231 259c0 249 153 437 350 437c102 0 188 -52 200 -147l-74 -15c-8 61 -63 92 -131 92c-144 0 -248 -139 -262 -285c40 64 118 105 205 105zM296 59c102 0 176 79 176 175
c0 77 -58 133 -140 133c-99 0 -179 -87 -179 -170c0 -84 63 -138 143 -138z" />
    <glyph glyph-name="seven.tf" 
d="M664 670l-13 -54l-456 -616h-95l447 599h-404l16 71h505z" />
    <glyph glyph-name="eight.tf" 
d="M590 513c0 -84 -54 -158 -170 -177c80 -29 114 -89 114 -152c0 -114 -105 -197 -256 -197c-147 0 -237 77 -237 181c0 87 68 164 196 181c-72 29 -102 86 -102 150c0 109 96 184 238 184c137 0 217 -70 217 -170zM355 382c94 0 157 52 157 125c0 69 -59 111 -142 111
c-87 0 -157 -45 -157 -122c0 -67 53 -114 142 -114zM280 55c95 0 168 50 168 133c0 70 -55 118 -149 118c-96 0 -171 -50 -171 -132c0 -72 61 -119 152 -119z" />
    <glyph glyph-name="nine.tf" 
d="M357 682c145 0 231 -100 231 -259c0 -248 -153 -437 -350 -437c-102 0 -188 52 -200 148l74 14c8 -60 63 -92 131 -92c144 0 247 139 262 285c-41 -64 -118 -105 -205 -105c-121 0 -202 81 -202 195c0 139 108 251 259 251zM318 302c99 0 179 88 179 171
s-63 138 -143 138c-102 0 -176 -79 -176 -175c0 -78 58 -134 140 -134z" />
    <glyph glyph-name="zero.zero.tf" 
d="M385 683c163 0 251 -140 213 -348s-170 -348 -333 -348c-164 0 -252 140 -213 348c37 207 170 348 333 348zM376 610c-117 0 -214 -111 -244 -275c-9 -45 -11 -86 -7 -122l370 333c-26 41 -66 64 -119 64zM274 61c117 0 213 111 244 274c10 55 11 104 2 145l-375 -338
c24 -51 68 -81 129 -81z" />
    <glyph glyph-name="zero.zero" horiz-adv-x="660" 
d="M407 683c166 0 263 -140 224 -348c-40 -208 -166 -348 -332 -348s-263 140 -223 348c39 207 165 348 331 348zM156 335c-9 -48 -11 -91 -6 -128l377 339c-26 41 -68 64 -123 64c-120 0 -216 -111 -248 -275zM551 335c11 56 11 106 2 147l-382 -344c26 -49 71 -77 131 -77
c120 0 216 111 249 274z" />
    <glyph glyph-name="fraction" unicode="&#x2044;" horiz-adv-x="216" 
d="M-253 0l655 670h57l-655 -670h-57z" />
    <glyph glyph-name="onehalf" unicode="&#xbd;" horiz-adv-x="768" 
d="M714 670l-655 -670h-57l655 670h57zM191 597l-103 -50l14 60l126 63h37l-85 -369h-58zM517 51h170l-11 -52h-268l10 39l162 118c61 45 93 74 93 111s-26 61 -66 61c-48 0 -82 -34 -86 -86l-51 9c4 76 64 125 141 125c73 0 115 -44 115 -106c0 -56 -37 -92 -114 -149z" />
    <glyph glyph-name="onequarter" unicode="&#xbc;" horiz-adv-x="712" 
d="M724 670l-655 -670h-57l655 670h57zM191 597l-103 -50l14 60l126 63h37l-85 -369h-58zM611 131h61l-11 -48h-61l-19 -83h-55l19 83h-210l12 54l252 232h67zM556 131l41 174l-192 -174h151z" />
    <glyph glyph-name="threequarters" unicode="&#xbe;" horiz-adv-x="813" 
d="M352 418c-1 -69 -63 -122 -149 -122c-83 0 -136 50 -132 125l51 11c-2 -54 31 -88 85 -88c53 0 92 31 92 72c0 36 -26 57 -74 57h-39l9 43h31c48 0 104 18 105 65c0 32 -22 57 -67 57c-49 0 -87 -35 -96 -86l-48 11c11 71 70 121 149 121c73 0 116 -43 115 -98
c0 -51 -35 -80 -80 -93c32 -13 49 -40 48 -75zM821 670l-655 -670h-57l655 670h57zM712 131h61l-11 -48h-61l-19 -83h-55l19 83h-210l12 54l252 232h67zM657 131l41 174l-192 -174h151z" />
    <glyph glyph-name="oneeighth" unicode="&#x215b;" horiz-adv-x="752" 
d="M709 670l-655 -670h-57l655 670h57zM191 597l-103 -50l14 60l126 63h37l-85 -369h-58zM595 372c76 0 126 -38 125 -97c-2 -44 -29 -83 -89 -97c41 -17 59 -49 59 -83c0 -65 -60 -110 -145 -110s-139 43 -136 104c2 44 36 86 102 98c-37 18 -52 48 -52 82
c0 61 55 103 136 103zM585 209c49 0 82 26 82 64c0 36 -32 57 -75 57c-45 0 -78 -23 -80 -62c-1 -36 27 -59 73 -59zM545 31c50 0 87 24 87 67c0 36 -28 61 -77 61c-51 0 -88 -27 -88 -69c0 -38 31 -59 78 -59z" />
    <glyph glyph-name="threeeighths" unicode="&#x215c;" horiz-adv-x="856" 
d="M203 296c-83 0 -136 50 -132 125l51 11c-2 -54 31 -88 85 -88c53 0 92 31 92 72c0 36 -26 57 -74 57h-39l9 43h31c48 0 104 18 105 65c0 32 -22 57 -67 57c-49 0 -87 -35 -96 -86l-48 11c11 71 70 121 149 121c73 0 116 -43 115 -98c0 -51 -35 -80 -80 -93
c32 -13 49 -40 48 -75c-1 -69 -63 -122 -149 -122zM806 670l-655 -670h-57l655 670h57zM692 372c76 0 126 -38 125 -97c-2 -44 -29 -83 -89 -97c41 -17 59 -49 59 -83c0 -65 -60 -110 -145 -110s-139 43 -136 104c2 44 36 86 102 98c-37 18 -52 48 -52 82
c0 61 55 103 136 103zM682 209c49 0 82 26 82 64c0 36 -32 57 -75 57c-45 0 -78 -23 -80 -62c-1 -36 27 -59 73 -59zM642 31c50 0 87 24 87 67c0 36 -28 61 -77 61c-51 0 -88 -27 -88 -69c0 -38 31 -59 78 -59z" />
    <glyph glyph-name="fiveeighths" unicode="&#x215d;" horiz-adv-x="853" 
d="M355 427c0 -79 -63 -133 -154 -133c-77 0 -132 47 -134 109l56 9c3 -42 37 -68 81 -68c57 0 95 32 95 80c0 36 -27 59 -71 59h-124l44 187h243l-11 -51h-191l-21 -88h70c69 0 117 -39 117 -104zM813 670l-655 -670h-57l655 670h57zM696 372c76 0 126 -38 125 -97
c-2 -44 -29 -83 -89 -97c41 -17 59 -49 59 -83c0 -65 -60 -110 -145 -110s-139 43 -136 104c2 44 36 86 102 98c-37 18 -52 48 -52 82c0 61 55 103 136 103zM686 209c49 0 82 26 82 64c0 36 -32 57 -75 57c-45 0 -78 -23 -80 -62c-1 -36 27 -59 73 -59zM646 31
c50 0 87 24 87 67c0 36 -28 61 -77 61c-51 0 -88 -27 -88 -69c0 -38 31 -59 78 -59z" />
    <glyph glyph-name="seveneighths" unicode="&#x215e;" horiz-adv-x="758" 
d="M698 670l-655 -670h-58l656 670h57zM69 301l228 318h-197l12 51h264l-10 -44l-231 -325h-66zM599 372c76 0 126 -38 125 -97c-2 -44 -29 -83 -89 -97c41 -17 59 -49 59 -83c0 -65 -60 -110 -145 -110s-139 43 -136 104c2 44 36 86 102 98c-37 18 -52 48 -52 82
c0 61 55 103 136 103zM589 209c49 0 82 26 82 64c0 36 -32 57 -75 57c-45 0 -78 -23 -80 -62c-1 -36 27 -59 73 -59zM549 31c50 0 87 24 87 67c0 36 -28 61 -77 61c-51 0 -88 -27 -88 -69c0 -38 31 -59 78 -59z" />
    <glyph glyph-name="zero.dnom" horiz-adv-x="393" 
d="M211 372c96 0 146 -77 128 -191c-19 -117 -94 -192 -188 -192c-92 0 -146 74 -128 192c18 114 93 191 188 191zM158 42c56 0 104 49 118 139c14 86 -16 139 -73 139c-61 0 -106 -57 -119 -139c-14 -85 15 -139 74 -139z" />
    <glyph glyph-name="one.dnom" horiz-adv-x="234" 
d="M110 -1h-58l69 297l-103 -50l14 60l126 63h37z" />
    <glyph glyph-name="two.dnom" horiz-adv-x="337" 
d="M86 51h170l-11 -52h-269l10 39l163 118c61 45 93 74 93 111s-26 61 -66 61c-48 0 -82 -34 -86 -86l-51 9c4 76 64 125 141 125c73 0 115 -44 115 -106c0 -56 -37 -92 -114 -149z" />
    <glyph glyph-name="three.dnom" horiz-adv-x="345" 
d="M198 376c73 0 116 -43 115 -98c0 -51 -35 -80 -80 -93c32 -13 49 -40 48 -75c-1 -69 -63 -122 -149 -122c-83 0 -137 50 -132 125l51 11c-2 -54 31 -88 85 -88c53 0 92 31 92 72c0 36 -26 57 -74 57h-39l9 43h31c48 0 104 18 105 65c0 32 -22 57 -67 57
c-49 0 -87 -35 -96 -86l-48 11c11 71 70 121 149 121z" />
    <glyph glyph-name="four.dnom" horiz-adv-x="376" 
d="M314 83h-61l-19 -83h-55l19 83h-210l12 54l252 232h67l-55 -238h61zM209 131l41 174l-192 -174h151z" />
    <glyph glyph-name="five.dnom" horiz-adv-x="344" 
d="M119 315l-21 -88h70c69 0 117 -39 117 -104c0 -79 -63 -133 -154 -133c-77 0 -132 47 -135 109l57 9c3 -42 37 -68 81 -68c57 0 95 32 95 80c0 36 -27 59 -71 59h-124l44 187h243l-11 -51h-191z" />
    <glyph glyph-name="six.dnom" horiz-adv-x="361" 
d="M182 238c70 0 113 -46 113 -111c0 -78 -62 -137 -147 -137c-84 0 -131 57 -131 154c0 126 78 228 186 228c62 0 113 -31 120 -92l-57 -8c-4 37 -32 53 -65 53c-66 0 -110 -62 -124 -128c25 25 64 41 105 41zM152 37c51 0 90 41 90 88c0 40 -27 71 -72 71
c-54 0 -93 -43 -93 -88c0 -42 31 -71 75 -71z" />
    <glyph glyph-name="seven.dnom" horiz-adv-x="290" 
d="M306 369l-10 -44l-231 -325h-67l229 318h-197l12 51h264z" />
    <glyph glyph-name="eight.dnom" horiz-adv-x="344" 
d="M184 372c76 0 126 -38 125 -97c-2 -44 -29 -83 -89 -97c41 -17 59 -49 59 -83c0 -65 -60 -110 -145 -110s-139 43 -137 104c2 44 37 86 103 98c-37 18 -52 48 -52 82c0 61 55 103 136 103zM174 209c49 0 82 26 82 64c0 36 -32 57 -75 57c-45 0 -78 -23 -80 -62
c-1 -36 27 -59 73 -59zM134 31c50 0 87 24 87 67c0 36 -28 61 -77 61c-51 0 -88 -27 -88 -69c0 -38 31 -59 78 -59z" />
    <glyph glyph-name="nine.dnom" horiz-adv-x="361" 
d="M182 372c84 0 131 -56 131 -154c0 -126 -78 -228 -187 -228c-61 0 -113 31 -119 92l56 9c4 -38 32 -53 66 -53c66 0 111 61 123 128c-25 -25 -64 -41 -105 -41c-70 0 -113 45 -113 110c0 78 62 137 148 137zM160 166c53 0 92 43 92 89c0 41 -31 70 -74 70
c-52 0 -90 -40 -90 -88c0 -39 26 -71 72 -71z" />
    <glyph glyph-name="zero.numr" horiz-adv-x="393" 
d="M282 680c96 0 146 -77 128 -191c-19 -117 -94 -191 -188 -191c-92 0 -146 73 -128 191c18 114 93 191 188 191zM229 350c56 0 104 49 118 139c14 86 -16 139 -73 139c-61 0 -106 -57 -119 -139c-14 -85 15 -139 74 -139z" />
    <glyph glyph-name="one.numr" horiz-adv-x="234" 
d="M180 301h-58l69 296l-103 -50l14 60l126 63h37z" />
    <glyph glyph-name="two.numr" horiz-adv-x="337" 
d="M156 355h170l-11 -51h-268l10 38l162 118c61 45 93 74 93 111s-26 61 -66 61c-48 0 -82 -34 -86 -86l-51 9c4 76 64 125 141 125c73 0 115 -44 115 -106c0 -56 -37 -92 -114 -149z" />
    <glyph glyph-name="three.numr" horiz-adv-x="345" 
d="M269 684c73 0 116 -43 115 -98c0 -51 -35 -80 -80 -93c32 -13 49 -40 48 -75c-1 -69 -63 -122 -149 -122c-83 0 -136 50 -132 125l51 11c-2 -54 31 -88 85 -88c53 0 92 31 92 72c0 36 -26 57 -74 57h-39l9 43h31c48 0 104 18 105 65c0 32 -22 57 -67 57
c-49 0 -87 -35 -96 -86l-48 11c11 71 70 121 149 121z" />
    <glyph glyph-name="four.numr" horiz-adv-x="376" 
d="M384 384h-61l-19 -83h-55l19 83h-210l12 54l252 232h67l-55 -238h61zM279 432l41 174l-192 -174h151z" />
    <glyph glyph-name="five.numr" horiz-adv-x="344" 
d="M189 619l-21 -88h70c69 0 117 -39 117 -104c0 -79 -63 -133 -154 -133c-77 0 -132 47 -134 109l56 9c3 -42 37 -68 81 -68c57 0 95 32 95 80c0 36 -27 59 -71 59h-124l44 187h243l-11 -51h-191z" />
    <glyph glyph-name="six.numr" horiz-adv-x="361" 
d="M253 546c70 0 113 -46 113 -111c0 -78 -62 -137 -147 -137c-84 0 -131 57 -131 154c0 126 78 228 186 228c62 0 113 -31 120 -92l-57 -8c-4 37 -32 53 -65 53c-66 0 -110 -62 -124 -128c25 25 64 41 105 41zM223 345c51 0 90 41 90 88c0 40 -27 71 -72 71
c-54 0 -93 -43 -93 -88c0 -42 31 -71 75 -71z" />
    <glyph glyph-name="seven.numr" horiz-adv-x="290" 
d="M376 670l-10 -44l-231 -325h-66l228 318h-197l12 51h264z" />
    <glyph glyph-name="eight.numr" horiz-adv-x="344" 
d="M253 680c76 0 126 -38 125 -97c-2 -44 -29 -83 -89 -97c41 -17 59 -49 59 -83c0 -65 -60 -109 -145 -109s-139 42 -136 103c2 44 36 86 102 98c-37 18 -52 48 -52 82c0 61 55 103 136 103zM243 517c49 0 82 26 82 64c0 36 -32 57 -75 57c-45 0 -78 -23 -80 -62
c-1 -36 27 -59 73 -59zM203 339c50 0 87 24 87 67c0 36 -28 61 -77 61c-51 0 -88 -27 -88 -69c0 -38 31 -59 78 -59z" />
    <glyph glyph-name="nine.numr" horiz-adv-x="361" 
d="M253 680c84 0 131 -56 131 -154c0 -126 -78 -228 -187 -228c-61 0 -113 31 -119 92l56 9c4 -38 32 -53 66 -53c66 0 111 61 123 128c-25 -25 -64 -41 -105 -41c-70 0 -113 45 -113 110c0 78 62 137 148 137zM231 474c53 0 92 43 92 89c0 41 -31 70 -74 70
c-52 0 -90 -40 -90 -88c0 -39 26 -71 72 -71z" />
    <glyph glyph-name="asterisk" unicode="*" horiz-adv-x="451" 
d="M342 526l89 -106l-38 -32l-88 104l-45 -124l-53 19l45 124l-133 -23l-9 49l137 24l-90 106l39 33l87 -104l45 123l53 -19l-45 -123l134 23l9 -50z" />
    <glyph glyph-name="backslash" unicode="\" horiz-adv-x="368" 
d="M267 -72h-65l-100 813h65z" />
    <glyph glyph-name="periodcentered" unicode="&#xb7;" horiz-adv-x="207" 
d="M108 314c30 0 52 -24 52 -51c0 -28 -22 -50 -52 -50s-52 22 -52 50c0 27 22 51 52 51z" />
    <glyph glyph-name="bullet" unicode="&#x2022;" horiz-adv-x="406" 
d="M206 407c85 0 149 -67 149 -144c0 -82 -64 -143 -149 -143s-148 61 -148 143c0 77 63 144 148 144z" />
    <glyph glyph-name="colon" unicode=":" horiz-adv-x="207" 
d="M142 462c30 0 52 -24 52 -51c0 -28 -22 -50 -52 -50s-52 22 -52 50c0 27 22 51 52 51zM58 98c30 0 52 -24 52 -51c0 -28 -22 -50 -52 -50s-52 22 -52 50c0 27 22 51 52 51z" />
    <glyph glyph-name="comma" unicode="," horiz-adv-x="210" 
d="M-3 -132h-63l128 263h93l-1 -2z" />
    <glyph glyph-name="ellipsis" unicode="&#x2026;" horiz-adv-x="647" 
d="M58 98c30 0 52 -24 52 -51c0 -28 -22 -50 -52 -50s-52 22 -52 50c0 27 22 51 52 51zM278 98c30 0 52 -24 52 -51c0 -28 -22 -50 -52 -50s-52 22 -52 50c0 27 22 51 52 51zM498 98c30 0 52 -24 52 -51c0 -28 -22 -50 -52 -50s-52 22 -52 50c0 27 22 51 52 51z" />
    <glyph glyph-name="exclam" unicode="!" horiz-adv-x="272" 
d="M273 670l-7 -31l-104 -440h-78l99 440l7 31h83zM90 98c30 0 52 -24 52 -51c0 -28 -22 -50 -52 -50s-52 22 -52 50c0 27 22 51 52 51z" />
    <glyph glyph-name="exclamdown" unicode="&#xa1;" horiz-adv-x="272" 
d="M184 404c-30 0 -52 23 -52 50c0 29 22 50 52 50s52 -21 52 -50c0 -27 -22 -50 -52 -50zM1 -169l7 31l105 440h78l-100 -440l-7 -31h-83z" />
    <glyph glyph-name="numbersign" unicode="#" horiz-adv-x="679" 
d="M564 421l-90 -185h105l-32 -65h-104l-83 -171h-73l83 171h-183l-83 -171h-73l82 171h-106l32 65h106l89 185h-105l32 65h104l89 184h74l-89 -184h183l89 184h73l-89 -184h106l-33 -65h-104zM490 421h-183l-89 -185h183z" />
    <glyph glyph-name="period" unicode="." horiz-adv-x="207" 
d="M58 98c30 0 52 -24 52 -51c0 -28 -22 -50 -52 -50s-52 22 -52 50c0 27 22 51 52 51z" />
    <glyph glyph-name="question" unicode="?" horiz-adv-x="518" 
d="M539 500c0 -132 -122 -214 -252 -221l-18 -77h-72l33 138h44c83 0 191 55 191 153c0 73 -55 121 -135 121c-91 0 -160 -64 -174 -157l-72 14c15 121 115 212 250 212c121 0 205 -74 205 -183zM201 98c30 0 52 -24 52 -51c0 -28 -22 -50 -52 -50s-52 22 -52 50
c0 27 22 51 52 51z" />
    <glyph glyph-name="questiondown" unicode="&#xbf;" horiz-adv-x="519" 
d="M318 404c-30 0 -52 23 -52 50c0 29 22 50 52 50s52 -21 52 -50c0 -27 -22 -50 -52 -50zM364 45l72 -14c-15 -122 -116 -213 -250 -213c-122 0 -206 74 -206 183c0 132 122 214 253 221l18 77h71l-33 -137h-43c-84 0 -191 -55 -191 -154c0 -73 55 -121 134 -121
c91 0 161 64 175 158z" />
    <glyph glyph-name="quotedbl" unicode="&#x22;" horiz-adv-x="338" 
d="M89 392l64 278h78l-64 -278h-78zM239 392l64 278h78l-64 -278h-78z" />
    <glyph glyph-name="quotesingle" unicode="'" horiz-adv-x="188" 
d="M89 392l64 278h78l-64 -278h-78z" />
    <glyph glyph-name="semicolon" unicode=";" horiz-adv-x="231" 
d="M160 462c30 0 52 -24 52 -51c0 -28 -22 -50 -52 -50s-52 22 -52 50c0 27 22 51 52 51zM-3 -132h-63l128 263h93l-1 -2z" />
    <glyph glyph-name="slash" unicode="/" horiz-adv-x="368" 
d="M467 720l-470 -790h-76l470 790h76z" />
    <glyph glyph-name="underscore" unicode="_" horiz-adv-x="506" 
d="M401 -121h-465l14 65h466z" />
    <glyph glyph-name="backslash.case" horiz-adv-x="373" 
d="M288 0h-75l-87 670h75z" />
    <glyph glyph-name="periodcentered.case" horiz-adv-x="207" 
d="M123 379c30 0 52 -24 52 -51c0 -28 -22 -50 -52 -50s-52 22 -52 50c0 27 22 51 52 51z" />
    <glyph glyph-name="bullet.case" horiz-adv-x="406" 
d="M222 475c85 0 149 -67 149 -144c0 -82 -64 -143 -149 -143s-148 61 -148 143c0 77 63 144 148 144z" />
    <glyph glyph-name="colon.case" horiz-adv-x="209" 
d="M161 542c30 0 52 -24 52 -51c0 -28 -22 -50 -52 -50s-52 22 -52 50c0 27 22 51 52 51zM84 203c30 0 52 -24 52 -51c0 -28 -22 -50 -52 -50s-52 22 -52 50c0 27 22 51 52 51z" />
    <glyph glyph-name="exclamdown.case" horiz-adv-x="272" 
d="M224 573c-30 0 -52 23 -52 50c0 29 22 50 52 50s52 -21 52 -50c0 -27 -22 -50 -52 -50zM41 0l7 31l104 440h78l-99 -440l-7 -31h-83z" />
    <glyph glyph-name="questiondown.case" horiz-adv-x="518" 
d="M358 575c-30 0 -52 24 -52 51c0 28 22 50 52 50s52 -22 52 -50c0 -27 -22 -51 -52 -51zM403 216l72 -14c-15 -121 -115 -212 -250 -212c-121 0 -205 74 -205 183c0 132 122 214 252 221l18 77h72l-33 -138h-44c-83 0 -191 -55 -191 -153c0 -73 55 -121 135 -121
c91 0 160 64 174 157z" />
    <glyph glyph-name="semicolon.case" horiz-adv-x="230" 
d="M169 542c30 0 52 -24 52 -51c0 -28 -22 -50 -52 -50s-52 22 -52 50c0 27 22 51 52 51zM-3 -132h-63l128 263h93l-1 -2z" />
    <glyph glyph-name="slash.case" horiz-adv-x="408" 
d="M33 0h-71l412 670h71z" />
    <glyph glyph-name="braceleft" unicode="{" horiz-adv-x="431" 
d="M489 741l-15 -66h-83c-38 0 -71 -27 -80 -67l-39 -168c-13 -57 -49 -96 -96 -112c40 -18 57 -59 45 -109l-38 -168c-10 -41 10 -68 49 -68h83l-16 -65h-91c-79 0 -119 50 -102 126l39 167c11 50 -17 77 -66 84l-21 5l14 59l23 5c52 6 93 33 104 84l39 167
c18 75 81 126 160 126h91z" />
    <glyph glyph-name="braceright" unicode="}" horiz-adv-x="440" 
d="M412 359l-14 -59l-24 -5c-51 -6 -92 -33 -104 -84l-39 -167c-17 -76 -81 -126 -159 -126h-92l15 65h83c39 0 71 28 80 68l39 168c13 57 49 96 96 112c-39 18 -56 59 -45 109l39 168c10 41 -11 67 -49 67h-83l15 66h92c78 0 118 -50 101 -126l-38 -167
c-12 -50 17 -77 65 -84z" />
    <glyph glyph-name="bracketleft" unicode="[" horiz-adv-x="391" 
d="M261 674l-160 -690h175l-16 -66h-248l190 823h248l-15 -67h-174z" />
    <glyph glyph-name="bracketright" unicode="]" horiz-adv-x="392" 
d="M418 741l-190 -823h-249l16 66h174l160 690h-175l16 67h248z" />
    <glyph glyph-name="parenleft" unicode="(" horiz-adv-x="380" 
d="M347 752l52 -54c-161 -124 -218 -230 -240 -363c-22 -135 2 -252 102 -370l-62 -47c-117 126 -146 266 -122 417c24 153 99 293 270 417z" />
    <glyph glyph-name="parenright" unicode=")" horiz-adv-x="380" 
d="M75 -82l-52 54c161 125 218 231 240 364c22 135 -2 251 -102 369l61 47c117 -126 146 -265 123 -416c-24 -153 -100 -293 -270 -418z" />
    <glyph glyph-name="braceleft.case" horiz-adv-x="430" 
d="M473 670l-15 -65h-83c-39 0 -71 -27 -80 -68l-22 -94c-13 -57 -48 -96 -95 -111c39 -17 56 -59 44 -111l-20 -87c-10 -42 10 -68 49 -68h83l-16 -66h-91c-79 0 -119 50 -101 127l19 86c12 51 -16 79 -65 85l-21 5l14 59l23 5c52 7 93 34 104 84l22 93
c17 76 81 126 160 126h91z" />
    <glyph glyph-name="braceright.case" horiz-adv-x="450" 
d="M413 367l-14 -59l-23 -5c-52 -6 -93 -33 -104 -84l-22 -92c-17 -76 -81 -127 -160 -127h-92l16 66h83c39 0 71 27 80 68l22 93c13 57 48 96 95 112c-39 18 -56 58 -44 110l20 88c10 41 -10 68 -49 68h-83l16 65h91c79 0 119 -50 101 -126l-19 -87c-12 -50 16 -78 65 -85z
" />
    <glyph glyph-name="bracketleft.case" horiz-adv-x="392" 
d="M245 604l-124 -537h174l-15 -67h-249l155 670h248l-15 -66h-174z" />
    <glyph glyph-name="bracketright.case" horiz-adv-x="392" 
d="M402 670l-155 -670h-249l16 67h174l124 537h-174l15 66h249z" />
    <glyph glyph-name="parenleft.case" horiz-adv-x="348" 
d="M301 683l51 -52c-121 -91 -176 -185 -194 -296c-17 -112 6 -206 92 -302l-60 -46c-105 104 -134 221 -114 348c21 127 86 244 225 348z" />
    <glyph glyph-name="parenright.case" horiz-adv-x="349" 
d="M140 637l60 46c105 -104 134 -221 114 -348c-21 -127 -86 -244 -225 -348l-51 52c121 91 176 185 194 296c17 112 -6 206 -92 302z" />
    <glyph glyph-name="emdash" unicode="&#x2014;" horiz-adv-x="1041" 
d="M976 225h-920l13 60h920z" />
    <glyph glyph-name="endash" unicode="&#x2013;" horiz-adv-x="621" 
d="M556 225h-500l13 60h500z" />
    <glyph glyph-name="hyphen" unicode="-" horiz-adv-x="444" 
d="M378 222h-323l15 67h323z" />
    <glyph glyph-name="emdash.case" horiz-adv-x="1041" 
d="M995 303h-920l13 60h920z" />
    <glyph glyph-name="endash.case" horiz-adv-x="621" 
d="M573 303h-500l14 60h500z" />
    <glyph glyph-name="hyphen.case" horiz-adv-x="444" 
d="M395 299h-323l16 67h323z" />
    <glyph glyph-name="guillemotleft" unicode="&#xab;" horiz-adv-x="415" 
d="M29 262l163 178h79l-168 -182l80 -174h-73zM194 262l163 178h79l-168 -182l80 -174h-73z" />
    <glyph glyph-name="guillemotright" unicode="&#xbb;" horiz-adv-x="415" 
d="M229 262l-163 -178h-80l169 183l-80 173h73zM394 262l-163 -178h-79l168 183l-80 173h73z" />
    <glyph glyph-name="guilsinglleft" unicode="&#x2039;" horiz-adv-x="250" 
d="M29 262l163 178h79l-168 -182l80 -174h-73z" />
    <glyph glyph-name="guilsinglright" unicode="&#x203a;" horiz-adv-x="250" 
d="M229 262l-163 -178h-79l169 183l-80 173h72z" />
    <glyph glyph-name="quotedblbase" unicode="&#x201e;" horiz-adv-x="415" 
d="M21 -132h-63l128 263h93l-1 -2zM186 -132h-62l127 263h93l-1 -2z" />
    <glyph glyph-name="quotedblleft" unicode="&#x201c;" horiz-adv-x="415" 
d="M241 670h62l-127 -263h-93l1 3zM406 670h62l-127 -263h-93l1 3z" />
    <glyph glyph-name="quotedblright" unicode="&#x201d;" horiz-adv-x="415" 
d="M146 407h-63l127 263h93l-1 -2zM311 407h-63l127 263h93l-1 -2z" />
    <glyph glyph-name="quoteleft" unicode="&#x2018;" horiz-adv-x="250" 
d="M241 670h62l-127 -263h-93l1 3z" />
    <glyph glyph-name="quoteright" unicode="&#x2019;" horiz-adv-x="250" 
d="M146 407h-63l127 263h93l-1 -2z" />
    <glyph glyph-name="quotesinglbase" unicode="&#x201a;" horiz-adv-x="250" 
d="M21 -132h-63l128 263h93l-1 -2z" />
    <glyph glyph-name="guillemotleft.case" horiz-adv-x="415" 
d="M57 322l163 178h79l-168 -182l80 -174h-73zM222 322l163 178h79l-168 -182l80 -174h-73z" />
    <glyph glyph-name="guillemotright.case" horiz-adv-x="415" 
d="M230 322l-163 -178h-79l169 183l-80 173h72zM395 322l-163 -178h-79l169 183l-80 173h72z" />
    <glyph glyph-name="guilsinglleft.case" horiz-adv-x="250" 
d="M43 322l163 178h79l-168 -182l80 -174h-73z" />
    <glyph glyph-name="guilsinglright.case" horiz-adv-x="250" 
d="M244 322l-163 -178h-79l169 183l-80 173h72z" />
    <glyph glyph-name="space" unicode=" " horiz-adv-x="252" 
 />
    <glyph glyph-name="cent" unicode="&#xa2;" horiz-adv-x="579" 
d="M363 432l-87 -374c73 2 138 44 170 111l72 -14c-43 -101 -144 -168 -253 -168h-2l-27 -117h-66l29 125c-108 27 -177 122 -157 251c24 147 145 247 275 258l29 126h66l-30 -128c88 -15 154 -74 166 -161l-78 -16c-7 59 -50 97 -107 107zM117 246
c-15 -92 29 -158 100 -180l84 367c-90 -12 -168 -84 -184 -187z" />
    <glyph glyph-name="dollar" unicode="$" horiz-adv-x="582" 
d="M348 371l37 -15c84 -32 132 -73 132 -151c0 -110 -96 -184 -237 -184h-13l-27 -121h-67l30 129c-90 21 -157 80 -163 178l78 15c4 -66 45 -108 104 -125l54 225l-4 1c-83 32 -143 63 -143 147c0 106 92 178 221 182l27 118h67l-29 -122c95 -16 151 -78 161 -167l-74 -17
c-6 62 -44 104 -104 118zM206 478c0 -38 21 -60 87 -85l46 194c-78 -5 -133 -48 -133 -109zM280 88h9c97 0 154 45 154 112c0 41 -23 65 -80 87l-32 13z" />
    <glyph glyph-name="Euro" unicode="&#x20ac;" horiz-adv-x="809" 
d="M458 62c89 0 167 60 215 173l74 -18c-55 -139 -167 -229 -301 -229c-132 0 -222 96 -230 242h-129l14 58h116c2 31 7 61 14 89h-108l13 58h112c55 150 174 248 318 248c133 0 218 -91 228 -231l-82 -17c-7 113 -69 175 -158 175c-97 0 -179 -69 -223 -175h270l-24 -58
h-265c-7 -28 -12 -58 -14 -89h233l-24 -58h-209c10 -102 72 -168 160 -168z" />
    <glyph glyph-name="florin" unicode="&#x192;" horiz-adv-x="552" 
d="M511 682c49 0 91 -14 114 -38l-42 -61c-19 20 -47 31 -79 31c-64 0 -117 -42 -145 -110l-57 -139h184l-15 -64h-196l-135 -327c-39 -95 -106 -139 -188 -139c-44 0 -68 12 -83 25l42 61c15 -10 34 -14 50 -14c46 0 85 29 100 67l135 327h-121l15 64h132l62 150
c44 107 127 167 227 167z" />
    <glyph glyph-name="sterling" unicode="&#xa3;" horiz-adv-x="643" 
d="M460 683c133 0 207 -89 181 -221l-73 -10c19 97 -23 161 -112 161c-95 0 -167 -66 -187 -152l-27 -118h233l-16 -71h-233l-46 -200h375l-17 -72h-540l12 49l89 17l48 206h-85l16 71h85l27 118c31 133 136 222 270 222z" />
    <glyph glyph-name="yen" unicode="&#xa5;" horiz-adv-x="665" 
d="M420 313h160l-13 -60h-194l-17 -75h193l-14 -60h-193l-27 -118h-79l27 118h-191l14 60h191l17 75h-190l13 60h158l-147 357h82l135 -338l291 338h97z" />
    <glyph glyph-name="cent.tf" 
d="M368 432l-88 -374c72 2 139 44 170 111l72 -14c-42 -101 -144 -168 -252 -168h-2l-28 -117h-66l30 125c-109 27 -178 122 -157 251c23 146 144 247 274 258l29 126h66l-29 -128c87 -15 154 -74 166 -161l-78 -16c-7 59 -50 97 -107 107zM121 246
c-14 -91 30 -158 100 -180l86 367c-91 -12 -170 -84 -186 -187z" />
    <glyph glyph-name="dollar.tf" 
d="M348 371l37 -15c84 -32 132 -73 132 -151c0 -110 -96 -184 -237 -184h-13l-27 -121h-67l30 129c-90 21 -157 80 -163 178l78 15c4 -66 45 -108 104 -125l54 225l-4 1c-83 32 -143 63 -143 147c0 106 92 178 221 182l27 118h67l-29 -122c95 -16 151 -78 161 -167l-74 -17
c-6 62 -44 104 -104 118zM206 478c0 -38 21 -60 87 -85l46 194c-78 -5 -133 -48 -133 -109zM280 88h9c97 0 154 45 154 112c0 41 -23 65 -80 87l-32 13z" />
    <glyph glyph-name="Euro.tf" 
d="M308 61c81 0 151 61 198 169l76 -16c-53 -136 -160 -227 -285 -227c-126 0 -208 91 -215 243h-64l13 58h52c2 31 6 61 12 89h-43l13 58h45c50 153 163 248 302 248c126 0 204 -91 213 -230l-80 -15c-9 110 -64 172 -145 172c-92 0 -169 -66 -209 -175h249l-24 -58h-241
c-6 -28 -10 -57 -12 -89h213l-23 -58h-190c8 -107 63 -169 145 -169z" />
    <glyph glyph-name="florin.tf" 
d="M568 682c49 0 91 -14 114 -38l-42 -61c-19 20 -47 31 -79 31c-64 0 -117 -42 -145 -110l-57 -139h184l-15 -64h-196l-135 -327c-39 -95 -106 -139 -188 -139c-44 0 -68 12 -83 25l42 61c15 -10 34 -14 51 -14c45 0 84 29 99 67l135 327h-121l15 64h132l62 150
c44 107 127 167 227 167z" />
    <glyph glyph-name="sterling.tf" 
d="M441 683c133 0 207 -89 181 -221l-73 -10c19 97 -23 161 -112 161c-95 0 -167 -66 -187 -152l-27 -118h233l-16 -71h-233l-46 -200h375l-17 -72h-540l11 49l90 17l48 206h-85l16 71h85l27 118c31 133 136 222 270 222z" />
    <glyph glyph-name="yen.tf" 
d="M392 313h151l-15 -60h-181l-17 -75h181l-14 -60h-181l-27 -118h-79l27 118h-179l14 60h179l17 75h-179l15 60h147l-134 357h84l120 -338l276 338h96z" />
    <glyph glyph-name="approxequal" unicode="&#x2248;" horiz-adv-x="581" 
d="M554 433l-16 -68c-27 -13 -65 -21 -103 -21c-101 0 -120 54 -216 54c-37 0 -89 -9 -121 -33l16 66c30 21 78 32 119 32c97 0 124 -55 218 -55c33 0 73 8 103 25zM517 274l-15 -67c-28 -13 -66 -22 -104 -22c-101 0 -120 55 -216 55c-37 0 -89 -10 -120 -33l15 66
c30 21 79 32 120 32c97 0 123 -55 217 -55c33 0 74 8 103 24z" />
    <glyph glyph-name="asciitilde" unicode="~" horiz-adv-x="476" 
d="M106 238h-63c22 94 87 128 139 128c78 0 89 -64 143 -64c35 0 61 25 69 63h67c-22 -95 -92 -130 -144 -130c-78 0 -89 64 -141 64c-37 0 -64 -25 -70 -61z" />
    <glyph glyph-name="divide" unicode="&#xf7;" horiz-adv-x="581" 
d="M337 535c30 0 52 -23 52 -50c0 -29 -22 -50 -52 -50s-52 21 -52 50c0 27 22 50 52 50zM516 271h-440l16 68h440zM254 176c30 0 52 -23 52 -50c0 -29 -22 -50 -52 -50s-52 21 -52 50c0 27 22 50 52 50z" />
    <glyph glyph-name="equal" unicode="=" horiz-adv-x="581" 
d="M542 379h-440l15 68h440zM498 190h-440l16 68h440z" />
    <glyph glyph-name="greater" unicode="&#x3e;" horiz-adv-x="438" 
d="M332 322l-247 116l19 77l329 -160l-17 -76l-404 -159l19 84z" />
    <glyph glyph-name="greaterequal" unicode="&#x2265;" horiz-adv-x="423" 
d="M331 366l-242 90l18 74l321 -134l-16 -70l-383 -134l18 82zM355 89h-350l16 68h350z" />
    <glyph glyph-name="less" unicode="&#x3c;" horiz-adv-x="438" 
d="M139 313l248 -116l-19 -77l-330 160l18 76l403 159l-18 -85z" />
    <glyph glyph-name="lessequal" unicode="&#x2264;" horiz-adv-x="423" 
d="M143 354l242 -91l-16 -73l-321 135l17 70l382 134l-19 -83zM17 156h350l-16 -67h-349z" />
    <glyph glyph-name="minus" unicode="&#x2212;" horiz-adv-x="581" 
d="M516 271h-440l16 68h440z" />
    <glyph glyph-name="multiply" unicode="&#xd7;" horiz-adv-x="528" 
d="M324 302l110 -140l-53 -43l-110 140l-179 -143l-38 50l178 142l-110 140l54 44l110 -140l179 143l38 -50z" />
    <glyph glyph-name="notequal" unicode="&#x2260;" horiz-adv-x="581" 
d="M388 379l-101 -121h227l-16 -68h-268l-74 -89h-72l75 89h-101l16 68h141l102 121h-215l15 68h257l76 91h71l-76 -91h112l-15 -68h-154z" />
    <glyph glyph-name="percent" unicode="%" horiz-adv-x="892" 
d="M300 683c82 0 146 -55 146 -142c0 -105 -91 -176 -184 -176c-82 0 -147 56 -147 144c0 104 91 174 185 174zM98 0l655 670h57l-655 -670h-57zM296 629c-59 0 -123 -46 -123 -117c0 -57 44 -93 93 -93c59 0 121 46 121 119c0 56 -40 91 -91 91zM671 306
c82 0 147 -55 147 -142c0 -104 -91 -177 -184 -177c-82 0 -147 57 -147 145c0 104 91 174 184 174zM667 252c-58 0 -121 -46 -121 -117c0 -57 43 -93 92 -93c58 0 121 46 121 119c0 56 -41 91 -92 91z" />
    <glyph glyph-name="perthousand" unicode="&#x2030;" horiz-adv-x="1277" 
d="M300 683c82 0 146 -55 146 -142c0 -105 -91 -176 -184 -176c-82 0 -147 56 -147 144c0 104 91 174 185 174zM98 0l655 670h57l-655 -670h-57zM296 629c-59 0 -123 -46 -123 -117c0 -57 44 -93 93 -93c59 0 121 46 121 119c0 56 -40 91 -91 91zM671 306
c82 0 147 -55 147 -142c0 -104 -91 -177 -184 -177c-82 0 -147 57 -147 145c0 104 91 174 184 174zM1056 306c82 0 147 -55 147 -142c0 -104 -91 -177 -184 -177c-82 0 -147 57 -147 145c0 104 91 174 184 174zM667 252c-58 0 -121 -46 -121 -117c0 -57 43 -93 92 -93
c58 0 121 46 121 119c0 56 -41 91 -92 91zM1052 252c-58 0 -121 -46 -121 -117c0 -57 43 -93 92 -93c58 0 121 46 121 119c0 56 -41 91 -92 91z" />
    <glyph glyph-name="plus" unicode="+" horiz-adv-x="581" 
d="M516 271h-186l-43 -188h-69l43 188h-185l16 68h185l43 188h69l-43 -188h186z" />
    <glyph glyph-name="plusminus" unicode="&#xb1;" horiz-adv-x="581" 
d="M545 394l-16 -68h-186l-39 -168h-68l39 168h-186l16 68h186l41 178h68l-41 -178h186zM30 68h440l-16 -68h-440z" />
    <glyph glyph-name="approxequal.tf" 
d="M568 433l-15 -68c-28 -13 -66 -21 -104 -21c-100 0 -120 54 -216 54c-36 0 -88 -9 -120 -33l15 66c30 21 79 32 120 32c97 0 123 -55 217 -55c33 0 74 8 103 25zM532 274l-16 -67c-27 -13 -66 -22 -104 -22c-100 0 -120 55 -216 55c-36 0 -88 -10 -120 -33l15 66
c31 21 79 32 120 32c97 0 124 -55 218 -55c33 0 74 8 103 24z" />
    <glyph glyph-name="divide.tf" 
d="M353 535c30 0 52 -23 52 -50c0 -29 -22 -50 -52 -50s-52 21 -52 50c0 27 22 50 52 50zM533 271h-440l16 68h440zM270 176c30 0 52 -23 52 -50c0 -29 -22 -50 -52 -50s-52 21 -52 50c0 27 22 50 52 50z" />
    <glyph glyph-name="equal.tf" 
d="M555 379h-440l16 68h440zM511 190h-440l16 68h440z" />
    <glyph glyph-name="greater.tf" 
d="M425 322l-248 116l19 77l330 -160l-18 -76l-403 -159l18 84z" />
    <glyph glyph-name="greaterequal.tf" 
d="M426 366l-242 90l18 74l321 -134l-16 -70l-383 -134l18 82zM450 89h-350l16 68h350z" />
    <glyph glyph-name="less.tf" 
d="M201 313l247 -116l-19 -77l-329 160l17 76l404 159l-19 -85z" />
    <glyph glyph-name="lessequal.tf" 
d="M223 354l242 -91l-16 -73l-321 135l17 70l382 134l-19 -83zM97 156h350l-16 -67h-349z" />
    <glyph glyph-name="minus.tf" 
d="M531 271h-440l16 68h440z" />
    <glyph glyph-name="multiply.tf" 
d="M363 302l110 -140l-53 -43l-110 140l-179 -143l-38 50l178 142l-110 140l54 44l110 -140l179 143l38 -50z" />
    <glyph glyph-name="notequal.tf" 
d="M402 379l-102 -121h227l-16 -68h-267l-75 -89h-71l74 89h-101l16 68h142l101 121h-215l16 68h256l76 91h72l-76 -91h112l-16 -68h-153z" />
    <glyph glyph-name="plus.tf" 
d="M531 271h-186l-43 -188h-69l43 188h-185l16 68h185l43 188h69l-43 -188h186z" />
    <glyph glyph-name="plusminus.tf" 
d="M560 394l-16 -68h-186l-39 -168h-68l39 168h-186l16 68h186l41 178h68l-41 -178h186zM45 68h440l-16 -68h-440z" />
    <glyph glyph-name="arrowup" unicode="&#x2191;" horiz-adv-x="748" 
d="M651 288l-237 237v-525h-79v526l-238 -239l-57 56l334 334l334 -333z" />
    <glyph glyph-name="uni2197" unicode="&#x2197;" horiz-adv-x="746" 
d="M716 670v-492h-79v357l-541 -542l-56 57l542 541h-357v79h491z" />
    <glyph glyph-name="arrowright" unicode="&#x2192;" horiz-adv-x="727" 
d="M717 324l-333 -334l-56 57l238 238h-526v79h525l-238 238l56 56z" />
    <glyph glyph-name="uni2198" unicode="&#x2198;" horiz-adv-x="746" 
d="M716 493v-493h-491v79h357l-542 542l56 56l541 -541v357h79z" />
    <glyph glyph-name="arrowdown" unicode="&#x2193;" horiz-adv-x="748" 
d="M708 327l-334 -334l-334 334l57 56l238 -239v526h79v-525l237 238z" />
    <glyph glyph-name="uni2199" unicode="&#x2199;" horiz-adv-x="746" 
d="M165 79h357v-79h-492v493h79v-358l542 542l55 -56z" />
    <glyph glyph-name="arrowleft" unicode="&#x2190;" horiz-adv-x="727" 
d="M687 285h-526l239 -238l-56 -57l-334 334l334 334l56 -56l-238 -238h525v-79z" />
    <glyph glyph-name="uni2196" unicode="&#x2196;" horiz-adv-x="746" 
d="M651 -7l-542 543v-358h-79v492h492v-79h-357l541 -541z" />
    <glyph glyph-name="bar" unicode="|" horiz-adv-x="250" 
d="M89 -72h-74l187 813h75z" />
    <glyph glyph-name="at" unicode="@" horiz-adv-x="962" 
d="M562 683c207 0 352 -135 352 -325c0 -123 -66 -291 -214 -291c-64 0 -101 31 -102 79c-42 -47 -101 -75 -169 -75c-99 0 -167 67 -167 171c0 142 117 240 238 240c73 0 127 -38 148 -102l22 94h53l-68 -295c-10 -40 18 -66 60 -66c93 0 146 135 146 238
c0 169 -125 284 -306 284c-230 0 -434 -179 -434 -409c0 -176 123 -302 296 -302c78 0 178 24 252 70l19 -43c-76 -49 -187 -77 -277 -77c-200 0 -343 142 -343 344c0 263 232 465 494 465zM445 123c87 0 173 73 173 179c0 79 -51 126 -120 126c-86 0 -174 -70 -174 -177
c0 -79 52 -128 121 -128z" />
    <glyph glyph-name="ampersand" unicode="&#x26;" horiz-adv-x="713" 
d="M582 -20l-90 95c-67 -59 -149 -89 -235 -89c-125 0 -210 64 -210 167c0 99 78 175 177 215c-21 36 -31 70 -31 107c0 116 88 208 226 208c100 0 162 -48 169 -134l-75 -13c-5 54 -44 82 -102 82c-83 0 -143 -58 -143 -135c0 -56 32 -104 103 -174l127 -132
c23 34 41 74 52 120l10 43h69l-10 -43c-16 -66 -42 -121 -76 -167l95 -98zM264 52c64 0 130 23 183 69l-143 150c-18 18 -33 34 -46 50c-81 -33 -134 -91 -134 -158c0 -68 54 -111 140 -111z" />
    <glyph glyph-name="paragraph" unicode="&#xb6;" horiz-adv-x="565" 
d="M287 0h-61l69 299h-50c-101 0 -171 58 -171 151c0 138 103 220 243 220h125zM420 0h-61l155 670h61z" />
    <glyph glyph-name="copyright" unicode="&#xa9;" horiz-adv-x="775" 
d="M411 683c190 0 347 -146 347 -350c0 -201 -157 -346 -347 -346s-347 145 -347 346c0 204 157 350 347 350zM411 645c-167 0 -306 -130 -306 -311c0 -179 139 -308 306 -308s306 129 306 308c0 181 -139 311 -306 311zM417 523c94 0 165 -57 177 -133l-53 -11
c-14 56 -66 92 -124 92c-74 0 -132 -56 -132 -136c0 -81 58 -137 132 -137c58 0 112 36 124 95l53 -10c-13 -80 -83 -137 -177 -137c-102 0 -189 75 -189 189c0 113 87 188 189 188z" />
    <glyph glyph-name="registered" unicode="&#xae;" horiz-adv-x="480" 
d="M296 683c110 0 200 -84 200 -201c0 -116 -90 -200 -200 -200s-200 84 -200 200c0 117 90 201 200 201zM296 310c95 0 172 73 172 172c0 101 -77 174 -172 174c-94 0 -171 -73 -171 -174c0 -99 77 -172 171 -172zM382 523c0 -32 -21 -56 -56 -61l67 -69h-36l-64 68h-40
v-68h-28v189h86c44 0 71 -23 71 -59zM253 487h57c27 0 44 14 44 35s-16 35 -43 35h-58v-70z" />
    <glyph glyph-name="uni2117" unicode="&#x2117;" horiz-adv-x="775" 
d="M407 683c190 0 347 -146 347 -350c0 -201 -157 -346 -347 -346s-347 145 -347 346c0 204 157 350 347 350zM407 26c167 0 306 129 306 308c0 181 -139 311 -306 311s-306 -130 -306 -311c0 -179 139 -308 306 -308zM281 517h161c85 0 140 -50 140 -125
c0 -76 -55 -126 -140 -126h-112v-121h-49v372zM330 311h109c57 0 95 32 95 81c0 48 -38 80 -95 80h-109v-161z" />
    <glyph glyph-name="section" unicode="&#xa7;" horiz-adv-x="548" 
d="M533 513l-75 -10c11 69 -25 116 -103 116c-75 0 -127 -44 -127 -102c0 -30 16 -52 53 -71l135 -65c65 -30 95 -67 95 -123c0 -80 -49 -130 -120 -161c11 -19 17 -40 17 -65c0 -100 -84 -173 -209 -173c-121 0 -191 64 -181 169l73 14c-9 -73 29 -121 112 -121
c77 0 126 46 126 103c0 30 -16 52 -53 71l-135 65c-61 29 -94 74 -94 129c0 78 59 127 122 152c-13 20 -19 42 -19 67c0 102 90 175 213 175c122 0 180 -72 170 -170zM371 325l-137 64c-7 3 -13 7 -19 11c-48 -17 -93 -52 -93 -103c0 -29 17 -53 66 -77l135 -67
c8 -4 15 -8 21 -12c58 25 91 56 91 107c0 28 -15 54 -64 77z" />
    <glyph glyph-name="trademark" unicode="&#x2122;" horiz-adv-x="651" 
d="M359 630h-93l-52 -226h-48l52 226h-91l9 40h232zM640 404h-45l43 189l-129 -188h-29l-43 189l-44 -190h-45l61 266h50l47 -202l139 202h56z" />
    <glyph glyph-name="degree" unicode="&#xb0;" horiz-adv-x="407" 
d="M281 683c68 0 124 -47 124 -122c0 -85 -71 -142 -147 -142c-69 0 -126 48 -126 121c0 87 72 143 149 143zM262 469c43 0 88 34 88 89c0 45 -35 75 -73 75c-44 0 -89 -35 -89 -89c0 -46 35 -75 74 -75z" />
    <glyph glyph-name="uni2116" unicode="&#x2116;" horiz-adv-x="1221" 
d="M1035 680c87 0 159 -59 159 -153c0 -107 -89 -185 -191 -185c-85 0 -156 59 -156 154c0 107 89 184 188 184zM691 670h79l-155 -670h-67l-311 541l-126 -541h-79l155 670h68l310 -546zM1010 400c62 0 121 51 121 121c0 61 -47 101 -102 101c-60 0 -118 -50 -118 -120
c0 -62 45 -102 99 -102zM794 265h325l-14 -64h-325z" />
    <glyph glyph-name="asciicircum" unicode="^" horiz-adv-x="394" 
d="M148 456h-74l194 214h54l96 -214h-66l-68 148z" />
    <glyph glyph-name="dagger" unicode="&#x2020;" horiz-adv-x="359" 
d="M399 598h-110l-56 -241h-57l56 241h-110l12 52h110l21 90h57l-21 -90h110z" />
    <glyph glyph-name="daggerdbl" unicode="&#x2021;" horiz-adv-x="359" 
d="M289 598l-23 -99h111l-13 -52h-110l-21 -90h-57l21 90h-110l12 52h110l23 99h-111l13 52h110l21 90h57l-21 -90h110l-12 -52h-110z" />
    <glyph glyph-name="bar.case" horiz-adv-x="250" 
d="M96 -41h-74l173 752h75z" />
    <glyph glyph-name="at.case" horiz-adv-x="959" 
d="M566 723c208 0 353 -135 353 -325c0 -123 -66 -291 -214 -291c-64 0 -101 31 -103 79c-41 -47 -100 -75 -168 -75c-99 0 -168 67 -168 171c0 142 117 240 238 240c73 0 127 -38 148 -102l22 94h53l-68 -295c-9 -40 18 -66 61 -66c93 0 146 135 146 238
c0 169 -126 284 -307 284c-230 0 -433 -179 -433 -409c0 -176 122 -302 296 -302c78 0 178 24 252 71l19 -44c-76 -49 -188 -77 -278 -77c-199 0 -343 142 -343 344c0 263 233 465 494 465zM450 163c86 0 173 73 173 179c0 79 -52 126 -121 126c-85 0 -173 -70 -173 -177
c0 -79 52 -128 121 -128z" />
    <glyph glyph-name="acute" unicode="&#xb4;" horiz-adv-x="600" 
d="M384 567h-72l112 140h97z" />
    <glyph glyph-name="breve" unicode="&#x2d8;" horiz-adv-x="600" 
d="M343 554c-86 0 -135 53 -118 135h61c-10 -49 20 -80 65 -80s86 31 96 80h68c-17 -82 -85 -135 -172 -135z" />
    <glyph glyph-name="caron" unicode="&#x2c7;" horiz-adv-x="600" 
d="M528 702l-150 -142h-73l-84 142h74l53 -92l97 92h83z" />
    <glyph glyph-name="cedilla" unicode="&#xb8;" horiz-adv-x="600" 
d="M225 0h61l-115 -170h-92z" />
    <glyph glyph-name="circumflex" unicode="&#x2c6;" horiz-adv-x="600" 
d="M434 559l-53 92l-97 -92h-83l150 142h73l84 -142h-74z" />
    <glyph glyph-name="dieresis" unicode="&#xa8;" horiz-adv-x="600" 
d="M257 679c30 0 53 -24 53 -51c0 -29 -23 -51 -53 -51s-52 22 -52 51c0 27 22 51 52 51zM455 679c30 0 53 -24 53 -51c0 -29 -23 -51 -53 -51s-52 22 -52 51c0 27 22 51 52 51z" />
    <glyph glyph-name="dotaccent" unicode="&#x2d9;" horiz-adv-x="600" 
d="M356 684c29 0 51 -23 51 -49c0 -29 -22 -50 -51 -50c-30 0 -51 21 -51 50c0 26 21 49 51 49z" />
    <glyph glyph-name="grave" unicode="`" horiz-adv-x="600" 
d="M266 707l112 -140h-71l-137 140h96z" />
    <glyph glyph-name="hungarumlaut" unicode="&#x2dd;" horiz-adv-x="600" 
d="M296 567h-69l112 140h95zM450 567h-69l111 140h95z" />
    <glyph glyph-name="macron" unicode="&#xaf;" horiz-adv-x="600" 
d="M488 584h-284l14 62h284z" />
    <glyph glyph-name="ogonek" unicode="&#x2db;" horiz-adv-x="600" 
d="M283 7l51 -7c-63 -54 -96 -76 -96 -111c0 -21 14 -34 40 -34c15 0 27 4 48 10l-8 -50c-25 -11 -44 -16 -63 -16c-47 0 -79 29 -79 73c0 41 26 75 107 135z" />
    <glyph glyph-name="ring" unicode="&#x2da;" horiz-adv-x="600" 
d="M463 657c0 -59 -51 -108 -112 -108c-55 0 -95 42 -95 94c0 59 51 107 112 107c55 0 95 -41 95 -93zM416 654c0 27 -22 50 -52 50c-33 0 -59 -27 -59 -58c0 -27 20 -50 50 -50c33 0 61 27 61 58z" />
    <glyph glyph-name="tilde" unicode="&#x2dc;" horiz-adv-x="600" 
d="M254 593h-54c17 75 68 102 111 102c60 0 65 -48 111 -48c23 0 41 19 47 47h54c-17 -76 -67 -104 -110 -104c-61 0 -66 48 -111 48c-24 0 -42 -19 -48 -45z" />
    <glyph glyph-name="caron.alt" horiz-adv-x="600" 
d="M363 478h-61l40 172h77z" />
    <glyph glyph-name="uni0326" unicode="&#x326;" horiz-adv-x="0" 
d="M99 -188l78 143h86l-104 -143h-60z" />
    </font>
</defs>
</svg>
