<?xml version="1.0" standalone="no"?>
<!DOCTYPE svg PUBLIC "-//W3C//DTD SVG 1.1//EN" "http://www.w3.org/Graphics/SVG/1.1/DTD/svg11.dtd" >
<svg xmlns="http://www.w3.org/2000/svg" xmlns:xlink="http://www.w3.org/1999/xlink" version="1.1">
<metadata>
Created by FontForge 20161003 at Thu Sep 26 12:42:32 2019
 By www-data
Copyright (c) 2014 by Rene' Bieder. All rights reserved.
</metadata>
<defs>
<font id="GalanoGrotesque-Regular" horiz-adv-x="610" >
  <font-face 
    font-family="Galano Grotesque"
    font-weight="400"
    font-stretch="normal"
    units-per-em="1000"
    panose-1="0 0 5 0 0 0 0 0 0 0"
    ascent="800"
    descent="-200"
    x-height="493"
    cap-height="670"
    bbox="-175 -201 1187 935"
    underline-thickness="50"
    underline-position="-100"
    stemh="66"
    stemv="77"
    unicode-range="U+0020-FB02"
  />
<missing-glyph horiz-adv-x="792" 
d="M396 684c190 0 348 -147 348 -351c0 -202 -158 -348 -348 -348s-348 146 -348 348c0 204 158 351 348 351zM396 647c-168 0 -308 -131 -308 -313c0 -180 140 -312 308 -312s308 132 308 312c0 182 -140 313 -308 313zM527 400c0 -61 -48 -104 -114 -110v-43h-44v81h26
c49 0 86 29 86 72c0 46 -33 76 -83 76c-53 0 -88 -36 -89 -88l-46 8c1 69 56 122 135 122c77 0 129 -48 129 -118zM390 202c18 0 31 -14 31 -29c0 -18 -13 -32 -31 -32c-17 0 -31 14 -31 32c0 15 14 29 31 29z" />
    <glyph glyph-name="fi" unicode="fi" horiz-adv-x="620" 
d="M524 493v-493h-77v429h-265v-429h-76v429h-86v64h86v73c0 104 66 171 170 171c35 0 64 -8 92 -24l-20 -62c-21 11 -43 17 -67 17c-61 0 -99 -39 -99 -102v-73h342zM485 591c-30 0 -52 22 -52 51c0 27 22 51 52 51s53 -24 53 -51c0 -29 -23 -51 -53 -51z" />
    <glyph glyph-name="fl" unicode="fl" horiz-adv-x="608" 
d="M182 493h179v-64h-179v-429h-76v429h-86v64h86v73c0 104 66 171 169 171c29 0 56 -6 80 -18l-19 -62c-18 7 -38 11 -56 11c-60 0 -98 -39 -98 -102v-73zM520 720v-720h-76v720h76z" />
    <glyph glyph-name=".notdef" horiz-adv-x="792" 
d="M396 684c190 0 348 -147 348 -351c0 -202 -158 -348 -348 -348s-348 146 -348 348c0 204 158 351 348 351zM396 647c-168 0 -308 -131 -308 -313c0 -180 140 -312 308 -312s308 132 308 312c0 182 -140 313 -308 313zM527 400c0 -61 -48 -104 -114 -110v-43h-44v81h26
c49 0 86 29 86 72c0 46 -33 76 -83 76c-53 0 -88 -36 -89 -88l-46 8c1 69 56 122 135 122c77 0 129 -48 129 -118zM390 202c18 0 31 -14 31 -29c0 -18 -13 -32 -31 -32c-17 0 -31 14 -31 32c0 15 14 29 31 29z" />
    <glyph glyph-name="A" unicode="A" horiz-adv-x="693" 
d="M683 0h-85l-75 170h-353l-75 -170h-85l300 670h73zM492 241l-145 331l-146 -331h291z" />
    <glyph glyph-name="Aacute" unicode="&#xc1;" horiz-adv-x="693" 
d="M386 745h-67l80 140h89zM683 0h-85l-75 170h-353l-75 -170h-85l300 670h73zM492 241l-145 331l-146 -331h291z" />
    <glyph glyph-name="Abreve" unicode="&#x102;" horiz-adv-x="693" 
d="M347 732c-86 0 -145 53 -145 135h64c0 -49 36 -80 81 -80s81 31 81 80h64c0 -82 -58 -135 -145 -135zM683 0h-85l-75 170h-353l-75 -170h-85l300 670h73zM492 241l-145 331l-146 -331h291z" />
    <glyph glyph-name="Acircumflex" unicode="&#xc2;" horiz-adv-x="693" 
d="M272 737h-77l116 142h73l117 -142h-78l-75 93zM683 0h-85l-75 170h-353l-75 -170h-85l300 670h73zM492 241l-145 331l-146 -331h291z" />
    <glyph glyph-name="Adieresis" unicode="&#xc4;" horiz-adv-x="693" 
d="M248 755c-30 0 -52 22 -52 51c0 27 22 51 52 51s53 -24 53 -51c0 -29 -23 -51 -53 -51zM446 755c-30 0 -52 22 -52 51c0 27 22 51 52 51s53 -24 53 -51c0 -29 -23 -51 -53 -51zM683 0h-85l-75 170h-353l-75 -170h-85l300 670h73zM492 241l-145 331l-146 -331h291z" />
    <glyph glyph-name="Agrave" unicode="&#xc0;" horiz-adv-x="693" 
d="M312 745l-102 140h89l79 -140h-66zM683 0h-85l-75 170h-353l-75 -170h-85l300 670h73zM492 241l-145 331l-146 -331h291z" />
    <glyph glyph-name="Amacron" unicode="&#x100;" horiz-adv-x="693" 
d="M489 762h-284v62h284v-62zM683 0h-85l-75 170h-353l-75 -170h-85l300 670h73zM492 241l-145 331l-146 -331h291z" />
    <glyph glyph-name="Aogonek" unicode="&#x104;" horiz-adv-x="693" 
d="M702 -135l6 -50c-26 -10 -48 -15 -68 -15c-40 0 -84 21 -84 83c0 38 17 70 70 117h-28l-75 170h-353l-75 -170h-85l300 670h73l300 -670c-49 -51 -69 -73 -69 -105c0 -31 21 -40 42 -40c14 0 26 4 46 10zM492 241l-145 331l-146 -331h291z" />
    <glyph glyph-name="Aring" unicode="&#xc5;" horiz-adv-x="693" 
d="M347 727c-58 0 -103 45 -103 101c0 55 45 100 103 100s104 -45 104 -100c0 -56 -46 -101 -104 -101zM347 882c-31 0 -56 -25 -56 -54c0 -30 25 -54 56 -54c32 0 56 24 56 54c0 29 -24 54 -56 54zM683 0h-85l-75 170h-353l-75 -170h-85l300 670h73zM492 241l-145 331
l-146 -331h291z" />
    <glyph glyph-name="Atilde" unicode="&#xc3;" horiz-adv-x="693" 
d="M290 815c-23 0 -37 -19 -37 -45h-54c0 75 44 102 87 102c60 0 77 -48 122 -48c23 0 37 19 37 47h54c0 -76 -44 -104 -87 -104c-60 0 -77 48 -122 48zM683 0h-85l-75 170h-353l-75 -170h-85l300 670h73zM492 241l-145 331l-146 -331h291z" />
    <glyph glyph-name="AE" unicode="&#xc6;" horiz-adv-x="1040" 
d="M1000 72v-72h-489v155h-300l-109 -155h-92l480 670h509v-71h-409v-227h380v-71h-380v-229h410zM511 226v355l-250 -355h250z" />
    <glyph glyph-name="AEacute" unicode="&#x1fc;" horiz-adv-x="1040" 
d="M724 745h-67l80 140h89zM1000 72v-72h-489v155h-300l-109 -155h-92l480 670h509v-71h-409v-227h380v-71h-380v-229h410zM511 226v355l-250 -355h250z" />
    <glyph glyph-name="B" unicode="B" horiz-adv-x="668" 
d="M482 344v-3c75 -9 135 -67 135 -159c0 -106 -73 -182 -208 -182h-321v670h308c126 0 199 -71 199 -176c0 -85 -55 -142 -113 -150zM167 602v-232h228c75 0 125 48 125 120c0 67 -51 112 -131 112h-222zM167 68h235c84 0 135 49 135 121s-56 117 -134 117h-236v-238z" />
    <glyph glyph-name="C" unicode="C" horiz-adv-x="777" 
d="M403 61c116 0 208 61 243 171l76 -18c-41 -140 -165 -227 -319 -227c-195 0 -348 153 -348 348s153 348 348 348c154 0 278 -87 319 -222l-76 -22c-34 108 -127 170 -243 170c-150 0 -268 -119 -268 -274c0 -154 118 -274 268 -274z" />
    <glyph glyph-name="Cacute" unicode="&#x106;" horiz-adv-x="777" 
d="M440 745h-67l80 140h89zM403 61c116 0 208 61 243 171l76 -18c-41 -140 -165 -227 -319 -227c-195 0 -348 153 -348 348s153 348 348 348c154 0 278 -87 319 -222l-76 -22c-34 108 -127 170 -243 170c-150 0 -268 -119 -268 -274c0 -154 118 -274 268 -274z" />
    <glyph glyph-name="Ccaron" unicode="&#x10c;" horiz-adv-x="777" 
d="M365 738l-116 142h77l76 -92l75 92h78l-117 -142h-73zM403 61c116 0 208 61 243 171l76 -18c-41 -140 -165 -227 -319 -227c-195 0 -348 153 -348 348s153 348 348 348c154 0 278 -87 319 -222l-76 -22c-34 108 -127 170 -243 170c-150 0 -268 -119 -268 -274
c0 -154 118 -274 268 -274z" />
    <glyph glyph-name="Ccedilla" unicode="&#xc7;" horiz-adv-x="777" 
d="M403 61c116 0 208 61 243 171l76 -18c-39 -134 -155 -220 -300 -227l-71 -157h-83l95 159c-176 20 -308 165 -308 346c0 195 153 348 348 348c154 0 278 -87 319 -222l-76 -22c-34 108 -127 170 -243 170c-150 0 -268 -119 -268 -274c0 -154 118 -274 268 -274z" />
    <glyph glyph-name="Cdotaccent" unicode="&#x10a;" horiz-adv-x="777" 
d="M400 763c-29 0 -51 21 -51 50c0 26 22 49 51 49c30 0 52 -23 52 -49c0 -29 -22 -50 -52 -50zM403 61c116 0 208 61 243 171l76 -18c-41 -140 -165 -227 -319 -227c-195 0 -348 153 -348 348s153 348 348 348c154 0 278 -87 319 -222l-76 -22c-34 108 -127 170 -243 170
c-150 0 -268 -119 -268 -274c0 -154 118 -274 268 -274z" />
    <glyph glyph-name="D" unicode="D" horiz-adv-x="736" 
d="M88 670h222c235 0 371 -145 371 -335c0 -189 -136 -335 -371 -335h-222v670zM167 72h142c188 0 292 115 292 263c0 149 -104 264 -292 264h-142v-527z" />
    <glyph glyph-name="Eth" unicode="&#xd0;" horiz-adv-x="743" 
d="M105 670h222c235 0 371 -145 371 -335c0 -189 -136 -335 -371 -335h-222v302h-75v71h75v297zM184 72h143c187 0 292 115 292 263c0 149 -105 264 -292 264h-143v-226h164v-71h-164v-230z" />
    <glyph glyph-name="Dcaron" unicode="&#x10e;" horiz-adv-x="736" 
d="M313 738l-116 142h77l76 -92l75 92h78l-117 -142h-73zM88 670h222c235 0 371 -145 371 -335c0 -189 -136 -335 -371 -335h-222v670zM167 72h142c188 0 292 115 292 263c0 149 -104 264 -292 264h-142v-527z" />
    <glyph glyph-name="Dcroat" unicode="&#x110;" horiz-adv-x="743" 
d="M105 670h222c235 0 371 -145 371 -335c0 -189 -136 -335 -371 -335h-222v302h-75v71h75v297zM184 72h143c187 0 292 115 292 263c0 149 -105 264 -292 264h-143v-226h164v-71h-164v-230z" />
    <glyph glyph-name="E" unicode="E" horiz-adv-x="637" 
d="M577 72v-72h-489v670h488v-71h-409v-227h380v-71h-380v-229h410z" />
    <glyph glyph-name="Eacute" unicode="&#xc9;" horiz-adv-x="637" 
d="M379 745h-67l80 140h89zM577 72v-72h-489v670h488v-71h-409v-227h380v-71h-380v-229h410z" />
    <glyph glyph-name="Ecaron" unicode="&#x11a;" horiz-adv-x="637" 
d="M304 738l-116 142h77l76 -92l75 92h78l-117 -142h-73zM577 72v-72h-489v670h488v-71h-409v-227h380v-71h-380v-229h410z" />
    <glyph glyph-name="Ecircumflex" unicode="&#xca;" horiz-adv-x="637" 
d="M265 737h-77l116 142h73l117 -142h-78l-75 93zM577 72v-72h-489v670h488v-71h-409v-227h380v-71h-380v-229h410z" />
    <glyph glyph-name="Edieresis" unicode="&#xcb;" horiz-adv-x="637" 
d="M241 755c-30 0 -52 22 -52 51c0 27 22 51 52 51s53 -24 53 -51c0 -29 -23 -51 -53 -51zM439 755c-30 0 -52 22 -52 51c0 27 22 51 52 51s53 -24 53 -51c0 -29 -23 -51 -53 -51zM577 72v-72h-489v670h488v-71h-409v-227h380v-71h-380v-229h410z" />
    <glyph glyph-name="Edotaccent" unicode="&#x116;" horiz-adv-x="637" 
d="M340 763c-29 0 -51 21 -51 50c0 26 22 49 51 49c30 0 52 -23 52 -49c0 -29 -22 -50 -52 -50zM577 72v-72h-489v670h488v-71h-409v-227h380v-71h-380v-229h410z" />
    <glyph glyph-name="Egrave" unicode="&#xc8;" horiz-adv-x="637" 
d="M306 745l-102 140h89l79 -140h-66zM577 72v-72h-489v670h488v-71h-409v-227h380v-71h-380v-229h410z" />
    <glyph glyph-name="Emacron" unicode="&#x112;" horiz-adv-x="637" 
d="M482 762h-284v62h284v-62zM577 72v-72h-489v670h488v-71h-409v-227h380v-71h-380v-229h410z" />
    <glyph glyph-name="Eogonek" unicode="&#x118;" horiz-adv-x="637" 
d="M577 0h-31c-49 -51 -69 -73 -69 -105c0 -31 21 -40 42 -40c14 0 26 4 46 10l6 -50c-26 -10 -48 -15 -68 -15c-40 0 -84 21 -84 83c0 38 17 70 70 117h-401v670h488v-71h-409v-227h380v-71h-380v-229h410v-72z" />
    <glyph glyph-name="F" unicode="F" horiz-adv-x="590" 
d="M167 599v-234h366v-71h-366v-294h-79v670h480v-71h-401z" />
    <glyph glyph-name="G" unicode="G" horiz-adv-x="795" 
d="M368 368h371c1 -13 1 -24 1 -34c0 -194 -137 -347 -336 -347c-196 0 -349 153 -349 348s153 348 347 348c146 0 268 -71 316 -194l-71 -25c-47 97 -138 145 -245 145c-150 0 -267 -120 -267 -274s119 -274 271 -274c143 0 242 100 258 235h-296v72z" />
    <glyph glyph-name="Gbreve" unicode="&#x11e;" horiz-adv-x="795" 
d="M406 732c-86 0 -145 53 -145 135h64c0 -49 36 -80 81 -80s81 31 81 80h64c0 -82 -58 -135 -145 -135zM368 368h371c1 -13 1 -24 1 -34c0 -194 -137 -347 -336 -347c-196 0 -349 153 -349 348s153 348 347 348c146 0 268 -71 316 -194l-71 -25c-47 97 -138 145 -245 145
c-150 0 -267 -120 -267 -274s119 -274 271 -274c143 0 242 100 258 235h-296v72z" />
    <glyph glyph-name="Gcommaaccent" unicode="&#x122;" horiz-adv-x="795" 
d="M368 368h371c1 -13 1 -24 1 -34c0 -194 -137 -347 -336 -347c-196 0 -349 153 -349 348s153 348 347 348c146 0 268 -71 316 -194l-71 -25c-47 97 -138 145 -245 145c-150 0 -267 -120 -267 -274s119 -274 271 -274c143 0 242 100 258 235h-296v72zM353 -45h83l-71 -143
h-60z" />
    <glyph glyph-name="Gdotaccent" unicode="&#x120;" horiz-adv-x="795" 
d="M405 763c-29 0 -51 21 -51 50c0 26 22 49 51 49c30 0 52 -23 52 -49c0 -29 -22 -50 -52 -50zM368 368h371c1 -13 1 -24 1 -34c0 -194 -137 -347 -336 -347c-196 0 -349 153 -349 348s153 348 347 348c146 0 268 -71 316 -194l-71 -25c-47 97 -138 145 -245 145
c-150 0 -267 -120 -267 -274s119 -274 271 -274c143 0 242 100 258 235h-296v72z" />
    <glyph glyph-name="H" unicode="H" horiz-adv-x="736" 
d="M648 670v-670h-79v302h-402v-302h-79v670h79v-297h402v297h79z" />
    <glyph glyph-name="Hbar" unicode="&#x126;" horiz-adv-x="758" 
d="M726 466h-70v-466h-79v282h-398v-282h-79v466h-70v66h70v138h79v-138h398v138h79v-138h70v-66zM577 466h-398v-113h398v113z" />
    <glyph glyph-name="I" unicode="I" horiz-adv-x="254" 
d="M167 0h-79v670h79v-670z" />
    <glyph glyph-name="IJ" unicode="&#x132;" horiz-adv-x="849" 
d="M88 670h79v-670h-79v670zM770 670v-426c0 -150 -99 -257 -248 -257c-135 0 -226 89 -244 216l75 17c12 -95 73 -161 169 -161c101 0 169 77 169 185v426h79z" />
    <glyph glyph-name="Iacute" unicode="&#xcd;" horiz-adv-x="254" 
d="M166 745h-67l80 140h89zM167 0h-79v670h79v-670z" />
    <glyph glyph-name="Icircumflex" unicode="&#xce;" horiz-adv-x="254" 
d="M281 737h-78l-75 93l-76 -93h-78l117 142h73zM88 670h79v-670h-79v670z" />
    <glyph glyph-name="Idieresis" unicode="&#xcf;" horiz-adv-x="254" 
d="M28 857c30 0 53 -24 53 -51c0 -29 -23 -51 -53 -51s-52 22 -52 51c0 27 22 51 52 51zM226 857c30 0 53 -24 53 -51c0 -29 -23 -51 -53 -51s-52 22 -52 51c0 27 22 51 52 51zM167 0h-79v670h79v-670z" />
    <glyph glyph-name="Idotaccent" unicode="&#x130;" horiz-adv-x="254" 
d="M126 862c30 0 52 -23 52 -49c0 -29 -22 -50 -52 -50c-29 0 -51 21 -51 50c0 26 22 49 51 49zM167 0h-79v670h79v-670z" />
    <glyph glyph-name="Igrave" unicode="&#xcc;" horiz-adv-x="254" 
d="M79 885l79 -140h-66l-103 140h90zM167 0h-79v670h79v-670z" />
    <glyph glyph-name="Imacron" unicode="&#x12a;" horiz-adv-x="254" 
d="M269 762h-284v62h284v-62zM167 0h-79v670h79v-670z" />
    <glyph glyph-name="Iogonek" unicode="&#x12e;" horiz-adv-x="254" 
d="M185 -135l6 -50c-26 -10 -48 -15 -68 -15c-40 0 -84 21 -84 83c0 38 17 70 70 117h-21v670h79v-670h-1c-49 -51 -69 -73 -69 -105c0 -31 21 -40 42 -40c14 0 26 4 46 10z" />
    <glyph glyph-name="J" unicode="J" horiz-adv-x="595" 
d="M516 670v-426c0 -150 -99 -257 -248 -257c-135 0 -226 89 -244 216l75 17c12 -95 73 -161 169 -161c101 0 169 77 169 185v426h79z" />
    <glyph glyph-name="K" unicode="K" horiz-adv-x="673" 
d="M648 0h-107l-337 297h-37v-297h-79v670h79v-302h31l329 302h99l-363 -335z" />
    <glyph glyph-name="Kcommaaccent" unicode="&#x136;" horiz-adv-x="673" 
d="M648 0h-107l-337 297h-37v-297h-79v670h79v-302h31l329 302h99l-363 -335zM288 -45h83l-71 -143h-60z" />
    <glyph glyph-name="L" unicode="L" horiz-adv-x="586" 
d="M551 72v-72h-463v670h79v-598h384z" />
    <glyph glyph-name="Lacute" unicode="&#x139;" horiz-adv-x="586" 
d="M165 745h-67l80 140h89zM551 72v-72h-463v670h79v-598h384z" />
    <glyph glyph-name="Lcaron" unicode="&#x13d;" horiz-adv-x="586" 
d="M551 72v-72h-463v670h79v-598h384zM369 498h-61v172h77z" />
    <glyph glyph-name="Lcommaaccent" unicode="&#x13b;" horiz-adv-x="586" 
d="M551 72v-72h-463v670h79v-598h384zM281 -45h83l-71 -143h-60z" />
    <glyph glyph-name="Ldot" unicode="&#x13f;" horiz-adv-x="581" 
d="M551 72v-72h-463v670h79v-598h384zM388 294c-29 0 -51 21 -51 50c0 26 22 49 51 49c30 0 52 -23 52 -49c0 -29 -22 -50 -52 -50z" />
    <glyph glyph-name="Lslash" unicode="&#x141;" horiz-adv-x="596" 
d="M566 72v-72h-463v249l-73 -35v74l73 35v347h79v-308l158 76v-74l-158 -76v-216h384z" />
    <glyph glyph-name="M" unicode="M" horiz-adv-x="898" 
d="M810 670v-670h-76v502l-264 -502h-41l-265 502v-502h-76v670h69l292 -552l292 552h69z" />
    <glyph glyph-name="N" unicode="N" horiz-adv-x="760" 
d="M673 670v-670h-68l-438 532v-532h-79v670h68l438 -538v538h79z" />
    <glyph glyph-name="Nacute" unicode="&#x143;" horiz-adv-x="760" 
d="M427 745h-67l80 140h89zM673 670v-670h-68l-438 532v-532h-79v670h68l438 -538v538h79z" />
    <glyph glyph-name="Ncaron" unicode="&#x147;" horiz-adv-x="760" 
d="M352 738l-116 142h77l76 -92l75 92h78l-117 -142h-73zM673 670v-670h-68l-438 532v-532h-79v670h68l438 -538v538h79z" />
    <glyph glyph-name="Ncommaaccent" unicode="&#x145;" horiz-adv-x="760" 
d="M673 670v-670h-68l-438 532v-532h-79v670h68l438 -538v538h79zM358 -45h83l-71 -143h-60z" />
    <glyph glyph-name="Eng" unicode="&#x14a;" horiz-adv-x="750" 
d="M673 670v-722c0 -74 -50 -128 -124 -128c-39 0 -69 10 -93 22l16 60c19 -9 41 -14 59 -14c39 0 65 23 65 60v63l-429 521v-532h-79v670h68l438 -538v538h79z" />
    <glyph glyph-name="Ntilde" unicode="&#xd1;" horiz-adv-x="760" 
d="M332 815c-23 0 -37 -19 -37 -45h-54c0 75 44 102 87 102c60 0 77 -48 122 -48c23 0 37 19 37 47h54c0 -76 -44 -104 -87 -104c-60 0 -77 48 -122 48zM673 670v-670h-68l-438 532v-532h-79v670h68l438 -538v538h79z" />
    <glyph glyph-name="O" unicode="O" horiz-adv-x="803" 
d="M402 683c194 0 346 -154 346 -348c0 -195 -152 -348 -346 -348c-195 0 -347 153 -347 348c0 194 152 348 347 348zM402 62c149 0 266 118 266 273c0 154 -117 274 -266 274c-150 0 -267 -120 -267 -274c0 -155 117 -273 267 -273z" />
    <glyph glyph-name="Oacute" unicode="&#xd3;" horiz-adv-x="803" 
d="M441 745h-67l80 140h89zM402 683c194 0 346 -154 346 -348c0 -195 -152 -348 -346 -348c-195 0 -347 153 -347 348c0 194 152 348 347 348zM402 62c149 0 266 118 266 273c0 154 -117 274 -266 274c-150 0 -267 -120 -267 -274c0 -155 117 -273 267 -273z" />
    <glyph glyph-name="Ocircumflex" unicode="&#xd4;" horiz-adv-x="803" 
d="M327 737h-77l116 142h73l117 -142h-78l-75 93zM402 683c194 0 346 -154 346 -348c0 -195 -152 -348 -346 -348c-195 0 -347 153 -347 348c0 194 152 348 347 348zM402 62c149 0 266 118 266 273c0 154 -117 274 -266 274c-150 0 -267 -120 -267 -274
c0 -155 117 -273 267 -273z" />
    <glyph glyph-name="Odieresis" unicode="&#xd6;" horiz-adv-x="803" 
d="M303 755c-30 0 -52 22 -52 51c0 27 22 51 52 51s53 -24 53 -51c0 -29 -23 -51 -53 -51zM501 755c-30 0 -52 22 -52 51c0 27 22 51 52 51s53 -24 53 -51c0 -29 -23 -51 -53 -51zM402 683c194 0 346 -154 346 -348c0 -195 -152 -348 -346 -348c-195 0 -347 153 -347 348
c0 194 152 348 347 348zM402 62c149 0 266 118 266 273c0 154 -117 274 -266 274c-150 0 -267 -120 -267 -274c0 -155 117 -273 267 -273z" />
    <glyph glyph-name="Ograve" unicode="&#xd2;" horiz-adv-x="803" 
d="M367 745l-102 140h89l79 -140h-66zM402 683c194 0 346 -154 346 -348c0 -195 -152 -348 -346 -348c-195 0 -347 153 -347 348c0 194 152 348 347 348zM402 62c149 0 266 118 266 273c0 154 -117 274 -266 274c-150 0 -267 -120 -267 -274c0 -155 117 -273 267 -273z" />
    <glyph glyph-name="Ohungarumlaut" unicode="&#x150;" horiz-adv-x="803" 
d="M357 745h-70l79 140h95zM441 745l79 140h95l-104 -140h-70zM402 683c194 0 346 -154 346 -348c0 -195 -152 -348 -346 -348c-195 0 -347 153 -347 348c0 194 152 348 347 348zM402 62c149 0 266 118 266 273c0 154 -117 274 -266 274c-150 0 -267 -120 -267 -274
c0 -155 117 -273 267 -273z" />
    <glyph glyph-name="Omacron" unicode="&#x14c;" horiz-adv-x="803" 
d="M544 762h-284v62h284v-62zM402 683c194 0 346 -154 346 -348c0 -195 -152 -348 -346 -348c-195 0 -347 153 -347 348c0 194 152 348 347 348zM402 62c149 0 266 118 266 273c0 154 -117 274 -266 274c-150 0 -267 -120 -267 -274c0 -155 117 -273 267 -273z" />
    <glyph glyph-name="Oslash" unicode="&#xd8;" horiz-adv-x="803" 
d="M733 615l-61 -61c48 -59 76 -135 76 -219c0 -195 -152 -348 -346 -348c-84 0 -161 29 -220 77l-65 -65l-46 46l65 65c-51 60 -81 138 -81 225c0 194 152 348 347 348c87 0 165 -31 225 -82l60 60zM135 335c0 -65 21 -124 56 -170l382 382c-46 39 -105 62 -171 62
c-150 0 -267 -120 -267 -274zM402 62c149 0 266 118 266 273c0 62 -18 118 -51 164l-380 -380c45 -36 102 -57 165 -57z" />
    <glyph glyph-name="Otilde" unicode="&#xd5;" horiz-adv-x="803" 
d="M345 815c-23 0 -37 -19 -37 -45h-54c0 75 44 102 87 102c60 0 77 -48 122 -48c23 0 37 19 37 47h54c0 -76 -44 -104 -87 -104c-60 0 -77 48 -122 48zM402 683c194 0 346 -154 346 -348c0 -195 -152 -348 -346 -348c-195 0 -347 153 -347 348c0 194 152 348 347 348z
M402 62c149 0 266 118 266 273c0 154 -117 274 -266 274c-150 0 -267 -120 -267 -274c0 -155 117 -273 267 -273z" />
    <glyph glyph-name="OE" unicode="&#x152;" horiz-adv-x="1046" 
d="M986 72v-72h-536c-245 0 -395 141 -395 335s150 335 395 335h535v-71h-409v-227h380v-71h-380v-229h410zM497 72v527h-47c-201 0 -315 -109 -315 -264s114 -263 315 -263h47z" />
    <glyph glyph-name="P" unicode="P" horiz-adv-x="651" 
d="M88 670h292c143 0 233 -85 233 -208s-90 -208 -233 -208h-213v-254h-79v670zM167 325h213c96 0 155 57 155 137s-59 137 -155 137h-213v-274z" />
    <glyph glyph-name="Thorn" unicode="&#xde;" horiz-adv-x="628" 
d="M167 549h193c140 0 233 -88 233 -214c0 -125 -93 -213 -233 -213h-193v-122h-79v670h79v-121zM167 193h189c96 0 159 60 159 142c0 83 -63 142 -159 142h-189v-284z" />
    <glyph glyph-name="Q" unicode="Q" horiz-adv-x="803" 
d="M692 -161l-150 177c-43 -19 -90 -29 -140 -29c-195 0 -347 153 -347 348c0 194 152 348 347 348c194 0 346 -154 346 -348c0 -114 -52 -213 -133 -276l138 -165zM135 335c0 -155 117 -273 267 -273c149 0 266 118 266 273c0 154 -117 274 -266 274
c-150 0 -267 -120 -267 -274z" />
    <glyph glyph-name="R" unicode="R" horiz-adv-x="670" 
d="M645 0h-99l-256 287h-123v-287h-79v670h310c131 0 219 -76 219 -191s-88 -192 -219 -192h-12zM167 359h231c84 0 140 48 140 120s-56 120 -140 120h-231v-240z" />
    <glyph glyph-name="Racute" unicode="&#x154;" horiz-adv-x="670" 
d="M366 745h-67l80 140h89zM645 0h-99l-256 287h-123v-287h-79v670h310c131 0 219 -76 219 -191s-88 -192 -219 -192h-12zM167 359h231c84 0 140 48 140 120s-56 120 -140 120h-231v-240z" />
    <glyph glyph-name="Rcaron" unicode="&#x158;" horiz-adv-x="670" 
d="M291 738l-116 142h77l76 -92l75 92h78l-117 -142h-73zM645 0h-99l-256 287h-123v-287h-79v670h310c131 0 219 -76 219 -191s-88 -192 -219 -192h-12zM167 359h231c84 0 140 48 140 120s-56 120 -140 120h-231v-240z" />
    <glyph glyph-name="Rcommaaccent" unicode="&#x156;" horiz-adv-x="670" 
d="M645 0h-99l-256 287h-123v-287h-79v670h310c131 0 219 -76 219 -191s-88 -192 -219 -192h-12zM167 359h231c84 0 140 48 140 120s-56 120 -140 120h-231v-240zM297 -45h83l-71 -143h-60z" />
    <glyph glyph-name="S" unicode="S" horiz-adv-x="627" 
d="M311 683c134 0 228 -74 251 -184l-79 -18c-15 81 -82 133 -174 133c-90 0 -152 -49 -152 -121c0 -60 38 -87 101 -100l146 -33c93 -20 169 -67 169 -174c0 -122 -99 -199 -249 -199c-142 0 -256 73 -272 200l83 17c15 -94 92 -147 196 -147c102 0 163 51 163 125
c0 63 -34 88 -109 105l-151 33c-86 19 -161 64 -161 171c0 115 95 192 238 192z" />
    <glyph glyph-name="Sacute" unicode="&#x15a;" horiz-adv-x="627" 
d="M359 745h-67l80 140h89zM311 683c134 0 228 -74 251 -184l-79 -18c-15 81 -82 133 -174 133c-90 0 -152 -49 -152 -121c0 -60 38 -87 101 -100l146 -33c93 -20 169 -67 169 -174c0 -122 -99 -199 -249 -199c-142 0 -256 73 -272 200l83 17c15 -94 92 -147 196 -147
c102 0 163 51 163 125c0 63 -34 88 -109 105l-151 33c-86 19 -161 64 -161 171c0 115 95 192 238 192z" />
    <glyph glyph-name="Scaron" unicode="&#x160;" horiz-adv-x="627" 
d="M284 738l-116 142h77l76 -92l75 92h78l-117 -142h-73zM258 393l146 -33c93 -20 169 -67 169 -174c0 -122 -99 -199 -249 -199c-142 0 -256 73 -272 200l83 17c15 -94 92 -147 196 -147c102 0 163 51 163 125c0 63 -34 88 -109 105l-151 33c-86 19 -161 64 -161 171
c0 115 95 192 238 192c134 0 228 -74 251 -184l-79 -18c-15 81 -82 133 -174 133c-90 0 -152 -49 -152 -121c0 -60 38 -87 101 -100z" />
    <glyph glyph-name="Scedilla" unicode="&#x15e;" horiz-adv-x="627" 
d="M573 186c0 -113 -85 -188 -217 -198l-72 -158h-83l94 158c-128 9 -228 81 -243 199l83 17c15 -94 92 -147 196 -147c102 0 163 51 163 125c0 63 -34 88 -109 105l-151 33c-86 19 -161 64 -161 171c0 115 95 192 238 192c134 0 228 -74 251 -184l-79 -18
c-15 81 -82 133 -174 133c-90 0 -152 -49 -152 -121c0 -60 38 -87 101 -100l146 -33c93 -20 169 -67 169 -174z" />
    <glyph glyph-name="Scommaaccent" unicode="&#x218;" horiz-adv-x="627" 
d="M311 683c134 0 228 -74 251 -184l-79 -18c-15 81 -82 133 -174 133c-90 0 -152 -49 -152 -121c0 -60 38 -87 101 -100l146 -33c93 -20 169 -67 169 -174c0 -122 -99 -199 -249 -199c-142 0 -256 73 -272 200l83 17c15 -94 92 -147 196 -147c102 0 163 51 163 125
c0 63 -34 88 -109 105l-151 33c-86 19 -161 64 -161 171c0 115 95 192 238 192zM230 -188l48 143h83l-71 -143h-60z" />
    <glyph glyph-name="T" unicode="T" horiz-adv-x="627" 
d="M602 599h-248v-599h-80v599h-249v71h577v-71z" />
    <glyph glyph-name="Tbar" unicode="&#x166;" horiz-adv-x="637" 
d="M354 599v-230h132v-66h-132v-303h-80v303h-132v66h132v230h-249v71h577v-71h-248z" />
    <glyph glyph-name="Tcaron" unicode="&#x164;" horiz-adv-x="627" 
d="M278 738l-116 142h77l76 -92l75 92h78l-117 -142h-73zM602 599h-248v-599h-80v599h-249v71h577v-71z" />
    <glyph glyph-name="uni021A" unicode="&#x21a;" horiz-adv-x="627" 
d="M602 670v-71h-248v-599h-80v599h-249v71h577zM274 -45h83l-71 -143h-60z" />
    <glyph glyph-name="U" unicode="U" horiz-adv-x="721" 
d="M641 670v-377c0 -183 -111 -306 -279 -306c-169 0 -282 123 -282 306v377h79v-377c0 -139 81 -230 203 -230c120 0 200 91 200 230v377h79z" />
    <glyph glyph-name="Uacute" unicode="&#xda;" horiz-adv-x="721" 
d="M399 745h-67l80 140h89zM641 670v-377c0 -183 -111 -306 -279 -306c-169 0 -282 123 -282 306v377h79v-377c0 -139 81 -230 203 -230c120 0 200 91 200 230v377h79z" />
    <glyph glyph-name="Ucircumflex" unicode="&#xdb;" horiz-adv-x="721" 
d="M285 737h-77l116 142h73l117 -142h-78l-75 93zM641 670v-377c0 -183 -111 -306 -279 -306c-169 0 -282 123 -282 306v377h79v-377c0 -139 81 -230 203 -230c120 0 200 91 200 230v377h79z" />
    <glyph glyph-name="Udieresis" unicode="&#xdc;" horiz-adv-x="721" 
d="M261 755c-30 0 -52 22 -52 51c0 27 22 51 52 51s53 -24 53 -51c0 -29 -23 -51 -53 -51zM459 755c-30 0 -52 22 -52 51c0 27 22 51 52 51s53 -24 53 -51c0 -29 -23 -51 -53 -51zM641 670v-377c0 -183 -111 -306 -279 -306c-169 0 -282 123 -282 306v377h79v-377
c0 -139 81 -230 203 -230c120 0 200 91 200 230v377h79z" />
    <glyph glyph-name="Ugrave" unicode="&#xd9;" horiz-adv-x="721" 
d="M326 745l-102 140h89l79 -140h-66zM641 670v-377c0 -183 -111 -306 -279 -306c-169 0 -282 123 -282 306v377h79v-377c0 -139 81 -230 203 -230c120 0 200 91 200 230v377h79z" />
    <glyph glyph-name="Uhungarumlaut" unicode="&#x170;" horiz-adv-x="721" 
d="M315 745h-70l79 140h95zM399 745l79 140h95l-104 -140h-70zM641 670v-377c0 -183 -111 -306 -279 -306c-169 0 -282 123 -282 306v377h79v-377c0 -139 81 -230 203 -230c120 0 200 91 200 230v377h79z" />
    <glyph glyph-name="Umacron" unicode="&#x16a;" horiz-adv-x="721" 
d="M502 762h-284v62h284v-62zM641 670v-377c0 -183 -111 -306 -279 -306c-169 0 -282 123 -282 306v377h79v-377c0 -139 81 -230 203 -230c120 0 200 91 200 230v377h79z" />
    <glyph glyph-name="Uogonek" unicode="&#x172;" horiz-adv-x="721" 
d="M641 670v-386c0 -106 -43 -182 -98 -232c-93 -82 -120 -105 -120 -151c0 -26 18 -43 47 -43c14 0 25 4 51 13l15 -50c-40 -19 -63 -22 -84 -22c-55 0 -94 32 -94 82c0 43 19 74 60 113c-19 -5 -38 -7 -56 -7c-168 0 -282 120 -282 297v386h79v-386
c0 -133 82 -221 203 -221c119 0 200 88 200 221v386h79z" />
    <glyph glyph-name="Uring" unicode="&#x16e;" horiz-adv-x="721" 
d="M360 727c-58 0 -103 45 -103 101c0 55 45 100 103 100s104 -45 104 -100c0 -56 -46 -101 -104 -101zM360 882c-31 0 -56 -25 -56 -54c0 -30 25 -54 56 -54c32 0 56 24 56 54c0 29 -24 54 -56 54zM641 670v-377c0 -183 -111 -306 -279 -306c-169 0 -282 123 -282 306v377
h79v-377c0 -139 81 -230 203 -230c120 0 200 91 200 230v377h79z" />
    <glyph glyph-name="V" unicode="V" horiz-adv-x="696" 
d="M678 670l-292 -670h-76l-292 670h86l244 -562l244 562h86z" />
    <glyph glyph-name="W" unicode="W" horiz-adv-x="953" 
d="M936 670l-206 -670h-83l-170 544l-171 -544h-82l-206 670h82l167 -549l171 549h77l171 -549l167 549h83z" />
    <glyph glyph-name="Wacute" unicode="&#x1e82;" horiz-adv-x="953" 
d="M516 745h-67l80 140h89zM936 670l-206 -670h-83l-170 544l-171 -544h-82l-206 670h82l167 -549l171 549h77l171 -549l167 549h83z" />
    <glyph glyph-name="Wcircumflex" unicode="&#x174;" horiz-adv-x="953" 
d="M402 737h-77l116 142h73l117 -142h-78l-75 93zM936 670l-206 -670h-83l-170 544l-171 -544h-82l-206 670h82l167 -549l171 549h77l171 -549l167 549h83z" />
    <glyph glyph-name="Wdieresis" unicode="&#x1e84;" horiz-adv-x="953" 
d="M378 755c-30 0 -52 22 -52 51c0 27 22 51 52 51s53 -24 53 -51c0 -29 -23 -51 -53 -51zM576 755c-30 0 -52 22 -52 51c0 27 22 51 52 51s53 -24 53 -51c0 -29 -23 -51 -53 -51zM936 670l-206 -670h-83l-170 544l-171 -544h-82l-206 670h82l167 -549l171 549h77l171 -549
l167 549h83z" />
    <glyph glyph-name="Wgrave" unicode="&#x1e80;" horiz-adv-x="953" 
d="M442 745l-102 140h89l79 -140h-66zM936 670l-206 -670h-83l-170 544l-171 -544h-82l-206 670h82l167 -549l171 549h77l171 -549l167 549h83z" />
    <glyph glyph-name="X" unicode="X" horiz-adv-x="632" 
d="M518 0l-202 286l-201 -286h-97l239 337l-234 333h96l197 -282l197 282h97l-235 -333l240 -337h-97z" />
    <glyph glyph-name="Y" unicode="Y" horiz-adv-x="671" 
d="M374 235v-235h-79v234l-277 436h88l228 -357l228 357h91z" />
    <glyph glyph-name="Yacute" unicode="&#xdd;" horiz-adv-x="671" 
d="M374 745h-67l80 140h89zM374 235v-235h-79v234l-277 436h88l228 -357l228 357h91z" />
    <glyph glyph-name="Ycircumflex" unicode="&#x176;" horiz-adv-x="671" 
d="M260 737h-77l116 142h73l117 -142h-78l-75 93zM374 235v-235h-79v234l-277 436h88l228 -357l228 357h91z" />
    <glyph glyph-name="Ydieresis" unicode="&#x178;" horiz-adv-x="671" 
d="M236 755c-30 0 -52 22 -52 51c0 27 22 51 52 51s53 -24 53 -51c0 -29 -23 -51 -53 -51zM434 755c-30 0 -52 22 -52 51c0 27 22 51 52 51s53 -24 53 -51c0 -29 -23 -51 -53 -51zM374 235v-235h-79v234l-277 436h88l228 -357l228 357h91z" />
    <glyph glyph-name="Ygrave" unicode="&#x1ef2;" horiz-adv-x="671" 
d="M301 745l-102 140h89l79 -140h-66zM374 235v-235h-79v234l-277 436h88l228 -357l228 357h91z" />
    <glyph glyph-name="Z" unicode="Z" horiz-adv-x="626" 
d="M575 68v-68h-516v50l410 552h-398v68h500v-57l-401 -545h405z" />
    <glyph glyph-name="Zacute" unicode="&#x179;" horiz-adv-x="626" 
d="M360 745h-67l80 140h89zM575 68v-68h-516v50l410 552h-398v68h500v-57l-401 -545h405z" />
    <glyph glyph-name="Zcaron" unicode="&#x17d;" horiz-adv-x="626" 
d="M285 738l-116 142h77l76 -92l75 92h78l-117 -142h-73zM575 68v-68h-516v50l410 552h-398v68h500v-57l-401 -545h405z" />
    <glyph glyph-name="Zdotaccent" unicode="&#x17b;" horiz-adv-x="626" 
d="M320 763c-29 0 -51 21 -51 50c0 26 22 49 51 49c30 0 52 -23 52 -49c0 -29 -22 -50 -52 -50zM575 68v-68h-516v50l410 552h-398v68h500v-57l-401 -545h405z" />
    <glyph glyph-name="K.ss03" horiz-adv-x="704" 
d="M689 0h-100l-258 326l-164 -177v-149h-79v670h79v-424l390 424h92l-265 -287z" />
    <glyph glyph-name="Kcommaaccent.ss03" horiz-adv-x="704" 
d="M689 0h-100l-258 326l-164 -177v-149h-79v670h79v-424l390 424h92l-265 -287zM323 -45h83l-71 -143h-60z" />
    <glyph glyph-name="Q.ss04" horiz-adv-x="803" 
d="M674 -170l-146 180c-39 -15 -81 -23 -126 -23c-195 0 -347 153 -347 348c0 194 152 348 347 348c194 0 346 -154 346 -348c0 -119 -57 -223 -145 -285l180 -220h-109zM135 335c0 -155 117 -273 267 -273c149 0 266 118 266 273c0 154 -117 274 -266 274
c-150 0 -267 -120 -267 -274z" />
    <glyph glyph-name="I.ss05" horiz-adv-x="439" 
d="M259 599v-527h155v-72h-389v72h155v527h-155v71h389v-71h-155z" />
    <glyph glyph-name="IJ.ss05" horiz-adv-x="1034" 
d="M414 670v-71h-155v-527h155v-72h-389v72h155v527h-155v71h389zM955 670v-426c0 -150 -99 -257 -248 -257c-135 0 -226 89 -244 216l75 17c12 -95 73 -161 169 -161c101 0 169 77 169 185v355h-251v71h330z" />
    <glyph glyph-name="Iacute.ss05" horiz-adv-x="439" 
d="M258 745h-67l80 140h89zM259 599v-527h155v-72h-389v72h155v527h-155v71h389v-71h-155z" />
    <glyph glyph-name="Icircumflex.ss05" horiz-adv-x="439" 
d="M144 737h-77l116 142h73l117 -142h-78l-75 93zM259 599v-527h155v-72h-389v72h155v527h-155v71h389v-71h-155z" />
    <glyph glyph-name="Idieresis.ss05" horiz-adv-x="439" 
d="M120 755c-30 0 -52 22 -52 51c0 27 22 51 52 51s53 -24 53 -51c0 -29 -23 -51 -53 -51zM318 755c-30 0 -52 22 -52 51c0 27 22 51 52 51s53 -24 53 -51c0 -29 -23 -51 -53 -51zM259 599v-527h155v-72h-389v72h155v527h-155v71h389v-71h-155z" />
    <glyph glyph-name="Idotaccent.ss05" horiz-adv-x="439" 
d="M219 763c-29 0 -51 21 -51 50c0 26 22 49 51 49c30 0 52 -23 52 -49c0 -29 -22 -50 -52 -50zM259 599v-527h155v-72h-389v72h155v527h-155v71h389v-71h-155z" />
    <glyph glyph-name="Igrave.ss05" horiz-adv-x="439" 
d="M185 745l-102 140h89l79 -140h-66zM259 599v-527h155v-72h-389v72h155v527h-155v71h389v-71h-155z" />
    <glyph glyph-name="Imacron.ss05" horiz-adv-x="439" 
d="M361 762h-284v62h284v-62zM259 599v-527h155v-72h-389v72h155v527h-155v71h389v-71h-155z" />
    <glyph glyph-name="Iogonek.ss05" horiz-adv-x="439" 
d="M259 599v-527h155v-72h-155c-49 -51 -69 -73 -69 -105c0 -31 21 -40 42 -40c14 0 26 4 46 10l6 -50c-26 -10 -48 -15 -68 -15c-40 0 -84 21 -84 83c0 38 17 70 70 117h-177v72h155v527h-155v71h389v-71h-155z" />
    <glyph glyph-name="J.ss05" horiz-adv-x="595" 
d="M516 670v-426c0 -150 -99 -257 -248 -257c-135 0 -226 89 -244 216l75 17c12 -95 73 -161 169 -161c101 0 169 77 169 185v355h-251v71h330z" />
    <glyph glyph-name="a" unicode="a" horiz-adv-x="644" 
d="M556 493v-493h-76v78c-44 -58 -114 -91 -196 -91c-131 0 -246 103 -246 259s115 259 246 259c82 0 152 -33 196 -91v79h76zM296 55c93 0 184 74 184 191c0 118 -91 192 -184 192c-102 0 -184 -74 -184 -192c0 -117 82 -191 184 -191z" />
    <glyph glyph-name="aacute" unicode="&#xe1;" horiz-adv-x="644" 
d="M349 567h-67l80 140h89zM556 493v-493h-76v78c-44 -58 -114 -91 -196 -91c-131 0 -246 103 -246 259s115 259 246 259c82 0 152 -33 196 -91v79h76zM296 55c93 0 184 74 184 191c0 118 -91 192 -184 192c-102 0 -184 -74 -184 -192c0 -117 82 -191 184 -191z" />
    <glyph glyph-name="abreve" unicode="&#x103;" horiz-adv-x="644" 
d="M310 555c-86 0 -145 53 -145 135h64c0 -49 36 -80 81 -80s81 31 81 80h64c0 -82 -58 -135 -145 -135zM556 493v-493h-76v78c-44 -58 -114 -91 -196 -91c-131 0 -246 103 -246 259s115 259 246 259c82 0 152 -33 196 -91v79h76zM296 55c93 0 184 74 184 191
c0 118 -91 192 -184 192c-102 0 -184 -74 -184 -192c0 -117 82 -191 184 -191z" />
    <glyph glyph-name="acircumflex" unicode="&#xe2;" horiz-adv-x="644" 
d="M235 559h-77l116 142h73l117 -142h-78l-75 93zM556 493v-493h-76v78c-44 -58 -114 -91 -196 -91c-131 0 -246 103 -246 259s115 259 246 259c82 0 152 -33 196 -91v79h76zM296 55c93 0 184 74 184 191c0 118 -91 192 -184 192c-102 0 -184 -74 -184 -192
c0 -117 82 -191 184 -191z" />
    <glyph glyph-name="adieresis" unicode="&#xe4;" horiz-adv-x="644" 
d="M211 577c-30 0 -52 22 -52 51c0 27 22 51 52 51s53 -24 53 -51c0 -29 -23 -51 -53 -51zM409 577c-30 0 -52 22 -52 51c0 27 22 51 52 51s53 -24 53 -51c0 -29 -23 -51 -53 -51zM556 493v-493h-76v78c-44 -58 -114 -91 -196 -91c-131 0 -246 103 -246 259s115 259 246 259
c82 0 152 -33 196 -91v79h76zM296 55c93 0 184 74 184 191c0 118 -91 192 -184 192c-102 0 -184 -74 -184 -192c0 -117 82 -191 184 -191z" />
    <glyph glyph-name="agrave" unicode="&#xe0;" horiz-adv-x="644" 
d="M275 567l-102 140h89l79 -140h-66zM556 493v-493h-76v78c-44 -58 -114 -91 -196 -91c-131 0 -246 103 -246 259s115 259 246 259c82 0 152 -33 196 -91v79h76zM296 55c93 0 184 74 184 191c0 118 -91 192 -184 192c-102 0 -184 -74 -184 -192c0 -117 82 -191 184 -191z
" />
    <glyph glyph-name="amacron" unicode="&#x101;" horiz-adv-x="644" 
d="M452 584h-284v62h284v-62zM556 493v-493h-76v78c-44 -58 -114 -91 -196 -91c-131 0 -246 103 -246 259s115 259 246 259c82 0 152 -33 196 -91v79h76zM296 55c93 0 184 74 184 191c0 118 -91 192 -184 192c-102 0 -184 -74 -184 -192c0 -117 82 -191 184 -191z" />
    <glyph glyph-name="aogonek" unicode="&#x105;" horiz-adv-x="644" 
d="M575 -135l6 -50c-26 -10 -48 -15 -68 -15c-40 0 -84 21 -84 83c0 38 17 70 70 117h-19v78c-44 -58 -114 -91 -196 -91c-131 0 -246 103 -246 259s115 259 246 259c82 0 152 -33 196 -91v79h76v-493c-49 -51 -69 -73 -69 -105c0 -31 21 -40 42 -40c14 0 26 4 46 10z
M296 55c93 0 184 74 184 191c0 118 -91 192 -184 192c-102 0 -184 -74 -184 -192c0 -117 82 -191 184 -191z" />
    <glyph glyph-name="aring" unicode="&#xe5;" horiz-adv-x="644" 
d="M310 550c-58 0 -103 45 -103 101c0 55 45 100 103 100s104 -45 104 -100c0 -56 -46 -101 -104 -101zM310 705c-31 0 -56 -25 -56 -54c0 -30 25 -54 56 -54c32 0 56 24 56 54c0 29 -24 54 -56 54zM556 493v-493h-76v78c-44 -58 -114 -91 -196 -91
c-131 0 -246 103 -246 259s115 259 246 259c82 0 152 -33 196 -91v79h76zM296 55c93 0 184 74 184 191c0 118 -91 192 -184 192c-102 0 -184 -74 -184 -192c0 -117 82 -191 184 -191z" />
    <glyph glyph-name="atilde" unicode="&#xe3;" horiz-adv-x="644" 
d="M253 637c-23 0 -37 -19 -37 -45h-54c0 75 44 102 87 102c60 0 77 -48 122 -48c23 0 37 19 37 47h54c0 -76 -44 -104 -87 -104c-60 0 -77 48 -122 48zM556 493v-493h-76v78c-44 -58 -114 -91 -196 -91c-131 0 -246 103 -246 259s115 259 246 259c82 0 152 -33 196 -91v79
h76zM296 55c93 0 184 74 184 191c0 118 -91 192 -184 192c-102 0 -184 -74 -184 -192c0 -117 82 -191 184 -191z" />
    <glyph glyph-name="ae" unicode="&#xe6;" horiz-adv-x="927" 
d="M885 222h-405c9 -105 76 -168 171 -168c54 0 126 32 154 106l69 -16c-26 -93 -123 -157 -224 -157c-96 0 -168 45 -209 120c-37 -71 -115 -120 -212 -120c-124 0 -186 66 -186 149c0 90 72 143 191 143h175v41c0 72 -53 120 -130 120c-80 0 -129 -39 -139 -101l-70 15
c11 89 88 151 210 151c81 0 147 -35 177 -96c44 61 110 96 191 96c134 0 235 -106 237 -256v-27zM479 279h328c-11 100 -75 161 -156 161c-87 0 -162 -59 -172 -161zM409 222h-175c-74 0 -118 -31 -118 -83s44 -89 121 -89c92 0 172 67 172 162v10z" />
    <glyph glyph-name="aeacute" unicode="&#x1fd;" horiz-adv-x="927" 
d="M497 567h-67l80 140h89zM885 222h-405c9 -105 76 -168 171 -168c54 0 126 32 154 106l69 -16c-26 -93 -123 -157 -224 -157c-96 0 -168 45 -209 120c-37 -71 -115 -120 -212 -120c-124 0 -186 66 -186 149c0 90 72 143 191 143h175v41c0 72 -53 120 -130 120
c-80 0 -129 -39 -139 -101l-70 15c11 89 88 151 210 151c81 0 147 -35 177 -96c44 61 110 96 191 96c134 0 235 -106 237 -256v-27zM479 279h328c-11 100 -75 161 -156 161c-87 0 -162 -59 -172 -161zM409 222h-175c-74 0 -118 -31 -118 -83s44 -89 121 -89
c92 0 172 67 172 162v10z" />
    <glyph glyph-name="b" unicode="b" horiz-adv-x="649" 
d="M360 505c131 0 246 -103 246 -259s-115 -259 -246 -259c-82 0 -152 33 -196 91v-78h-76v720h76v-306c44 58 114 91 196 91zM348 55c102 0 184 74 184 191c0 118 -82 192 -184 192c-93 0 -184 -74 -184 -192c0 -117 91 -191 184 -191z" />
    <glyph glyph-name="c" unicode="c" horiz-adv-x="576" 
d="M300 58c73 0 139 37 163 111l70 -19c-27 -101 -124 -163 -233 -163c-139 0 -257 102 -257 259c0 155 118 259 257 259c108 0 204 -63 234 -164l-73 -22c-22 76 -88 116 -161 116c-101 0 -183 -76 -183 -189c0 -115 82 -188 183 -188z" />
    <glyph glyph-name="cacute" unicode="&#x107;" horiz-adv-x="576" 
d="M340 567h-67l80 140h89zM300 58c73 0 139 37 163 111l70 -19c-27 -101 -124 -163 -233 -163c-139 0 -257 102 -257 259c0 155 118 259 257 259c108 0 204 -63 234 -164l-73 -22c-22 76 -88 116 -161 116c-101 0 -183 -76 -183 -189c0 -115 82 -188 183 -188z" />
    <glyph glyph-name="ccaron" unicode="&#x10d;" horiz-adv-x="576" 
d="M265 560l-116 142h77l76 -92l75 92h78l-117 -142h-73zM300 58c73 0 139 37 163 111l70 -19c-27 -101 -124 -163 -233 -163c-139 0 -257 102 -257 259c0 155 118 259 257 259c108 0 204 -63 234 -164l-73 -22c-22 76 -88 116 -161 116c-101 0 -183 -76 -183 -189
c0 -115 82 -188 183 -188z" />
    <glyph glyph-name="ccedilla" unicode="&#xe7;" horiz-adv-x="576" 
d="M300 58c73 0 139 37 163 111l70 -19c-25 -92 -108 -152 -205 -162l-72 -158h-83l94 159c-124 15 -224 112 -224 257c0 155 118 259 257 259c108 0 204 -63 234 -164l-73 -22c-22 76 -88 116 -161 116c-101 0 -183 -76 -183 -189c0 -115 82 -188 183 -188z" />
    <glyph glyph-name="cdotaccent" unicode="&#x10b;" horiz-adv-x="576" 
d="M301 585c-29 0 -51 21 -51 50c0 26 22 49 51 49c30 0 52 -23 52 -49c0 -29 -22 -50 -52 -50zM300 58c73 0 139 37 163 111l70 -19c-27 -101 -124 -163 -233 -163c-139 0 -257 102 -257 259c0 155 118 259 257 259c108 0 204 -63 234 -164l-73 -22
c-22 76 -88 116 -161 116c-101 0 -183 -76 -183 -189c0 -115 82 -188 183 -188z" />
    <glyph glyph-name="d" unicode="d" horiz-adv-x="649" 
d="M561 720v-720h-76v78c-44 -58 -114 -91 -196 -91c-131 0 -246 103 -246 259s115 259 246 259c82 0 152 -33 196 -91v306h76zM301 55c93 0 184 74 184 191c0 118 -91 192 -184 192c-102 0 -184 -74 -184 -192c0 -117 82 -191 184 -191z" />
    <glyph glyph-name="eth" unicode="&#xf0;" horiz-adv-x="607" 
d="M455 656l-79 -35c109 -99 189 -237 189 -371c0 -168 -127 -263 -258 -263c-142 0 -264 104 -264 259s112 259 250 259c45 0 88 -14 122 -37c-29 45 -64 85 -108 122l-134 -59l-23 54l102 46c-42 27 -90 52 -147 74v15h125c32 -15 64 -35 94 -57l107 48zM307 55
c123 0 182 106 182 195c0 109 -87 187 -184 187c-103 0 -188 -77 -188 -191s89 -191 190 -191z" />
    <glyph glyph-name="dcaron" unicode="&#x10f;" horiz-adv-x="649" 
d="M485 720h76v-720h-76v78c-44 -58 -114 -91 -196 -91c-131 0 -246 103 -246 259s115 259 246 259c82 0 152 -33 196 -91v306zM720 720l-16 -172h-61v172h77zM301 55c93 0 184 74 184 191c0 118 -91 192 -184 192c-102 0 -184 -74 -184 -192c0 -117 82 -191 184 -191z" />
    <glyph glyph-name="dcroat" unicode="&#x111;" horiz-adv-x="668" 
d="M636 574h-75v-574h-76v78c-44 -58 -114 -91 -196 -91c-131 0 -246 103 -246 259s115 259 246 259c82 0 152 -33 196 -91v160h-173v61h173v85h76v-85h75v-61zM301 55c93 0 184 74 184 191c0 118 -91 192 -184 192c-102 0 -184 -74 -184 -192c0 -117 82 -191 184 -191z" />
    <glyph glyph-name="e" unicode="e" horiz-adv-x="583" 
d="M540 259v-28h-423c7 -111 91 -177 176 -177c70 0 133 27 168 106l68 -16c-39 -103 -125 -157 -236 -157c-131 0 -250 101 -250 258c0 158 119 260 255 260c133 0 237 -99 242 -246zM298 438c-80 0 -163 -53 -178 -150h343c-14 97 -83 150 -165 150z" />
    <glyph glyph-name="eacute" unicode="&#xe9;" horiz-adv-x="583" 
d="M337 567h-67l80 140h89zM540 259v-28h-423c7 -111 91 -177 176 -177c70 0 133 27 168 106l68 -16c-39 -103 -125 -157 -236 -157c-131 0 -250 101 -250 258c0 158 119 260 255 260c133 0 237 -99 242 -246zM298 438c-80 0 -163 -53 -178 -150h343
c-14 97 -83 150 -165 150z" />
    <glyph glyph-name="ecaron" unicode="&#x11b;" horiz-adv-x="583" 
d="M262 560l-116 142h77l76 -92l75 92h78l-117 -142h-73zM540 259v-28h-423c7 -111 91 -177 176 -177c70 0 133 27 168 106l68 -16c-39 -103 -125 -157 -236 -157c-131 0 -250 101 -250 258c0 158 119 260 255 260c133 0 237 -99 242 -246zM298 438
c-80 0 -163 -53 -178 -150h343c-14 97 -83 150 -165 150z" />
    <glyph glyph-name="ecircumflex" unicode="&#xea;" horiz-adv-x="583" 
d="M223 559h-77l116 142h73l117 -142h-78l-75 93zM540 259v-28h-423c7 -111 91 -177 176 -177c70 0 133 27 168 106l68 -16c-39 -103 -125 -157 -236 -157c-131 0 -250 101 -250 258c0 158 119 260 255 260c133 0 237 -99 242 -246zM298 438c-80 0 -163 -53 -178 -150h343
c-14 97 -83 150 -165 150z" />
    <glyph glyph-name="edieresis" unicode="&#xeb;" horiz-adv-x="583" 
d="M199 577c-30 0 -52 22 -52 51c0 27 22 51 52 51s53 -24 53 -51c0 -29 -23 -51 -53 -51zM397 577c-30 0 -52 22 -52 51c0 27 22 51 52 51s53 -24 53 -51c0 -29 -23 -51 -53 -51zM540 259v-28h-423c7 -111 91 -177 176 -177c70 0 133 27 168 106l68 -16
c-39 -103 -125 -157 -236 -157c-131 0 -250 101 -250 258c0 158 119 260 255 260c133 0 237 -99 242 -246zM298 438c-80 0 -163 -53 -178 -150h343c-14 97 -83 150 -165 150z" />
    <glyph glyph-name="edotaccent" unicode="&#x117;" horiz-adv-x="583" 
d="M297 585c-29 0 -51 21 -51 50c0 26 22 49 51 49c30 0 52 -23 52 -49c0 -29 -22 -50 -52 -50zM540 259v-28h-423c7 -111 91 -177 176 -177c70 0 133 27 168 106l68 -16c-39 -103 -125 -157 -236 -157c-131 0 -250 101 -250 258c0 158 119 260 255 260
c133 0 237 -99 242 -246zM298 438c-80 0 -163 -53 -178 -150h343c-14 97 -83 150 -165 150z" />
    <glyph glyph-name="egrave" unicode="&#xe8;" horiz-adv-x="583" 
d="M263 567l-102 140h89l79 -140h-66zM540 259v-28h-423c7 -111 91 -177 176 -177c70 0 133 27 168 106l68 -16c-39 -103 -125 -157 -236 -157c-131 0 -250 101 -250 258c0 158 119 260 255 260c133 0 237 -99 242 -246zM298 438c-80 0 -163 -53 -178 -150h343
c-14 97 -83 150 -165 150z" />
    <glyph glyph-name="emacron" unicode="&#x113;" horiz-adv-x="583" 
d="M440 584h-284v62h284v-62zM540 259v-28h-423c7 -111 91 -177 176 -177c70 0 133 27 168 106l68 -16c-39 -103 -125 -157 -236 -157c-131 0 -250 101 -250 258c0 158 119 260 255 260c133 0 237 -99 242 -246zM298 438c-80 0 -163 -53 -178 -150h343
c-14 97 -83 150 -165 150z" />
    <glyph glyph-name="eogonek" unicode="&#x119;" horiz-adv-x="583" 
d="M541 231h-423c7 -110 87 -177 173 -177c70 0 141 37 170 108l67 -16c-11 -24 -30 -51 -55 -79c-69 -82 -100 -122 -100 -165c0 -29 20 -44 49 -44c15 0 27 3 47 11l6 -45c-27 -17 -49 -23 -71 -23c-56 0 -93 32 -93 84c0 36 14 70 45 112c-19 -6 -39 -10 -65 -10
c-133 0 -248 102 -248 259s121 260 254 260c135 0 242 -103 244 -252v-23zM120 288h341c-11 99 -81 150 -163 150c-78 0 -163 -54 -178 -150z" />
    <glyph glyph-name="f" unicode="f" horiz-adv-x="356" 
d="M361 429h-179v-429h-76v429h-86v64h86v73c0 104 66 171 169 171c29 0 56 -6 80 -18l-19 -62c-18 7 -38 11 -56 11c-60 0 -98 -39 -98 -102v-73h179v-64z" />
    <glyph glyph-name="g" unicode="g" horiz-adv-x="633" 
d="M545 493l1 -453c-1 -144 -99 -230 -248 -230c-122 0 -203 48 -241 128l64 44c35 -66 85 -103 177 -103c104 0 173 66 173 171v60c-40 -52 -103 -81 -185 -81c-130 0 -243 99 -243 239c0 139 113 237 243 237c82 0 145 -29 185 -80v68h74zM297 95c92 0 174 68 174 173
s-82 171 -174 171c-100 0 -180 -66 -180 -171s80 -173 180 -173z" />
    <glyph glyph-name="gbreve" unicode="&#x11f;" horiz-adv-x="633" 
d="M304 555c-86 0 -145 53 -145 135h64c0 -49 36 -80 81 -80s81 31 81 80h64c0 -82 -58 -135 -145 -135zM545 493l1 -453c-1 -144 -99 -230 -248 -230c-122 0 -203 48 -241 128l64 44c35 -66 85 -103 177 -103c104 0 173 66 173 171v60c-40 -52 -103 -81 -185 -81
c-130 0 -243 99 -243 239c0 139 113 237 243 237c82 0 145 -29 185 -80v68h74zM297 95c92 0 174 68 174 173s-82 171 -174 171c-100 0 -180 -66 -180 -171s80 -173 180 -173z" />
    <glyph glyph-name="gcommaaccent" unicode="&#x123;" horiz-adv-x="638" 
d="M356 569h-83l72 143h59zM545 493l1 -453c-1 -144 -99 -230 -248 -230c-122 0 -203 48 -241 128l64 44c35 -66 85 -103 177 -103c104 0 173 66 173 171v60c-40 -52 -103 -81 -185 -81c-130 0 -243 99 -243 239c0 139 113 237 243 237c82 0 145 -29 185 -80v68h74zM297 95
c92 0 174 68 174 173s-82 171 -174 171c-100 0 -180 -66 -180 -171s80 -173 180 -173z" />
    <glyph glyph-name="gdotaccent" unicode="&#x121;" horiz-adv-x="633" 
d="M304 585c-29 0 -51 21 -51 50c0 26 22 49 51 49c30 0 52 -23 52 -49c0 -29 -22 -50 -52 -50zM545 493l1 -453c-1 -144 -99 -230 -248 -230c-122 0 -203 48 -241 128l64 44c35 -66 85 -103 177 -103c104 0 173 66 173 171v60c-40 -52 -103 -81 -185 -81
c-130 0 -243 99 -243 239c0 139 113 237 243 237c82 0 145 -29 185 -80v68h74zM297 95c92 0 174 68 174 173s-82 171 -174 171c-100 0 -180 -66 -180 -171s80 -173 180 -173z" />
    <glyph glyph-name="h" unicode="h" horiz-adv-x="625" 
d="M350 505c119 0 198 -85 198 -210v-295h-76v281c0 92 -55 154 -137 154c-103 0 -171 -70 -171 -198v-237h-76v720h76v-309c40 60 103 94 186 94z" />
    <glyph glyph-name="hbar" unicode="&#x127;" horiz-adv-x="627" 
d="M368 505c119 0 198 -85 198 -210v-295h-77v281c0 92 -54 154 -136 154c-103 0 -171 -70 -171 -198v-237h-77v579h-75v56h75v85h77v-85h172v-56h-172v-167c40 59 104 93 186 93z" />
    <glyph glyph-name="i" unicode="i" horiz-adv-x="269" 
d="M134 693c30 0 53 -24 53 -51c0 -29 -23 -51 -53 -51s-52 22 -52 51c0 27 22 51 52 51zM173 0h-77v493h77v-493z" />
    <glyph glyph-name="dotlessi" unicode="&#x131;" horiz-adv-x="279" 
d="M178 0h-77v493h77v-493z" />
    <glyph glyph-name="iacute" unicode="&#xed;" horiz-adv-x="279" 
d="M178 567h-67l80 140h89zM178 0h-77v493h77v-493z" />
    <glyph glyph-name="icircumflex" unicode="&#xee;" horiz-adv-x="279" 
d="M293 559h-78l-75 93l-76 -93h-78l117 142h73zM101 493h77v-493h-77v493z" />
    <glyph glyph-name="idieresis" unicode="&#xef;" horiz-adv-x="279" 
d="M40 679c30 0 53 -24 53 -51c0 -29 -23 -51 -53 -51s-52 22 -52 51c0 27 22 51 52 51zM238 679c30 0 53 -24 53 -51c0 -29 -23 -51 -53 -51s-52 22 -52 51c0 27 22 51 52 51zM178 0h-77v493h77v-493z" />
    <glyph glyph-name="i.loclTRK" horiz-adv-x="279" 
d="M139 684c30 0 52 -23 52 -49c0 -29 -22 -50 -52 -50c-29 0 -51 21 -51 50c0 26 22 49 51 49zM178 0h-77v493h77v-493z" />
    <glyph glyph-name="igrave" unicode="&#xec;" horiz-adv-x="279" 
d="M92 707l79 -140h-66l-102 140h89zM178 0h-77v493h77v-493z" />
    <glyph glyph-name="ij" unicode="&#x133;" horiz-adv-x="554" 
d="M134 693c30 0 53 -24 53 -51c0 -29 -23 -51 -53 -51s-52 22 -52 51c0 27 22 51 52 51zM420 693c30 0 52 -24 52 -51c0 -29 -22 -51 -52 -51c-31 0 -53 22 -53 51c0 27 22 51 53 51zM173 0h-77v493h77v-493zM254 -163l16 66c16 -7 32 -11 47 -11c39 0 65 24 65 61v540h77
v-549c0 -75 -50 -124 -124 -124c-33 0 -59 7 -81 17z" />
    <glyph glyph-name="imacron" unicode="&#x12b;" horiz-adv-x="279" 
d="M281 584h-284v62h284v-62zM178 0h-77v493h77v-493z" />
    <glyph glyph-name="iogonek" unicode="&#x12f;" horiz-adv-x="279" 
d="M139 585c-29 0 -51 21 -51 50c0 26 22 49 51 49c30 0 52 -23 52 -49c0 -29 -22 -50 -52 -50zM196 -135l6 -50c-26 -10 -48 -15 -68 -15c-40 0 -84 21 -84 83c0 38 17 70 70 117h-19v493h77v-493h-1c-49 -51 -69 -73 -69 -105c0 -31 21 -40 42 -40c14 0 26 4 46 10z" />
    <glyph glyph-name="j" unicode="j" horiz-adv-x="285" 
d="M151 693c30 0 52 -24 52 -51c0 -29 -22 -51 -52 -51c-31 0 -53 22 -53 51c0 27 22 51 53 51zM-16 -163l17 66c16 -7 32 -11 47 -11c39 0 65 24 65 61v540h77v-549c0 -75 -50 -124 -124 -124c-33 0 -59 7 -82 17z" />
    <glyph glyph-name="k" unicode="k" horiz-adv-x="574" 
d="M569 0h-106l-266 218h-33v-218h-76v720h76v-427h37l237 200h99l-280 -239z" />
    <glyph glyph-name="kcommaaccent" unicode="&#x137;" horiz-adv-x="574" 
d="M569 0h-106l-266 218h-33v-218h-76v720h76v-427h37l237 200h99l-280 -239zM240 -45h83l-71 -143h-60z" />
    <glyph glyph-name="l" unicode="l" horiz-adv-x="252" 
d="M164 0h-76v720h76v-720z" />
    <glyph glyph-name="lacute" unicode="&#x13a;" horiz-adv-x="252" 
d="M165 795h-67l80 140h89zM164 0h-76v720h76v-720z" />
    <glyph glyph-name="lcaron" unicode="&#x13e;" horiz-adv-x="252" 
d="M164 0h-76v720h76v-720zM300 548h-61v172h77z" />
    <glyph glyph-name="lcommaaccent" unicode="&#x13c;" horiz-adv-x="252" 
d="M164 0h-76v720h76v-720zM36 -188l48 143h83l-71 -143h-60z" />
    <glyph glyph-name="ldot" unicode="&#x140;" horiz-adv-x="333" 
d="M164 0h-76v720h76v-720zM273 388c30 0 52 -23 52 -49c0 -29 -22 -50 -52 -50c-29 0 -51 21 -51 50c0 26 22 49 51 49z" />
    <glyph glyph-name="lslash" unicode="&#x142;" horiz-adv-x="301" 
d="M271 388l-82 -51v-337h-76v290l-83 -52v75l83 52v355h76v-308l82 51v-75z" />
    <glyph glyph-name="m" unicode="m" horiz-adv-x="946" 
d="M686 505c104 0 184 -74 184 -186v-319h-76v306c0 78 -53 129 -127 129c-91 0 -151 -67 -151 -183v-252h-76v306c0 78 -53 129 -126 129c-91 0 -150 -67 -150 -183v-252h-76v493h76v-75c35 54 91 87 168 87c76 0 139 -37 168 -100c38 61 102 100 186 100z" />
    <glyph glyph-name="n" unicode="n" horiz-adv-x="624" 
d="M350 505c119 0 198 -85 198 -210v-295h-76v281c0 92 -55 154 -137 154c-103 0 -171 -70 -171 -198v-237h-76v493h76v-82c40 60 103 94 186 94z" />
    <glyph glyph-name="nacute" unicode="&#x144;" horiz-adv-x="624" 
d="M360 567h-67l80 140h89zM350 505c119 0 198 -85 198 -210v-295h-76v281c0 92 -55 154 -137 154c-103 0 -171 -70 -171 -198v-237h-76v493h76v-82c40 60 103 94 186 94z" />
    <glyph glyph-name="ncaron" unicode="&#x148;" horiz-adv-x="624" 
d="M285 560l-116 142h77l76 -92l75 92h78l-117 -142h-73zM350 505c119 0 198 -85 198 -210v-295h-76v281c0 92 -55 154 -137 154c-103 0 -171 -70 -171 -198v-237h-76v493h76v-82c40 60 103 94 186 94z" />
    <glyph glyph-name="ncommaaccent" unicode="&#x146;" horiz-adv-x="624" 
d="M350 505c119 0 198 -85 198 -210v-295h-76v281c0 92 -55 154 -137 154c-103 0 -171 -70 -171 -198v-237h-76v493h76v-82c40 60 103 94 186 94zM280 -45h83l-71 -143h-60z" />
    <glyph glyph-name="eng" unicode="&#x14b;" horiz-adv-x="625" 
d="M350 505c119 0 198 -85 198 -210v-347c0 -74 -49 -128 -124 -128c-38 0 -68 10 -92 22l16 59c19 -9 40 -14 59 -14c39 0 65 24 65 61v333c0 92 -55 154 -137 154c-103 0 -171 -70 -171 -198v-237h-76v493h76v-82c40 60 103 94 186 94z" />
    <glyph glyph-name="ntilde" unicode="&#xf1;" horiz-adv-x="624" 
d="M265 637c-23 0 -37 -19 -37 -45h-54c0 75 44 102 87 102c60 0 77 -48 122 -48c23 0 37 19 37 47h54c0 -76 -44 -104 -87 -104c-60 0 -77 48 -122 48zM350 505c119 0 198 -85 198 -210v-295h-76v281c0 92 -55 154 -137 154c-103 0 -171 -70 -171 -198v-237h-76v493h76v-82
c40 60 103 94 186 94z" />
    <glyph glyph-name="o" unicode="o" horiz-adv-x="608" 
d="M305 504c145 0 261 -106 261 -257s-116 -259 -261 -259c-147 0 -262 108 -262 259s115 257 262 257zM305 55c101 0 186 78 186 192c0 113 -85 190 -186 190c-102 0 -188 -77 -188 -190c0 -114 86 -192 188 -192z" />
    <glyph glyph-name="oacute" unicode="&#xf3;" horiz-adv-x="608" 
d="M344 572h-67l80 140h89zM305 504c145 0 261 -106 261 -257s-116 -259 -261 -259c-147 0 -262 108 -262 259s115 257 262 257zM305 55c101 0 186 78 186 192c0 113 -85 190 -186 190c-102 0 -188 -77 -188 -190c0 -114 86 -192 188 -192z" />
    <glyph glyph-name="ocircumflex" unicode="&#xf4;" horiz-adv-x="608" 
d="M230 564h-77l116 142h73l117 -142h-78l-75 93zM305 504c145 0 261 -106 261 -257s-116 -259 -261 -259c-147 0 -262 108 -262 259s115 257 262 257zM305 55c101 0 186 78 186 192c0 113 -85 190 -186 190c-102 0 -188 -77 -188 -190c0 -114 86 -192 188 -192z" />
    <glyph glyph-name="odieresis" unicode="&#xf6;" horiz-adv-x="608" 
d="M206 582c-30 0 -52 22 -52 51c0 27 22 51 52 51s53 -24 53 -51c0 -29 -23 -51 -53 -51zM404 582c-30 0 -52 22 -52 51c0 27 22 51 52 51s53 -24 53 -51c0 -29 -23 -51 -53 -51zM305 504c145 0 261 -106 261 -257s-116 -259 -261 -259c-147 0 -262 108 -262 259
s115 257 262 257zM305 55c101 0 186 78 186 192c0 113 -85 190 -186 190c-102 0 -188 -77 -188 -190c0 -114 86 -192 188 -192z" />
    <glyph glyph-name="ograve" unicode="&#xf2;" horiz-adv-x="608" 
d="M270 572l-102 140h89l79 -140h-66zM305 504c145 0 261 -106 261 -257s-116 -259 -261 -259c-147 0 -262 108 -262 259s115 257 262 257zM305 55c101 0 186 78 186 192c0 113 -85 190 -186 190c-102 0 -188 -77 -188 -190c0 -114 86 -192 188 -192z" />
    <glyph glyph-name="ohungarumlaut" unicode="&#x151;" horiz-adv-x="608" 
d="M260 572h-70l79 140h95zM344 572l79 140h95l-104 -140h-70zM305 504c145 0 261 -106 261 -257s-116 -259 -261 -259c-147 0 -262 108 -262 259s115 257 262 257zM305 55c101 0 186 78 186 192c0 113 -85 190 -186 190c-102 0 -188 -77 -188 -190c0 -114 86 -192 188 -192
z" />
    <glyph glyph-name="omacron" unicode="&#x14d;" horiz-adv-x="608" 
d="M447 589h-284v62h284v-62zM305 504c145 0 261 -106 261 -257s-116 -259 -261 -259c-147 0 -262 108 -262 259s115 257 262 257zM305 55c101 0 186 78 186 192c0 113 -85 190 -186 190c-102 0 -188 -77 -188 -190c0 -114 86 -192 188 -192z" />
    <glyph glyph-name="oslash" unicode="&#xf8;" horiz-adv-x="606" 
d="M562 466l-54 -54c36 -43 58 -100 58 -165c0 -151 -116 -259 -261 -259c-63 0 -121 20 -166 55l-55 -55l-39 39l55 55c-36 44 -57 100 -57 165c0 151 115 257 262 257c62 0 119 -19 163 -54l55 55zM117 247c0 -44 13 -83 34 -114l267 267c-32 24 -71 37 -113 37
c-102 0 -188 -77 -188 -190zM305 55c101 0 186 78 186 192c0 44 -13 83 -34 113l-267 -266c32 -25 72 -39 115 -39z" />
    <glyph glyph-name="otilde" unicode="&#xf5;" horiz-adv-x="608" 
d="M248 643c-23 0 -37 -19 -37 -45h-54c0 75 44 102 87 102c60 0 77 -48 122 -48c23 0 37 19 37 47h54c0 -76 -44 -104 -87 -104c-60 0 -77 48 -122 48zM305 504c145 0 261 -106 261 -257s-116 -259 -261 -259c-147 0 -262 108 -262 259s115 257 262 257zM305 55
c101 0 186 78 186 192c0 113 -85 190 -186 190c-102 0 -188 -77 -188 -190c0 -114 86 -192 188 -192z" />
    <glyph glyph-name="oe" unicode="&#x153;" horiz-adv-x="1032" 
d="M989 259v-28h-423c7 -111 91 -177 176 -177c70 0 133 27 168 106l68 -16c-39 -103 -125 -157 -236 -157c-87 0 -169 45 -214 121c-46 -74 -128 -120 -223 -120c-147 0 -262 108 -262 259s115 257 262 257c95 0 178 -46 224 -120c45 76 128 121 218 121
c133 0 237 -99 242 -246zM747 438c-80 0 -163 -53 -178 -150h343c-14 97 -83 150 -165 150zM305 55c101 0 186 78 186 192c0 113 -85 190 -186 190c-102 0 -188 -77 -188 -190c0 -114 86 -192 188 -192z" />
    <glyph glyph-name="p" unicode="p" horiz-adv-x="649" 
d="M360 505c131 0 246 -103 246 -259s-115 -259 -246 -259c-82 0 -152 33 -196 91v-248h-76v663h76v-79c44 58 114 91 196 91zM348 55c102 0 184 74 184 191c0 118 -82 192 -184 192c-93 0 -184 -74 -184 -192c0 -117 91 -191 184 -191z" />
    <glyph glyph-name="thorn" unicode="&#xfe;" horiz-adv-x="649" 
d="M360 505c131 0 246 -103 246 -259s-115 -259 -246 -259c-82 0 -152 33 -196 91v-248h-76v890h76v-306c44 58 114 91 196 91zM348 55c102 0 184 74 184 191c0 118 -82 192 -184 192c-93 0 -184 -74 -184 -192c0 -117 91 -191 184 -191z" />
    <glyph glyph-name="q" unicode="q" horiz-adv-x="649" 
d="M561 493v-663h-76v248c-44 -58 -114 -91 -196 -91c-131 0 -246 103 -246 259s115 259 246 259c82 0 152 -33 196 -91v79h76zM301 55c93 0 184 74 184 191c0 118 -91 192 -184 192c-102 0 -184 -74 -184 -192c0 -117 82 -191 184 -191z" />
    <glyph glyph-name="r" unicode="r" horiz-adv-x="412" 
d="M363 498c12 0 21 0 35 -4l-6 -73c-9 1 -20 1 -29 1c-131 0 -198 -99 -198 -232v-190h-77v493h77v-121c40 73 107 126 198 126z" />
    <glyph glyph-name="racute" unicode="&#x155;" horiz-adv-x="412" 
d="M257 567h-67l80 140h89zM363 498c12 0 21 0 35 -4l-6 -73c-9 1 -20 1 -29 1c-131 0 -198 -99 -198 -232v-190h-77v493h77v-121c40 73 107 126 198 126z" />
    <glyph glyph-name="rcaron" unicode="&#x159;" horiz-adv-x="412" 
d="M182 560l-116 142h77l76 -92l75 92h78l-117 -142h-73zM363 498c12 0 21 0 35 -4l-6 -73c-9 1 -20 1 -29 1c-131 0 -198 -99 -198 -232v-190h-77v493h77v-121c40 73 107 126 198 126z" />
    <glyph glyph-name="rcommaaccent" unicode="&#x157;" horiz-adv-x="412" 
d="M363 498c12 0 21 0 35 -4l-6 -73c-9 1 -20 1 -29 1c-131 0 -198 -99 -198 -232v-190h-77v493h77v-121c40 73 107 126 198 126zM85 -45h83l-71 -143h-60z" />
    <glyph glyph-name="s" unicode="s" horiz-adv-x="506" 
d="M46 133l76 17c7 -65 67 -100 145 -100c71 0 118 33 118 84c0 41 -31 60 -81 71l-113 25c-82 17 -128 58 -128 126c0 89 74 149 187 149c111 0 183 -57 201 -137l-73 -16c-10 54 -57 91 -130 91c-70 0 -109 -34 -109 -81c0 -39 27 -57 75 -68l119 -26
c72 -16 127 -54 127 -129c0 -97 -81 -152 -199 -152c-113 0 -203 50 -215 146z" />
    <glyph glyph-name="sacute" unicode="&#x15b;" horiz-adv-x="506" 
d="M296 567h-67l80 140h89zM46 133l76 17c7 -65 67 -100 145 -100c71 0 118 33 118 84c0 41 -31 60 -81 71l-113 25c-82 17 -128 58 -128 126c0 89 74 149 187 149c111 0 183 -57 201 -137l-73 -16c-10 54 -57 91 -130 91c-70 0 -109 -34 -109 -81c0 -39 27 -57 75 -68
l119 -26c72 -16 127 -54 127 -129c0 -97 -81 -152 -199 -152c-113 0 -203 50 -215 146z" />
    <glyph glyph-name="scaron" unicode="&#x161;" horiz-adv-x="506" 
d="M221 560l-116 142h77l76 -92l75 92h78l-117 -142h-73zM214 294l119 -26c72 -16 127 -54 127 -129c0 -97 -81 -152 -199 -152c-113 0 -203 50 -215 146l76 17c7 -65 67 -100 145 -100c71 0 118 33 118 84c0 41 -31 60 -81 71l-113 25c-82 17 -128 58 -128 126
c0 89 74 149 187 149c111 0 183 -57 201 -137l-73 -16c-10 54 -57 91 -130 91c-70 0 -109 -34 -109 -81c0 -39 27 -57 75 -68z" />
    <glyph glyph-name="scedilla" unicode="&#x15f;" horiz-adv-x="506" 
d="M460 139c0 -86 -64 -140 -162 -150l-72 -159h-83l94 158c-102 7 -180 56 -191 145l76 17c7 -65 67 -100 145 -100c71 0 118 33 118 84c0 41 -31 60 -81 71l-113 25c-82 17 -128 58 -128 126c0 89 74 149 187 149c111 0 183 -57 201 -137l-73 -16c-10 54 -57 91 -130 91
c-70 0 -109 -34 -109 -81c0 -39 27 -57 75 -68l119 -26c72 -16 127 -54 127 -129z" />
    <glyph glyph-name="scommaaccent" unicode="&#x219;" horiz-adv-x="506" 
d="M46 133l76 17c7 -65 67 -100 145 -100c71 0 118 33 118 84c0 41 -31 60 -81 71l-113 25c-82 17 -128 58 -128 126c0 89 74 149 187 149c111 0 183 -57 201 -137l-73 -16c-10 54 -57 91 -130 91c-70 0 -109 -34 -109 -81c0 -39 27 -57 75 -68l119 -26
c72 -16 127 -54 127 -129c0 -97 -81 -152 -199 -152c-113 0 -203 50 -215 146zM172 -188l48 143h83l-71 -143h-60z" />
    <glyph glyph-name="germandbls" unicode="&#xdf;" horiz-adv-x="656" 
d="M461 385c91 -21 150 -84 150 -186c0 -114 -80 -207 -216 -207c-55 0 -112 11 -162 31l14 64c43 -18 93 -30 143 -30c98 0 155 67 155 142c0 95 -77 148 -195 148h-47v64h37c93 0 153 51 153 125c0 80 -62 134 -154 134c-104 0 -175 -72 -175 -187v-483h-76v478
c0 156 100 259 251 259c136 0 227 -82 227 -192c0 -75 -38 -136 -105 -160z" />
    <glyph glyph-name="t" unicode="t" horiz-adv-x="394" 
d="M359 89l25 -63c-40 -28 -74 -39 -114 -39c-98 0 -163 58 -163 167v275h-107v64h107v157h77v-157h176v-64h-176v-270c0 -64 36 -100 91 -100c28 0 59 12 84 30z" />
    <glyph glyph-name="tbar" unicode="&#x167;" horiz-adv-x="394" 
d="M356 89l18 -65c-34 -25 -67 -37 -108 -37c-97 0 -162 58 -162 167v116h-96v63h96v96h-103v64h103v157h76v-157h177v-64h-177v-96h142v-63h-142v-111c0 -64 37 -100 91 -100c29 0 59 12 85 30z" />
    <glyph glyph-name="tcaron" unicode="&#x165;" horiz-adv-x="394" 
d="M312 546h-61v172h77zM359 89l25 -63c-40 -28 -74 -39 -114 -39c-98 0 -163 58 -163 167v275h-107v64h107v157h77v-157h176v-64h-176v-270c0 -64 36 -100 91 -100c28 0 59 12 84 30z" />
    <glyph glyph-name="tcedilla" unicode="&#x163;" horiz-adv-x="394" 
d="M359 89l25 -63c-39 -27 -72 -38 -111 -39l-71 -157h-83l97 164c-67 18 -109 72 -109 160v275h-107v64h107v157h77v-157h176v-64h-176v-270c0 -64 36 -100 91 -100c28 0 59 12 84 30z" />
    <glyph glyph-name="uni021B" unicode="&#x21b;" horiz-adv-x="394" 
d="M270 -13c-98 0 -163 58 -163 167v275h-107v64h107v157h77v-157h176v-64h-176v-270c0 -64 36 -100 91 -100c28 0 59 12 84 30l25 -63c-40 -28 -74 -39 -114 -39zM196 -45h83l-71 -143h-60z" />
    <glyph glyph-name="u" unicode="u" horiz-adv-x="624" 
d="M537 493v-492h-77v80c-40 -59 -104 -93 -186 -93c-119 0 -198 85 -198 210v295h77v-281c0 -92 54 -153 136 -153c103 0 171 69 171 197v237h77z" />
    <glyph glyph-name="uacute" unicode="&#xfa;" horiz-adv-x="624" 
d="M346 567h-67l80 140h89zM537 493v-492h-77v80c-40 -59 -104 -93 -186 -93c-119 0 -198 85 -198 210v295h77v-281c0 -92 54 -153 136 -153c103 0 171 69 171 197v237h77z" />
    <glyph glyph-name="ucircumflex" unicode="&#xfb;" horiz-adv-x="624" 
d="M232 559h-77l116 142h73l117 -142h-78l-75 93zM537 493v-492h-77v80c-40 -59 -104 -93 -186 -93c-119 0 -198 85 -198 210v295h77v-281c0 -92 54 -153 136 -153c103 0 171 69 171 197v237h77z" />
    <glyph glyph-name="udieresis" unicode="&#xfc;" horiz-adv-x="624" 
d="M208 577c-30 0 -52 22 -52 51c0 27 22 51 52 51s53 -24 53 -51c0 -29 -23 -51 -53 -51zM406 577c-30 0 -52 22 -52 51c0 27 22 51 52 51s53 -24 53 -51c0 -29 -23 -51 -53 -51zM537 493v-492h-77v80c-40 -59 -104 -93 -186 -93c-119 0 -198 85 -198 210v295h77v-281
c0 -92 54 -153 136 -153c103 0 171 69 171 197v237h77z" />
    <glyph glyph-name="ugrave" unicode="&#xf9;" horiz-adv-x="624" 
d="M273 567l-102 140h89l79 -140h-66zM537 493v-492h-77v80c-40 -59 -104 -93 -186 -93c-119 0 -198 85 -198 210v295h77v-281c0 -92 54 -153 136 -153c103 0 171 69 171 197v237h77z" />
    <glyph glyph-name="uhungarumlaut" unicode="&#x171;" horiz-adv-x="624" 
d="M262 567h-70l79 140h95zM346 567l79 140h95l-104 -140h-70zM537 493v-492h-77v80c-40 -59 -104 -93 -186 -93c-119 0 -198 85 -198 210v295h77v-281c0 -92 54 -153 136 -153c103 0 171 69 171 197v237h77z" />
    <glyph glyph-name="umacron" unicode="&#x16b;" horiz-adv-x="624" 
d="M449 584h-284v62h284v-62zM537 493v-492h-77v80c-40 -59 -104 -93 -186 -93c-119 0 -198 85 -198 210v295h77v-281c0 -92 54 -153 136 -153c103 0 171 69 171 197v237h77z" />
    <glyph glyph-name="uogonek" unicode="&#x173;" horiz-adv-x="624" 
d="M556 -135l6 -50c-26 -10 -48 -15 -68 -15c-40 0 -84 21 -84 83c0 38 18 70 71 118h-21v80c-40 -59 -104 -93 -186 -93c-119 0 -198 85 -198 210v295h77v-281c0 -92 54 -153 136 -153c103 0 171 69 171 197v237h77v-492h-18l18 -1c-49 -51 -69 -73 -69 -105
c0 -31 21 -40 42 -40c14 0 26 4 46 10z" />
    <glyph glyph-name="uring" unicode="&#x16f;" horiz-adv-x="624" 
d="M307 550c-58 0 -103 45 -103 101c0 55 45 100 103 100s104 -45 104 -100c0 -56 -46 -101 -104 -101zM307 705c-31 0 -56 -25 -56 -54c0 -30 25 -54 56 -54c32 0 56 24 56 54c0 29 -24 54 -56 54zM537 493v-492h-77v80c-40 -59 -104 -93 -186 -93c-119 0 -198 85 -198 210
v295h77v-281c0 -92 54 -153 136 -153c103 0 171 69 171 197v237h77z" />
    <glyph glyph-name="v" unicode="v" horiz-adv-x="555" 
d="M537 493l-218 -493h-83l-218 493h83l177 -403l176 403h83z" />
    <glyph glyph-name="w" unicode="w" horiz-adv-x="769" 
d="M751 493l-166 -495h-71l-129 374l-130 -374h-71l-166 495h77l127 -382l132 382h61l132 -382l127 382h77z" />
    <glyph glyph-name="wacute" unicode="&#x1e83;" horiz-adv-x="769" 
d="M424 567h-67l80 140h89zM751 493l-166 -495h-71l-129 374l-130 -374h-71l-166 495h77l127 -382l132 382h61l132 -382l127 382h77z" />
    <glyph glyph-name="wcircumflex" unicode="&#x175;" horiz-adv-x="769" 
d="M310 559h-77l116 142h73l117 -142h-78l-75 93zM751 493l-166 -495h-71l-129 374l-130 -374h-71l-166 495h77l127 -382l132 382h61l132 -382l127 382h77z" />
    <glyph glyph-name="wdieresis" unicode="&#x1e85;" horiz-adv-x="769" 
d="M286 577c-30 0 -52 22 -52 51c0 27 22 51 52 51s53 -24 53 -51c0 -29 -23 -51 -53 -51zM484 577c-30 0 -52 22 -52 51c0 27 22 51 52 51s53 -24 53 -51c0 -29 -23 -51 -53 -51zM751 493l-166 -495h-71l-129 374l-130 -374h-71l-166 495h77l127 -382l132 382h61l132 -382
l127 382h77z" />
    <glyph glyph-name="wgrave" unicode="&#x1e81;" horiz-adv-x="769" 
d="M350 567l-102 140h89l79 -140h-66zM751 493l-166 -495h-71l-129 374l-130 -374h-71l-166 495h77l127 -382l132 382h61l132 -382l127 382h77z" />
    <glyph glyph-name="x" unicode="x" horiz-adv-x="578" 
d="M345 243l188 -243h-92l-152 197l-152 -197h-92l188 243l-188 250h92l152 -203l152 203h92z" />
    <glyph glyph-name="y" unicode="y" horiz-adv-x="563" 
d="M545 493l-302 -663h-85l81 177l-221 486h86l176 -394l180 394h85z" />
    <glyph glyph-name="yacute" unicode="&#xfd;" horiz-adv-x="563" 
d="M321 568h-67l80 140h89zM545 493l-302 -663h-85l81 177l-221 486h86l176 -394l180 394h85z" />
    <glyph glyph-name="ycircumflex" unicode="&#x177;" horiz-adv-x="563" 
d="M206 560h-77l116 142h73l117 -142h-78l-75 93zM545 493l-302 -663h-85l81 177l-221 486h86l176 -394l180 394h85z" />
    <glyph glyph-name="ydieresis" unicode="&#xff;" horiz-adv-x="563" 
d="M182 578c-30 0 -52 22 -52 51c0 27 22 51 52 51s53 -24 53 -51c0 -29 -23 -51 -53 -51zM380 578c-30 0 -52 22 -52 51c0 27 22 51 52 51s53 -24 53 -51c0 -29 -23 -51 -53 -51zM545 493l-302 -663h-85l81 177l-221 486h86l176 -394l180 394h85z" />
    <glyph glyph-name="ygrave" unicode="&#x1ef3;" horiz-adv-x="563" 
d="M247 568l-102 140h89l79 -140h-66zM545 493l-302 -663h-85l81 177l-221 486h86l176 -394l180 394h85z" />
    <glyph glyph-name="z" unicode="z" horiz-adv-x="506" 
d="M466 64v-64h-426v52l321 377h-312v64h407v-53l-321 -376h331z" />
    <glyph glyph-name="zacute" unicode="&#x17a;" horiz-adv-x="506" 
d="M300 567h-67l80 140h89zM466 64v-64h-426v52l321 377h-312v64h407v-53l-321 -376h331z" />
    <glyph glyph-name="zcaron" unicode="&#x17e;" horiz-adv-x="506" 
d="M225 560l-116 142h77l76 -92l75 92h78l-117 -142h-73zM466 64v-64h-426v52l321 377h-312v64h407v-53l-321 -376h331z" />
    <glyph glyph-name="zdotaccent" unicode="&#x17c;" horiz-adv-x="506" 
d="M260 585c-29 0 -51 21 -51 50c0 26 22 49 51 49c30 0 52 -23 52 -49c0 -29 -22 -50 -52 -50zM466 64v-64h-426v52l321 377h-312v64h407v-53l-321 -376h331z" />
    <glyph glyph-name="germandbls.case" horiz-adv-x="1233" 
d="M311 683c134 0 228 -74 251 -184l-79 -18c-15 81 -82 133 -174 133c-90 0 -152 -49 -152 -121c0 -60 38 -87 101 -100l146 -33c93 -20 169 -67 169 -174c0 -122 -99 -199 -249 -199c-142 0 -256 73 -272 200l83 17c15 -94 92 -147 196 -147c102 0 163 51 163 125
c0 63 -34 88 -109 105l-151 33c-86 19 -161 64 -161 171c0 115 95 192 238 192zM918 683c134 0 228 -74 251 -184l-79 -18c-15 81 -82 133 -174 133c-90 0 -152 -49 -152 -121c0 -60 38 -87 101 -100l146 -33c93 -20 169 -67 169 -174c0 -122 -99 -199 -249 -199
c-142 0 -256 73 -272 200l83 17c15 -94 92 -147 196 -147c102 0 163 51 163 125c0 63 -34 88 -109 105l-151 33c-86 19 -161 64 -161 171c0 115 95 192 238 192z" />
    <glyph glyph-name="a.ss01" horiz-adv-x="545" 
d="M277 505c123 0 204 -66 204 -185v-320h-74v75c-38 -51 -100 -88 -185 -88c-108 0 -179 62 -179 151c0 90 69 154 198 154h166v23c0 77 -50 123 -126 123c-75 0 -127 -37 -138 -99l-73 16c16 89 99 150 207 150zM233 50c96 0 174 67 174 156v26h-167
c-81 0 -124 -39 -124 -93c0 -52 46 -89 117 -89z" />
    <glyph glyph-name="aacute.ss01" horiz-adv-x="545" 
d="M319 567h-67l80 140h89zM277 505c123 0 204 -66 204 -185v-320h-74v75c-38 -51 -100 -88 -185 -88c-108 0 -179 62 -179 151c0 90 69 154 198 154h166v23c0 77 -50 123 -126 123c-75 0 -127 -37 -138 -99l-73 16c16 89 99 150 207 150zM233 50c96 0 174 67 174 156v26
h-167c-81 0 -124 -39 -124 -93c0 -52 46 -89 117 -89z" />
    <glyph glyph-name="abreve.ss01" horiz-adv-x="545" 
d="M280 555c-86 0 -145 53 -145 135h64c0 -49 36 -80 81 -80s81 31 81 80h64c0 -82 -58 -135 -145 -135zM277 505c123 0 204 -66 204 -185v-320h-74v75c-38 -51 -100 -88 -185 -88c-108 0 -179 62 -179 151c0 90 69 154 198 154h166v23c0 77 -50 123 -126 123
c-75 0 -127 -37 -138 -99l-73 16c16 89 99 150 207 150zM233 50c96 0 174 67 174 156v26h-167c-81 0 -124 -39 -124 -93c0 -52 46 -89 117 -89z" />
    <glyph glyph-name="acircumflex.ss01" horiz-adv-x="545" 
d="M205 559h-77l116 142h73l117 -142h-78l-75 93zM277 505c123 0 204 -66 204 -185v-320h-74v75c-38 -51 -100 -88 -185 -88c-108 0 -179 62 -179 151c0 90 69 154 198 154h166v23c0 77 -50 123 -126 123c-75 0 -127 -37 -138 -99l-73 16c16 89 99 150 207 150zM233 50
c96 0 174 67 174 156v26h-167c-81 0 -124 -39 -124 -93c0 -52 46 -89 117 -89z" />
    <glyph glyph-name="adieresis.ss01" horiz-adv-x="545" 
d="M181 577c-30 0 -52 22 -52 51c0 27 22 51 52 51s53 -24 53 -51c0 -29 -23 -51 -53 -51zM379 577c-30 0 -52 22 -52 51c0 27 22 51 52 51s53 -24 53 -51c0 -29 -23 -51 -53 -51zM277 505c123 0 204 -66 204 -185v-320h-74v75c-38 -51 -100 -88 -185 -88
c-108 0 -179 62 -179 151c0 90 69 154 198 154h166v23c0 77 -50 123 -126 123c-75 0 -127 -37 -138 -99l-73 16c16 89 99 150 207 150zM233 50c96 0 174 67 174 156v26h-167c-81 0 -124 -39 -124 -93c0 -52 46 -89 117 -89z" />
    <glyph glyph-name="agrave.ss01" horiz-adv-x="545" 
d="M245 567l-102 140h89l79 -140h-66zM277 505c123 0 204 -66 204 -185v-320h-74v75c-38 -51 -100 -88 -185 -88c-108 0 -179 62 -179 151c0 90 69 154 198 154h166v23c0 77 -50 123 -126 123c-75 0 -127 -37 -138 -99l-73 16c16 89 99 150 207 150zM233 50
c96 0 174 67 174 156v26h-167c-81 0 -124 -39 -124 -93c0 -52 46 -89 117 -89z" />
    <glyph glyph-name="amacron.ss01" horiz-adv-x="545" 
d="M422 584h-284v62h284v-62zM277 505c123 0 204 -66 204 -185v-320h-74v75c-38 -51 -100 -88 -185 -88c-108 0 -179 62 -179 151c0 90 69 154 198 154h166v23c0 77 -50 123 -126 123c-75 0 -127 -37 -138 -99l-73 16c16 89 99 150 207 150zM233 50c96 0 174 67 174 156v26
h-167c-81 0 -124 -39 -124 -93c0 -52 46 -89 117 -89z" />
    <glyph glyph-name="aogonek.ss01" horiz-adv-x="545" 
d="M502 -135l6 -50c-26 -10 -48 -15 -68 -15c-40 0 -84 21 -84 83c0 38 17 70 70 117h-19v75c-38 -51 -100 -88 -185 -88c-108 0 -179 62 -179 151c0 90 69 154 198 154h166v23c0 77 -50 123 -126 123c-75 0 -127 -37 -138 -99l-73 16c16 89 99 150 207 150
c123 0 204 -66 204 -185v-320h2c-49 -51 -69 -73 -69 -105c0 -31 21 -40 42 -40c14 0 26 4 46 10zM233 50c96 0 174 67 174 156v26h-167c-81 0 -124 -39 -124 -93c0 -52 46 -89 117 -89z" />
    <glyph glyph-name="aring.ss01" horiz-adv-x="545" 
d="M280 550c-58 0 -103 45 -103 101c0 55 45 100 103 100s104 -45 104 -100c0 -56 -46 -101 -104 -101zM280 705c-31 0 -56 -25 -56 -54c0 -30 25 -54 56 -54c32 0 56 24 56 54c0 29 -24 54 -56 54zM277 505c123 0 204 -66 204 -185v-320h-74v75c-38 -51 -100 -88 -185 -88
c-108 0 -179 62 -179 151c0 90 69 154 198 154h166v23c0 77 -50 123 -126 123c-75 0 -127 -37 -138 -99l-73 16c16 89 99 150 207 150zM233 50c96 0 174 67 174 156v26h-167c-81 0 -124 -39 -124 -93c0 -52 46 -89 117 -89z" />
    <glyph glyph-name="atilde.ss01" horiz-adv-x="545" 
d="M223 637c-23 0 -37 -19 -37 -45h-54c0 75 44 102 87 102c60 0 77 -48 122 -48c23 0 37 19 37 47h54c0 -76 -44 -104 -87 -104c-60 0 -77 48 -122 48zM277 505c123 0 204 -66 204 -185v-320h-74v75c-38 -51 -100 -88 -185 -88c-108 0 -179 62 -179 151
c0 90 69 154 198 154h166v23c0 77 -50 123 -126 123c-75 0 -127 -37 -138 -99l-73 16c16 89 99 150 207 150zM233 50c96 0 174 67 174 156v26h-167c-81 0 -124 -39 -124 -93c0 -52 46 -89 117 -89z" />
    <glyph glyph-name="l.ss02" horiz-adv-x="312" 
d="M154 720v-594c0 -40 28 -66 70 -66c19 0 40 6 59 16l16 -64c-24 -14 -49 -25 -87 -25c-81 0 -134 54 -134 135v598h76z" />
    <glyph glyph-name="lacute.ss02" horiz-adv-x="312" 
d="M153 795h-67l80 140h89zM154 720v-594c0 -40 28 -66 70 -66c19 0 40 6 59 16l16 -64c-24 -14 -49 -25 -87 -25c-81 0 -134 54 -134 135v598h76z" />
    <glyph glyph-name="lcaron.ss02" horiz-adv-x="312" 
d="M154 720v-594c0 -40 28 -66 70 -66c19 0 40 6 59 16l16 -64c-24 -14 -49 -25 -87 -25c-81 0 -134 54 -134 135v598h76zM286 548h-61v172h77z" />
    <glyph glyph-name="lcommaaccent.ss02" horiz-adv-x="312" 
d="M154 720v-594c0 -40 28 -66 70 -66c19 0 40 6 59 16l16 -64c-24 -14 -49 -25 -87 -25c-81 0 -134 54 -134 135v598h76zM97 -188l48 143h83l-71 -143h-60z" />
    <glyph glyph-name="ldot.ss02" horiz-adv-x="358" 
d="M164 720v-594c0 -40 28 -66 70 -66c19 0 40 6 59 16l16 -64c-24 -14 -49 -25 -87 -25c-81 0 -134 54 -134 135v598h76zM298 388c30 0 52 -23 52 -49c0 -29 -22 -50 -52 -50c-29 0 -51 21 -51 50c0 26 22 49 51 49z" />
    <glyph glyph-name="lslash.ss02" horiz-adv-x="339" 
d="M311 76l16 -64c-24 -14 -49 -25 -88 -25c-80 0 -134 54 -134 135v163l-75 -47v75l75 47v360h77v-312l89 55v-75l-89 -55v-207c0 -40 28 -66 70 -66c18 0 40 6 59 16z" />
    <glyph glyph-name="k.ss03" horiz-adv-x="599" 
d="M589 0h-97l-210 232l-118 -124v-108h-76v720h76v-510l275 283h92l-197 -207z" />
    <glyph glyph-name="kcommaaccent.ss03" horiz-adv-x="599" 
d="M589 0h-97l-210 232l-118 -124v-108h-76v720h76v-510l275 283h92l-197 -207zM275 -45h83l-71 -143h-60z" />
    <glyph glyph-name="f_j" horiz-adv-x="647" 
d="M551 493v-549c0 -75 -49 -124 -124 -124c-32 0 -58 7 -81 17l17 66c16 -7 32 -11 47 -11c39 0 65 24 65 61v476h-293v-429h-76v429h-86v64h86v73c0 104 66 171 170 171c35 0 64 -8 92 -24l-20 -62c-21 11 -43 17 -67 17c-61 0 -99 -39 -99 -102v-73h369zM512 591
c-30 0 -52 22 -52 51c0 27 22 51 52 51s53 -24 53 -51c0 -29 -23 -51 -53 -51z" />
    <glyph glyph-name="f_t" horiz-adv-x="750" 
d="M715 89l25 -63c-40 -28 -74 -39 -114 -39c-98 0 -163 58 -163 167v275h-281v-429h-76v429h-86v64h86v73c0 104 66 171 170 171c35 0 64 -8 92 -24l-20 -62c-21 11 -43 17 -67 17c-61 0 -99 -39 -99 -102v-73h281v157h77v-157h176v-64h-176v-270c0 -64 36 -100 91 -100
c28 0 59 12 84 30z" />
    <glyph glyph-name="fl.ss02" horiz-adv-x="668" 
d="M182 493h179v-64h-179v-429h-76v429h-86v64h86v73c0 104 66 171 169 171c29 0 56 -6 80 -18l-19 -62c-18 7 -38 11 -56 11c-60 0 -98 -39 -98 -102v-73zM640 76l16 -64c-24 -14 -49 -25 -88 -25c-80 0 -134 54 -134 135v598h77v-594c0 -40 28 -66 70 -66c18 0 40 6 59 16
z" />
    <glyph glyph-name="ordfeminine" unicode="&#xaa;" horiz-adv-x="387" 
d="M202 673c81 0 138 -42 138 -125v-205h-58v39c-23 -27 -60 -47 -116 -47c-69 0 -115 40 -115 100c0 59 52 98 140 98h91v18c0 46 -30 76 -77 76c-43 0 -73 -20 -84 -68l-52 12c14 69 66 102 133 102zM178 379c61 0 104 38 104 90v25h-86c-55 0 -86 -23 -86 -59
c0 -35 27 -56 68 -56z" />
    <glyph glyph-name="ordmasculine" unicode="&#xba;" horiz-adv-x="439" 
d="M219 673c94 0 173 -68 173 -169s-79 -169 -173 -169c-91 0 -172 68 -172 169s81 169 172 169zM219 388c62 0 115 48 115 116s-53 116 -115 116c-59 0 -113 -48 -113 -116s54 -116 113 -116z" />
    <glyph glyph-name="zero" unicode="0" horiz-adv-x="665" 
d="M333 683c166 0 277 -141 277 -348c0 -208 -111 -348 -277 -348s-278 140 -278 348c0 207 112 348 278 348zM333 61c119 0 197 111 197 274c0 164 -78 275 -197 275c-120 0 -198 -111 -198 -275c0 -163 78 -274 198 -274z" />
    <glyph glyph-name="one" unicode="1" horiz-adv-x="355" 
d="M268 670v-670h-77v575l-179 -100v73l207 122h49z" />
    <glyph glyph-name="two" unicode="2" horiz-adv-x="515" 
d="M482 72v-72h-451v51l239 223c77 70 129 118 129 203c0 82 -59 137 -146 137c-91 0 -149 -58 -153 -160l-73 15c5 130 95 214 227 214s221 -83 221 -205c0 -99 -54 -159 -157 -256l-161 -150h325z" />
    <glyph glyph-name="three" unicode="3" horiz-adv-x="586" 
d="M414 343c71 -20 114 -74 114 -151c0 -123 -92 -205 -228 -205c-142 0 -236 88 -244 218l74 15c7 -99 69 -163 170 -163c92 0 156 53 156 134c0 74 -56 117 -149 117h-93v69h88c86 0 140 42 140 111c0 75 -58 125 -146 125c-91 0 -152 -56 -158 -155l-73 14
c9 125 97 211 232 211c131 0 218 -79 218 -195c0 -72 -39 -124 -101 -145z" />
    <glyph glyph-name="four" unicode="4" horiz-adv-x="620" 
d="M589 161h-104v-161h-77v161h-373v76l350 433h100v-444h104v-65zM408 226v361l-287 -361h287z" />
    <glyph glyph-name="five" unicode="5" horiz-adv-x="563" 
d="M159 405h139c133 0 220 -71 220 -201c0 -128 -93 -217 -235 -217c-137 0 -241 85 -242 230l76 15c0 -111 71 -173 167 -173c95 0 159 57 159 144s-60 131 -151 131h-211l15 336h396v-71h-323z" />
    <glyph glyph-name="six" unicode="6" horiz-adv-x="609" 
d="M325 433c142 0 229 -94 229 -220c0 -129 -93 -226 -235 -226c-166 0 -264 122 -264 330c0 123 25 225 91 293c44 45 105 73 177 73c104 0 186 -52 213 -147l-76 -15c-19 63 -70 92 -140 92c-52 0 -94 -21 -123 -53c-57 -62 -70 -154 -67 -234c34 65 112 107 195 107z
M318 59c92 0 158 68 158 155s-66 153 -158 153c-97 0 -161 -71 -161 -156c0 -90 72 -152 161 -152z" />
    <glyph glyph-name="seven" unicode="7" horiz-adv-x="495" 
d="M477 670v-54l-262 -616h-87l262 599h-367v71h454z" />
    <glyph glyph-name="eight" unicode="8" horiz-adv-x="578" 
d="M390 343c101 -26 145 -97 145 -166c0 -113 -98 -190 -245 -190c-148 0 -247 77 -247 190c0 71 46 140 145 166c-87 27 -126 91 -126 163c0 106 90 177 228 177c137 0 227 -71 227 -177c0 -71 -39 -136 -127 -163zM140 500c-1 -71 59 -118 149 -118c91 0 150 49 150 119
c0 72 -64 117 -150 117s-149 -45 -149 -118zM289 55c91 0 160 48 160 126c0 74 -63 126 -160 126c-95 0 -159 -51 -159 -127c0 -78 66 -125 159 -125z" />
    <glyph glyph-name="nine" unicode="9" horiz-adv-x="609" 
d="M290 683c167 0 264 -122 264 -330c0 -123 -24 -224 -91 -293c-44 -45 -105 -73 -177 -73c-104 0 -186 53 -212 148l76 14c18 -63 70 -92 139 -92c52 0 94 22 123 53c57 63 70 153 67 234c-35 -65 -112 -107 -195 -107c-141 0 -229 94 -229 221c0 129 94 225 235 225z
M292 303c96 0 161 72 161 156c0 90 -73 153 -161 153c-93 0 -158 -68 -158 -155c0 -88 66 -154 158 -154z" />
    <glyph glyph-name="zero.tf" 
d="M305 683c162 0 270 -141 270 -348c0 -208 -108 -348 -270 -348c-161 0 -270 140 -270 348c0 207 109 348 270 348zM305 61c115 0 190 111 190 274c0 164 -75 275 -190 275s-190 -111 -190 -275c0 -163 75 -274 190 -274z" />
    <glyph glyph-name="one.tf" 
d="M549 72v-72h-469v72h208v502l-198 -101v73l226 124h49v-598h184z" />
    <glyph glyph-name="two.tf" 
d="M543 72v-72h-451v51l239 223c76 70 128 118 128 203c0 82 -59 137 -145 137c-91 0 -150 -58 -153 -160l-73 15c4 130 94 214 227 214c131 0 220 -83 220 -205c0 -99 -53 -159 -157 -256l-161 -150h326z" />
    <glyph glyph-name="three.tf" 
d="M440 343c71 -20 114 -74 114 -151c0 -123 -92 -205 -228 -205c-142 0 -236 88 -244 218l74 15c7 -99 69 -163 170 -163c92 0 156 53 156 134c0 74 -56 117 -149 117h-93v69h88c86 0 140 42 140 111c0 75 -58 125 -146 125c-91 0 -152 -56 -158 -155l-73 14
c9 125 97 211 232 211c131 0 218 -79 218 -195c0 -72 -39 -124 -101 -145z" />
    <glyph glyph-name="four.tf" 
d="M576 161h-100v-161h-77v161h-357v76l334 433h100v-444h100v-65zM399 226v360l-279 -360h279z" />
    <glyph glyph-name="five.tf" 
d="M181 405h138c133 0 221 -71 221 -201c0 -128 -94 -217 -236 -217c-137 0 -241 85 -242 230l77 15c0 -111 70 -173 167 -173c95 0 158 57 158 144s-59 131 -150 131h-211l15 336h396v-71h-324z" />
    <glyph glyph-name="six.tf" 
d="M335 433c141 0 229 -94 229 -220c0 -129 -94 -226 -235 -226c-167 0 -264 122 -264 330c0 123 24 225 91 293c44 45 105 73 177 73c104 0 186 -52 212 -147l-76 -15c-18 63 -70 92 -139 92c-52 0 -94 -21 -123 -53c-57 -62 -71 -153 -67 -233c35 64 112 106 195 106z
M327 59c93 0 158 68 158 155s-66 153 -158 153c-96 0 -161 -71 -161 -156c0 -90 73 -152 161 -152z" />
    <glyph glyph-name="seven.tf" 
d="M552 670v-54l-314 -616h-89l309 599h-410v71h504z" />
    <glyph glyph-name="eight.tf" 
d="M414 343c101 -26 145 -97 145 -166c0 -113 -98 -190 -245 -190c-148 0 -247 77 -247 190c0 71 46 140 145 166c-87 27 -126 91 -126 163c0 106 90 177 228 177c137 0 227 -71 227 -177c0 -71 -39 -136 -127 -163zM164 500c-1 -71 59 -118 149 -118c91 0 150 49 150 119
c0 72 -64 117 -150 117s-149 -45 -149 -118zM313 55c91 0 160 48 160 126c0 74 -63 126 -160 126c-95 0 -159 -51 -159 -127c0 -78 66 -125 159 -125z" />
    <glyph glyph-name="nine.tf" 
d="M282 682c166 0 264 -122 264 -330c0 -123 -25 -224 -91 -293c-44 -45 -105 -73 -177 -73c-104 0 -186 53 -213 148l76 14c19 -63 70 -92 140 -92c52 0 94 22 123 53c57 63 70 154 67 235c-34 -65 -112 -108 -195 -108c-142 0 -229 94 -229 221c0 129 93 225 235 225z
M283 302c97 0 161 72 161 156c0 90 -72 153 -161 153c-92 0 -158 -68 -158 -155c0 -88 66 -154 158 -154z" />
    <glyph glyph-name="zero.zero.tf" 
d="M305 683c162 0 270 -141 270 -348c0 -208 -108 -348 -270 -348c-161 0 -270 140 -270 348c0 207 109 348 270 348zM305 610c-115 0 -190 -111 -190 -275c0 -58 9 -109 27 -151l286 369c-32 37 -74 57 -123 57zM305 61c115 0 190 111 190 274c0 64 -11 120 -32 165
l-289 -372c33 -43 78 -67 131 -67z" />
    <glyph glyph-name="zero.zero" horiz-adv-x="650" 
d="M333 683c166 0 277 -141 277 -348c0 -208 -111 -348 -277 -348s-278 140 -278 348c0 207 112 348 278 348zM333 610c-120 0 -198 -111 -198 -275c0 -55 9 -105 26 -146l290 374c-32 30 -72 47 -118 47zM333 61c119 0 197 111 197 274c0 71 -15 133 -42 179l-296 -382
c34 -45 83 -71 141 -71z" />
    <glyph glyph-name="fraction" unicode="&#x2044;" horiz-adv-x="216" 
d="M-175 0l501 670h55l-501 -670h-55z" />
    <glyph glyph-name="onehalf" unicode="&#xbd;" horiz-adv-x="777" 
d="M107 593l-83 -51v62l103 66h38v-369h-58v292zM612 670l-501 -670h-55l501 670h55zM743 51v-52h-268v39l140 120c47 40 70 63 70 101c0 40 -30 68 -75 68c-49 0 -79 -33 -80 -86l-51 11c0 72 50 124 131 124c78 0 131 -45 131 -117c0 -55 -35 -92 -89 -137l-84 -71h175z
" />
    <glyph glyph-name="onequarter" unicode="&#xbc;" horiz-adv-x="702" 
d="M107 593l-83 -51v62l103 66h38v-369h-58v292zM621 670l-501 -670h-55l501 670h55zM677 83h-58v-83h-55v83h-203v54l191 232h67v-238h58v-48zM564 131v176l-146 -176h146z" />
    <glyph glyph-name="threequarters" unicode="&#xbe;" horiz-adv-x="793" 
d="M307 412c0 -65 -55 -114 -135 -114c-78 0 -139 47 -141 124l49 11c2 -56 41 -86 92 -86c48 0 80 28 80 66s-31 60 -79 60h-37v42h33c45 0 77 21 77 56c0 37 -32 62 -77 62c-47 0 -82 -28 -83 -80l-51 11c4 72 59 116 134 116c77 0 130 -45 130 -107
c0 -37 -21 -63 -55 -77c39 -14 63 -43 63 -84zM713 670l-501 -670h-55l501 670h55zM769 83h-58v-83h-55v83h-203v54l191 232h67v-238h58v-48zM656 131v176l-146 -176h146z" />
    <glyph glyph-name="oneeighth" unicode="&#x215b;" horiz-adv-x="758" 
d="M107 593l-83 -51v62l103 66h38v-369h-58v292zM616 670l-501 -670h-55l501 670h55zM648 191c53 -15 81 -49 81 -95c0 -62 -57 -106 -145 -106s-146 44 -146 106c0 47 29 81 81 95c-40 14 -67 41 -67 83c0 56 57 98 133 98c74 0 131 -42 131 -98c0 -41 -27 -69 -68 -83z
M504 268c0 -32 34 -57 80 -57c45 0 78 23 79 57c1 38 -34 61 -79 61s-80 -23 -80 -61zM584 37c50 0 85 26 85 65c0 36 -32 64 -85 64c-54 0 -87 -27 -87 -64c0 -39 35 -65 87 -65z" />
    <glyph glyph-name="threeeighths" unicode="&#x215c;" horiz-adv-x="847" 
d="M307 412c0 -65 -55 -114 -135 -114c-78 0 -139 47 -141 124l49 11c2 -56 41 -86 92 -86c48 0 80 28 80 66s-31 60 -79 60h-37v42h33c45 0 77 21 77 56c0 37 -32 62 -77 62c-47 0 -82 -28 -83 -80l-51 11c4 72 59 116 134 116c77 0 130 -45 130 -107
c0 -37 -21 -63 -55 -77c39 -14 63 -43 63 -84zM698 670l-501 -670h-55l501 670h55zM730 191c53 -15 81 -49 81 -95c0 -62 -57 -106 -145 -106s-146 44 -146 106c0 47 29 81 81 95c-40 14 -67 41 -67 83c0 56 57 98 133 98c74 0 131 -42 131 -98c0 -41 -27 -69 -68 -83z
M586 268c0 -32 34 -57 80 -57c45 0 78 23 79 57c1 38 -34 61 -79 61s-80 -23 -80 -61zM666 37c50 0 85 26 85 65c0 36 -32 64 -85 64c-54 0 -87 -27 -87 -64c0 -39 35 -65 87 -65z" />
    <glyph glyph-name="fiveeighths" unicode="&#x215d;" horiz-adv-x="829" 
d="M312 418c0 -74 -56 -124 -140 -124c-76 0 -134 47 -142 109l56 9c7 -42 43 -68 86 -68c49 0 85 27 85 72c0 43 -36 67 -84 67h-124l9 187h236v-51h-186l-4 -87h83c72 0 125 -44 125 -114zM695 670l-501 -670h-55l501 670h55zM719 191c53 -15 81 -49 81 -95
c0 -62 -57 -106 -145 -106s-146 44 -146 106c0 47 29 81 81 95c-40 14 -67 41 -67 83c0 56 57 98 133 98c74 0 131 -42 131 -98c0 -41 -27 -69 -68 -83zM575 268c0 -32 34 -57 80 -57c45 0 78 23 79 57c1 38 -34 61 -79 61s-80 -23 -80 -61zM655 37c50 0 85 26 85 65
c0 36 -32 64 -85 64c-54 0 -87 -27 -87 -64c0 -39 35 -65 87 -65z" />
    <glyph glyph-name="seveneighths" unicode="&#x215e;" horiz-adv-x="727" 
d="M208 619h-201v51h265v-44l-156 -325h-64zM595 670l-501 -670h-55l501 670h55zM617 191c53 -15 81 -49 81 -95c0 -62 -57 -106 -145 -106s-146 44 -146 106c0 47 29 81 81 95c-40 14 -67 41 -67 83c0 56 57 98 133 98c74 0 131 -42 131 -98c0 -41 -27 -69 -68 -83z
M473 268c0 -32 34 -57 80 -57c45 0 78 23 79 57c1 38 -34 61 -79 61s-80 -23 -80 -61zM553 37c50 0 85 26 85 65c0 36 -32 64 -85 64c-54 0 -87 -27 -87 -64c0 -39 35 -65 87 -65z" />
    <glyph glyph-name="zero.dnom" horiz-adv-x="392" 
d="M196 372c96 0 158 -76 158 -191s-62 -192 -158 -192c-94 0 -157 77 -157 192s63 191 157 191zM196 42c59 0 97 53 97 139c0 85 -38 139 -97 139c-57 0 -95 -54 -95 -139c0 -86 38 -139 95 -139z" />
    <glyph glyph-name="one.dnom" horiz-adv-x="231" 
d="M165 -1h-58v293l-83 -51v62l103 66h38v-370z" />
    <glyph glyph-name="two.dnom" horiz-adv-x="330" 
d="M296 51v-52h-268v39l140 120c47 40 70 63 70 101c0 40 -30 68 -75 68c-49 0 -79 -33 -80 -86l-51 11c0 72 50 124 131 124c78 0 131 -45 131 -117c0 -55 -35 -92 -89 -137l-84 -71h175z" />
    <glyph glyph-name="three.dnom" horiz-adv-x="337" 
d="M244 188c39 -14 63 -43 63 -84c0 -65 -55 -114 -135 -114c-78 0 -139 47 -141 124l49 11c2 -56 41 -86 92 -86c48 0 80 28 80 66s-31 60 -79 60h-37v42h33c45 0 77 21 77 56c0 37 -32 62 -77 62c-47 0 -82 -28 -83 -80l-51 11c4 72 59 116 134 116c77 0 130 -45 130 -107
c0 -37 -21 -63 -55 -77z" />
    <glyph glyph-name="four.dnom" horiz-adv-x="366" 
d="M341 83h-58v-83h-55v83h-203v54l191 232h67v-238h58v-48zM228 131v176l-146 -176h146z" />
    <glyph glyph-name="five.dnom" horiz-adv-x="340" 
d="M104 228h83c72 0 125 -44 125 -114c0 -74 -56 -124 -140 -124c-76 0 -134 47 -142 109l56 9c7 -42 43 -68 86 -68c49 0 85 27 85 72c0 43 -36 67 -84 67h-124l9 187h236v-51h-186z" />
    <glyph glyph-name="six.dnom" horiz-adv-x="355" 
d="M196 238c76 0 127 -52 127 -123c0 -73 -55 -125 -135 -125c-97 0 -153 67 -153 179c0 67 16 126 53 163c25 25 61 40 102 40c65 0 114 -33 126 -92l-57 -9c-8 38 -36 53 -71 53c-26 0 -47 -11 -61 -26c-25 -28 -32 -66 -34 -103c22 26 60 43 103 43zM186 37
c50 0 83 36 83 80c0 43 -34 79 -83 79c-52 0 -85 -38 -85 -80c0 -46 37 -79 85 -79z" />
    <glyph glyph-name="seven.dnom" horiz-adv-x="282" 
d="M272 369v-44l-156 -325h-64l156 318h-201v51h265z" />
    <glyph glyph-name="eight.dnom" horiz-adv-x="355" 
d="M242 191c53 -15 81 -49 81 -95c0 -62 -57 -106 -145 -106s-146 44 -146 106c0 47 29 81 81 95c-40 14 -67 41 -67 83c0 56 57 98 133 98c74 0 131 -42 131 -98c0 -41 -27 -69 -68 -83zM98 268c0 -32 34 -57 80 -57c45 0 78 23 79 57c1 38 -34 61 -79 61s-80 -23 -80 -61z
M178 37c50 0 85 26 85 65c0 36 -32 64 -85 64c-54 0 -87 -27 -87 -64c0 -39 35 -65 87 -65z" />
    <glyph glyph-name="nine.dnom" horiz-adv-x="355" 
d="M167 372c98 0 153 -66 153 -179c0 -67 -15 -125 -53 -163c-25 -25 -60 -40 -101 -40c-65 0 -115 33 -126 93l56 8c8 -37 36 -53 72 -53c26 0 47 11 61 27c24 27 32 65 34 102c-23 -26 -61 -42 -103 -42c-76 0 -127 52 -127 123c0 72 54 124 134 124zM169 167
c53 0 85 38 85 80c0 45 -37 78 -85 78c-49 0 -82 -35 -82 -79s33 -79 82 -79z" />
    <glyph glyph-name="zero.numr" horiz-adv-x="392" 
d="M196 680c96 0 158 -76 158 -191s-62 -191 -158 -191c-94 0 -157 76 -157 191s63 191 157 191zM196 350c59 0 97 53 97 139c0 85 -38 139 -97 139c-57 0 -95 -54 -95 -139c0 -86 38 -139 95 -139z" />
    <glyph glyph-name="one.numr" horiz-adv-x="231" 
d="M165 301h-58v292l-83 -51v62l103 66h38v-369z" />
    <glyph glyph-name="two.numr" horiz-adv-x="330" 
d="M296 355v-51h-268v38l140 120c47 40 70 63 70 101c0 40 -30 68 -75 68c-49 0 -79 -33 -80 -86l-51 11c0 72 50 124 131 124c78 0 131 -45 131 -117c0 -55 -35 -92 -89 -137l-85 -71h176z" />
    <glyph glyph-name="three.numr" horiz-adv-x="337" 
d="M244 496c39 -14 63 -43 63 -84c0 -65 -55 -114 -135 -114c-78 0 -139 47 -141 124l49 11c2 -56 41 -86 92 -86c48 0 80 28 80 66s-31 60 -79 60h-37v42h33c45 0 77 21 77 56c0 37 -32 62 -77 62c-47 0 -82 -28 -83 -80l-51 11c4 72 59 116 134 116c77 0 130 -45 130 -107
c0 -37 -21 -63 -55 -77z" />
    <glyph glyph-name="four.numr" horiz-adv-x="366" 
d="M341 384h-58v-83h-55v83h-203v54l191 232h67v-238h58v-48zM228 432v176l-146 -176h146z" />
    <glyph glyph-name="five.numr" horiz-adv-x="340" 
d="M104 532h83c72 0 125 -44 125 -114c0 -74 -56 -124 -140 -124c-76 0 -134 47 -142 109l56 9c7 -42 43 -68 86 -68c49 0 85 27 85 72c0 43 -36 67 -84 67h-124l9 187h236v-51h-186z" />
    <glyph glyph-name="six.numr" horiz-adv-x="355" 
d="M196 546c76 0 127 -52 127 -123c0 -73 -55 -125 -135 -125c-97 0 -153 67 -153 179c0 67 16 126 53 163c25 25 61 40 102 40c65 0 114 -33 126 -92l-57 -9c-8 38 -36 53 -71 53c-26 0 -47 -11 -61 -26c-25 -28 -32 -66 -34 -103c22 26 60 43 103 43zM186 345
c50 0 83 36 83 80c0 43 -34 79 -83 79c-52 0 -85 -38 -85 -80c0 -46 37 -79 85 -79z" />
    <glyph glyph-name="seven.numr" horiz-adv-x="282" 
d="M272 670v-44l-156 -325h-64l156 318h-201v51h265z" />
    <glyph glyph-name="eight.numr" horiz-adv-x="355" 
d="M242 499c53 -15 81 -49 81 -95c0 -62 -57 -106 -145 -106s-146 44 -146 106c0 47 29 81 81 95c-40 14 -67 41 -67 83c0 56 57 98 133 98c74 0 131 -42 131 -98c0 -41 -27 -69 -68 -83zM98 576c0 -32 34 -57 80 -57c45 0 78 23 79 57c1 38 -34 61 -79 61s-80 -23 -80 -61z
M178 345c50 0 85 26 85 65c0 36 -32 64 -85 64c-54 0 -87 -27 -87 -64c0 -39 35 -65 87 -65z" />
    <glyph glyph-name="nine.numr" horiz-adv-x="355" 
d="M167 680c98 0 153 -66 153 -179c0 -67 -15 -125 -53 -163c-25 -25 -60 -40 -101 -40c-65 0 -115 33 -126 93l56 8c8 -37 36 -53 72 -53c26 0 47 11 61 27c24 27 32 65 34 102c-23 -26 -61 -42 -103 -42c-76 0 -127 52 -127 123c0 72 54 124 134 124zM169 475
c53 0 85 38 85 80c0 45 -37 78 -85 78c-49 0 -82 -35 -82 -79s33 -79 82 -79z" />
    <glyph glyph-name="asterisk" unicode="*" horiz-adv-x="427" 
d="M265 544l120 -69l-26 -44l-118 68v-132h-55v132l-118 -68l-26 44l120 69l-120 69l26 44l118 -68v131h55v-131l118 68l26 -44z" />
    <glyph glyph-name="backslash" unicode="\" horiz-adv-x="368" 
d="M361 -72h-65l-288 813h65z" />
    <glyph glyph-name="periodcentered" unicode="&#xb7;" horiz-adv-x="204" 
d="M102 314c30 0 52 -24 52 -51c0 -28 -22 -50 -52 -50s-52 22 -52 50c0 27 22 51 52 51z" />
    <glyph glyph-name="bullet" unicode="&#x2022;" horiz-adv-x="398" 
d="M199 407c85 0 149 -67 149 -144c0 -82 -64 -143 -149 -143s-149 61 -149 143c0 77 64 144 149 144z" />
    <glyph glyph-name="colon" unicode=":" horiz-adv-x="204" 
d="M102 462c30 0 52 -24 52 -51c0 -28 -22 -50 -52 -50s-52 22 -52 50c0 27 22 51 52 51zM102 98c30 0 52 -24 52 -51c0 -28 -22 -50 -52 -50s-52 22 -52 50c0 27 22 51 52 51z" />
    <glyph glyph-name="comma" unicode="," horiz-adv-x="210" 
d="M75 -132h-60l66 263h90v-2z" />
    <glyph glyph-name="ellipsis" unicode="&#x2026;" horiz-adv-x="644" 
d="M102 98c30 0 52 -24 52 -51c0 -28 -22 -50 -52 -50s-52 22 -52 50c0 27 22 51 52 51zM322 98c30 0 52 -24 52 -51c0 -28 -22 -50 -52 -50s-52 22 -52 50c0 27 22 51 52 51zM542 98c30 0 52 -24 52 -51c0 -28 -22 -50 -52 -50s-52 22 -52 50c0 27 22 51 52 51z" />
    <glyph glyph-name="exclam" unicode="!" horiz-adv-x="269" 
d="M177 670v-31l-3 -440h-78l-2 440v31h83zM135 98c30 0 52 -24 52 -51c0 -28 -22 -50 -52 -50s-52 22 -52 50c0 27 22 51 52 51z" />
    <glyph glyph-name="exclamdown" unicode="&#xa1;" horiz-adv-x="269" 
d="M135 404c-30 0 -52 23 -52 50c0 29 22 50 52 50s52 -21 52 -50c0 -27 -22 -50 -52 -50zM94 -138l2 440h78l3 -440v-31h-83v31z" />
    <glyph glyph-name="numbersign" unicode="#" horiz-adv-x="679" 
d="M525 421l-46 -185h107l-18 -65h-106l-43 -171h-69l43 171h-188l-43 -171h-69l43 171h-107l17 65h107l47 185h-108l18 65h106l47 184h69l-47 -184h188l46 184h69l-46 -184h108l-19 -65h-106zM456 421h-187l-47 -185h188z" />
    <glyph glyph-name="period" unicode="." horiz-adv-x="204" 
d="M102 98c30 0 52 -24 52 -51c0 -28 -22 -50 -52 -50s-52 22 -52 50c0 27 22 51 52 51z" />
    <glyph glyph-name="question" unicode="?" horiz-adv-x="522" 
d="M267 683c134 0 223 -84 223 -209c0 -109 -83 -184 -200 -195v-77h-71v138h43c86 0 153 54 153 134c0 84 -59 140 -148 140c-92 0 -152 -63 -158 -157l-74 14c4 120 97 212 232 212zM254 98c30 0 52 -24 52 -51c0 -28 -22 -50 -52 -50s-52 22 -52 50c0 27 22 51 52 51z
" />
    <glyph glyph-name="questiondown" unicode="&#xbf;" horiz-adv-x="522" 
d="M269 404c-30 0 -52 23 -52 50c0 29 22 50 52 50s52 -21 52 -50c0 -27 -22 -50 -52 -50zM414 45l73 -14c-4 -121 -96 -213 -232 -213c-133 0 -222 84 -222 209c0 109 83 184 199 195v77h72v-137h-44c-86 0 -153 -54 -153 -135c0 -84 60 -140 148 -140c92 0 153 63 159 158
z" />
    <glyph glyph-name="quotedbl" unicode="&#x22;" horiz-adv-x="338" 
d="M55 392v278h78v-278h-78zM205 392v278h78v-278h-78z" />
    <glyph glyph-name="quotesingle" unicode="'" horiz-adv-x="188" 
d="M55 392v278h78v-278h-78z" />
    <glyph glyph-name="semicolon" unicode=";" horiz-adv-x="231" 
d="M129 462c30 0 52 -24 52 -51c0 -28 -22 -50 -52 -50s-52 22 -52 50c0 27 22 51 52 51zM75 -132h-60l66 263h90v-2z" />
    <glyph glyph-name="slash" unicode="/" horiz-adv-x="368" 
d="M361 741l-288 -813h-65l288 813h65z" />
    <glyph glyph-name="underscore" unicode="_" horiz-adv-x="505" 
d="M485 -121h-465v65h465v-65z" />
    <glyph glyph-name="backslash.case" horiz-adv-x="368" 
d="M340 0h-75l-237 670h75z" />
    <glyph glyph-name="periodcentered.case" horiz-adv-x="204" 
d="M102 379c30 0 52 -24 52 -51c0 -28 -22 -50 -52 -50s-52 22 -52 50c0 27 22 51 52 51z" />
    <glyph glyph-name="bullet.case" horiz-adv-x="398" 
d="M199 475c85 0 149 -67 149 -144c0 -82 -64 -143 -149 -143s-149 61 -149 143c0 77 64 144 149 144z" />
    <glyph glyph-name="colon.case" horiz-adv-x="204" 
d="M102 542c30 0 52 -24 52 -51c0 -28 -22 -50 -52 -50s-52 22 -52 50c0 27 22 51 52 51zM102 203c30 0 52 -24 52 -51c0 -28 -22 -50 -52 -50s-52 22 -52 50c0 27 22 51 52 51z" />
    <glyph glyph-name="exclamdown.case" horiz-adv-x="269" 
d="M135 573c-30 0 -52 23 -52 50c0 29 22 50 52 50s52 -21 52 -50c0 -27 -22 -50 -52 -50zM94 31l2 440h78l3 -440v-31h-83v31z" />
    <glyph glyph-name="questiondown.case" horiz-adv-x="522" 
d="M269 575c-30 0 -52 24 -52 51c0 28 22 50 52 50s52 -22 52 -50c0 -27 -22 -51 -52 -51zM414 216l73 -14c-4 -120 -96 -212 -232 -212c-133 0 -222 84 -222 209c0 108 83 184 199 195v77h72v-138h-44c-86 0 -153 -54 -153 -134c0 -84 60 -140 148 -140
c92 0 153 63 159 157z" />
    <glyph glyph-name="semicolon.case" horiz-adv-x="231" 
d="M129 542c30 0 52 -24 52 -51c0 -28 -22 -50 -52 -50s-52 22 -52 50c0 27 22 51 52 51zM75 -132h-60l66 263h90v-2z" />
    <glyph glyph-name="slash.case" horiz-adv-x="408" 
d="M110 0h-70l257 670h71z" />
    <glyph glyph-name="braceleft" unicode="{" horiz-adv-x="430" 
d="M227 608v-168c0 -53 -26 -93 -67 -111c41 -18 67 -57 67 -110v-168c0 -41 26 -68 65 -68h83v-65h-92c-78 0 -130 50 -130 126v167c0 50 -35 77 -85 84l-23 5v59l23 5c50 6 85 33 85 84v167c0 75 52 126 130 126h92v-66h-83c-39 0 -65 -27 -65 -67z" />
    <glyph glyph-name="braceright" unicode="}" horiz-adv-x="430" 
d="M385 359v-59l-23 -5c-50 -7 -85 -34 -85 -84v-167c0 -76 -52 -126 -130 -126h-92v65h83c39 0 65 27 65 68v168c0 53 26 92 67 110c-41 18 -67 58 -67 111v168c0 40 -26 67 -65 67h-83v66h92c78 0 130 -51 130 -126v-167c0 -51 35 -78 85 -84z" />
    <glyph glyph-name="bracketleft" unicode="[" horiz-adv-x="391" 
d="M162 674v-690h174v-66h-248v823h248v-67h-174z" />
    <glyph glyph-name="bracketright" unicode="]" horiz-adv-x="391" 
d="M304 741v-823h-249v66h174v690h-174v67h249z" />
    <glyph glyph-name="parenleft" unicode="(" horiz-adv-x="353" 
d="M137 335c0 -134 39 -249 161 -370l-54 -47c-136 125 -189 265 -189 417s53 292 189 417l54 -48c-122 -120 -161 -235 -161 -369z" />
    <glyph glyph-name="parenright" unicode=")" horiz-adv-x="353" 
d="M55 704l54 48c136 -125 189 -265 189 -417s-53 -292 -189 -417l-54 47c122 121 161 236 161 370s-39 249 -161 369z" />
    <glyph glyph-name="braceleft.case" horiz-adv-x="430" 
d="M227 537v-94c0 -52 -25 -92 -67 -110c42 -18 67 -58 67 -112v-87c0 -42 26 -68 65 -68h83v-66h-92c-78 0 -130 50 -130 127v86c0 51 -35 79 -85 85l-23 5v59l23 5c50 7 85 34 85 84v93c0 76 52 126 130 126h92v-65h-83c-39 0 -65 -27 -65 -68z" />
    <glyph glyph-name="braceright.case" horiz-adv-x="430" 
d="M385 362v-59l-23 -5c-50 -6 -85 -34 -85 -85v-86c0 -77 -52 -127 -130 -127h-92v66h83c39 0 65 26 65 68v87c0 54 25 94 67 112c-42 18 -67 58 -67 110v94c0 41 -26 68 -65 68h-83v65h92c78 0 130 -50 130 -126v-93c0 -50 35 -77 85 -84z" />
    <glyph glyph-name="bracketleft.case" horiz-adv-x="391" 
d="M162 604v-537h174v-67h-248v670h248v-66h-174z" />
    <glyph glyph-name="bracketright.case" horiz-adv-x="391" 
d="M304 670v-670h-249v67h174v537h-174v66h249z" />
    <glyph glyph-name="parenleft.case" horiz-adv-x="326" 
d="M224 683l47 -46c-95 -96 -134 -191 -134 -302c0 -112 39 -206 134 -302l-47 -46c-121 104 -169 221 -169 348s48 244 169 348z" />
    <glyph glyph-name="parenright.case" horiz-adv-x="326" 
d="M55 637l47 46c122 -104 169 -221 169 -348s-47 -244 -169 -348l-47 46c96 96 134 190 134 302c0 111 -38 206 -134 302z" />
    <glyph glyph-name="emdash" unicode="&#x2014;" horiz-adv-x="1040" 
d="M980 225h-920v60h920v-60z" />
    <glyph glyph-name="endash" unicode="&#x2013;" horiz-adv-x="620" 
d="M560 225h-500v60h500v-60z" />
    <glyph glyph-name="hyphen" unicode="-" horiz-adv-x="443" 
d="M383 222h-323v67h323v-67z" />
    <glyph glyph-name="emdash.case" horiz-adv-x="1040" 
d="M980 303h-920v60h920v-60z" />
    <glyph glyph-name="endash.case" horiz-adv-x="620" 
d="M560 303h-500v60h500v-60z" />
    <glyph glyph-name="hyphen.case" horiz-adv-x="443" 
d="M383 299h-323v67h323v-67z" />
    <glyph glyph-name="guillemotleft" unicode="&#xab;" horiz-adv-x="415" 
d="M25 262l122 178h78l-122 -178l122 -178h-78zM190 262l122 178h78l-122 -178l122 -178h-78z" />
    <glyph glyph-name="guillemotright" unicode="&#xbb;" horiz-adv-x="415" 
d="M25 84l122 178l-122 178h78l122 -178l-122 -178h-78zM190 84l122 178l-122 178h78l122 -178l-122 -178h-78z" />
    <glyph glyph-name="guilsinglleft" unicode="&#x2039;" horiz-adv-x="250" 
d="M25 262l122 178h78l-122 -178l122 -178h-78z" />
    <glyph glyph-name="guilsinglright" unicode="&#x203a;" horiz-adv-x="250" 
d="M25 84l122 178l-122 178h78l122 -178l-122 -178h-78z" />
    <glyph glyph-name="quotedblbase" unicode="&#x201e;" horiz-adv-x="415" 
d="M107 -132h-59l66 263h90v-2zM272 -132h-59l66 263h90v-2z" />
    <glyph glyph-name="quotedblleft" unicode="&#x201c;" horiz-adv-x="415" 
d="M143 670h60l-66 -263h-90v3zM308 670h60l-66 -263h-90v3z" />
    <glyph glyph-name="quotedblright" unicode="&#x201d;" horiz-adv-x="415" 
d="M107 407h-59l66 263h90v-2zM272 407h-59l66 263h90v-2z" />
    <glyph glyph-name="quoteleft" unicode="&#x2018;" horiz-adv-x="250" 
d="M143 670h60l-66 -263h-90v3z" />
    <glyph glyph-name="quoteright" unicode="&#x2019;" horiz-adv-x="250" 
d="M107 407h-59l66 263h90v-2z" />
    <glyph glyph-name="quotesinglbase" unicode="&#x201a;" horiz-adv-x="250" 
d="M107 -132h-59l66 263h90v-2z" />
    <glyph glyph-name="guillemotleft.case" horiz-adv-x="415" 
d="M25 322l122 178h78l-122 -178l122 -178h-78zM190 322l122 178h78l-122 -178l122 -178h-78z" />
    <glyph glyph-name="guillemotright.case" horiz-adv-x="415" 
d="M26 144l122 178l-122 178h77l122 -178l-122 -178h-77zM191 144l122 178l-122 178h77l122 -178l-122 -178h-77z" />
    <glyph glyph-name="guilsinglleft.case" horiz-adv-x="250" 
d="M25 322l122 178h78l-122 -178l122 -178h-78z" />
    <glyph glyph-name="guilsinglright.case" horiz-adv-x="250" 
d="M25 144l122 178l-122 178h78l122 -178l-122 -178h-78z" />
    <glyph glyph-name="space" unicode=" " horiz-adv-x="252" 
 />
    <glyph glyph-name="cent" unicode="&#xa2;" horiz-adv-x="576" 
d="M325 433v-374c63 8 117 45 138 110l70 -19c-25 -93 -108 -152 -206 -162v-118h-66v120c-121 17 -218 114 -218 256c0 140 97 239 218 256v128h66v-126c97 -10 180 -71 207 -163l-73 -22c-19 67 -73 106 -136 114zM117 246c0 -101 63 -170 147 -185v371
c-84 -16 -147 -87 -147 -186z" />
    <glyph glyph-name="dollar" unicode="$" horiz-adv-x="588" 
d="M534 197c0 -107 -83 -176 -203 -183v-114h-67v116c-112 14 -203 83 -212 192l77 16c8 -82 66 -128 138 -140v226l-45 10c-83 17 -152 61 -152 157c0 103 79 171 194 180v113h67v-115c110 -13 184 -84 193 -180l-76 -15c-6 73 -57 116 -120 128v-218l50 -11
c86 -18 156 -62 156 -162zM267 384v207c-71 -8 -118 -49 -118 -109c0 -56 39 -79 94 -92zM328 296v-215c80 6 131 50 131 113c0 56 -37 82 -100 95z" />
    <glyph glyph-name="Euro" unicode="&#x20ac;" horiz-adv-x="792" 
d="M660 235l77 -18c-33 -139 -132 -229 -265 -229c-137 0 -236 94 -267 242h-117v58h108c-1 15 -2 31 -2 47c0 14 1 28 2 42h-108v58h115c31 151 131 248 269 248c133 0 232 -91 264 -231l-79 -17c-25 113 -96 175 -185 175c-94 0 -162 -68 -187 -175h256l-15 -58h-250
c-1 -14 -2 -28 -2 -42c0 -16 1 -32 2 -47h227l-14 -58h-203c27 -103 94 -168 186 -168c89 0 158 60 188 173z" />
    <glyph glyph-name="florin" unicode="&#x192;" horiz-adv-x="552" 
d="M417 614c-63 0 -108 -42 -120 -110l-25 -139h188v-64h-200l-59 -327c-16 -85 -77 -139 -159 -139c-37 0 -61 10 -82 25l27 61c17 -9 38 -14 56 -14c42 0 75 27 82 67l59 327h-120v64h132l25 139c19 108 94 178 201 178c48 0 83 -14 112 -38l-29 -61c-23 20 -55 31 -88 31
z" />
    <glyph glyph-name="sterling" unicode="&#xa3;" horiz-adv-x="643" 
d="M595 72v-72h-540v49l85 17v206h-85v71h85v118c0 132 91 222 226 222s220 -90 225 -221l-74 -15c-5 102 -62 160 -151 160c-88 0 -147 -58 -147 -146v-118h234v-71h-234v-200h376z" />
    <glyph glyph-name="yen" unicode="&#xa5;" horiz-adv-x="666" 
d="M404 313h161v-60h-194v-75h194v-60h-194v-118h-79v118h-190v60h190v75h-190v60h157l-229 357h88l214 -338l213 338h91z" />
    <glyph glyph-name="cent.tf" 
d="M325 433v-374c63 8 117 45 138 110l70 -19c-25 -93 -108 -152 -206 -162v-118h-66v120c-121 17 -218 114 -218 256c0 140 97 239 218 256v128h66v-126c97 -10 180 -71 207 -163l-73 -22c-19 67 -73 106 -136 114zM117 246c0 -101 63 -170 147 -185v371
c-84 -16 -147 -87 -147 -186z" />
    <glyph glyph-name="dollar.tf" 
d="M544 197c0 -107 -83 -176 -203 -183v-114h-67v116c-112 14 -203 83 -212 192l77 16c8 -82 66 -128 138 -140v226l-45 10c-83 17 -152 61 -152 157c0 103 79 171 194 180v113h67v-115c110 -13 184 -84 193 -180l-76 -15c-6 73 -57 116 -120 128v-218l50 -11
c86 -18 156 -62 156 -162zM277 384v207c-71 -8 -118 -49 -118 -109c0 -56 39 -79 94 -92zM338 296v-215c80 6 131 50 131 113c0 56 -37 82 -100 95z" />
    <glyph glyph-name="Euro.tf" 
d="M330 61c81 0 141 61 171 169l78 -16c-31 -136 -124 -227 -249 -227c-131 0 -225 89 -254 243h-56v58h49c-1 15 -2 31 -2 47c0 14 0 28 1 42h-48v58h55c28 157 123 248 255 248c125 0 218 -91 249 -230l-78 -15c-26 110 -90 172 -171 172c-87 0 -151 -63 -174 -175h238
l-15 -58h-230c-1 -13 -2 -27 -2 -42c0 -16 1 -32 2 -47h209l-13 -58h-188c24 -109 88 -169 173 -169z" />
    <glyph glyph-name="florin.tf" 
d="M474 614c-63 0 -108 -42 -120 -110l-25 -139h188v-64h-200l-59 -327c-16 -85 -77 -139 -159 -139c-37 0 -60 10 -82 25l27 61c17 -9 38 -14 56 -14c42 0 75 27 82 67l59 327h-120v64h132l25 139c19 108 94 178 201 178c48 0 83 -14 112 -38l-29 -61c-23 20 -55 31 -88 31
z" />
    <glyph glyph-name="sterling.tf" 
d="M566 72v-72h-530v49l84 17v206h-84v71h84v123c0 129 89 217 221 217s216 -85 221 -215l-72 -13c-7 101 -63 152 -149 152c-85 0 -142 -56 -142 -141v-123h227v-71h-227v-200h367z" />
    <glyph glyph-name="yen.tf" 
d="M374 313h151v-60h-182v-75h182v-60h-182v-118h-79v118h-178v60h178v75h-178v60h147l-216 357h88l199 -338l198 338h91z" />
    <glyph glyph-name="approxequal" unicode="&#x2248;" horiz-adv-x="580" 
d="M510 433v-68c-24 -13 -60 -21 -98 -21c-101 0 -133 54 -229 54c-37 0 -86 -9 -113 -33v66c26 21 72 32 113 32c97 0 136 -55 230 -55c33 0 72 8 97 25zM510 274v-67c-24 -13 -60 -22 -98 -22c-101 0 -133 55 -229 55c-37 0 -86 -10 -113 -33v66c26 21 72 32 113 32
c97 0 136 -55 230 -55c33 0 72 8 97 24z" />
    <glyph glyph-name="asciitilde" unicode="~" horiz-adv-x="476" 
d="M108 238h-63c0 94 58 128 111 128c77 0 102 -64 157 -64c34 0 54 25 53 63h67c0 -95 -61 -130 -115 -130c-77 0 -102 64 -156 64c-35 0 -57 -25 -54 -61z" />
    <glyph glyph-name="divide" unicode="&#xf7;" horiz-adv-x="580" 
d="M288 535c30 0 52 -23 52 -50c0 -29 -22 -50 -52 -50s-52 21 -52 50c0 27 22 50 52 50zM510 271h-440v68h440v-68zM288 176c30 0 52 -23 52 -50c0 -29 -22 -50 -52 -50s-52 21 -52 50c0 27 22 50 52 50z" />
    <glyph glyph-name="equal" unicode="=" horiz-adv-x="580" 
d="M510 379h-440v68h440v-68zM510 190h-440v68h440v-68z" />
    <glyph glyph-name="greater" unicode="&#x3e;" horiz-adv-x="437" 
d="M314 317l-274 116v82l367 -160v-76l-367 -159v80z" />
    <glyph glyph-name="greaterequal" unicode="&#x2265;" horiz-adv-x="422" 
d="M303 361l-263 90v79l352 -134v-70l-352 -134v77zM390 89h-350v68h350v-68z" />
    <glyph glyph-name="less" unicode="&#x3c;" horiz-adv-x="437" 
d="M398 120l-366 159v76l366 160v-82l-274 -116l274 -117v-80z" />
    <glyph glyph-name="lessequal" unicode="&#x2264;" horiz-adv-x="422" 
d="M383 192l-351 134v70l351 134v-79l-263 -90l263 -92v-77zM383 157v-68h-349v68h349z" />
    <glyph glyph-name="minus" unicode="&#x2212;" horiz-adv-x="580" 
d="M510 271h-440v68h440v-68z" />
    <glyph glyph-name="multiply" unicode="&#xd7;" horiz-adv-x="507" 
d="M303 305l141 -141l-49 -49l-141 141l-142 -141l-49 49l141 141l-141 141l49 50l142 -141l141 141l49 -50z" />
    <glyph glyph-name="notequal" unicode="&#x2260;" horiz-adv-x="580" 
d="M363 379l-74 -121h221v-68h-262l-54 -89h-71l54 89h-107v68h148l73 121h-221v68h262l55 91h72l-55 -91h106v-68h-147z" />
    <glyph glyph-name="percent" unicode="%" horiz-adv-x="847" 
d="M215 683c87 0 164 -61 164 -160c0 -95 -77 -158 -164 -158s-165 63 -165 158c0 99 78 160 165 160zM139 0l501 670h55l-501 -670h-55zM215 629c-54 0 -107 -40 -107 -105s53 -105 107 -105c53 0 105 40 105 105s-52 105 -105 105zM633 306c87 0 164 -61 164 -160
c0 -95 -77 -159 -164 -159s-165 64 -165 159c0 99 78 160 165 160zM633 252c-54 0 -107 -40 -107 -105s53 -105 107 -105c53 0 105 40 105 105s-52 105 -105 105z" />
    <glyph glyph-name="perthousand" unicode="&#x2030;" horiz-adv-x="1237" 
d="M215 683c87 0 164 -61 164 -160c0 -95 -77 -158 -164 -158s-165 63 -165 158c0 99 78 160 165 160zM141 0l501 670h55l-501 -670h-55zM215 629c-54 0 -107 -40 -107 -105s53 -105 107 -105c53 0 105 40 105 105s-52 105 -105 105zM633 306c87 0 164 -61 164 -160
c0 -95 -77 -159 -164 -159s-165 64 -165 159c0 99 78 160 165 160zM1023 306c87 0 164 -61 164 -160c0 -95 -77 -159 -164 -159s-165 64 -165 159c0 99 78 160 165 160zM633 252c-54 0 -107 -40 -107 -105s53 -105 107 -105c53 0 105 40 105 105s-52 105 -105 105zM1023 252
c-54 0 -107 -40 -107 -105s53 -105 107 -105c53 0 105 40 105 105s-52 105 -105 105z" />
    <glyph glyph-name="plus" unicode="+" horiz-adv-x="580" 
d="M510 271h-186v-188h-68v188h-186v68h186v188h68v-188h186v-68z" />
    <glyph glyph-name="plusminus" unicode="&#xb1;" horiz-adv-x="580" 
d="M510 394v-68h-186v-168h-68v168h-186v68h186v178h68v-178h186zM70 68h440v-68h-440v68z" />
    <glyph glyph-name="approxequal.tf" 
d="M525 433v-68c-24 -13 -60 -21 -98 -21c-101 0 -133 54 -229 54c-37 0 -86 -9 -113 -33v66c26 21 72 32 113 32c97 0 136 -55 230 -55c33 0 72 8 97 25zM525 274v-67c-24 -13 -60 -22 -98 -22c-101 0 -133 55 -229 55c-37 0 -86 -10 -113 -33v66c26 21 72 32 113 32
c97 0 136 -55 230 -55c33 0 72 8 97 24z" />
    <glyph glyph-name="divide.tf" 
d="M303 530c30 0 52 -23 52 -50c0 -29 -22 -50 -52 -50s-52 21 -52 50c0 27 22 50 52 50zM525 271h-440v68h440v-68zM303 171c30 0 52 -23 52 -50c0 -29 -22 -50 -52 -50s-52 21 -52 50c0 27 22 50 52 50z" />
    <glyph glyph-name="equal.tf" 
d="M525 379h-440v68h440v-68zM525 190h-440v68h440v-68z" />
    <glyph glyph-name="greater.tf" 
d="M409 317l-274 116v82l366 -160v-76l-366 -159v80z" />
    <glyph glyph-name="greaterequal.tf" 
d="M398 361l-263 90v79l352 -134v-70l-352 -134v77zM485 89h-350v68h350v-68z" />
    <glyph glyph-name="less.tf" 
d="M476 120l-367 159v76l367 160v-82l-274 -116l274 -117v-80z" />
    <glyph glyph-name="lessequal.tf" 
d="M476 192l-351 134v70l351 134v-79l-263 -90l263 -92v-77zM476 157v-68h-349v68h349z" />
    <glyph glyph-name="minus.tf" 
d="M525 271h-440v68h440v-68z" />
    <glyph glyph-name="multiply.tf" 
d="M354 305l141 -141l-49 -49l-141 141l-142 -141l-49 49l141 141l-141 141l49 50l142 -141l141 141l49 -50z" />
    <glyph glyph-name="notequal.tf" 
d="M378 379l-74 -121h221v-68h-262l-54 -89h-71l54 89h-107v68h148l73 121h-221v68h262l55 91h72l-55 -91h106v-68h-147z" />
    <glyph glyph-name="plus.tf" 
d="M525 271h-186v-188h-68v188h-186v68h186v188h68v-188h186v-68z" />
    <glyph glyph-name="plusminus.tf" 
d="M525 394v-68h-186v-168h-68v168h-186v68h186v178h68v-178h186zM85 68h440v-68h-440v68z" />
    <glyph glyph-name="arrowup" unicode="&#x2191;" horiz-adv-x="748" 
d="M651 288l-237 237v-525h-79v526l-238 -239l-57 56l334 334l334 -333z" />
    <glyph glyph-name="uni2197" unicode="&#x2197;" horiz-adv-x="746" 
d="M716 670v-492h-79v357l-541 -542l-56 57l542 541h-357v79h491z" />
    <glyph glyph-name="arrowright" unicode="&#x2192;" horiz-adv-x="727" 
d="M717 324l-333 -334l-56 57l238 238h-526v79h525l-238 238l56 56z" />
    <glyph glyph-name="uni2198" unicode="&#x2198;" horiz-adv-x="746" 
d="M716 493v-493h-491v79h357l-542 542l56 56l541 -541v357h79z" />
    <glyph glyph-name="arrowdown" unicode="&#x2193;" horiz-adv-x="748" 
d="M708 327l-334 -334l-334 334l57 56l238 -239v526h79v-525l237 238z" />
    <glyph glyph-name="uni2199" unicode="&#x2199;" horiz-adv-x="746" 
d="M165 79h357v-79h-492v493h79v-358l542 542l55 -56z" />
    <glyph glyph-name="arrowleft" unicode="&#x2190;" horiz-adv-x="727" 
d="M687 285h-526l239 -238l-56 -57l-334 334l334 334l56 -56l-238 -238h525v-79z" />
    <glyph glyph-name="uni2196" unicode="&#x2196;" horiz-adv-x="746" 
d="M651 -7l-542 543v-358h-79v492h492v-79h-357l541 -541z" />
    <glyph glyph-name="bar" unicode="|" horiz-adv-x="250" 
d="M162 -72h-74v813h74v-813z" />
    <glyph glyph-name="at" unicode="@" horiz-adv-x="959" 
d="M663 473v-295c0 -40 31 -66 72 -66c75 0 107 97 107 186c0 199 -158 337 -359 337c-209 0 -365 -151 -365 -356c0 -206 158 -356 353 -356c78 0 173 24 239 70l27 -43c-68 -49 -175 -77 -265 -77c-224 0 -407 169 -407 405c0 234 180 405 418 405
c229 0 411 -160 411 -383c0 -111 -44 -234 -166 -234c-63 0 -104 31 -115 80c-33 -48 -87 -76 -153 -76c-112 0 -200 81 -200 205c0 125 90 206 199 206c64 0 117 -28 151 -75v67h53zM466 122c77 0 144 59 144 154c0 93 -67 151 -144 151s-145 -57 -145 -151
c0 -95 68 -154 145 -154z" />
    <glyph glyph-name="ampersand" unicode="&#x26;" horiz-adv-x="711" 
d="M641 -20l-113 96c-55 -59 -133 -89 -216 -89c-149 0 -248 80 -248 200c0 83 54 146 129 182c-40 46 -57 88 -57 138c0 105 81 176 193 176c110 0 182 -67 196 -176l-72 -14c-8 89 -58 125 -124 125c-69 0 -119 -43 -119 -112c0 -66 43 -113 145 -196l158 -132
c15 33 24 73 24 119v43h68v-43c0 -65 -14 -120 -38 -165l119 -99zM312 53c60 0 119 23 162 68l-177 150c-22 18 -42 35 -60 51c-61 -28 -99 -76 -99 -135c0 -81 70 -134 174 -134z" />
    <glyph glyph-name="paragraph" unicode="&#xb6;" horiz-adv-x="561" 
d="M340 0h-61v299h-50c-118 0 -209 72 -209 189c0 121 79 182 195 182h125v-670zM473 0h-61v670h61v-670z" />
    <glyph glyph-name="copyright" unicode="&#xa9;" horiz-adv-x="775" 
d="M386 683c190 0 347 -146 347 -350c0 -201 -157 -346 -347 -346s-347 145 -347 346c0 204 157 350 347 350zM386 645c-167 0 -306 -130 -306 -311c0 -179 139 -308 306 -308s306 129 306 308c0 181 -139 311 -306 311zM392 523c94 0 165 -57 177 -133l-53 -11
c-14 56 -66 92 -124 92c-74 0 -132 -56 -132 -136c0 -81 58 -137 132 -137c58 0 112 36 124 95l53 -10c-13 -80 -83 -137 -177 -137c-102 0 -189 75 -189 189c0 113 87 188 189 188z" />
    <glyph glyph-name="registered" unicode="&#xae;" horiz-adv-x="500" 
d="M250 683c110 0 200 -84 200 -201c0 -116 -90 -200 -200 -200s-200 84 -200 200c0 117 90 201 200 201zM250 310c95 0 172 73 172 172c0 101 -77 174 -172 174c-94 0 -171 -73 -171 -174c0 -99 77 -172 171 -172zM336 521c0 -31 -22 -55 -55 -61l66 -67h-36l-63 65h-41
v-65h-28v189h83c45 0 74 -24 74 -61zM207 484h54c28 0 47 15 47 37s-18 36 -46 36h-55v-73z" />
    <glyph glyph-name="uni2117" unicode="&#x2117;" horiz-adv-x="775" 
d="M386 683c190 0 347 -146 347 -350c0 -201 -157 -346 -347 -346s-347 145 -347 346c0 204 157 350 347 350zM386 26c167 0 306 129 306 308c0 181 -139 311 -306 311s-306 -130 -306 -311c0 -179 139 -308 306 -308zM260 517h161c85 0 140 -50 140 -125
c0 -76 -55 -126 -140 -126h-112v-121h-49v372zM309 311h109c57 0 95 32 95 81c0 48 -38 80 -95 80h-109v-161z" />
    <glyph glyph-name="section" unicode="&#xa7;" horiz-adv-x="532" 
d="M492 236c0 -69 -39 -112 -84 -133c25 -27 36 -57 36 -93c0 -95 -78 -151 -185 -151c-131 0 -204 71 -204 176l67 14c3 -84 50 -130 134 -130c67 0 113 38 113 93c0 35 -19 62 -68 84l-148 65c-84 36 -120 77 -120 144c0 70 41 112 85 133c-26 27 -37 58 -37 93
c0 95 77 152 185 152c123 0 195 -73 197 -173l-68 -14c-2 80 -49 125 -125 125c-68 0 -114 -37 -114 -92c0 -35 19 -61 68 -83l148 -66c84 -36 120 -77 120 -144zM335 151l20 -10c43 20 66 46 66 90c0 36 -18 62 -81 92l-149 67c-8 3 -15 7 -22 11c-40 -17 -65 -46 -65 -91
c0 -36 18 -62 81 -91z" />
    <glyph glyph-name="trademark" unicode="&#x2122;" horiz-adv-x="650" 
d="M270 630h-93v-226h-48v226h-91v40h232v-40zM603 404h-45v179l-86 -177h-30l-86 177v-179h-45v266h51l95 -190l96 190h50v-266z" />
    <glyph glyph-name="degree" unicode="&#xb0;" horiz-adv-x="407" 
d="M204 683c73 0 136 -52 136 -133c0 -79 -63 -131 -136 -131s-136 52 -136 131c0 81 63 133 136 133zM204 469c41 0 81 32 81 82s-40 82 -81 82s-81 -32 -81 -82s40 -82 81 -82z" />
    <glyph glyph-name="uni2116" unicode="&#x2116;" horiz-adv-x="1223" 
d="M962 342c-91 0 -171 68 -171 169s80 169 171 169c95 0 173 -68 173 -169s-78 -169 -173 -169zM594 670h79v-670h-68l-438 532v-532h-79v670h68l438 -538v538zM962 622c-56 0 -108 -45 -108 -111s52 -111 108 -111c60 0 111 45 111 111s-51 111 -111 111zM801 265h324v-64
h-324v64z" />
    <glyph glyph-name="asciicircum" unicode="^" horiz-adv-x="394" 
d="M95 456h-70l145 214h54l145 -214h-70l-102 148z" />
    <glyph glyph-name="dagger" unicode="&#x2020;" horiz-adv-x="358" 
d="M318 650v-52h-111v-241h-56v241h-111v52h111v90h56v-90h111z" />
    <glyph glyph-name="daggerdbl" unicode="&#x2021;" horiz-adv-x="358" 
d="M207 598v-99h111v-52h-111v-90h-56v90h-111v52h111v99h-111v52h111v90h56v-90h111v-52h-111z" />
    <glyph glyph-name="bar.case" horiz-adv-x="250" 
d="M162 -41h-74v752h74v-752z" />
    <glyph glyph-name="at.case" horiz-adv-x="959" 
d="M663 513v-295c0 -40 31 -66 72 -66c75 0 107 97 107 186c0 199 -158 337 -359 337c-209 0 -365 -151 -365 -356c0 -206 158 -356 353 -356c78 0 173 24 239 71l27 -44c-68 -49 -175 -77 -265 -77c-224 0 -407 169 -407 405c0 234 180 405 418 405
c229 0 411 -160 411 -383c0 -111 -44 -234 -166 -234c-63 0 -104 31 -115 80c-33 -48 -87 -76 -153 -76c-112 0 -200 81 -200 205c0 125 90 206 199 206c64 0 117 -28 151 -75v67h53zM466 162c77 0 144 59 144 154c0 93 -67 151 -144 151s-145 -57 -145 -151
c0 -95 68 -154 145 -154z" />
    <glyph glyph-name="acute" unicode="&#xb4;" horiz-adv-x="600" 
d="M314 567h-67l80 140h89z" />
    <glyph glyph-name="breve" unicode="&#x2d8;" horiz-adv-x="600" 
d="M300 554c-86 0 -145 53 -145 135h64c0 -49 36 -80 81 -80s81 31 81 80h64c0 -82 -58 -135 -145 -135z" />
    <glyph glyph-name="caron" unicode="&#x2c7;" horiz-adv-x="600" 
d="M454 702l-117 -142h-73l-116 142h77l76 -92l75 92h78z" />
    <glyph glyph-name="cedilla" unicode="&#xb8;" horiz-adv-x="600" 
d="M293 0h59l-77 -170h-83z" />
    <glyph glyph-name="circumflex" unicode="&#x2c6;" horiz-adv-x="600" 
d="M376 559l-75 93l-76 -93h-77l116 142h73l117 -142h-78z" />
    <glyph glyph-name="dieresis" unicode="&#xa8;" horiz-adv-x="600" 
d="M201 679c30 0 53 -24 53 -51c0 -29 -23 -51 -53 -51s-52 22 -52 51c0 27 22 51 52 51zM399 679c30 0 53 -24 53 -51c0 -29 -23 -51 -53 -51s-52 22 -52 51c0 27 22 51 52 51z" />
    <glyph glyph-name="dotaccent" unicode="&#x2d9;" horiz-adv-x="600" 
d="M300 684c30 0 52 -23 52 -49c0 -29 -22 -50 -52 -50c-29 0 -51 21 -51 50c0 26 22 49 51 49z" />
    <glyph glyph-name="grave" unicode="`" horiz-adv-x="600" 
d="M259 707l79 -140h-66l-102 140h89z" />
    <glyph glyph-name="hungarumlaut" unicode="&#x2dd;" horiz-adv-x="600" 
d="M219 567h-70l79 140h95zM373 567h-70l79 140h95z" />
    <glyph glyph-name="macron" unicode="&#xaf;" horiz-adv-x="600" 
d="M442 584h-284v62h284v-62z" />
    <glyph glyph-name="ogonek" unicode="&#x2db;" horiz-adv-x="600" 
d="M268 3l54 -3c-49 -51 -69 -73 -69 -105c0 -31 21 -40 42 -40c14 0 26 4 46 10l6 -50c-26 -10 -48 -15 -68 -15c-40 0 -84 21 -84 83c0 39 18 71 73 120z" />
    <glyph glyph-name="ring" unicode="&#x2da;" horiz-adv-x="600" 
d="M404 650c0 -56 -46 -101 -104 -101s-103 45 -103 101c0 55 45 100 103 100s104 -45 104 -100zM356 650c0 29 -24 54 -56 54c-31 0 -56 -25 -56 -54c0 -30 25 -54 56 -54c32 0 56 24 56 54z" />
    <glyph glyph-name="tilde" unicode="&#x2dc;" horiz-adv-x="600" 
d="M207 593h-54c0 75 44 102 87 102c60 0 77 -48 122 -48c23 0 37 19 37 47h54c0 -76 -44 -104 -87 -104c-60 0 -77 48 -122 48c-23 0 -37 -19 -37 -45z" />
    <glyph glyph-name="caron.alt" horiz-adv-x="600" 
d="M328 478h-61v172h77z" />
    <glyph glyph-name="uni0326" unicode="&#x326;" horiz-adv-x="0" 
d="M218 -188l48 143h83l-71 -143h-60z" />
    </font>
</defs>
</svg>
