<?xml version="1.0" encoding="UTF-8" standalone="no"?>
<svg
   xmlns:dc="http://purl.org/dc/elements/1.1/"
   xmlns:cc="http://creativecommons.org/ns#"
   xmlns:rdf="http://www.w3.org/1999/02/22-rdf-syntax-ns#"
   xmlns:svg="http://www.w3.org/2000/svg"
   xmlns="http://www.w3.org/2000/svg"
   xmlns:sodipodi="http://sodipodi.sourceforge.net/DTD/sodipodi-0.dtd"
   xmlns:inkscape="http://www.inkscape.org/namespaces/inkscape"
   width="29"
   height="30"
   viewBox="0 0 29 30"
   fill="none"
   version="1.1"
   id="svg14"
   sodipodi:docname="download.svg"
   inkscape:version="0.92.5 (2060ec1f9f, 2020-04-08)">
  <metadata
     id="metadata20">
    <rdf:RDF>
      <cc:Work
         rdf:about="">
        <dc:format>image/svg+xml</dc:format>
        <dc:type
           rdf:resource="http://purl.org/dc/dcmitype/StillImage" />
        <dc:title />
      </cc:Work>
    </rdf:RDF>
  </metadata>
  <defs
     id="defs18" />
  <sodipodi:namedview
     pagecolor="#505050"
     bordercolor="#eeeeee"
     borderopacity="1"
     objecttolerance="10"
     gridtolerance="10"
     guidetolerance="10"
     inkscape:pageopacity="0"
     inkscape:pageshadow="2"
     inkscape:window-width="2560"
     inkscape:window-height="1410"
     id="namedview16"
     showgrid="false"
     inkscape:zoom="32"
     inkscape:cx="12.793278"
     inkscape:cy="17.679135"
     inkscape:window-x="3640"
     inkscape:window-y="0"
     inkscape:window-maximized="1"
     inkscape:current-layer="svg14" />
  <path
     style="opacity:1;fill:#151551;stroke:#000000;stroke-width:0;paint-order:stroke fill markers;fill-opacity:1"
     d="m 13.983537,19.23061 c -0.06109,-0.03056 -0.139739,-0.105475 -0.174788,-0.166477 -0.03505,-0.061 -1.131193,-1.183618 -2.435876,-2.494703 -1.304683,-1.311086 -2.3891636,-2.417255 -2.4099572,-2.458155 -0.0538,-0.10582 -0.046756,-0.330269 0.014054,-0.447863 0.095729,-0.185121 0.3639412,-0.293658 0.5631231,-0.227879 0.075018,0.02477 0.6864431,0.615947 2.1233641,2.053033 l 2.018008,2.018239 0.01589,-8.270753 0.01589,-8.27075278 0.0697,-0.11122881 c 0.207306,-0.33082683 0.673783,-0.31001294 0.85493,0.0381464 0.03802,0.0730666 0.04465,1.32890359 0.04465,8.45306539 v 8.3672498 l 2.105403,-2.103802 c 2.09852,-2.096924 2.21478,-2.202915 2.414233,-2.200996 0.129771,0.0012 0.338952,0.11881 0.405436,0.227857 0.07636,0.125247 0.08563,0.370066 0.01879,0.496011 -0.07089,0.133563 -5.043348,5.083548 -5.14455,5.121299 -0.135595,0.05058 -0.373951,0.03992 -0.498296,-0.02229 z"
     id="path827"
     inkscape:connector-curvature="0" />
  <path
     style="fill:#151552;stroke-width:0;paint-order:stroke fill markers;opacity:1;stroke:#000000;fill-opacity:0"
     d="M 1.5776751,29.437128 C 1.1737303,29.339354 0.77377831,29.027407 0.59171045,28.668113 0.42551014,28.340133 0.41443571,28.22021 0.41392628,26.742931 0.41346965,25.418728 0.41531292,25.37743 0.48001128,25.262315 0.59078591,25.065218 0.69344143,25.02474 1.1284989,25.006613 l 0.381356,-0.01589 0.01589,-7.643009 C 1.5409696,10.024513 1.5440897,9.6973923 1.6003109,9.5299179 1.8536664,8.7752095 2.4127966,8.2449726 3.2157553,7.9979523 l 0.2326589,-0.071575 3.3168492,-0.0096 c 3.2788196,-0.00949 3.3183776,-0.00886 3.4501876,0.054951 0.250956,0.1214858 0.34952,0.4499495 0.200654,0.6686791 -0.03933,0.057784 -0.111872,0.1349782 -0.16121,0.1715429 -0.08934,0.066209 -0.103274,0.066546 -3.4004241,0.082371 -3.5898737,0.01723 -3.3445138,0.00499 -3.695164,0.1842944 C 2.8327312,9.2456108 2.5820917,9.5907418 2.511082,9.9712258 2.4902509,10.082843 2.4791345,12.728355 2.4791345,17.574202 v 7.431796 l 4.7487331,0.0083 c 4.7370334,0.0082 4.7489534,0.0084 4.8384534,0.07367 0.04935,0.03598 0.121897,0.128392 0.161225,0.205357 0.06109,0.119548 0.0715,0.189888 0.0715,0.482779 v 0.342843 h 1.951857 1.951858 l 0.01054,-0.395042 c 0.01142,-0.428127 0.03363,-0.48971 0.22934,-0.635833 0.08759,-0.0654 0.09689,-0.06554 4.773189,-0.07378 l 4.685433,-0.0083 -0.0082,-7.587083 -0.0082,-7.5870823 -0.0742,-0.183832 C 25.712473,9.4047378 25.442628,9.1144323 25.207248,8.9988336 l -0.180444,-0.088619 -3.336864,-0.01589 c -3.264954,-0.015548 -3.339184,-0.01726 -3.444499,-0.079449 -0.305938,-0.1806592 -0.297092,-0.6535918 0.0156,-0.8342377 l 0.123811,-0.071526 3.368644,0.00797 3.368644,0.00797 0.265431,0.092678 c 0.699933,0.2443898 1.191092,0.7748359 1.426332,1.5404222 0.05112,0.1663725 0.05541,0.6905509 0.06385,7.8111739 l 0.0091,7.632833 0.489931,0.01018 c 0.533591,0.01108 0.578516,0.02516 0.730729,0.228945 0.06343,0.08492 0.06581,0.131017 0.07447,1.442081 0.0059,0.899783 -0.0028,1.411138 -0.02617,1.52353 -0.09138,0.440176 -0.447246,0.887421 -0.863495,1.085224 -0.4441,0.211038 0.597957,0.195713 -13.108939,0.19279 -10.6124744,-0.0023 -12.4463631,-0.0092 -12.6056599,-0.04777 z M 26.735554,28.458509 c 0.19784,-0.05954 0.330163,-0.159806 0.405317,-0.30712 0.05873,-0.115119 0.06284,-0.189777 0.06284,-1.141391 v -1.018216 h -5.002705 -5.002705 l -0.01054,0.389301 c -0.0094,0.347196 -0.01854,0.400524 -0.08455,0.493064 -0.162065,0.227219 0.0135,0.214034 -2.849719,0.214034 -2.516997,0 -2.576548,-0.0014 -2.682059,-0.06356 -0.211455,-0.124551 -0.240475,-0.197937 -0.252207,-0.637797 l -0.01054,-0.395042 H 6.3536612 1.398626 v 1.041995 c 0,1.017799 0.00166,1.045256 0.071504,1.182402 0.050807,0.09976 0.1120463,0.161507 0.2115662,0.213302 l 0.140062,0.0729 H 14.205777 c 10.439279,0 12.406908,-0.0069 12.529777,-0.04387 z"
     id="path829"
     inkscape:connector-curvature="0" />
  <path
     style="opacity:1;fill:#151551;stroke:#000000;stroke-width:0;paint-order:stroke fill markers;fill-opacity:1"
     d="M 4.1318815,23.505173 C 4.0741452,23.465764 4.0004268,23.38369 3.9680628,23.322787 3.9113642,23.21609 3.9092383,22.985568 3.909742,16.998634 l 5.228e-4,-6.21342 0.070981,-0.12381 c 0.03904,-0.0681 0.1208113,-0.150325 0.1817144,-0.182733 0.1055335,-0.05616 0.2489393,-0.05892 3.0540929,-0.05892 h 2.9433599 l 0.104755,0.07151 c 0.154851,0.1057 0.229165,0.261793 0.212944,0.447282 -0.01532,0.17517 -0.09224,0.295149 -0.248062,0.386934 -0.105204,0.06197 -0.173379,0.06378 -2.7217846,0.07239 l -2.6138771,0.0088 v 5.608277 5.608277 l 9.3034967,-0.008 9.303495,-0.008 0.008,-5.601165 0.008,-5.601165 -2.486847,-7.77e-4 c -1.600329,-5e-4 -2.537827,-0.01252 -2.629855,-0.03372 -0.429335,-0.09889 -0.524889,-0.659474 -0.151244,-0.887288 0.101346,-0.06179 0.165873,-0.06315 2.998769,-0.06327 l 2.895194,-1.19e-4 0.105062,0.07151 c 0.05778,0.03933 0.134978,0.11188 0.171542,0.161228 l 0.06648,0.08972 v 6.250318 c 0,6.006405 -0.0023,6.254038 -0.0583,6.345657 -0.03206,0.05244 -0.09642,0.12394 -0.143008,0.158898 -0.08424,0.0632 -0.14049,0.0636 -10.06655,0.07165 l -9.9818388,0.0081 z"
     id="path831"
     inkscape:connector-curvature="0" />
  <path
     style="opacity:0.64147877;fill:#427f11;stroke:#000000;stroke-width:0;paint-order:stroke fill markers;fill-opacity:0"
     d="m 12.423748,17.613015 c -0.89228,-0.905428 -2.035597,-2.064462 -2.5407053,-2.57563 -0.9076214,-0.918511 -0.9183783,-0.931616 -0.9183783,-1.118808 0,-0.235229 0.054367,-0.340515 0.2200862,-0.426211 0.2974682,-0.153827 0.2201059,-0.216994 2.4080404,1.966183 1.120548,1.118113 2.051601,2.032932 2.069006,2.032932 0.0174,0 0.03165,-1.297651 0.03166,-2.88367 1.1e-5,-1.586018 0.01327,-5.3197452 0.02946,-8.2971712 l 0.02944,-5.41350152 0.121818,-0.12181868 c 0.0966,-0.096594 0.162689,-0.12181869 0.319196,-0.12181869 0.279264,0 0.389434,0.10244145 0.431916,0.40161459 0.01868,0.1315605 0.03542,3.9352103 0.03719,8.4525551 l 0.0032,8.2133544 1.999786,-1.977391 c 1.099883,-1.087564 2.096037,-2.054031 2.213677,-2.147704 0.246723,-0.196456 0.355113,-0.209791 0.564021,-0.06939 0.205678,0.138232 0.266251,0.374269 0.150976,0.588322 -0.04536,0.08423 -1.212376,1.276179 -2.593364,2.648769 l -2.510886,2.495617 h -0.221924 -0.221925 z"
     id="path814"
     inkscape:connector-curvature="0" />
  <path
     style="opacity:0.64147877;fill:#427f11;fill-opacity:0;stroke:#000000;stroke-width:0;paint-order:stroke fill markers"
     d="m 12.423748,17.613015 c -0.89228,-0.905428 -2.035597,-2.064462 -2.5407053,-2.57563 -0.9076214,-0.918511 -0.9183783,-0.931616 -0.9183783,-1.118808 0,-0.235229 0.054367,-0.340515 0.2200862,-0.426211 0.2974682,-0.153827 0.2201059,-0.216994 2.4080404,1.966183 1.120548,1.118113 2.051601,2.032932 2.069006,2.032932 0.0174,0 0.03165,-1.297651 0.03166,-2.88367 1.1e-5,-1.586018 0.01327,-5.3197452 0.02946,-8.2971712 l 0.02944,-5.41350152 0.121818,-0.12181868 c 0.0966,-0.096594 0.162689,-0.12181869 0.319196,-0.12181869 0.279264,0 0.389434,0.10244145 0.431916,0.40161459 0.01868,0.1315605 0.03542,3.9352103 0.03719,8.4525551 l 0.0032,8.2133544 1.999786,-1.977391 c 1.099883,-1.087564 2.096037,-2.054031 2.213677,-2.147704 0.246723,-0.196456 0.355113,-0.209791 0.564021,-0.06939 0.205678,0.138232 0.266251,0.374269 0.150976,0.588322 -0.04536,0.08423 -1.212376,1.276179 -2.593364,2.648769 l -2.510886,2.495617 h -0.221924 -0.221925 z"
     id="path816"
     inkscape:connector-curvature="0" />
  <path
     style="opacity:0.64147877;fill:#151552;fill-opacity:0;stroke:#000000;stroke-width:0;paint-order:stroke fill markers"
     d="m 23.510274,18.522777 c 0.0018,-0.235254 0.0049,-1.933301 0.0068,-3.773438 l 0.0034,-3.345703 -1.520983,-2.07e-4 c -1.630012,-2.23e-4 -3.081036,-0.01011 -3.39275,-0.02311 -0.210538,-0.0088 -0.240581,-0.01431 -0.331359,-0.061 -0.07668,-0.03944 -0.162837,-0.127204 -0.200984,-0.204745 -0.09589,-0.194923 -0.06259,-0.407409 0.08702,-0.555256 0.102856,-0.10164 0.138299,-0.111658 0.441853,-0.124896 0.106385,-0.0046 1.27391,-0.0098 2.856567,-0.01264 l 2.676647,-0.0048 0.07663,0.05343 c 0.09817,0.06845 0.166581,0.132435 0.223755,0.209296 l 0.04554,0.06122 v 4.104793 4.104792 h -0.48774 -0.487759 z"
     id="path818"
     inkscape:connector-curvature="0" />
  <path
     style="opacity:0.64147877;fill:#151552;fill-opacity:0;stroke:#000000;stroke-width:0;paint-order:stroke fill markers"
     d="m 1.5219924,20.482123 c 3.677e-4,-1.992557 0.024615,-9.213657 0.033047,-9.84149 0.012252,-0.9123463 0.01825,-1.0176172 0.065801,-1.1548511 C 1.7700804,9.0550663 2.0531683,8.6681305 2.4150005,8.400292 2.6559594,8.2219274 2.9169133,8.0952553 3.2731208,7.9837437 l 0.1657281,-0.051882 2.8505242,-0.00902 c 2.729673,-0.00864 3.7133819,-0.00317 3.8306209,0.021298 0.16384,0.03419 0.299087,0.1713886 0.345821,0.3508112 0.04322,0.1659463 -0.0044,0.3104401 -0.150291,0.4563697 -0.07254,0.07254 -0.100944,0.085911 -0.210776,0.099224 -0.1397413,0.016938 -1.3987935,0.031825 -3.7822292,0.044723 -2.5167778,0.01362 -2.7374327,0.019509 -2.9389126,0.07844 -0.081816,0.02393 -0.2430535,0.1055573 -0.3535534,0.1789869 -0.089667,0.059585 -0.2429255,0.2156101 -0.3111746,0.3167904 -0.1313794,0.1947718 -0.1988263,0.3771787 -0.2144791,0.5800481 -0.01438,0.18637 -0.031441,4.391421 -0.031906,7.863801 l -3.917e-4,2.925102 H 1.997014 1.5219266 l 6.58e-5,-0.356316 z"
     id="path820"
     inkscape:connector-curvature="0" />
  <path
     style="opacity:0.64147877;fill:#151552;fill-opacity:0;stroke:#000000;stroke-width:0;paint-order:stroke fill markers"
     d="m 1.5219924,20.482123 c 3.677e-4,-1.992557 0.024615,-9.213657 0.033047,-9.84149 0.012252,-0.9123463 0.01825,-1.0176172 0.065801,-1.1548511 C 1.7700804,9.0550663 2.0531683,8.6681305 2.4150005,8.400292 2.6559594,8.2219274 2.9169133,8.0952553 3.2731208,7.9837437 l 0.1657281,-0.051882 2.8505242,-0.00902 c 2.729673,-0.00864 3.7133819,-0.00317 3.8306209,0.021298 0.16384,0.03419 0.299087,0.1713886 0.345821,0.3508112 0.04322,0.1659463 -0.0044,0.3104401 -0.150291,0.4563697 -0.07254,0.07254 -0.100944,0.085911 -0.210776,0.099224 -0.1397413,0.016938 -1.3987935,0.031825 -3.7822292,0.044723 -2.5167778,0.01362 -2.7374327,0.019509 -2.9389126,0.07844 -0.081816,0.02393 -0.2430535,0.1055573 -0.3535534,0.1789869 -0.089667,0.059585 -0.2429255,0.2156101 -0.3111746,0.3167904 -0.1313794,0.1947718 -0.1988263,0.3771787 -0.2144791,0.5800481 -0.01438,0.18637 -0.031441,4.391421 -0.031906,7.863801 l -3.917e-4,2.925102 H 1.997014 1.5219266 l 6.58e-5,-0.356316 z"
     id="path822"
     inkscape:connector-curvature="0" />
  <path
     style="opacity:0.64147877;fill:#151552;fill-opacity:0;stroke:#000000;stroke-width:0;paint-order:stroke fill markers"
     d="m 1.5219924,20.482123 c 3.677e-4,-1.992557 0.024615,-9.213657 0.033047,-9.84149 0.012252,-0.9123463 0.01825,-1.0176172 0.065801,-1.1548511 C 1.7700804,9.0550663 2.0531683,8.6681305 2.4150005,8.400292 2.6559594,8.2219274 2.9169133,8.0952553 3.2731208,7.9837437 l 0.1657281,-0.051882 2.8505242,-0.00902 c 2.729673,-0.00864 3.7133819,-0.00317 3.8306209,0.021298 0.16384,0.03419 0.299087,0.1713886 0.345821,0.3508112 0.04322,0.1659463 -0.0044,0.3104401 -0.150291,0.4563697 -0.07254,0.07254 -0.100944,0.085911 -0.210776,0.099224 -0.1397413,0.016938 -1.3987935,0.031825 -3.7822292,0.044723 -2.5167778,0.01362 -2.7374327,0.019509 -2.9389126,0.07844 -0.081816,0.02393 -0.2430535,0.1055573 -0.3535534,0.1789869 -0.089667,0.059585 -0.2429255,0.2156101 -0.3111746,0.3167904 -0.1313794,0.1947718 -0.1988263,0.3771787 -0.2144791,0.5800481 -0.01438,0.18637 -0.031441,4.391421 -0.031906,7.863801 l -3.917e-4,2.925102 H 1.997014 1.5219266 l 6.58e-5,-0.356316 z"
     id="path824"
     inkscape:connector-curvature="0" />
  <path
     style="opacity:0.64147877;fill:#151552;fill-opacity:0;stroke:#000000;stroke-width:0;paint-order:stroke fill markers"
     d="m 1.5219924,20.482123 c 3.677e-4,-1.992557 0.024615,-9.213657 0.033047,-9.84149 0.012252,-0.9123463 0.01825,-1.0176172 0.065801,-1.1548511 C 1.7700804,9.0550663 2.0531683,8.6681305 2.4150005,8.400292 2.6559594,8.2219274 2.9169133,8.0952553 3.2731208,7.9837437 l 0.1657281,-0.051882 2.8505242,-0.00902 c 2.729673,-0.00864 3.7133819,-0.00317 3.8306209,0.021298 0.16384,0.03419 0.299087,0.1713886 0.345821,0.3508112 0.04322,0.1659463 -0.0044,0.3104401 -0.150291,0.4563697 -0.07254,0.07254 -0.100944,0.085911 -0.210776,0.099224 -0.1397413,0.016938 -1.3987935,0.031825 -3.7822292,0.044723 -2.5167778,0.01362 -2.7374327,0.019509 -2.9389126,0.07844 -0.081816,0.02393 -0.2430535,0.1055573 -0.3535534,0.1789869 -0.089667,0.059585 -0.2429255,0.2156101 -0.3111746,0.3167904 -0.1313794,0.1947718 -0.1988263,0.3771787 -0.2144791,0.5800481 -0.01438,0.18637 -0.031441,4.391421 -0.031906,7.863801 l -3.917e-4,2.925102 H 1.997014 1.5219266 l 6.58e-5,-0.356316 z"
     id="path826"
     inkscape:connector-curvature="0" />
  <path
     style="opacity:0.64147877;fill:#151552;fill-opacity:0;stroke:#000000;stroke-width:0;paint-order:stroke fill markers"
     d="m 1.5219924,20.482123 c 3.677e-4,-1.992557 0.024615,-9.213657 0.033047,-9.84149 0.012252,-0.9123463 0.01825,-1.0176172 0.065801,-1.1548511 C 1.7700804,9.0550663 2.0531683,8.6681305 2.4150005,8.400292 2.6559594,8.2219274 2.9169133,8.0952553 3.2731208,7.9837437 l 0.1657281,-0.051882 2.8505242,-0.00902 c 2.729673,-0.00864 3.7133819,-0.00317 3.8306209,0.021298 0.16384,0.03419 0.299087,0.1713886 0.345821,0.3508112 0.04322,0.1659463 -0.0044,0.3104401 -0.150291,0.4563697 -0.07254,0.07254 -0.100944,0.085911 -0.210776,0.099224 -0.1397413,0.016938 -1.3987935,0.031825 -3.7822292,0.044723 -2.5167778,0.01362 -2.7374327,0.019509 -2.9389126,0.07844 -0.081816,0.02393 -0.2430535,0.1055573 -0.3535534,0.1789869 -0.089667,0.059585 -0.2429255,0.2156101 -0.3111746,0.3167904 -0.1313794,0.1947718 -0.1988263,0.3771787 -0.2144791,0.5800481 -0.01438,0.18637 -0.031441,4.391421 -0.031906,7.863801 l -3.917e-4,2.925102 H 1.997014 1.5219266 l 6.58e-5,-0.356316 z"
     id="path828"
     inkscape:connector-curvature="0" />
  <path
     style="opacity:0.64147877;fill:#151552;fill-opacity:0;stroke:#000000;stroke-width:0;paint-order:stroke fill markers"
     d="m 1.5219924,20.482123 c 3.677e-4,-1.992557 0.024615,-9.213657 0.033047,-9.84149 0.012252,-0.9123463 0.01825,-1.0176172 0.065801,-1.1548511 C 1.7700804,9.0550663 2.0531683,8.6681305 2.4150005,8.400292 2.6559594,8.2219274 2.9169133,8.0952553 3.2731208,7.9837437 l 0.1657281,-0.051882 2.8505242,-0.00902 c 2.729673,-0.00864 3.7133819,-0.00317 3.8306209,0.021298 0.16384,0.03419 0.299087,0.1713886 0.345821,0.3508112 0.04322,0.1659463 -0.0044,0.3104401 -0.150291,0.4563697 -0.07254,0.07254 -0.100944,0.085911 -0.210776,0.099224 -0.1397413,0.016938 -1.3987935,0.031825 -3.7822292,0.044723 -2.5167778,0.01362 -2.7374327,0.019509 -2.9389126,0.07844 -0.081816,0.02393 -0.2430535,0.1055573 -0.3535534,0.1789869 -0.089667,0.059585 -0.2429255,0.2156101 -0.3111746,0.3167904 -0.1313794,0.1947718 -0.1988263,0.3771787 -0.2144791,0.5800481 -0.01438,0.18637 -0.031441,4.391421 -0.031906,7.863801 l -3.917e-4,2.925102 H 1.997014 1.5219266 l 6.58e-5,-0.356316 z"
     id="path830"
     inkscape:connector-curvature="0" />
  <path
     style="opacity:0.64147877;fill:#151552;fill-opacity:0;stroke:#000000;stroke-width:0;paint-order:stroke fill markers"
     d="m 1.5219924,20.482123 c 3.677e-4,-1.992557 0.024615,-9.213657 0.033047,-9.84149 0.012252,-0.9123463 0.01825,-1.0176172 0.065801,-1.1548511 C 1.7700804,9.0550663 2.0531683,8.6681305 2.4150005,8.400292 2.6559594,8.2219274 2.9169133,8.0952553 3.2731208,7.9837437 l 0.1657281,-0.051882 2.8505242,-0.00902 c 2.729673,-0.00864 3.7133819,-0.00317 3.8306209,0.021298 0.16384,0.03419 0.299087,0.1713886 0.345821,0.3508112 0.04322,0.1659463 -0.0044,0.3104401 -0.150291,0.4563697 -0.07254,0.07254 -0.100944,0.085911 -0.210776,0.099224 -0.1397413,0.016938 -1.3987935,0.031825 -3.7822292,0.044723 -2.5167778,0.01362 -2.7374327,0.019509 -2.9389126,0.07844 -0.081816,0.02393 -0.2430535,0.1055573 -0.3535534,0.1789869 -0.089667,0.059585 -0.2429255,0.2156101 -0.3111746,0.3167904 -0.1313794,0.1947718 -0.1988263,0.3771787 -0.2144791,0.5800481 -0.01438,0.18637 -0.031441,4.391421 -0.031906,7.863801 l -3.917e-4,2.925102 H 1.997014 1.5219266 l 6.58e-5,-0.356316 z"
     id="path832"
     inkscape:connector-curvature="0" />
  <path
     style="opacity:0.64147877;fill:#151552;fill-opacity:0;stroke:#000000;stroke-width:0;paint-order:stroke fill markers"
     d="m 1.5219924,20.482123 c 3.677e-4,-1.992557 0.024615,-9.213657 0.033047,-9.84149 0.012252,-0.9123463 0.01825,-1.0176172 0.065801,-1.1548511 C 1.7700804,9.0550663 2.0531683,8.6681305 2.4150005,8.400292 2.6559594,8.2219274 2.9169133,8.0952553 3.2731208,7.9837437 l 0.1657281,-0.051882 2.8505242,-0.00902 c 2.729673,-0.00864 3.7133819,-0.00317 3.8306209,0.021298 0.16384,0.03419 0.299087,0.1713886 0.345821,0.3508112 0.04322,0.1659463 -0.0044,0.3104401 -0.150291,0.4563697 -0.07254,0.07254 -0.100944,0.085911 -0.210776,0.099224 -0.1397413,0.016938 -1.3987935,0.031825 -3.7822292,0.044723 -2.5167778,0.01362 -2.7374327,0.019509 -2.9389126,0.07844 -0.081816,0.02393 -0.2430535,0.1055573 -0.3535534,0.1789869 -0.089667,0.059585 -0.2429255,0.2156101 -0.3111746,0.3167904 -0.1313794,0.1947718 -0.1988263,0.3771787 -0.2144791,0.5800481 -0.01438,0.18637 -0.031441,4.391421 -0.031906,7.863801 l -3.917e-4,2.925102 H 1.997014 1.5219266 l 6.58e-5,-0.356316 z"
     id="path834"
     inkscape:connector-curvature="0" />
  <path
     style="opacity:1;fill:#151552;fill-opacity:0;stroke:#000000;stroke-width:0;paint-order:stroke fill markers"
     d="m 1.5219924,20.482123 c 3.677e-4,-1.992557 0.024615,-9.213657 0.033047,-9.84149 0.012252,-0.9123463 0.01825,-1.0176172 0.065801,-1.1548511 C 1.7700804,9.0550663 2.0531683,8.6681305 2.4150005,8.400292 2.6559594,8.2219274 2.9169133,8.0952553 3.2731208,7.9837437 l 0.1657281,-0.051882 2.8505242,-0.00902 c 2.729673,-0.00864 3.7133819,-0.00317 3.8306209,0.021298 0.16384,0.03419 0.299087,0.1713886 0.345821,0.3508112 0.04322,0.1659463 -0.0044,0.3104401 -0.150291,0.4563697 -0.07254,0.07254 -0.100944,0.085911 -0.210776,0.099224 -0.1397413,0.016938 -1.3987935,0.031825 -3.7822292,0.044723 -2.5167778,0.01362 -2.7374327,0.019509 -2.9389126,0.07844 -0.081816,0.02393 -0.2430535,0.1055573 -0.3535534,0.1789869 -0.089667,0.059585 -0.2429255,0.2156101 -0.3111746,0.3167904 -0.1313794,0.1947718 -0.1988263,0.3771787 -0.2144791,0.5800481 -0.01438,0.18637 -0.031441,4.391421 -0.031906,7.863801 l -3.917e-4,2.925102 H 1.997014 1.5219266 l 6.58e-5,-0.356316 z"
     id="path836"
     inkscape:connector-curvature="0" />
  <path
     style="opacity:1;fill:#151552;fill-opacity:0;stroke:#000000;stroke-width:0;paint-order:stroke fill markers"
     d="m 1.5219924,20.482123 c 3.677e-4,-1.992557 0.024615,-9.213657 0.033047,-9.84149 0.012252,-0.9123463 0.01825,-1.0176172 0.065801,-1.1548511 C 1.7700804,9.0550663 2.0531683,8.6681305 2.4150005,8.400292 2.6559594,8.2219274 2.9169133,8.0952553 3.2731208,7.9837437 l 0.1657281,-0.051882 2.8505242,-0.00902 c 2.729673,-0.00864 3.7133819,-0.00317 3.8306209,0.021298 0.16384,0.03419 0.299087,0.1713886 0.345821,0.3508112 0.04322,0.1659463 -0.0044,0.3104401 -0.150291,0.4563697 -0.07254,0.07254 -0.100944,0.085911 -0.210776,0.099224 -0.1397413,0.016938 -1.3987935,0.031825 -3.7822292,0.044723 -2.5167778,0.01362 -2.7374327,0.019509 -2.9389126,0.07844 -0.081816,0.02393 -0.2430535,0.1055573 -0.3535534,0.1789869 -0.089667,0.059585 -0.2429255,0.2156101 -0.3111746,0.3167904 -0.1313794,0.1947718 -0.1988263,0.3771787 -0.2144791,0.5800481 -0.01438,0.18637 -0.031441,4.391421 -0.031906,7.863801 l -3.917e-4,2.925102 H 1.997014 1.5219266 l 6.58e-5,-0.356316 z"
     id="path838"
     inkscape:connector-curvature="0" />
  <path
     style="opacity:1;fill:#151552;fill-opacity:0;stroke:#000000;stroke-width:0;paint-order:stroke fill markers"
     d="m 1.5219924,20.482123 c 3.677e-4,-1.992557 0.024615,-9.213657 0.033047,-9.84149 0.012252,-0.9123463 0.01825,-1.0176172 0.065801,-1.1548511 C 1.7700804,9.0550663 2.0531683,8.6681305 2.4150005,8.400292 2.6559594,8.2219274 2.9169133,8.0952553 3.2731208,7.9837437 l 0.1657281,-0.051882 2.8505242,-0.00902 c 2.729673,-0.00864 3.7133819,-0.00317 3.8306209,0.021298 0.16384,0.03419 0.299087,0.1713886 0.345821,0.3508112 0.04322,0.1659463 -0.0044,0.3104401 -0.150291,0.4563697 -0.07254,0.07254 -0.100944,0.085911 -0.210776,0.099224 -0.1397413,0.016938 -1.3987935,0.031825 -3.7822292,0.044723 -2.5167778,0.01362 -2.7374327,0.019509 -2.9389126,0.07844 -0.081816,0.02393 -0.2430535,0.1055573 -0.3535534,0.1789869 -0.089667,0.059585 -0.2429255,0.2156101 -0.3111746,0.3167904 -0.1313794,0.1947718 -0.1988263,0.3771787 -0.2144791,0.5800481 -0.01438,0.18637 -0.031441,4.391421 -0.031906,7.863801 l -3.917e-4,2.925102 H 1.997014 1.5219266 l 6.58e-5,-0.356316 z"
     id="path840"
     inkscape:connector-curvature="0" />
  <path
     style="opacity:1;fill:#151552;fill-opacity:0;stroke:#000000;stroke-width:0;paint-order:stroke fill markers"
     d="m 1.5219924,20.482123 c 3.677e-4,-1.992557 0.024615,-9.213657 0.033047,-9.84149 0.012252,-0.9123463 0.01825,-1.0176172 0.065801,-1.1548511 C 1.7700804,9.0550663 2.0531683,8.6681305 2.4150005,8.400292 2.6559594,8.2219274 2.9169133,8.0952553 3.2731208,7.9837437 l 0.1657281,-0.051882 2.8505242,-0.00902 c 2.729673,-0.00864 3.7133819,-0.00317 3.8306209,0.021298 0.16384,0.03419 0.299087,0.1713886 0.345821,0.3508112 0.04322,0.1659463 -0.0044,0.3104401 -0.150291,0.4563697 -0.07254,0.07254 -0.100944,0.085911 -0.210776,0.099224 -0.1397413,0.016938 -1.3987935,0.031825 -3.7822292,0.044723 -2.5167778,0.01362 -2.7374327,0.019509 -2.9389126,0.07844 -0.081816,0.02393 -0.2430535,0.1055573 -0.3535534,0.1789869 -0.089667,0.059585 -0.2429255,0.2156101 -0.3111746,0.3167904 -0.1313794,0.1947718 -0.1988263,0.3771787 -0.2144791,0.5800481 -0.01438,0.18637 -0.031441,4.391421 -0.031906,7.863801 l -3.917e-4,2.925102 H 1.997014 1.5219266 l 6.58e-5,-0.356316 z"
     id="path842"
     inkscape:connector-curvature="0" />
  <path
     style="opacity:1;fill:#151552;fill-opacity:0;stroke:#000000;stroke-width:0;paint-order:stroke fill markers"
     d="m 1.5219924,20.482123 c 3.677e-4,-1.992557 0.024615,-9.213657 0.033047,-9.84149 0.012252,-0.9123463 0.01825,-1.0176172 0.065801,-1.1548511 C 1.7700804,9.0550663 2.0531683,8.6681305 2.4150005,8.400292 2.6559594,8.2219274 2.9169133,8.0952553 3.2731208,7.9837437 l 0.1657281,-0.051882 2.8505242,-0.00902 c 2.729673,-0.00864 3.7133819,-0.00317 3.8306209,0.021298 0.16384,0.03419 0.299087,0.1713886 0.345821,0.3508112 0.04322,0.1659463 -0.0044,0.3104401 -0.150291,0.4563697 -0.07254,0.07254 -0.100944,0.085911 -0.210776,0.099224 -0.1397413,0.016938 -1.3987935,0.031825 -3.7822292,0.044723 -2.5167778,0.01362 -2.7374327,0.019509 -2.9389126,0.07844 -0.081816,0.02393 -0.2430535,0.1055573 -0.3535534,0.1789869 -0.089667,0.059585 -0.2429255,0.2156101 -0.3111746,0.3167904 -0.1313794,0.1947718 -0.1988263,0.3771787 -0.2144791,0.5800481 -0.01438,0.18637 -0.031441,4.391421 -0.031906,7.863801 l -3.917e-4,2.925102 H 1.997014 1.5219266 l 6.58e-5,-0.356316 z"
     id="path844"
     inkscape:connector-curvature="0" />
  <path
     style="opacity:1;fill:#151552;fill-opacity:0;stroke:#000000;stroke-width:0;paint-order:stroke fill markers"
     d="M 14.033341,19.241033 C 13.988873,19.224243 13.850382,19.095598 13.671224,18.904661 13.511663,18.73461 12.439294,17.640884 11.288182,16.474158 10.137069,15.307431 9.1390963,14.290776 9.0704638,14.214922 L 8.9456774,14.077008 v -0.155582 c 0,-0.08557 0.013434,-0.187734 0.029854,-0.227032 0.055623,-0.133124 0.2275506,-0.248223 0.3899905,-0.261085 0.1437822,-0.01138 0.1786024,0.0043 0.3589374,0.162112 0.1003427,0.08779 1.0284247,1.002607 2.0624037,2.032932 1.033979,1.030326 1.885136,1.873319 1.891458,1.873319 0.0063,0 0.0188,-3.720427 0.02772,-8.2676157 l 0.01623,-8.26761579 0.05189,-0.0822055 c 0.114515,-0.18140323 0.312077,-0.28068249 0.499052,-0.25078403 0.123953,0.0198209 0.283237,0.13272212 0.338828,0.24016311 l 0.04573,0.0883884 0.0063,8.36927171 c 0.0035,4.6030998 0.01251,8.3692718 0.02011,8.3692718 0.0076,0 0.854955,-0.837969 1.883012,-1.862154 1.028057,-1.024185 1.988519,-1.96913 2.13436,-2.099878 0.296702,-0.265997 0.415176,-0.336722 0.532231,-0.317726 0.109002,0.01769 0.270113,0.103086 0.331003,0.17545 0.09615,0.114272 0.127368,0.345201 0.06639,0.491147 -0.0193,0.04619 -0.369112,0.417922 -0.898683,0.954989 -1.008965,1.023249 -3.92067,3.909606 -4.127623,4.091691 l -0.141306,0.124325 -0.179102,0.0049 c -0.100717,0.0028 -0.210616,-0.007 -0.251108,-0.02227 z"
     id="path849"
     inkscape:connector-curvature="0" />
  <path
     style="opacity:1;fill:#151552;fill-opacity:0;stroke:#000000;stroke-width:0;paint-order:stroke fill markers"
     d="M 14.033341,19.241033 C 13.988873,19.224243 13.850382,19.095598 13.671224,18.904661 13.511663,18.73461 12.439294,17.640884 11.288182,16.474158 10.137069,15.307431 9.1390963,14.290776 9.0704638,14.214922 L 8.9456774,14.077008 v -0.155582 c 0,-0.08557 0.013434,-0.187734 0.029854,-0.227032 0.055623,-0.133124 0.2275506,-0.248223 0.3899905,-0.261085 0.1437822,-0.01138 0.1786024,0.0043 0.3589374,0.162112 0.1003427,0.08779 1.0284247,1.002607 2.0624037,2.032932 1.033979,1.030326 1.885136,1.873319 1.891458,1.873319 0.0063,0 0.0188,-3.720427 0.02772,-8.2676157 l 0.01623,-8.26761579 0.05189,-0.0822055 c 0.114515,-0.18140323 0.312077,-0.28068249 0.499052,-0.25078403 0.123953,0.0198209 0.283237,0.13272212 0.338828,0.24016311 l 0.04573,0.0883884 0.0063,8.36927171 c 0.0035,4.6030998 0.01251,8.3692718 0.02011,8.3692718 0.0076,0 0.854955,-0.837969 1.883012,-1.862154 1.028057,-1.024185 1.988519,-1.96913 2.13436,-2.099878 0.296702,-0.265997 0.415176,-0.336722 0.532231,-0.317726 0.109002,0.01769 0.270113,0.103086 0.331003,0.17545 0.09615,0.114272 0.127368,0.345201 0.06639,0.491147 -0.0193,0.04619 -0.369112,0.417922 -0.898683,0.954989 -1.008965,1.023249 -3.92067,3.909606 -4.127623,4.091691 l -0.141306,0.124325 -0.179102,0.0049 c -0.100717,0.0028 -0.210616,-0.007 -0.251108,-0.02227 z"
     id="path851"
     inkscape:connector-curvature="0" />
  <path
     style="opacity:1;fill:#151552;fill-opacity:0;stroke:#000000;stroke-width:0;paint-order:stroke fill markers"
     d="m 4.14177,23.501151 c -0.1327459,-0.101927 -0.1756094,-0.173969 -0.1943546,-0.32666 -0.00928,-0.07562 -0.023478,-2.888423 -0.031541,-6.250664 l -0.014661,-6.113165 0.050875,-0.08507 c 0.068251,-0.114121 0.1513011,-0.202756 0.2316666,-0.247244 0.060683,-0.03359 0.3163749,-0.03724 3.02243,-0.04312 l 2.956139,-0.0064 0.0991,0.07117 c 0.29028,0.208464 0.271548,0.643011 -0.0351,0.814261 l -0.09845,0.05498 -1.7456705,0.01471 c -0.9601185,0.0081 -2.1409315,0.01567 -2.6240291,0.01683 l -0.8783592,0.0021 v 5.615324 5.615324 l 9.3016718,-0.0088 c 5.115919,-0.0049 9.305876,-0.01351 9.311016,-0.01924 0.0051,-0.0057 0.01636,-2.527135 0.02492,-5.603134 l 0.01558,-5.592725 -2.515169,-0.01369 c -1.68459,-0.0092 -2.548005,-0.0216 -2.614605,-0.03764 -0.146132,-0.0352 -0.255376,-0.12046 -0.319677,-0.249494 -0.117516,-0.235824 -0.03386,-0.501997 0.198143,-0.630427 0.06066,-0.03358 0.312644,-0.03724 2.968537,-0.04307 l 2.902246,-0.0064 0.108782,0.08296 c 0.05983,0.04563 0.133506,0.118636 0.163725,0.162241 l 0.05494,0.07928 -0.0017,5.788249 c -9.52e-4,3.183538 -0.0088,6.008289 -0.01743,6.277226 -0.01569,0.488801 -0.01572,0.489005 -0.0765,0.568703 -0.03345,0.04385 -0.08278,0.09161 -0.109631,0.106128 -0.0933,0.05046 -1.701291,0.06037 -10.887285,0.06713 l -9.1590869,0.0067 z"
     id="path853"
     inkscape:connector-curvature="0" />
  <path
     style="opacity:1;fill:#151552;fill-opacity:0;stroke:#000000;stroke-width:0;paint-order:stroke fill markers"
     d="m 4.14177,23.501151 c -0.1327459,-0.101927 -0.1756094,-0.173969 -0.1943546,-0.32666 -0.00928,-0.07562 -0.023478,-2.888423 -0.031541,-6.250664 l -0.014661,-6.113165 0.050875,-0.08507 c 0.068251,-0.114121 0.1513011,-0.202756 0.2316666,-0.247244 0.060683,-0.03359 0.3163749,-0.03724 3.02243,-0.04312 l 2.956139,-0.0064 0.0991,0.07117 c 0.29028,0.208464 0.271548,0.643011 -0.0351,0.814261 l -0.09845,0.05498 -1.7456705,0.01471 c -0.9601185,0.0081 -2.1409315,0.01567 -2.6240291,0.01683 l -0.8783592,0.0021 v 5.615324 5.615324 l 9.3016718,-0.0088 c 5.115919,-0.0049 9.305876,-0.01351 9.311016,-0.01924 0.0051,-0.0057 0.01636,-2.527135 0.02492,-5.603134 l 0.01558,-5.592725 -2.515169,-0.01369 c -1.68459,-0.0092 -2.548005,-0.0216 -2.614605,-0.03764 -0.146132,-0.0352 -0.255376,-0.12046 -0.319677,-0.249494 -0.117516,-0.235824 -0.03386,-0.501997 0.198143,-0.630427 0.06066,-0.03358 0.312644,-0.03724 2.968537,-0.04307 l 2.902246,-0.0064 0.108782,0.08296 c 0.05983,0.04563 0.133506,0.118636 0.163725,0.162241 l 0.05494,0.07928 -0.0017,5.788249 c -9.52e-4,3.183538 -0.0088,6.008289 -0.01743,6.277226 -0.01569,0.488801 -0.01572,0.489005 -0.0765,0.568703 -0.03345,0.04385 -0.08278,0.09161 -0.109631,0.106128 -0.0933,0.05046 -1.701291,0.06037 -10.887285,0.06713 l -9.1590869,0.0067 z"
     id="path855"
     inkscape:connector-curvature="0" />
  <path
     style="opacity:1;fill:#151552;fill-opacity:0;stroke:#000000;stroke-width:0;paint-order:stroke fill markers"
     d="m 4.14177,23.501151 c -0.1327459,-0.101927 -0.1756094,-0.173969 -0.1943546,-0.32666 -0.00928,-0.07562 -0.023478,-2.888423 -0.031541,-6.250664 l -0.014661,-6.113165 0.050875,-0.08507 c 0.068251,-0.114121 0.1513011,-0.202756 0.2316666,-0.247244 0.060683,-0.03359 0.3163749,-0.03724 3.02243,-0.04312 l 2.956139,-0.0064 0.0991,0.07117 c 0.29028,0.208464 0.271548,0.643011 -0.0351,0.814261 l -0.09845,0.05498 -1.7456705,0.01471 c -0.9601185,0.0081 -2.1409315,0.01567 -2.6240291,0.01683 l -0.8783592,0.0021 v 5.615324 5.615324 l 9.3016718,-0.0088 c 5.115919,-0.0049 9.305876,-0.01351 9.311016,-0.01924 0.0051,-0.0057 0.01636,-2.527135 0.02492,-5.603134 l 0.01558,-5.592725 -2.515169,-0.01369 c -1.68459,-0.0092 -2.548005,-0.0216 -2.614605,-0.03764 -0.146132,-0.0352 -0.255376,-0.12046 -0.319677,-0.249494 -0.117516,-0.235824 -0.03386,-0.501997 0.198143,-0.630427 0.06066,-0.03358 0.312644,-0.03724 2.968537,-0.04307 l 2.902246,-0.0064 0.108782,0.08296 c 0.05983,0.04563 0.133506,0.118636 0.163725,0.162241 l 0.05494,0.07928 -0.0017,5.788249 c -9.52e-4,3.183538 -0.0088,6.008289 -0.01743,6.277226 -0.01569,0.488801 -0.01572,0.489005 -0.0765,0.568703 -0.03345,0.04385 -0.08278,0.09161 -0.109631,0.106128 -0.0933,0.05046 -1.701291,0.06037 -10.887285,0.06713 l -9.1590869,0.0067 z"
     id="path857"
     inkscape:connector-curvature="0" />
  <path
     style="opacity:1;fill:#151552;fill-opacity:0;stroke:#000000;stroke-width:0;paint-order:stroke fill markers"
     d="m 4.14177,23.501151 c -0.1327459,-0.101927 -0.1756094,-0.173969 -0.1943546,-0.32666 -0.00928,-0.07562 -0.023478,-2.888423 -0.031541,-6.250664 l -0.014661,-6.113165 0.050875,-0.08507 c 0.068251,-0.114121 0.1513011,-0.202756 0.2316666,-0.247244 0.060683,-0.03359 0.3163749,-0.03724 3.02243,-0.04312 l 2.956139,-0.0064 0.0991,0.07117 c 0.29028,0.208464 0.271548,0.643011 -0.0351,0.814261 l -0.09845,0.05498 -1.7456705,0.01471 c -0.9601185,0.0081 -2.1409315,0.01567 -2.6240291,0.01683 l -0.8783592,0.0021 v 5.615324 5.615324 l 9.3016718,-0.0088 c 5.115919,-0.0049 9.305876,-0.01351 9.311016,-0.01924 0.0051,-0.0057 0.01636,-2.527135 0.02492,-5.603134 l 0.01558,-5.592725 -2.515169,-0.01369 c -1.68459,-0.0092 -2.548005,-0.0216 -2.614605,-0.03764 -0.146132,-0.0352 -0.255376,-0.12046 -0.319677,-0.249494 -0.117516,-0.235824 -0.03386,-0.501997 0.198143,-0.630427 0.06066,-0.03358 0.312644,-0.03724 2.968537,-0.04307 l 2.902246,-0.0064 0.108782,0.08296 c 0.05983,0.04563 0.133506,0.118636 0.163725,0.162241 l 0.05494,0.07928 -0.0017,5.788249 c -9.52e-4,3.183538 -0.0088,6.008289 -0.01743,6.277226 -0.01569,0.488801 -0.01572,0.489005 -0.0765,0.568703 -0.03345,0.04385 -0.08278,0.09161 -0.109631,0.106128 -0.0933,0.05046 -1.701291,0.06037 -10.887285,0.06713 l -9.1590869,0.0067 z"
     id="path859"
     inkscape:connector-curvature="0" />
  <path
     style="opacity:1;fill:#151552;fill-opacity:0;stroke:#000000;stroke-width:0;paint-order:stroke fill markers"
     d="m 4.14177,23.501151 c -0.1327459,-0.101927 -0.1756094,-0.173969 -0.1943546,-0.32666 -0.00928,-0.07562 -0.023478,-2.888423 -0.031541,-6.250664 l -0.014661,-6.113165 0.050875,-0.08507 c 0.068251,-0.114121 0.1513011,-0.202756 0.2316666,-0.247244 0.060683,-0.03359 0.3163749,-0.03724 3.02243,-0.04312 l 2.956139,-0.0064 0.0991,0.07117 c 0.29028,0.208464 0.271548,0.643011 -0.0351,0.814261 l -0.09845,0.05498 -1.7456705,0.01471 c -0.9601185,0.0081 -2.1409315,0.01567 -2.6240291,0.01683 l -0.8783592,0.0021 v 5.615324 5.615324 l 9.3016718,-0.0088 c 5.115919,-0.0049 9.305876,-0.01351 9.311016,-0.01924 0.0051,-0.0057 0.01636,-2.527135 0.02492,-5.603134 l 0.01558,-5.592725 -2.515169,-0.01369 c -1.68459,-0.0092 -2.548005,-0.0216 -2.614605,-0.03764 -0.146132,-0.0352 -0.255376,-0.12046 -0.319677,-0.249494 -0.117516,-0.235824 -0.03386,-0.501997 0.198143,-0.630427 0.06066,-0.03358 0.312644,-0.03724 2.968537,-0.04307 l 2.902246,-0.0064 0.108782,0.08296 c 0.05983,0.04563 0.133506,0.118636 0.163725,0.162241 l 0.05494,0.07928 -0.0017,5.788249 c -9.52e-4,3.183538 -0.0088,6.008289 -0.01743,6.277226 -0.01569,0.488801 -0.01572,0.489005 -0.0765,0.568703 -0.03345,0.04385 -0.08278,0.09161 -0.109631,0.106128 -0.0933,0.05046 -1.701291,0.06037 -10.887285,0.06713 l -9.1590869,0.0067 z"
     id="path861"
     inkscape:connector-curvature="0" />
  <path
     style="opacity:1;fill:#151552;fill-opacity:0;stroke:#000000;stroke-width:0;paint-order:stroke fill markers"
     d="m 4.14177,23.501151 c -0.1327459,-0.101927 -0.1756094,-0.173969 -0.1943546,-0.32666 -0.00928,-0.07562 -0.023478,-2.888423 -0.031541,-6.250664 l -0.014661,-6.113165 0.050875,-0.08507 c 0.068251,-0.114121 0.1513011,-0.202756 0.2316666,-0.247244 0.060683,-0.03359 0.3163749,-0.03724 3.02243,-0.04312 l 2.956139,-0.0064 0.0991,0.07117 c 0.29028,0.208464 0.271548,0.643011 -0.0351,0.814261 l -0.09845,0.05498 -1.7456705,0.01471 c -0.9601185,0.0081 -2.1409315,0.01567 -2.6240291,0.01683 l -0.8783592,0.0021 v 5.615324 5.615324 l 9.3016718,-0.0088 c 5.115919,-0.0049 9.305876,-0.01351 9.311016,-0.01924 0.0051,-0.0057 0.01636,-2.527135 0.02492,-5.603134 l 0.01558,-5.592725 -2.515169,-0.01369 c -1.68459,-0.0092 -2.548005,-0.0216 -2.614605,-0.03764 -0.146132,-0.0352 -0.255376,-0.12046 -0.319677,-0.249494 -0.117516,-0.235824 -0.03386,-0.501997 0.198143,-0.630427 0.06066,-0.03358 0.312644,-0.03724 2.968537,-0.04307 l 2.902246,-0.0064 0.108782,0.08296 c 0.05983,0.04563 0.133506,0.118636 0.163725,0.162241 l 0.05494,0.07928 -0.0017,5.788249 c -9.52e-4,3.183538 -0.0088,6.008289 -0.01743,6.277226 -0.01569,0.488801 -0.01572,0.489005 -0.0765,0.568703 -0.03345,0.04385 -0.08278,0.09161 -0.109631,0.106128 -0.0933,0.05046 -1.701291,0.06037 -10.887285,0.06713 l -9.1590869,0.0067 z"
     id="path863"
     inkscape:connector-curvature="0" />
  <path
     style="opacity:1;fill:#151552;fill-opacity:0;stroke:#000000;stroke-width:0;paint-order:stroke fill markers"
     d="m 4.14177,23.501151 c -0.1327459,-0.101927 -0.1756094,-0.173969 -0.1943546,-0.32666 -0.00928,-0.07562 -0.023478,-2.888423 -0.031541,-6.250664 l -0.014661,-6.113165 0.050875,-0.08507 c 0.068251,-0.114121 0.1513011,-0.202756 0.2316666,-0.247244 0.060683,-0.03359 0.3163749,-0.03724 3.02243,-0.04312 l 2.956139,-0.0064 0.0991,0.07117 c 0.29028,0.208464 0.271548,0.643011 -0.0351,0.814261 l -0.09845,0.05498 -1.7456705,0.01471 c -0.9601185,0.0081 -2.1409315,0.01567 -2.6240291,0.01683 l -0.8783592,0.0021 v 5.615324 5.615324 l 9.3016718,-0.0088 c 5.115919,-0.0049 9.305876,-0.01351 9.311016,-0.01924 0.0051,-0.0057 0.01636,-2.527135 0.02492,-5.603134 l 0.01558,-5.592725 -2.515169,-0.01369 c -1.68459,-0.0092 -2.548005,-0.0216 -2.614605,-0.03764 -0.146132,-0.0352 -0.255376,-0.12046 -0.319677,-0.249494 -0.117516,-0.235824 -0.03386,-0.501997 0.198143,-0.630427 0.06066,-0.03358 0.312644,-0.03724 2.968537,-0.04307 l 2.902246,-0.0064 0.108782,0.08296 c 0.05983,0.04563 0.133506,0.118636 0.163725,0.162241 l 0.05494,0.07928 -0.0017,5.788249 c -9.52e-4,3.183538 -0.0088,6.008289 -0.01743,6.277226 -0.01569,0.488801 -0.01572,0.489005 -0.0765,0.568703 -0.03345,0.04385 -0.08278,0.09161 -0.109631,0.106128 -0.0933,0.05046 -1.701291,0.06037 -10.887285,0.06713 l -9.1590869,0.0067 z"
     id="path865"
     inkscape:connector-curvature="0" />
  <path
     style="opacity:1;fill:#151552;fill-opacity:0;stroke:#000000;stroke-width:0;paint-order:stroke fill markers"
     d="m 4.14177,23.501151 c -0.1327459,-0.101927 -0.1756094,-0.173969 -0.1943546,-0.32666 -0.00928,-0.07562 -0.023478,-2.888423 -0.031541,-6.250664 l -0.014661,-6.113165 0.050875,-0.08507 c 0.068251,-0.114121 0.1513011,-0.202756 0.2316666,-0.247244 0.060683,-0.03359 0.3163749,-0.03724 3.02243,-0.04312 l 2.956139,-0.0064 0.0991,0.07117 c 0.29028,0.208464 0.271548,0.643011 -0.0351,0.814261 l -0.09845,0.05498 -1.7456705,0.01471 c -0.9601185,0.0081 -2.1409315,0.01567 -2.6240291,0.01683 l -0.8783592,0.0021 v 5.615324 5.615324 l 9.3016718,-0.0088 c 5.115919,-0.0049 9.305876,-0.01351 9.311016,-0.01924 0.0051,-0.0057 0.01636,-2.527135 0.02492,-5.603134 l 0.01558,-5.592725 -2.515169,-0.01369 c -1.68459,-0.0092 -2.548005,-0.0216 -2.614605,-0.03764 -0.146132,-0.0352 -0.255376,-0.12046 -0.319677,-0.249494 -0.117516,-0.235824 -0.03386,-0.501997 0.198143,-0.630427 0.06066,-0.03358 0.312644,-0.03724 2.968537,-0.04307 l 2.902246,-0.0064 0.108782,0.08296 c 0.05983,0.04563 0.133506,0.118636 0.163725,0.162241 l 0.05494,0.07928 -0.0017,5.788249 c -9.52e-4,3.183538 -0.0088,6.008289 -0.01743,6.277226 -0.01569,0.488801 -0.01572,0.489005 -0.0765,0.568703 -0.03345,0.04385 -0.08278,0.09161 -0.109631,0.106128 -0.0933,0.05046 -1.701291,0.06037 -10.887285,0.06713 l -9.1590869,0.0067 z"
     id="path867"
     inkscape:connector-curvature="0" />
  <path
     style="opacity:1;fill:#151552;fill-opacity:0;stroke:#000000;stroke-width:0;paint-order:stroke fill markers"
     d="m 4.14177,23.501151 c -0.1327459,-0.101927 -0.1756094,-0.173969 -0.1943546,-0.32666 -0.00928,-0.07562 -0.023478,-2.888423 -0.031541,-6.250664 l -0.014661,-6.113165 0.050875,-0.08507 c 0.068251,-0.114121 0.1513011,-0.202756 0.2316666,-0.247244 0.060683,-0.03359 0.3163749,-0.03724 3.02243,-0.04312 l 2.956139,-0.0064 0.0991,0.07117 c 0.29028,0.208464 0.271548,0.643011 -0.0351,0.814261 l -0.09845,0.05498 -1.7456705,0.01471 c -0.9601185,0.0081 -2.1409315,0.01567 -2.6240291,0.01683 l -0.8783592,0.0021 v 5.615324 5.615324 l 9.3016718,-0.0088 c 5.115919,-0.0049 9.305876,-0.01351 9.311016,-0.01924 0.0051,-0.0057 0.01636,-2.527135 0.02492,-5.603134 l 0.01558,-5.592725 -2.515169,-0.01369 c -1.68459,-0.0092 -2.548005,-0.0216 -2.614605,-0.03764 -0.146132,-0.0352 -0.255376,-0.12046 -0.319677,-0.249494 -0.117516,-0.235824 -0.03386,-0.501997 0.198143,-0.630427 0.06066,-0.03358 0.312644,-0.03724 2.968537,-0.04307 l 2.902246,-0.0064 0.108782,0.08296 c 0.05983,0.04563 0.133506,0.118636 0.163725,0.162241 l 0.05494,0.07928 -0.0017,5.788249 c -9.52e-4,3.183538 -0.0088,6.008289 -0.01743,6.277226 -0.01569,0.488801 -0.01572,0.489005 -0.0765,0.568703 -0.03345,0.04385 -0.08278,0.09161 -0.109631,0.106128 -0.0933,0.05046 -1.701291,0.06037 -10.887285,0.06713 l -9.1590869,0.0067 z"
     id="path869"
     inkscape:connector-curvature="0" />
  <path
     style="opacity:1;fill:#151552;fill-opacity:0;stroke:#000000;stroke-width:0;paint-order:stroke fill markers"
     d="m 4.14177,23.501151 c -0.1327459,-0.101927 -0.1756094,-0.173969 -0.1943546,-0.32666 -0.00928,-0.07562 -0.023478,-2.888423 -0.031541,-6.250664 l -0.014661,-6.113165 0.050875,-0.08507 c 0.068251,-0.114121 0.1513011,-0.202756 0.2316666,-0.247244 0.060683,-0.03359 0.3163749,-0.03724 3.02243,-0.04312 l 2.956139,-0.0064 0.0991,0.07117 c 0.29028,0.208464 0.271548,0.643011 -0.0351,0.814261 l -0.09845,0.05498 -1.7456705,0.01471 c -0.9601185,0.0081 -2.1409315,0.01567 -2.6240291,0.01683 l -0.8783592,0.0021 v 5.615324 5.615324 l 9.3016718,-0.0088 c 5.115919,-0.0049 9.305876,-0.01351 9.311016,-0.01924 0.0051,-0.0057 0.01636,-2.527135 0.02492,-5.603134 l 0.01558,-5.592725 -2.515169,-0.01369 c -1.68459,-0.0092 -2.548005,-0.0216 -2.614605,-0.03764 -0.146132,-0.0352 -0.255376,-0.12046 -0.319677,-0.249494 -0.117516,-0.235824 -0.03386,-0.501997 0.198143,-0.630427 0.06066,-0.03358 0.312644,-0.03724 2.968537,-0.04307 l 2.902246,-0.0064 0.108782,0.08296 c 0.05983,0.04563 0.133506,0.118636 0.163725,0.162241 l 0.05494,0.07928 -0.0017,5.788249 c -9.52e-4,3.183538 -0.0088,6.008289 -0.01743,6.277226 -0.01569,0.488801 -0.01572,0.489005 -0.0765,0.568703 -0.03345,0.04385 -0.08278,0.09161 -0.109631,0.106128 -0.0933,0.05046 -1.701291,0.06037 -10.887285,0.06713 l -9.1590869,0.0067 z"
     id="path871"
     inkscape:connector-curvature="0" />
</svg>
