<svg xmlns="http://www.w3.org/2000/svg" width="130" height="40.2" viewBox="0 0 130 40.2"><defs><style>.a{fill:#109fff;fill-rule:evenodd;}</style></defs><polygon class="a" points="129.8 5.7 123.3 5.7 118.5 12.8 113.6 5.7 107.2 5.7 115.3 17.5 107 29.5 113.4 29.5 118.5 22.1 123.6 29.5 130 29.5 121.7 17.5 129.8 5.7"/><path class="a" d="M82.6,26.8A2.8,2.8,0,1,1,79.8,24h0a2.9,2.9,0,0,1,2.8,2.8h0"/><path class="a" d="M96.4,24.8a7.5,7.5,0,0,1-2.6-.5,7.1,7.1,0,0,1-5-6.7,7.2,7.2,0,0,1,5-6.7,7.5,7.5,0,0,1,2.6-.4,7.9,7.9,0,0,1,6.2,3l3.9-2.3A12.6,12.6,0,0,0,96,5.7c-6.8,0-12.4,5.4-12.4,11.9A12.2,12.2,0,0,0,96,29.5,12.6,12.6,0,0,0,106.5,24l-3.9-2.3a7.7,7.7,0,0,1-6.2,3.1"/><path class="a" d="M70.5,22.4a12.9,12.9,0,0,1-.4-4.4h0v-.4h0V11.1h4V6.7H70V5.3C70-.4,65.8,0,64.9,0V17.6h0v3.5A11.2,11.2,0,0,0,71,31l3.2-4.3a8.2,8.2,0,0,1-3.7-4.3"/><path class="a" d="M41.9,17.4a6.7,6.7,0,0,1,6.6-6.8h.4a7.9,7.9,0,0,1,4.2,1.2L42,18.3c0-.3-.1-.6-.1-.9m7,7.3a7.8,7.8,0,0,1-5-1.9L56,15.7h0l4.3-2.5A12.5,12.5,0,0,0,48.9,5.8,12.2,12.2,0,0,0,36.6,17.6a11.3,11.3,0,0,0,.6,3.6,11,11,0,0,0,2.4,4.2,12.7,12.7,0,0,0,9.3,4.1A12.3,12.3,0,0,0,61.2,18.9H56.1a7.2,7.2,0,0,1-7.2,5.8"/><path class="a" d="M32.8,6.7H32a4.1,4.1,0,0,0-4.4,3.8V26.6c0,2.1.2,3.8-.4,5.2A8,8,0,0,1,23.5,36l3.2,4.2a11.3,11.3,0,0,0,6-9.7Z"/><path class="a" d="M22.2,17.9c0,8.8-5.8,11.7-11.2,11.7S0,26.3,0,17.9V10.8A4.1,4.1,0,0,1,4.1,6.7H5.4V17.9s-.5,6.6,5.6,6.6,5.9-6.6,5.9-6.6V10.8A4.1,4.1,0,0,1,21,6.7h1.2Z"/></svg>