<?xml version="1.0" encoding="utf-8"?>
<svg version="1.1" id="Layer_1" xmlns="http://www.w3.org/2000/svg" xmlns:xlink="http://www.w3.org/1999/xlink" x="0px" y="0px"
	 width="17px" height="17px" viewBox="0 0 25 25" style="enable-background:new 0 0 17 17;" xml:space="preserve">
<style type="text/css">
	.st0{fill-rule:evenodd;clip-rule:evenodd;fill:#B7B7B7;}
</style>
<path class="st0" d="M12.5,0C5.6,0,0,5.6,0,12.5c0,0,0,0,0,0C0,19.4,5.6,25,12.5,25l0,0C19.4,25,25,19.4,25,12.5l0,0
	C25,5.6,19.4,0,12.5,0C12.5,0,12.5,0,12.5,0z M12.5,3.9c0.6,0,1.1,0.2,1.6,0.6c0.4,0.4,0.6,0.9,0.6,1.5c0,0.6-0.2,1.1-0.6,1.5
	c-0.4,0.4-0.9,0.7-1.6,0.7S11.4,8,11,7.5c-0.4-0.4-0.7-0.9-0.7-1.5s0.2-1.1,0.7-1.5C11.4,4.1,11.9,3.9,12.5,3.9z M10.6,10.2h3.9
	v10.9h-3.9V10.2z"/>
</svg>
