<?xml version="1.0" encoding="utf-8"?>
<svg version="1.1" id="Layer_1" xmlns="http://www.w3.org/2000/svg" xmlns:xlink="http://www.w3.org/1999/xlink" x="0px" y="0px"
	 width="130px" height="40.2px" viewBox="0 0 130 40.2" style="enable-background:new 0 0 130 40.2;" xml:space="preserve">
<style type="text/css">
	.st0{fill-rule:evenodd;clip-rule:evenodd;fill:#109FFF;}
</style>
<polygon class="st0" points="121.7,17.5 129.8,5.7 123.3,5.7 118.5,12.8 113.6,5.7 107.2,5.7 115.3,17.5 107,29.5 113.4,29.5 
	118.5,22.1 123.6,29.5 130,29.5 "/>
<path class="st0" d="M79.8,24c-1.5,0-2.8,1.3-2.8,2.8c0,1.5,1.3,2.8,2.8,2.8s2.8-1.3,2.8-2.8h0C82.5,25.3,81.3,24.1,79.8,24z"/>
<path class="st0" d="M93.8,10.9c0.8-0.3,1.7-0.4,2.6-0.4c2.4,0,4.7,1.1,6.2,3l3.9-2.3c-2.4-3.5-6.3-5.5-10.5-5.5
	c-6.8,0-12.4,5.4-12.4,11.9c0.2,6.7,5.7,12,12.4,11.9c4.2,0,8.1-2,10.5-5.5l-3.9-2.3c-1.5,2-3.8,3.1-6.2,3.1c-0.9,0-1.8-0.2-2.6-0.5
	c-2.9-0.9-5-3.6-5-6.7C88.9,14.5,90.9,11.8,93.8,10.9z"/>
<path class="st0" d="M70.5,22.4C70.1,21,70,19.5,70.1,18v-0.4v-6.5h4V6.7H70V5.3C70-0.4,65.8,0,64.9,0v17.6v3.5c0,4.2,2.4,8,6.1,9.9
	l3.2-4.3C72.5,25.8,71.2,24.2,70.5,22.4z"/>
<path class="st0" d="M48.9,24.7c-1.8,0-3.6-0.7-5-1.9L56,15.7l4.3-2.5c-2-4.5-6.5-7.4-11.4-7.4C42.3,5.7,36.8,11,36.6,17.6
	c0,1.2,0.2,2.4,0.6,3.6c0.5,1.6,1.3,3,2.4,4.2c2.4,2.6,5.8,4.1,9.3,4.1c6.2,0.1,11.4-4.5,12.3-10.6h-5.1
	C55.4,22.3,52.4,24.8,48.9,24.7z M41.9,17.4c-0.1-3.7,2.9-6.7,6.6-6.8c0,0,0,0,0,0h0.4c1.5,0,2.9,0.4,4.2,1.2L42,18.3
	C42,18,41.9,17.7,41.9,17.4z"/>
<path class="st0" d="M27.6,10.5C27.6,10.5,27.6,10.5,27.6,10.5l0,16.1c0,2.1,0.2,3.8-0.4,5.2c-0.7,1.8-2,3.3-3.7,4.2l3.2,4.2
	c3.6-1.9,5.9-5.6,6-9.7l0.1-23.8H32C29.7,6.5,27.8,8.2,27.6,10.5z"/>
<path class="st0" d="M16.9,10.8v7.1c0,0,0.2,6.6-5.9,6.6s-5.6-6.6-5.6-6.6V6.7H4.1C1.8,6.7,0,8.5,0,10.8v7.1c0,8.4,5.6,11.7,11,11.7
	s11.2-2.9,11.2-11.7V6.7H21C18.7,6.7,16.9,8.5,16.9,10.8z"/>
</svg>
